{"header":{"PPQ":960,"bpm":132.000132000132,"timeSignature":[4,4],"name":""},"startTime":2.7272700000000003,"duration":69.4317487499999,"tracks":[{"startTime":36.363600000000005,"duration":64.77266250000004,"length":17,"notes":[{"name":"F3","midi":53,"time":36.363600000000005,"velocity":0.7874015748031497,"duration":0.4545450000000031},{"name":"F3","midi":53,"time":39.99996000000001,"velocity":0.7874015748031497,"duration":0.4545450000000031},{"name":"F3","midi":53,"time":42.499957500000015,"velocity":0.7874015748031497,"duration":0.4545450000000031},{"name":"F3","midi":53,"time":46.13631750000002,"velocity":0.7874015748031497,"duration":0.4545450000000031},{"name":"F3","midi":53,"time":47.27268000000002,"velocity":0.7874015748031497,"duration":0.4545450000000031},{"name":"F3","midi":53,"time":48.40904250000003,"velocity":0.7874015748031497,"duration":0.4545450000000031},{"name":"F3","midi":53,"time":49.77267750000003,"velocity":0.7874015748031497,"duration":0.4545450000000031},{"name":"F3","midi":53,"time":54.54540000000003,"velocity":0.7874015748031497,"duration":0.4545450000000031},{"name":"F3","midi":53,"time":55.22721750000003,"velocity":0.7874015748031497,"duration":0.4545450000000031},{"name":"F3","midi":53,"time":55.68176250000003,"velocity":0.7874015748031497,"duration":0.227272499999998},{"name":"F3","midi":53,"time":55.90903500000003,"velocity":0.7874015748031497,"duration":0.4545450000000031},{"name":"F3","midi":53,"time":58.18176000000003,"velocity":0.7874015748031497,"duration":0.4545450000000031},{"name":"F3","midi":53,"time":60.68175750000004,"velocity":0.7874015748031497,"duration":0.4545450000000031},{"name":"F3","midi":53,"time":61.81812000000004,"velocity":0.7874015748031497,"duration":0.07717795312500186},{"name":"F3","midi":53,"time":61.908555515625046,"velocity":0.7874015748031497,"duration":0.227272499999998},{"name":"F3","midi":53,"time":62.272665000000046,"velocity":0.7874015748031497,"duration":0.227272499999998},{"name":"F3","midi":53,"time":64.31811750000004,"velocity":0.7874015748031497,"duration":0.454544999999996}],"controlChanges":{},"id":0,"name":"BD","channelNumber":0,"isPercussion":false},{"startTime":37.272690000000004,"duration":64.99993500000005,"length":15,"notes":[{"name":"F3","midi":53,"time":37.272690000000004,"velocity":0.7874015748031497,"duration":0.3977268749999965},{"name":"F3","midi":53,"time":39.09087,"velocity":0.7874015748031497,"duration":0.4545450000000031},{"name":"F3","midi":53,"time":40.90905000000001,"velocity":0.7874015748031497,"duration":0.3977268750000036},{"name":"F3","midi":53,"time":42.72723000000001,"velocity":0.7874015748031497,"duration":0.4545450000000031},{"name":"F3","midi":53,"time":44.54541000000002,"velocity":0.7874015748031497,"duration":0.3977268750000036},{"name":"F3","midi":53,"time":46.36359000000002,"velocity":0.7874015748031497,"duration":0.4545450000000031},{"name":"F3","midi":53,"time":48.18177000000003,"velocity":0.7874015748031497,"duration":0.3977268750000036},{"name":"F3","midi":53,"time":49.999950000000034,"velocity":0.7874015748031497,"duration":0.4545450000000031},{"name":"F3","midi":53,"time":51.81813000000004,"velocity":0.7874015748031497,"duration":0.3977268750000036},{"name":"F3","midi":53,"time":53.636310000000044,"velocity":0.7874015748031497,"duration":0.4545450000000031},{"name":"F3","midi":53,"time":57.27267000000005,"velocity":0.7874015748031497,"duration":0.4545450000000031},{"name":"F3","midi":53,"time":59.09085000000005,"velocity":0.7874015748031497,"duration":0.3977268749999965},{"name":"F3","midi":53,"time":60.90903000000005,"velocity":0.7874015748031497,"duration":0.4545450000000031},{"name":"F3","midi":53,"time":62.727210000000056,"velocity":0.7874015748031497,"duration":0.3977268750000036},{"name":"F3","midi":53,"time":64.54539000000005,"velocity":0.7874015748031497,"duration":0.454544999999996}],"controlChanges":{},"id":1,"name":"SD","channelNumber":0,"isPercussion":false},{"startTime":36.363600000000005,"duration":65.22720749999993,"length":40,"notes":[{"name":"C6","midi":84,"time":36.363600000000005,"velocity":0.7874015748031497,"duration":0.9090899999999991},{"name":"C6","midi":84,"time":38.4090525,"velocity":0.7874015748031497,"duration":0.227272499999998},{"name":"C6","midi":84,"time":38.636325,"velocity":0.7874015748031497,"duration":0.227272499999998},{"name":"C6","midi":84,"time":38.8635975,"velocity":0.7874015748031497,"duration":0.227272499999998},{"name":"B5","midi":83,"time":40.454505,"velocity":0.7874015748031497,"duration":0.227272499999998},{"name":"B5","midi":83,"time":41.93177625,"velocity":0.7874015748031497,"duration":0.5681812500000021},{"name":"B5","midi":83,"time":43.63632,"velocity":0.7874015748031497,"duration":0.4545450000000031},{"name":"B5","midi":83,"time":44.999955,"velocity":0.7874015748031497,"duration":0.4545450000000031},{"name":"B5","midi":83,"time":45.6817725,"velocity":0.7874015748031497,"duration":0.227272499999998},{"name":"B5","midi":83,"time":45.909045,"velocity":0.7874015748031497,"duration":0.227272499999998},{"name":"B5","midi":83,"time":47.045407499999996,"velocity":0.7874015748031497,"duration":0.227272499999998},{"name":"B5","midi":83,"time":47.272679999999994,"velocity":0.7874015748031497,"duration":0.227272499999998},{"name":"B5","midi":83,"time":47.72722499999999,"velocity":0.7874015748031497,"duration":0.227272499999998},{"name":"B5","midi":83,"time":48.181769999999986,"velocity":0.7874015748031497,"duration":0.227272499999998},{"name":"B5","midi":83,"time":48.63631499999998,"velocity":0.7874015748031497,"duration":0.4545450000000031},{"name":"B5","midi":83,"time":49.54540499999999,"velocity":0.7874015748031497,"duration":0.227272499999998},{"name":"B5","midi":83,"time":50.90903999999998,"velocity":0.7874015748031497,"duration":0.227272499999998},{"name":"B5","midi":83,"time":51.36358499999998,"velocity":0.7874015748031497,"duration":0.227272499999998},{"name":"B5","midi":83,"time":52.95449249999998,"velocity":0.7874015748031497,"duration":0.227272499999998},{"name":"B5","midi":83,"time":53.18176499999998,"velocity":0.7874015748031497,"duration":0.227272499999998},{"name":"B5","midi":83,"time":53.522673749999974,"velocity":0.7874015748031497,"duration":0.113636249999999},{"name":"B5","midi":83,"time":53.63630999999997,"velocity":0.7874015748031497,"duration":0.113636249999999},{"name":"B5","midi":83,"time":55.22721749999997,"velocity":0.7874015748031497,"duration":0.227272499999998},{"name":"B5","midi":83,"time":55.68176249999997,"velocity":0.7874015748031497,"duration":0.227272499999998},{"name":"B5","midi":83,"time":55.90903499999997,"velocity":0.7874015748031497,"duration":0.227272499999998},{"name":"B5","midi":83,"time":56.36357999999996,"velocity":0.7874015748031497,"duration":0.113636249999999},{"name":"B5","midi":83,"time":56.59085249999996,"velocity":0.7874015748031497,"duration":0.113636249999999},{"name":"B5","midi":83,"time":56.93176124999996,"velocity":0.7874015748031497,"duration":0.113636249999999},{"name":"B5","midi":83,"time":57.272669999999955,"velocity":0.7874015748031497,"duration":1.5909075000000001},{"name":"B5","midi":83,"time":59.54539499999996,"velocity":0.7874015748031497,"duration":0.227272499999998},{"name":"B5","midi":83,"time":60.22721249999996,"velocity":0.7874015748031497,"duration":0.227272499999998},{"name":"B5","midi":83,"time":60.454484999999956,"velocity":0.7874015748031497,"duration":0.227272499999998},{"name":"B5","midi":83,"time":61.93175624999996,"velocity":0.7874015748031497,"duration":0.227272499999998},{"name":"B5","midi":83,"time":62.272664999999954,"velocity":0.7874015748031497,"duration":0.227272499999998},{"name":"B5","midi":83,"time":62.72720999999995,"velocity":0.7874015748031497,"duration":0.227272499999998},{"name":"B5","midi":83,"time":63.181754999999946,"velocity":0.7874015748031497,"duration":0.227272499999998},{"name":"B5","midi":83,"time":63.63629999999994,"velocity":0.7874015748031497,"duration":0.227272499999998},{"name":"B5","midi":83,"time":64.09084499999994,"velocity":0.7874015748031497,"duration":0.227272499999998},{"name":"B5","midi":83,"time":64.54538999999994,"velocity":0.7874015748031497,"duration":0.227272499999998},{"name":"B5","midi":83,"time":64.99993499999994,"velocity":0.7874015748031497,"duration":0.227272499999998}],"controlChanges":{},"id":2,"name":"BASS HITS","channelNumber":0,"isPercussion":false},{"startTime":42.727230000000006,"duration":55.42087260937501,"length":2,"notes":[{"name":"B3","midi":59,"time":42.727230000000006,"velocity":0.7874015748031497,"duration":0.1936551093750012},{"name":"B3","midi":59,"time":55.22721750000001,"velocity":0.7874015748031497,"duration":0.1936551093750012}],"controlChanges":{},"id":3,"name":"Orch Hit","channelNumber":0,"isPercussion":false},{"startTime":37.272690000000004,"duration":61.81811999999999,"length":53,"notes":[{"name":"F3","midi":53,"time":37.272690000000004,"velocity":0.7874015748031497,"duration":0.19838995312500174},{"name":"F3","midi":53,"time":37.49996250000001,"velocity":0.7874015748031497,"duration":0.113636249999999},{"name":"F3","midi":53,"time":37.61359875000001,"velocity":0.7874015748031497,"duration":0.113636249999999},{"name":"F3","midi":53,"time":37.72723500000001,"velocity":0.7874015748031497,"duration":0.113636249999999},{"name":"F3","midi":53,"time":37.954507500000005,"velocity":0.7874015748031497,"duration":0.113636249999999},{"name":"F3","midi":53,"time":38.068143750000004,"velocity":0.7874015748031497,"duration":0.113636249999999},{"name":"F3","midi":53,"time":39.09087,"velocity":0.7874015748031497,"duration":0.19838995312500174},{"name":"F3","midi":53,"time":39.31814250000001,"velocity":0.7874015748031497,"duration":0.113636249999999},{"name":"F3","midi":53,"time":39.43177875000001,"velocity":0.7874015748031497,"duration":0.113636249999999},{"name":"F3","midi":53,"time":39.545415000000006,"velocity":0.7874015748031497,"duration":0.113636249999999},{"name":"F3","midi":53,"time":39.7726875,"velocity":0.7874015748031497,"duration":0.113636249999999},{"name":"F3","midi":53,"time":39.88632375,"velocity":0.7874015748031497,"duration":0.113636249999999},{"name":"F3","midi":53,"time":40.90905,"velocity":0.7874015748031497,"duration":0.19838995312500174},{"name":"F3","midi":53,"time":41.136322500000006,"velocity":0.7874015748031497,"duration":0.113636249999999},{"name":"F3","midi":53,"time":41.363595000000004,"velocity":0.7874015748031497,"duration":0.113636249999999},{"name":"F3","midi":53,"time":41.70450375,"velocity":0.7874015748031497,"duration":0.113636249999999},{"name":"F3","midi":53,"time":44.54541,"velocity":0.7874015748031497,"duration":0.19838995312500174},{"name":"F3","midi":53,"time":44.7726825,"velocity":0.7874015748031497,"duration":0.113636249999999},{"name":"F3","midi":53,"time":44.88631875,"velocity":0.7874015748031497,"duration":0.113636249999999},{"name":"F3","midi":53,"time":44.999955,"velocity":0.7874015748031497,"duration":0.113636249999999},{"name":"F3","midi":53,"time":45.2272275,"velocity":0.7874015748031497,"duration":0.113636249999999},{"name":"F3","midi":53,"time":45.34086375,"velocity":0.7874015748031497,"duration":0.113636249999999},{"name":"F3","midi":53,"time":46.02268125,"velocity":0.7874015748031497,"duration":0.19838995312500174},{"name":"F3","midi":53,"time":46.36359,"velocity":0.7874015748031497,"duration":0.19838995312500174},{"name":"F3","midi":53,"time":46.59086250000001,"velocity":0.7874015748031497,"duration":0.113636249999999},{"name":"F3","midi":53,"time":46.704498750000006,"velocity":0.7874015748031497,"duration":0.113636249999999},{"name":"F3","midi":53,"time":46.818135000000005,"velocity":0.7874015748031497,"duration":0.113636249999999},{"name":"F3","midi":53,"time":47.0454075,"velocity":0.7874015748031497,"duration":0.113636249999999},{"name":"F3","midi":53,"time":47.15904375,"velocity":0.7874015748031497,"duration":0.113636249999999},{"name":"F3","midi":53,"time":51.818130000000004,"velocity":0.7874015748031497,"duration":0.19838995312500174},{"name":"F3","midi":53,"time":52.04540250000001,"velocity":0.7874015748031497,"duration":0.113636249999999},{"name":"F3","midi":53,"time":52.15903875000001,"velocity":0.7874015748031497,"duration":0.113636249999999},{"name":"F3","midi":53,"time":52.27267500000001,"velocity":0.7874015748031497,"duration":0.113636249999999},{"name":"F3","midi":53,"time":52.499947500000005,"velocity":0.7874015748031497,"duration":0.113636249999999},{"name":"F3","midi":53,"time":52.613583750000004,"velocity":0.7874015748031497,"duration":0.113636249999999},{"name":"F3","midi":53,"time":53.74994625,"velocity":0.7874015748031497,"duration":0.113636249999999},{"name":"F3","midi":53,"time":53.8635825,"velocity":0.7874015748031497,"duration":0.113636249999999},{"name":"F3","midi":53,"time":54.090855,"velocity":0.7874015748031497,"duration":0.113636249999999},{"name":"F3","midi":53,"time":54.431763749999995,"velocity":0.7874015748031497,"duration":0.113636249999999},{"name":"F3","midi":53,"time":59.090849999999996,"velocity":0.7874015748031497,"duration":0.113636249999999},{"name":"F3","midi":53,"time":59.204486249999995,"velocity":0.7874015748031497,"duration":0.113636249999999},{"name":"F3","midi":53,"time":59.318122499999994,"velocity":0.7874015748031497,"duration":0.113636249999999},{"name":"F3","midi":53,"time":59.43175874999999,"velocity":0.7874015748031497,"duration":0.113636249999999},{"name":"F3","midi":53,"time":59.54539499999999,"velocity":0.7874015748031497,"duration":0.113636249999999},{"name":"F3","midi":53,"time":59.77266749999999,"velocity":0.7874015748031497,"duration":0.113636249999999},{"name":"F3","midi":53,"time":59.88630374999999,"velocity":0.7874015748031497,"duration":0.113636249999999},{"name":"F3","midi":53,"time":60.56812124999999,"velocity":0.7874015748031497,"duration":0.19838995312500174},{"name":"F3","midi":53,"time":60.909029999999994,"velocity":0.7874015748031497,"duration":0.19838995312500174},{"name":"F3","midi":53,"time":61.1363025,"velocity":0.7874015748031497,"duration":0.113636249999999},{"name":"F3","midi":53,"time":61.24993875,"velocity":0.7874015748031497,"duration":0.113636249999999},{"name":"F3","midi":53,"time":61.363575,"velocity":0.7874015748031497,"duration":0.113636249999999},{"name":"F3","midi":53,"time":61.590847499999995,"velocity":0.7874015748031497,"duration":0.113636249999999},{"name":"F3","midi":53,"time":61.704483749999994,"velocity":0.7874015748031497,"duration":0.113636249999999}],"controlChanges":{},"id":4,"name":"303 HITS","channelNumber":0,"isPercussion":false},{"startTime":36.1363275,"duration":69.4317487499999,"length":79,"notes":[{"name":"C6","midi":84,"time":36.1363275,"velocity":0.7874015748031497,"duration":0.227272499999998},{"name":"C6","midi":84,"time":37.0454175,"velocity":0.7874015748031497,"duration":0.227272499999998},{"name":"C6","midi":84,"time":38.636325,"velocity":0.7874015748031497,"duration":0.4545450000000031},{"name":"C6","midi":84,"time":42.272685,"velocity":0.7874015748031497,"duration":0.227272499999998},{"name":"C6","midi":84,"time":42.4999575,"velocity":0.7874015748031497,"duration":0.227272499999998},{"name":"C6","midi":84,"time":42.84086625,"velocity":0.7874015748031497,"duration":0.113636249999999},{"name":"C6","midi":84,"time":43.63632,"velocity":0.7874015748031497,"duration":0.113636249999999},{"name":"C6","midi":84,"time":43.74995625,"velocity":0.7874015748031497,"duration":0.113636249999999},{"name":"C6","midi":84,"time":43.863592499999996,"velocity":0.7874015748031497,"duration":0.113636249999999},{"name":"C6","midi":84,"time":44.090864999999994,"velocity":0.7874015748031497,"duration":0.113636249999999},{"name":"C6","midi":84,"time":44.31813749999999,"velocity":0.7874015748031497,"duration":0.113636249999999},{"name":"C6","midi":84,"time":44.54540999999999,"velocity":0.7874015748031497,"duration":0.227272499999998},{"name":"C6","midi":84,"time":44.999954999999986,"velocity":0.7874015748031497,"duration":0.113636249999999},{"name":"C6","midi":84,"time":45.113591249999985,"velocity":0.7874015748031497,"duration":0.113636249999999},{"name":"C6","midi":84,"time":45.227227499999984,"velocity":0.7874015748031497,"duration":0.227272499999998},{"name":"C6","midi":84,"time":45.45449999999998,"velocity":0.7874015748031497,"duration":0.113636249999999},{"name":"C6","midi":84,"time":45.68177249999998,"velocity":0.7874015748031497,"duration":0.113636249999999},{"name":"C6","midi":84,"time":45.79540874999998,"velocity":0.7874015748031497,"duration":0.113636249999999},{"name":"C6","midi":84,"time":46.136317499999976,"velocity":0.7874015748031497,"duration":0.227272499999998},{"name":"C6","midi":84,"time":46.59086249999997,"velocity":0.7874015748031497,"duration":0.113636249999999},{"name":"C6","midi":84,"time":46.70449874999997,"velocity":0.7874015748031497,"duration":0.113636249999999},{"name":"C6","midi":84,"time":46.81813499999997,"velocity":0.7874015748031497,"duration":0.113636249999999},{"name":"C6","midi":84,"time":46.93177124999997,"velocity":0.7874015748031497,"duration":0.113636249999999},{"name":"C6","midi":84,"time":47.04540749999997,"velocity":0.7874015748031497,"duration":0.227272499999998},{"name":"C6","midi":84,"time":47.272679999999966,"velocity":0.7874015748031497,"duration":0.7954537500000001},{"name":"C6","midi":84,"time":49.090859999999964,"velocity":0.7874015748031497,"duration":0.07623098437500175},{"name":"C6","midi":84,"time":49.26226134374996,"velocity":0.7874015748031497,"duration":0.07623098437500175},{"name":"C6","midi":84,"time":49.338492328124964,"velocity":0.7874015748031497,"duration":0.07623098437500175},{"name":"C6","midi":84,"time":49.49521565624997,"velocity":0.7874015748031497,"duration":0.07623098437500175},{"name":"C6","midi":84,"time":51.36358499999997,"velocity":0.7874015748031497,"duration":0.227272499999998},{"name":"C6","midi":84,"time":51.86973979687497,"velocity":0.7874015748031497,"duration":0.1756627031249991},{"name":"C6","midi":84,"time":52.272674999999964,"velocity":0.7874015748031497,"duration":0.113636249999999},{"name":"C6","midi":84,"time":52.38631124999996,"velocity":0.7874015748031497,"duration":0.113636249999999},{"name":"C6","midi":84,"time":52.49994749999996,"velocity":0.7874015748031497,"duration":0.113636249999999},{"name":"C6","midi":84,"time":52.72721999999996,"velocity":0.7874015748031497,"duration":0.113636249999999},{"name":"C6","midi":84,"time":52.95449249999996,"velocity":0.7874015748031497,"duration":0.113636249999999},{"name":"C6","midi":84,"time":53.06812874999996,"velocity":0.7874015748031497,"duration":0.113636249999999},{"name":"C6","midi":84,"time":53.409037499999954,"velocity":0.7874015748031497,"duration":0.113636249999999},{"name":"C6","midi":84,"time":53.86358249999995,"velocity":0.7874015748031497,"duration":0.113636249999999},{"name":"C6","midi":84,"time":53.97721874999995,"velocity":0.7874015748031497,"duration":0.113636249999999},{"name":"C6","midi":84,"time":54.09085499999995,"velocity":0.7874015748031497,"duration":0.113636249999999},{"name":"C6","midi":84,"time":54.20449124999995,"velocity":0.7874015748031497,"duration":0.113636249999999},{"name":"C6","midi":84,"time":54.318127499999946,"velocity":0.7874015748031497,"duration":0.227272499999998},{"name":"C6","midi":84,"time":55.56812624999994,"velocity":0.7874015748031497,"duration":0.0714961406250012},{"name":"C6","midi":84,"time":55.68176249999994,"velocity":0.7874015748031497,"duration":0.0714961406250012},{"name":"C6","midi":84,"time":55.75325864062494,"velocity":0.7874015748031497,"duration":0.04214010937499779},{"name":"C6","midi":84,"time":55.79539874999994,"velocity":0.7874015748031497,"duration":0.113636249999999},{"name":"C6","midi":84,"time":56.81812499999994,"velocity":0.7874015748031497,"duration":0.06676129687500065},{"name":"C6","midi":84,"time":57.38630624999994,"velocity":0.7874015748031497,"duration":0.113636249999999},{"name":"C6","midi":84,"time":62.72720999999994,"velocity":0.7874015748031497,"duration":0.227272499999998},{"name":"C6","midi":84,"time":63.18175499999994,"velocity":0.7874015748031497,"duration":0.227272499999998},{"name":"C6","midi":84,"time":63.40902749999994,"velocity":0.7874015748031497,"duration":0.227272499999998},{"name":"C6","midi":84,"time":64.09084499999993,"velocity":0.7874015748031497,"duration":0.227272499999998},{"name":"C6","midi":84,"time":64.60220812499993,"velocity":0.7874015748031497,"duration":0.113636249999999},{"name":"C6","midi":84,"time":64.77266249999994,"velocity":0.7874015748031497,"duration":0.113636249999999},{"name":"C6","midi":84,"time":64.97152593749993,"velocity":0.7874015748031497,"duration":0.3693178125000003},{"name":"C6","midi":84,"time":65.45447999999993,"velocity":0.7874015748031497,"duration":0.0852271874999957},{"name":"C6","midi":84,"time":65.56811624999993,"velocity":0.7874015748031497,"duration":0.0852271874999957},{"name":"C6","midi":84,"time":65.68175249999993,"velocity":0.7874015748031497,"duration":0.0852271874999957},{"name":"C6","midi":84,"time":65.90902499999993,"velocity":0.7874015748031497,"duration":0.0852271874999957},{"name":"C6","midi":84,"time":66.13629749999993,"velocity":0.7874015748031497,"duration":0.0852271874999957},{"name":"C6","midi":84,"time":66.36356999999992,"velocity":0.7874015748031497,"duration":0.0852271874999957},{"name":"C6","midi":84,"time":66.59084249999992,"velocity":0.7874015748031497,"duration":0.0852271874999957},{"name":"C6","midi":84,"time":66.70447874999992,"velocity":0.7874015748031497,"duration":0.0852271874999957},{"name":"C6","midi":84,"time":66.81811499999992,"velocity":0.7874015748031497,"duration":0.0852271874999957},{"name":"C6","midi":84,"time":67.04538749999992,"velocity":0.7874015748031497,"duration":0.0852271874999957},{"name":"C6","midi":84,"time":67.27265999999992,"velocity":0.7874015748031497,"duration":0.0852271874999957},{"name":"C6","midi":84,"time":67.38629624999992,"velocity":0.7874015748031497,"duration":0.0852271874999957},{"name":"C6","midi":84,"time":67.49993249999991,"velocity":0.7874015748031497,"duration":0.0852271874999957},{"name":"C6","midi":84,"time":67.61356874999991,"velocity":0.7874015748031497,"duration":0.0852271874999957},{"name":"C6","midi":84,"time":67.72720499999991,"velocity":0.7874015748031497,"duration":0.0852271874999957},{"name":"C6","midi":84,"time":67.84084124999991,"velocity":0.7874015748031497,"duration":0.0852271874999957},{"name":"C6","midi":84,"time":67.95447749999991,"velocity":0.7874015748031497,"duration":0.0852271874999957},{"name":"C6","midi":84,"time":68.18174999999991,"velocity":0.7874015748031497,"duration":0.0852271874999957},{"name":"C6","midi":84,"time":68.4090224999999,"velocity":0.7874015748031497,"duration":0.0852271874999957},{"name":"C6","midi":84,"time":68.5226587499999,"velocity":0.7874015748031497,"duration":0.0852271874999957},{"name":"C6","midi":84,"time":68.6362949999999,"velocity":0.7874015748031497,"duration":0.0852271874999957},{"name":"C6","midi":84,"time":68.8351584374999,"velocity":0.7874015748031497,"duration":0.0852271874999957},{"name":"C6","midi":84,"time":69.0908399999999,"velocity":0.7874015748031497,"duration":0.340908749999997}],"controlChanges":{},"id":5,"name":"BREAKS AND STUFF","channelNumber":0,"isPercussion":false},{"startTime":36.363600000000005,"duration":65.34084375,"length":23,"notes":[{"name":"C7","midi":96,"time":36.363600000000005,"velocity":0.7874015748031497,"duration":0.9090899999999991},{"name":"C7","midi":96,"time":44.545410000000004,"velocity":0.7874015748031497,"duration":0.05823857812499966},{"name":"C7","midi":96,"time":44.65904625,"velocity":0.7874015748031497,"duration":0.05823857812499966},{"name":"C7","midi":96,"time":44.7726825,"velocity":0.7874015748031497,"duration":0.05823857812499966},{"name":"C7","midi":96,"time":44.88631875,"velocity":0.7874015748031497,"duration":0.05823857812499966},{"name":"C7","midi":96,"time":46.818135,"velocity":0.7874015748031497,"duration":0.4545450000000031},{"name":"C7","midi":96,"time":50.168036953125004,"velocity":0.7874015748031497,"duration":0.14678015625000285},{"name":"C7","midi":96,"time":50.45449500000001,"velocity":0.7874015748031497,"duration":0.14678015625000285},{"name":"C7","midi":96,"time":50.681767500000014,"velocity":0.7874015748031497,"duration":0.14678015625000285},{"name":"C7","midi":96,"time":50.90904000000002,"velocity":0.7874015748031497,"duration":0.4545450000000031},{"name":"C7","midi":96,"time":51.818130000000025,"velocity":0.7874015748031497,"duration":0.05113631249999884},{"name":"C7","midi":96,"time":51.931766250000024,"velocity":0.7874015748031497,"duration":0.05113631249999884},{"name":"C7","midi":96,"time":52.04540250000002,"velocity":0.7874015748031497,"duration":0.05113631249999884},{"name":"C7","midi":96,"time":52.15903875000002,"velocity":0.7874015748031497,"duration":0.05113631249999884},{"name":"C7","midi":96,"time":54.54540000000002,"velocity":0.7874015748031497,"duration":0.6818175000000011},{"name":"C7","midi":96,"time":55.909035000000024,"velocity":0.7874015748031497,"duration":0.340908749999997},{"name":"C7","midi":96,"time":56.36358000000002,"velocity":0.7874015748031497,"duration":0.9090899999999991},{"name":"C7","midi":96,"time":57.38630625000002,"velocity":0.7874015748031497,"duration":0.7954537500000001},{"name":"C7","midi":96,"time":58.29539625000002,"velocity":0.7874015748031497,"duration":1.9318162499999971},{"name":"C7","midi":96,"time":61.36357500000001,"velocity":0.7874015748031497,"duration":0.4545450000000031},{"name":"C7","midi":96,"time":64.77266250000001,"velocity":0.7874015748031497,"duration":0.113636249999999},{"name":"C7","midi":96,"time":64.99993500000001,"velocity":0.7874015748031497,"duration":0.113636249999999},{"name":"C7","midi":96,"time":65.2272075,"velocity":0.7874015748031497,"duration":0.113636249999999}],"controlChanges":{},"id":6,"name":"VOX SHOUTS","channelNumber":0,"isPercussion":false},{"startTime":2.7272700000000003,"duration":69.09084000000003,"length":16,"notes":[{"name":"C6","midi":84,"time":2.7272700000000003,"velocity":0.7874015748031497,"duration":2.272725},{"name":"C6","midi":84,"time":6.818175,"velocity":0.7874015748031497,"duration":3.1818150000000003},{"name":"C6","midi":84,"time":11.02271625,"velocity":0.7874015748031497,"duration":3.522723750000001},{"name":"C6","midi":84,"time":15.909075000000001,"velocity":0.7874015748031497,"duration":1.2499987499999996},{"name":"C6","midi":84,"time":20.227252500000002,"velocity":0.7874015748031497,"duration":1.2499987499999996},{"name":"C6","midi":84,"time":24.204521250000003,"velocity":0.7874015748031497,"duration":1.2499987499999996},{"name":"C6","midi":84,"time":26.818155,"velocity":0.7874015748031497,"duration":1.5909075000000001},{"name":"C6","midi":84,"time":30.454515,"velocity":0.7874015748031497,"duration":0.45454499999999953},{"name":"C6","midi":84,"time":32.72724,"velocity":0.7874015748031497,"duration":0.9090899999999991},{"name":"C6","midi":84,"time":34.999965,"velocity":0.7874015748031497,"duration":1.3636350000000022},{"name":"C6","midi":84,"time":39.99996000000001,"velocity":0.7874015748031497,"duration":0.7954537500000001},{"name":"C6","midi":84,"time":45.45450000000001,"velocity":0.7874015748031497,"duration":0.4545450000000031},{"name":"C6","midi":84,"time":47.272680000000015,"velocity":0.7874015748031497,"duration":0.4545450000000031},{"name":"C6","midi":84,"time":57.27267000000002,"velocity":0.7874015748031497,"duration":1.136362499999997},{"name":"C6","midi":84,"time":63.63630000000002,"velocity":0.7874015748031497,"duration":0.9090900000000062},{"name":"C6","midi":84,"time":65.45448000000003,"velocity":0.7874015748031497,"duration":3.6363599999999963}],"controlChanges":{},"id":7,"name":"PREACH","channelNumber":0,"isPercussion":false}]}