{
    "header": {
      "keySignatures": [],
      "meta": [],
      "name": "",
      "ppq": 960,
      "tempos": [],
      "timeSignatures": [
        {
          "ticks": 0,
          "timeSignature": [
            4,
            4
          ],
          "measures": 0
        }
      ]
    },
    "tracks": [
      {
        "channel": 0,
        "controlChanges": {},
        "pitchBends": [],
        "instrument": {
          "family": "piano",
          "number": 0,
          "name": "acoustic grand piano"
        },
        "name": "Kick - MIDI\u0000",
        "notes": [
          {
            "duration": 0.0625,
            "durationTicks": 120,
            "midi": 60,
            "name": "C4",
            "ticks": 15360,
            "time": 8,
            "velocity": 0.7874015748031497
          },
          {
            "duration": 0.0625,
            "durationTicks": 120,
            "midi": 60,
            "name": "C4",
            "ticks": 17760,
            "time": 9.25,
            "velocity": 0.7874015748031497
          },
          {
            "duration": 0.0625,
            "durationTicks": 120,
            "midi": 60,
            "name": "C4",
            "ticks": 19200,
            "time": 10,
            "velocity": 0.7874015748031497
          },
          {
            "duration": 0.0625,
            "durationTicks": 120,
            "midi": 60,
            "name": "C4",
            "ticks": 21600,
            "time": 11.25,
            "velocity": 0.7874015748031497
          },
          {
            "duration": 0.0625,
            "durationTicks": 120,
            "midi": 60,
            "name": "C4",
            "ticks": 22320,
            "time": 11.625,
            "velocity": 0.7874015748031497
          },
          {
            "duration": 0.0625,
            "durationTicks": 120,
            "midi": 60,
            "name": "C4",
            "ticks": 23040,
            "time": 12,
            "velocity": 0.7874015748031497
          },
          {
            "duration": 0.0625,
            "durationTicks": 120,
            "midi": 60,
            "name": "C4",
            "ticks": 25440,
            "time": 13.25,
            "velocity": 0.7874015748031497
          },
          {
            "duration": 0.0625,
            "durationTicks": 120,
            "midi": 60,
            "name": "C4",
            "ticks": 26880,
            "time": 14,
            "velocity": 0.7874015748031497
          },
          {
            "duration": 0.0625,
            "durationTicks": 120,
            "midi": 60,
            "name": "C4",
            "ticks": 28320,
            "time": 14.75,
            "velocity": 0.7874015748031497
          },
          {
            "duration": 0.0625,
            "durationTicks": 120,
            "midi": 60,
            "name": "C4",
            "ticks": 28560,
            "time": 14.875,
            "velocity": 0.7874015748031497
          },
          {
            "duration": 0.0625,
            "durationTicks": 120,
            "midi": 60,
            "name": "C4",
            "ticks": 29280,
            "time": 15.25,
            "velocity": 0.7874015748031497
          },
          {
            "duration": 0.0625,
            "durationTicks": 120,
            "midi": 60,
            "name": "C4",
            "ticks": 30720,
            "time": 16,
            "velocity": 0.7874015748031497
          },
          {
            "duration": 0.0625,
            "durationTicks": 120,
            "midi": 60,
            "name": "C4",
            "ticks": 32160,
            "time": 16.75,
            "velocity": 0.7874015748031497
          },
          {
            "duration": 0.0625,
            "durationTicks": 120,
            "midi": 60,
            "name": "C4",
            "ticks": 33120,
            "time": 17.25,
            "velocity": 0.7874015748031497
          },
          {
            "duration": 0.0625,
            "durationTicks": 120,
            "midi": 60,
            "name": "C4",
            "ticks": 34560,
            "time": 18,
            "velocity": 0.7874015748031497
          },
          {
            "duration": 0.0625,
            "durationTicks": 120,
            "midi": 60,
            "name": "C4",
            "ticks": 36000,
            "time": 18.75,
            "velocity": 0.7874015748031497
          },
          {
            "duration": 0.0625,
            "durationTicks": 120,
            "midi": 60,
            "name": "C4",
            "ticks": 36960,
            "time": 19.25,
            "velocity": 0.7874015748031497
          },
          {
            "duration": 0.0625,
            "durationTicks": 120,
            "midi": 60,
            "name": "C4",
            "ticks": 37680,
            "time": 19.625,
            "velocity": 0.7874015748031497
          },
          {
            "duration": 0.0625,
            "durationTicks": 120,
            "midi": 60,
            "name": "C4",
            "ticks": 38400,
            "time": 20,
            "velocity": 0.7874015748031497
          },
          {
            "duration": 0.0625,
            "durationTicks": 120,
            "midi": 60,
            "name": "C4",
            "ticks": 39840,
            "time": 20.75,
            "velocity": 0.7874015748031497
          },
          {
            "duration": 0.0625,
            "durationTicks": 120,
            "midi": 60,
            "name": "C4",
            "ticks": 40800,
            "time": 21.25,
            "velocity": 0.7874015748031497
          },
          {
            "duration": 0.0625,
            "durationTicks": 120,
            "midi": 60,
            "name": "C4",
            "ticks": 42240,
            "time": 22,
            "velocity": 0.7874015748031497
          },
          {
            "duration": 0.0625,
            "durationTicks": 120,
            "midi": 60,
            "name": "C4",
            "ticks": 43680,
            "time": 22.75,
            "velocity": 0.7874015748031497
          },
          {
            "duration": 0.0625,
            "durationTicks": 120,
            "midi": 60,
            "name": "C4",
            "ticks": 43920,
            "time": 22.875,
            "velocity": 0.7874015748031497
          },
          {
            "duration": 0.0625,
            "durationTicks": 120,
            "midi": 60,
            "name": "C4",
            "ticks": 44640,
            "time": 23.25,
            "velocity": 0.7874015748031497
          },
          {
            "duration": 0.0625,
            "durationTicks": 120,
            "midi": 60,
            "name": "C4",
            "ticks": 45360,
            "time": 23.625,
            "velocity": 0.7874015748031497
          },
          {
            "duration": 0.0625,
            "durationTicks": 120,
            "midi": 60,
            "name": "C4",
            "ticks": 46080,
            "time": 24,
            "velocity": 0.7874015748031497
          },
          {
            "duration": 0.0625,
            "durationTicks": 120,
            "midi": 60,
            "name": "C4",
            "ticks": 47520,
            "time": 24.75,
            "velocity": 0.7874015748031497
          },
          {
            "duration": 0.0625,
            "durationTicks": 120,
            "midi": 60,
            "name": "C4",
            "ticks": 48480,
            "time": 25.25,
            "velocity": 0.7874015748031497
          },
          {
            "duration": 0.0625,
            "durationTicks": 120,
            "midi": 60,
            "name": "C4",
            "ticks": 49920,
            "time": 26,
            "velocity": 0.7874015748031497
          },
          {
            "duration": 0.0625,
            "durationTicks": 120,
            "midi": 60,
            "name": "C4",
            "ticks": 51360,
            "time": 26.75,
            "velocity": 0.7874015748031497
          },
          {
            "duration": 0.0625,
            "durationTicks": 120,
            "midi": 60,
            "name": "C4",
            "ticks": 52320,
            "time": 27.25,
            "velocity": 0.7874015748031497
          },
          {
            "duration": 0.0625,
            "durationTicks": 120,
            "midi": 60,
            "name": "C4",
            "ticks": 53040,
            "time": 27.625,
            "velocity": 0.7874015748031497
          },
          {
            "duration": 0.0625,
            "durationTicks": 120,
            "midi": 60,
            "name": "C4",
            "ticks": 53760,
            "time": 28,
            "velocity": 0.7874015748031497
          },
          {
            "duration": 0.0625,
            "durationTicks": 120,
            "midi": 60,
            "name": "C4",
            "ticks": 55200,
            "time": 28.75,
            "velocity": 0.7874015748031497
          },
          {
            "duration": 0.0625,
            "durationTicks": 120,
            "midi": 60,
            "name": "C4",
            "ticks": 56160,
            "time": 29.25,
            "velocity": 0.7874015748031497
          },
          {
            "duration": 0.0625,
            "durationTicks": 120,
            "midi": 60,
            "name": "C4",
            "ticks": 57600,
            "time": 30,
            "velocity": 0.7874015748031497
          },
          {
            "duration": 0.0625,
            "durationTicks": 120,
            "midi": 60,
            "name": "C4",
            "ticks": 59040,
            "time": 30.75,
            "velocity": 0.7874015748031497
          },
          {
            "duration": 0.0625,
            "durationTicks": 120,
            "midi": 60,
            "name": "C4",
            "ticks": 59280,
            "time": 30.875,
            "velocity": 0.7874015748031497
          },
          {
            "duration": 0.0625,
            "durationTicks": 120,
            "midi": 60,
            "name": "C4",
            "ticks": 60000,
            "time": 31.25,
            "velocity": 0.7874015748031497
          },
          {
            "duration": 0.0625,
            "durationTicks": 120,
            "midi": 60,
            "name": "C4",
            "ticks": 60720,
            "time": 31.625,
            "velocity": 0.7874015748031497
          },
          {
            "duration": 0.0625,
            "durationTicks": 120,
            "midi": 60,
            "name": "C4",
            "ticks": 61440,
            "time": 32,
            "velocity": 0.7874015748031497
          },
          {
            "duration": 0.0625,
            "durationTicks": 120,
            "midi": 60,
            "name": "C4",
            "ticks": 62880,
            "time": 32.75,
            "velocity": 0.7874015748031497
          },
          {
            "duration": 0.0625,
            "durationTicks": 120,
            "midi": 60,
            "name": "C4",
            "ticks": 63840,
            "time": 33.25,
            "velocity": 0.7874015748031497
          },
          {
            "duration": 0.0625,
            "durationTicks": 120,
            "midi": 60,
            "name": "C4",
            "ticks": 65280,
            "time": 34,
            "velocity": 0.7874015748031497
          },
          {
            "duration": 0.0625,
            "durationTicks": 120,
            "midi": 60,
            "name": "C4",
            "ticks": 66720,
            "time": 34.75,
            "velocity": 0.7874015748031497
          },
          {
            "duration": 0.0625,
            "durationTicks": 120,
            "midi": 60,
            "name": "C4",
            "ticks": 67680,
            "time": 35.25,
            "velocity": 0.7874015748031497
          },
          {
            "duration": 0.0625,
            "durationTicks": 120,
            "midi": 60,
            "name": "C4",
            "ticks": 68400,
            "time": 35.625,
            "velocity": 0.7874015748031497
          },
          {
            "duration": 0.0625,
            "durationTicks": 120,
            "midi": 60,
            "name": "C4",
            "ticks": 69120,
            "time": 36,
            "velocity": 0.7874015748031497
          },
          {
            "duration": 0.0625,
            "durationTicks": 120,
            "midi": 60,
            "name": "C4",
            "ticks": 70560,
            "time": 36.75,
            "velocity": 0.7874015748031497
          },
          {
            "duration": 0.0625,
            "durationTicks": 120,
            "midi": 60,
            "name": "C4",
            "ticks": 71520,
            "time": 37.25,
            "velocity": 0.7874015748031497
          },
          {
            "duration": 0.0625,
            "durationTicks": 120,
            "midi": 60,
            "name": "C4",
            "ticks": 72960,
            "time": 38,
            "velocity": 0.7874015748031497
          },
          {
            "duration": 0.0625,
            "durationTicks": 120,
            "midi": 60,
            "name": "C4",
            "ticks": 74400,
            "time": 38.75,
            "velocity": 0.7874015748031497
          },
          {
            "duration": 0.0625,
            "durationTicks": 120,
            "midi": 60,
            "name": "C4",
            "ticks": 74640,
            "time": 38.875,
            "velocity": 0.7874015748031497
          },
          {
            "duration": 0.0625,
            "durationTicks": 120,
            "midi": 60,
            "name": "C4",
            "ticks": 75360,
            "time": 39.25,
            "velocity": 0.7874015748031497
          },
          {
            "duration": 0.0625,
            "durationTicks": 120,
            "midi": 60,
            "name": "C4",
            "ticks": 76080,
            "time": 39.625,
            "velocity": 0.7874015748031497
          },
          {
            "duration": 0.0625,
            "durationTicks": 120,
            "midi": 60,
            "name": "C4",
            "ticks": 76800,
            "time": 40,
            "velocity": 0.7874015748031497
          },
          {
            "duration": 0.0625,
            "durationTicks": 120,
            "midi": 60,
            "name": "C4",
            "ticks": 78240,
            "time": 40.75,
            "velocity": 0.7874015748031497
          },
          {
            "duration": 0.0625,
            "durationTicks": 120,
            "midi": 60,
            "name": "C4",
            "ticks": 79200,
            "time": 41.25,
            "velocity": 0.7874015748031497
          },
          {
            "duration": 0.0625,
            "durationTicks": 120,
            "midi": 60,
            "name": "C4",
            "ticks": 80640,
            "time": 42,
            "velocity": 0.7874015748031497
          },
          {
            "duration": 0.0625,
            "durationTicks": 120,
            "midi": 60,
            "name": "C4",
            "ticks": 82080,
            "time": 42.75,
            "velocity": 0.7874015748031497
          },
          {
            "duration": 0.0625,
            "durationTicks": 120,
            "midi": 60,
            "name": "C4",
            "ticks": 83040,
            "time": 43.25,
            "velocity": 0.7874015748031497
          },
          {
            "duration": 0.0625,
            "durationTicks": 120,
            "midi": 60,
            "name": "C4",
            "ticks": 83760,
            "time": 43.625,
            "velocity": 0.7874015748031497
          },
          {
            "duration": 0.0625,
            "durationTicks": 120,
            "midi": 60,
            "name": "C4",
            "ticks": 84480,
            "time": 44,
            "velocity": 0.7874015748031497
          },
          {
            "duration": 0.0625,
            "durationTicks": 120,
            "midi": 60,
            "name": "C4",
            "ticks": 85920,
            "time": 44.75,
            "velocity": 0.7874015748031497
          },
          {
            "duration": 0.0625,
            "durationTicks": 120,
            "midi": 60,
            "name": "C4",
            "ticks": 86880,
            "time": 45.25,
            "velocity": 0.7874015748031497
          },
          {
            "duration": 0.0625,
            "durationTicks": 120,
            "midi": 60,
            "name": "C4",
            "ticks": 88320,
            "time": 46,
            "velocity": 0.7874015748031497
          },
          {
            "duration": 0.0625,
            "durationTicks": 120,
            "midi": 60,
            "name": "C4",
            "ticks": 89760,
            "time": 46.75,
            "velocity": 0.7874015748031497
          },
          {
            "duration": 0.0625,
            "durationTicks": 120,
            "midi": 60,
            "name": "C4",
            "ticks": 90720,
            "time": 47.25,
            "velocity": 0.7874015748031497
          },
          {
            "duration": 0.0625,
            "durationTicks": 120,
            "midi": 60,
            "name": "C4",
            "ticks": 91440,
            "time": 47.625,
            "velocity": 0.7874015748031497
          },
          {
            "duration": 0.0625,
            "durationTicks": 120,
            "midi": 60,
            "name": "C4",
            "ticks": 92160,
            "time": 48,
            "velocity": 0.7874015748031497
          },
          {
            "duration": 0.0625,
            "durationTicks": 120,
            "midi": 60,
            "name": "C4",
            "ticks": 93600,
            "time": 48.75,
            "velocity": 0.7874015748031497
          },
          {
            "duration": 0.0625,
            "durationTicks": 120,
            "midi": 60,
            "name": "C4",
            "ticks": 94560,
            "time": 49.25,
            "velocity": 0.7874015748031497
          },
          {
            "duration": 0.0625,
            "durationTicks": 120,
            "midi": 60,
            "name": "C4",
            "ticks": 96000,
            "time": 50,
            "velocity": 0.7874015748031497
          },
          {
            "duration": 0.0625,
            "durationTicks": 120,
            "midi": 60,
            "name": "C4",
            "ticks": 97440,
            "time": 50.75,
            "velocity": 0.7874015748031497
          },
          {
            "duration": 0.0625,
            "durationTicks": 120,
            "midi": 60,
            "name": "C4",
            "ticks": 98400,
            "time": 51.25,
            "velocity": 0.7874015748031497
          },
          {
            "duration": 0.0625,
            "durationTicks": 120,
            "midi": 60,
            "name": "C4",
            "ticks": 99120,
            "time": 51.625,
            "velocity": 0.7874015748031497
          },
          {
            "duration": 0.0625,
            "durationTicks": 120,
            "midi": 60,
            "name": "C4",
            "ticks": 99840,
            "time": 52,
            "velocity": 0.7874015748031497
          },
          {
            "duration": 0.0625,
            "durationTicks": 120,
            "midi": 60,
            "name": "C4",
            "ticks": 101280,
            "time": 52.75,
            "velocity": 0.7874015748031497
          },
          {
            "duration": 0.0625,
            "durationTicks": 120,
            "midi": 60,
            "name": "C4",
            "ticks": 102240,
            "time": 53.25,
            "velocity": 0.7874015748031497
          },
          {
            "duration": 0.0625,
            "durationTicks": 120,
            "midi": 60,
            "name": "C4",
            "ticks": 103680,
            "time": 54,
            "velocity": 0.7874015748031497
          },
          {
            "duration": 0.0625,
            "durationTicks": 120,
            "midi": 60,
            "name": "C4",
            "ticks": 105120,
            "time": 54.75,
            "velocity": 0.7874015748031497
          },
          {
            "duration": 0.0625,
            "durationTicks": 120,
            "midi": 60,
            "name": "C4",
            "ticks": 105360,
            "time": 54.875,
            "velocity": 0.7874015748031497
          },
          {
            "duration": 0.0625,
            "durationTicks": 120,
            "midi": 60,
            "name": "C4",
            "ticks": 106080,
            "time": 55.25,
            "velocity": 0.7874015748031497
          },
          {
            "duration": 0.0625,
            "durationTicks": 120,
            "midi": 60,
            "name": "C4",
            "ticks": 106800,
            "time": 55.625,
            "velocity": 0.7874015748031497
          },
          {
            "duration": 0.0625,
            "durationTicks": 120,
            "midi": 60,
            "name": "C4",
            "ticks": 107520,
            "time": 56,
            "velocity": 0.7874015748031497
          },
          {
            "duration": 0.0625,
            "durationTicks": 120,
            "midi": 60,
            "name": "C4",
            "ticks": 108960,
            "time": 56.75,
            "velocity": 0.7874015748031497
          },
          {
            "duration": 0.0625,
            "durationTicks": 120,
            "midi": 60,
            "name": "C4",
            "ticks": 109920,
            "time": 57.25,
            "velocity": 0.7874015748031497
          },
          {
            "duration": 0.0625,
            "durationTicks": 120,
            "midi": 60,
            "name": "C4",
            "ticks": 111360,
            "time": 58,
            "velocity": 0.7874015748031497
          },
          {
            "duration": 0.0625,
            "durationTicks": 120,
            "midi": 60,
            "name": "C4",
            "ticks": 112800,
            "time": 58.75,
            "velocity": 0.7874015748031497
          },
          {
            "duration": 0.0625,
            "durationTicks": 120,
            "midi": 60,
            "name": "C4",
            "ticks": 113760,
            "time": 59.25,
            "velocity": 0.7874015748031497
          },
          {
            "duration": 0.0625,
            "durationTicks": 120,
            "midi": 60,
            "name": "C4",
            "ticks": 114480,
            "time": 59.625,
            "velocity": 0.7874015748031497
          },
          {
            "duration": 0.0625,
            "durationTicks": 120,
            "midi": 60,
            "name": "C4",
            "ticks": 115200,
            "time": 60,
            "velocity": 0.7874015748031497
          },
          {
            "duration": 0.0625,
            "durationTicks": 120,
            "midi": 60,
            "name": "C4",
            "ticks": 116640,
            "time": 60.75,
            "velocity": 0.7874015748031497
          },
          {
            "duration": 0.0625,
            "durationTicks": 120,
            "midi": 60,
            "name": "C4",
            "ticks": 117600,
            "time": 61.25,
            "velocity": 0.7874015748031497
          },
          {
            "duration": 0.0625,
            "durationTicks": 120,
            "midi": 60,
            "name": "C4",
            "ticks": 119040,
            "time": 62,
            "velocity": 0.7874015748031497
          },
          {
            "duration": 0.0625,
            "durationTicks": 120,
            "midi": 60,
            "name": "C4",
            "ticks": 120480,
            "time": 62.75,
            "velocity": 0.7874015748031497
          },
          {
            "duration": 0.0625,
            "durationTicks": 120,
            "midi": 60,
            "name": "C4",
            "ticks": 120720,
            "time": 62.875,
            "velocity": 0.7874015748031497
          },
          {
            "duration": 0.0625,
            "durationTicks": 120,
            "midi": 60,
            "name": "C4",
            "ticks": 121440,
            "time": 63.25,
            "velocity": 0.7874015748031497
          },
          {
            "duration": 0.0625,
            "durationTicks": 120,
            "midi": 60,
            "name": "C4",
            "ticks": 122160,
            "time": 63.625,
            "velocity": 0.7874015748031497
          },
          {
            "duration": 0.0625,
            "durationTicks": 120,
            "midi": 60,
            "name": "C4",
            "ticks": 122880,
            "time": 64,
            "velocity": 0.7874015748031497
          },
          {
            "duration": 0.0625,
            "durationTicks": 120,
            "midi": 60,
            "name": "C4",
            "ticks": 124320,
            "time": 64.75,
            "velocity": 0.7874015748031497
          },
          {
            "duration": 0.0625,
            "durationTicks": 120,
            "midi": 60,
            "name": "C4",
            "ticks": 125280,
            "time": 65.25,
            "velocity": 0.7874015748031497
          },
          {
            "duration": 0.0625,
            "durationTicks": 120,
            "midi": 60,
            "name": "C4",
            "ticks": 126720,
            "time": 66,
            "velocity": 0.7874015748031497
          },
          {
            "duration": 0.0625,
            "durationTicks": 120,
            "midi": 60,
            "name": "C4",
            "ticks": 128160,
            "time": 66.75,
            "velocity": 0.7874015748031497
          },
          {
            "duration": 0.0625,
            "durationTicks": 120,
            "midi": 60,
            "name": "C4",
            "ticks": 129120,
            "time": 67.25,
            "velocity": 0.7874015748031497
          },
          {
            "duration": 0.0625,
            "durationTicks": 120,
            "midi": 60,
            "name": "C4",
            "ticks": 129840,
            "time": 67.625,
            "velocity": 0.7874015748031497
          },
          {
            "duration": 0.0625,
            "durationTicks": 120,
            "midi": 60,
            "name": "C4",
            "ticks": 130560,
            "time": 68,
            "velocity": 0.7874015748031497
          },
          {
            "duration": 0.0625,
            "durationTicks": 120,
            "midi": 60,
            "name": "C4",
            "ticks": 132000,
            "time": 68.75,
            "velocity": 0.7874015748031497
          },
          {
            "duration": 0.0625,
            "durationTicks": 120,
            "midi": 60,
            "name": "C4",
            "ticks": 132960,
            "time": 69.25,
            "velocity": 0.7874015748031497
          },
          {
            "duration": 0.0625,
            "durationTicks": 120,
            "midi": 60,
            "name": "C4",
            "ticks": 134400,
            "time": 70,
            "velocity": 0.7874015748031497
          },
          {
            "duration": 0.0625,
            "durationTicks": 120,
            "midi": 60,
            "name": "C4",
            "ticks": 135840,
            "time": 70.75,
            "velocity": 0.7874015748031497
          },
          {
            "duration": 0.0625,
            "durationTicks": 120,
            "midi": 60,
            "name": "C4",
            "ticks": 136080,
            "time": 70.875,
            "velocity": 0.7874015748031497
          },
          {
            "duration": 0.0625,
            "durationTicks": 120,
            "midi": 60,
            "name": "C4",
            "ticks": 136800,
            "time": 71.25,
            "velocity": 0.7874015748031497
          },
          {
            "duration": 0.0625,
            "durationTicks": 120,
            "midi": 60,
            "name": "C4",
            "ticks": 137520,
            "time": 71.625,
            "velocity": 0.7874015748031497
          },
          {
            "duration": 0.0625,
            "durationTicks": 120,
            "midi": 60,
            "name": "C4",
            "ticks": 138240,
            "time": 72,
            "velocity": 0.7874015748031497
          },
          {
            "duration": 0.0625,
            "durationTicks": 120,
            "midi": 60,
            "name": "C4",
            "ticks": 139680,
            "time": 72.75,
            "velocity": 0.7874015748031497
          },
          {
            "duration": 0.0625,
            "durationTicks": 120,
            "midi": 60,
            "name": "C4",
            "ticks": 140640,
            "time": 73.25,
            "velocity": 0.7874015748031497
          },
          {
            "duration": 0.0625,
            "durationTicks": 120,
            "midi": 60,
            "name": "C4",
            "ticks": 142080,
            "time": 74,
            "velocity": 0.7874015748031497
          },
          {
            "duration": 0.0625,
            "durationTicks": 120,
            "midi": 60,
            "name": "C4",
            "ticks": 143520,
            "time": 74.75,
            "velocity": 0.7874015748031497
          },
          {
            "duration": 0.0625,
            "durationTicks": 120,
            "midi": 60,
            "name": "C4",
            "ticks": 144480,
            "time": 75.25,
            "velocity": 0.7874015748031497
          },
          {
            "duration": 0.0625,
            "durationTicks": 120,
            "midi": 60,
            "name": "C4",
            "ticks": 145200,
            "time": 75.625,
            "velocity": 0.7874015748031497
          },
          {
            "duration": 0.0625,
            "durationTicks": 120,
            "midi": 60,
            "name": "C4",
            "ticks": 145920,
            "time": 76,
            "velocity": 0.7874015748031497
          },
          {
            "duration": 0.0625,
            "durationTicks": 120,
            "midi": 60,
            "name": "C4",
            "ticks": 147360,
            "time": 76.75,
            "velocity": 0.7874015748031497
          },
          {
            "duration": 0.0625,
            "durationTicks": 120,
            "midi": 60,
            "name": "C4",
            "ticks": 148320,
            "time": 77.25,
            "velocity": 0.7874015748031497
          },
          {
            "duration": 0.0625,
            "durationTicks": 120,
            "midi": 60,
            "name": "C4",
            "ticks": 149760,
            "time": 78,
            "velocity": 0.7874015748031497
          },
          {
            "duration": 0.0625,
            "durationTicks": 120,
            "midi": 60,
            "name": "C4",
            "ticks": 151200,
            "time": 78.75,
            "velocity": 0.7874015748031497
          },
          {
            "duration": 0.0625,
            "durationTicks": 120,
            "midi": 60,
            "name": "C4",
            "ticks": 151440,
            "time": 78.875,
            "velocity": 0.7874015748031497
          },
          {
            "duration": 0.0625,
            "durationTicks": 120,
            "midi": 60,
            "name": "C4",
            "ticks": 152160,
            "time": 79.25,
            "velocity": 0.7874015748031497
          },
          {
            "duration": 0.0625,
            "durationTicks": 120,
            "midi": 60,
            "name": "C4",
            "ticks": 152880,
            "time": 79.625,
            "velocity": 0.7874015748031497
          },
          {
            "duration": 0.0625,
            "durationTicks": 120,
            "midi": 60,
            "name": "C4",
            "ticks": 153600,
            "time": 80,
            "velocity": 0.7874015748031497
          },
          {
            "duration": 0.0625,
            "durationTicks": 120,
            "midi": 60,
            "name": "C4",
            "ticks": 156000,
            "time": 81.25,
            "velocity": 0.7874015748031497
          },
          {
            "duration": 0.0625,
            "durationTicks": 120,
            "midi": 60,
            "name": "C4",
            "ticks": 157440,
            "time": 82,
            "velocity": 0.7874015748031497
          },
          {
            "duration": 0.0625,
            "durationTicks": 120,
            "midi": 60,
            "name": "C4",
            "ticks": 159840,
            "time": 83.25,
            "velocity": 0.7874015748031497
          },
          {
            "duration": 0.0625,
            "durationTicks": 120,
            "midi": 60,
            "name": "C4",
            "ticks": 160560,
            "time": 83.625,
            "velocity": 0.7874015748031497
          },
          {
            "duration": 0.0625,
            "durationTicks": 120,
            "midi": 60,
            "name": "C4",
            "ticks": 161280,
            "time": 84,
            "velocity": 0.7874015748031497
          },
          {
            "duration": 0.0625,
            "durationTicks": 120,
            "midi": 60,
            "name": "C4",
            "ticks": 163680,
            "time": 85.25,
            "velocity": 0.7874015748031497
          },
          {
            "duration": 0.0625,
            "durationTicks": 120,
            "midi": 60,
            "name": "C4",
            "ticks": 165120,
            "time": 86,
            "velocity": 0.7874015748031497
          },
          {
            "duration": 0.0625,
            "durationTicks": 120,
            "midi": 60,
            "name": "C4",
            "ticks": 166560,
            "time": 86.75,
            "velocity": 0.7874015748031497
          },
          {
            "duration": 0.0625,
            "durationTicks": 120,
            "midi": 60,
            "name": "C4",
            "ticks": 166800,
            "time": 86.875,
            "velocity": 0.7874015748031497
          },
          {
            "duration": 0.0625,
            "durationTicks": 120,
            "midi": 60,
            "name": "C4",
            "ticks": 167520,
            "time": 87.25,
            "velocity": 0.7874015748031497
          },
          {
            "duration": 0.0625,
            "durationTicks": 120,
            "midi": 60,
            "name": "C4",
            "ticks": 168240,
            "time": 87.625,
            "velocity": 0.7874015748031497
          },
          {
            "duration": 0.0625,
            "durationTicks": 120,
            "midi": 60,
            "name": "C4",
            "ticks": 168960,
            "time": 88,
            "velocity": 0.7874015748031497
          },
          {
            "duration": 0.0625,
            "durationTicks": 120,
            "midi": 60,
            "name": "C4",
            "ticks": 171360,
            "time": 89.25,
            "velocity": 0.7874015748031497
          },
          {
            "duration": 0.0625,
            "durationTicks": 120,
            "midi": 60,
            "name": "C4",
            "ticks": 172800,
            "time": 90,
            "velocity": 0.7874015748031497
          },
          {
            "duration": 0.0625,
            "durationTicks": 120,
            "midi": 60,
            "name": "C4",
            "ticks": 175200,
            "time": 91.25,
            "velocity": 0.7874015748031497
          },
          {
            "duration": 0.0625,
            "durationTicks": 120,
            "midi": 60,
            "name": "C4",
            "ticks": 175920,
            "time": 91.625,
            "velocity": 0.7874015748031497
          },
          {
            "duration": 0.0625,
            "durationTicks": 120,
            "midi": 60,
            "name": "C4",
            "ticks": 176640,
            "time": 92,
            "velocity": 0.7874015748031497
          },
          {
            "duration": 0.0625,
            "durationTicks": 120,
            "midi": 60,
            "name": "C4",
            "ticks": 179040,
            "time": 93.25,
            "velocity": 0.7874015748031497
          },
          {
            "duration": 0.0625,
            "durationTicks": 120,
            "midi": 60,
            "name": "C4",
            "ticks": 180480,
            "time": 94,
            "velocity": 0.7874015748031497
          },
          {
            "duration": 0.0625,
            "durationTicks": 120,
            "midi": 60,
            "name": "C4",
            "ticks": 181920,
            "time": 94.75,
            "velocity": 0.7874015748031497
          },
          {
            "duration": 0.0625,
            "durationTicks": 120,
            "midi": 60,
            "name": "C4",
            "ticks": 182160,
            "time": 94.875,
            "velocity": 0.7874015748031497
          },
          {
            "duration": 0.0625,
            "durationTicks": 120,
            "midi": 60,
            "name": "C4",
            "ticks": 182880,
            "time": 95.25,
            "velocity": 0.7874015748031497
          },
          {
            "duration": 0.0625,
            "durationTicks": 120,
            "midi": 60,
            "name": "C4",
            "ticks": 183600,
            "time": 95.625,
            "velocity": 0.7874015748031497
          },
          {
            "duration": 0.0625,
            "durationTicks": 120,
            "midi": 60,
            "name": "C4",
            "ticks": 184320,
            "time": 96,
            "velocity": 0.7874015748031497
          },
          {
            "duration": 0.0625,
            "durationTicks": 120,
            "midi": 60,
            "name": "C4",
            "ticks": 186720,
            "time": 97.25,
            "velocity": 0.7874015748031497
          },
          {
            "duration": 0.0625,
            "durationTicks": 120,
            "midi": 60,
            "name": "C4",
            "ticks": 188160,
            "time": 98,
            "velocity": 0.7874015748031497
          },
          {
            "duration": 0.0625,
            "durationTicks": 120,
            "midi": 60,
            "name": "C4",
            "ticks": 190560,
            "time": 99.25,
            "velocity": 0.7874015748031497
          },
          {
            "duration": 0.0625,
            "durationTicks": 120,
            "midi": 60,
            "name": "C4",
            "ticks": 191280,
            "time": 99.625,
            "velocity": 0.7874015748031497
          },
          {
            "duration": 0.0625,
            "durationTicks": 120,
            "midi": 60,
            "name": "C4",
            "ticks": 192000,
            "time": 100,
            "velocity": 0.7874015748031497
          },
          {
            "duration": 0.0625,
            "durationTicks": 120,
            "midi": 60,
            "name": "C4",
            "ticks": 194400,
            "time": 101.25,
            "velocity": 0.7874015748031497
          },
          {
            "duration": 0.0625,
            "durationTicks": 120,
            "midi": 60,
            "name": "C4",
            "ticks": 195840,
            "time": 102,
            "velocity": 0.7874015748031497
          },
          {
            "duration": 0.0625,
            "durationTicks": 120,
            "midi": 60,
            "name": "C4",
            "ticks": 197280,
            "time": 102.75,
            "velocity": 0.7874015748031497
          },
          {
            "duration": 0.0625,
            "durationTicks": 120,
            "midi": 60,
            "name": "C4",
            "ticks": 197520,
            "time": 102.875,
            "velocity": 0.7874015748031497
          },
          {
            "duration": 0.0625,
            "durationTicks": 120,
            "midi": 60,
            "name": "C4",
            "ticks": 198240,
            "time": 103.25,
            "velocity": 0.7874015748031497
          },
          {
            "duration": 0.0625,
            "durationTicks": 120,
            "midi": 60,
            "name": "C4",
            "ticks": 198960,
            "time": 103.625,
            "velocity": 0.7874015748031497
          },
          {
            "duration": 0.0625,
            "durationTicks": 120,
            "midi": 60,
            "name": "C4",
            "ticks": 199680,
            "time": 104,
            "velocity": 0.7874015748031497
          },
          {
            "duration": 0.0625,
            "durationTicks": 120,
            "midi": 60,
            "name": "C4",
            "ticks": 202080,
            "time": 105.25,
            "velocity": 0.7874015748031497
          },
          {
            "duration": 0.0625,
            "durationTicks": 120,
            "midi": 60,
            "name": "C4",
            "ticks": 203520,
            "time": 106,
            "velocity": 0.7874015748031497
          },
          {
            "duration": 0.0625,
            "durationTicks": 120,
            "midi": 60,
            "name": "C4",
            "ticks": 205920,
            "time": 107.25,
            "velocity": 0.7874015748031497
          },
          {
            "duration": 0.0625,
            "durationTicks": 120,
            "midi": 60,
            "name": "C4",
            "ticks": 206640,
            "time": 107.625,
            "velocity": 0.7874015748031497
          },
          {
            "duration": 0.0625,
            "durationTicks": 120,
            "midi": 60,
            "name": "C4",
            "ticks": 207360,
            "time": 108,
            "velocity": 0.7874015748031497
          },
          {
            "duration": 0.0625,
            "durationTicks": 120,
            "midi": 60,
            "name": "C4",
            "ticks": 209760,
            "time": 109.25,
            "velocity": 0.7874015748031497
          },
          {
            "duration": 0.0625,
            "durationTicks": 120,
            "midi": 60,
            "name": "C4",
            "ticks": 211200,
            "time": 110,
            "velocity": 0.7874015748031497
          },
          {
            "duration": 0.0625,
            "durationTicks": 120,
            "midi": 60,
            "name": "C4",
            "ticks": 212640,
            "time": 110.75,
            "velocity": 0.7874015748031497
          },
          {
            "duration": 0.0625,
            "durationTicks": 120,
            "midi": 60,
            "name": "C4",
            "ticks": 213600,
            "time": 111.25,
            "velocity": 0.7874015748031497
          },
          {
            "duration": 0.0625,
            "durationTicks": 120,
            "midi": 60,
            "name": "C4",
            "ticks": 214320,
            "time": 111.625,
            "velocity": 0.7874015748031497
          },
          {
            "duration": 0.0625,
            "durationTicks": 120,
            "midi": 60,
            "name": "C4",
            "ticks": 215040,
            "time": 112,
            "velocity": 0.7874015748031497
          },
          {
            "duration": 0.0625,
            "durationTicks": 120,
            "midi": 60,
            "name": "C4",
            "ticks": 216480,
            "time": 112.75,
            "velocity": 0.7874015748031497
          },
          {
            "duration": 0.0625,
            "durationTicks": 120,
            "midi": 60,
            "name": "C4",
            "ticks": 217440,
            "time": 113.25,
            "velocity": 0.7874015748031497
          },
          {
            "duration": 0.0625,
            "durationTicks": 120,
            "midi": 60,
            "name": "C4",
            "ticks": 218880,
            "time": 114,
            "velocity": 0.7874015748031497
          },
          {
            "duration": 0.0625,
            "durationTicks": 120,
            "midi": 60,
            "name": "C4",
            "ticks": 220320,
            "time": 114.75,
            "velocity": 0.7874015748031497
          },
          {
            "duration": 0.0625,
            "durationTicks": 120,
            "midi": 60,
            "name": "C4",
            "ticks": 221280,
            "time": 115.25,
            "velocity": 0.7874015748031497
          },
          {
            "duration": 0.0625,
            "durationTicks": 120,
            "midi": 60,
            "name": "C4",
            "ticks": 222000,
            "time": 115.625,
            "velocity": 0.7874015748031497
          },
          {
            "duration": 0.0625,
            "durationTicks": 120,
            "midi": 60,
            "name": "C4",
            "ticks": 222720,
            "time": 116,
            "velocity": 0.7874015748031497
          },
          {
            "duration": 0.0625,
            "durationTicks": 120,
            "midi": 60,
            "name": "C4",
            "ticks": 224160,
            "time": 116.75,
            "velocity": 0.7874015748031497
          },
          {
            "duration": 0.0625,
            "durationTicks": 120,
            "midi": 60,
            "name": "C4",
            "ticks": 225120,
            "time": 117.25,
            "velocity": 0.7874015748031497
          },
          {
            "duration": 0.0625,
            "durationTicks": 120,
            "midi": 60,
            "name": "C4",
            "ticks": 226560,
            "time": 118,
            "velocity": 0.7874015748031497
          },
          {
            "duration": 0.0625,
            "durationTicks": 120,
            "midi": 60,
            "name": "C4",
            "ticks": 228000,
            "time": 118.75,
            "velocity": 0.7874015748031497
          },
          {
            "duration": 0.0625,
            "durationTicks": 120,
            "midi": 60,
            "name": "C4",
            "ticks": 228240,
            "time": 118.875,
            "velocity": 0.7874015748031497
          },
          {
            "duration": 0.0625,
            "durationTicks": 120,
            "midi": 60,
            "name": "C4",
            "ticks": 228960,
            "time": 119.25,
            "velocity": 0.7874015748031497
          },
          {
            "duration": 0.0625,
            "durationTicks": 120,
            "midi": 60,
            "name": "C4",
            "ticks": 229680,
            "time": 119.625,
            "velocity": 0.7874015748031497
          },
          {
            "duration": 0.0625,
            "durationTicks": 120,
            "midi": 60,
            "name": "C4",
            "ticks": 230400,
            "time": 120,
            "velocity": 0.7874015748031497
          },
          {
            "duration": 0.0625,
            "durationTicks": 120,
            "midi": 60,
            "name": "C4",
            "ticks": 231840,
            "time": 120.75,
            "velocity": 0.7874015748031497
          },
          {
            "duration": 0.0625,
            "durationTicks": 120,
            "midi": 60,
            "name": "C4",
            "ticks": 232800,
            "time": 121.25,
            "velocity": 0.7874015748031497
          },
          {
            "duration": 0.0625,
            "durationTicks": 120,
            "midi": 60,
            "name": "C4",
            "ticks": 234240,
            "time": 122,
            "velocity": 0.7874015748031497
          },
          {
            "duration": 0.0625,
            "durationTicks": 120,
            "midi": 60,
            "name": "C4",
            "ticks": 235680,
            "time": 122.75,
            "velocity": 0.7874015748031497
          },
          {
            "duration": 0.0625,
            "durationTicks": 120,
            "midi": 60,
            "name": "C4",
            "ticks": 236640,
            "time": 123.25,
            "velocity": 0.7874015748031497
          },
          {
            "duration": 0.0625,
            "durationTicks": 120,
            "midi": 60,
            "name": "C4",
            "ticks": 237360,
            "time": 123.625,
            "velocity": 0.7874015748031497
          },
          {
            "duration": 0.0625,
            "durationTicks": 120,
            "midi": 60,
            "name": "C4",
            "ticks": 238080,
            "time": 124,
            "velocity": 0.7874015748031497
          },
          {
            "duration": 0.0625,
            "durationTicks": 120,
            "midi": 60,
            "name": "C4",
            "ticks": 239520,
            "time": 124.75,
            "velocity": 0.7874015748031497
          },
          {
            "duration": 0.0625,
            "durationTicks": 120,
            "midi": 60,
            "name": "C4",
            "ticks": 240480,
            "time": 125.25,
            "velocity": 0.7874015748031497
          },
          {
            "duration": 0.0625,
            "durationTicks": 120,
            "midi": 60,
            "name": "C4",
            "ticks": 241920,
            "time": 126,
            "velocity": 0.7874015748031497
          },
          {
            "duration": 0.0625,
            "durationTicks": 120,
            "midi": 60,
            "name": "C4",
            "ticks": 243360,
            "time": 126.75,
            "velocity": 0.7874015748031497
          },
          {
            "duration": 0.0625,
            "durationTicks": 120,
            "midi": 60,
            "name": "C4",
            "ticks": 243600,
            "time": 126.875,
            "velocity": 0.7874015748031497
          },
          {
            "duration": 0.0625,
            "durationTicks": 120,
            "midi": 60,
            "name": "C4",
            "ticks": 244320,
            "time": 127.25,
            "velocity": 0.7874015748031497
          },
          {
            "duration": 0.0625,
            "durationTicks": 120,
            "midi": 60,
            "name": "C4",
            "ticks": 245040,
            "time": 127.625,
            "velocity": 0.7874015748031497
          },
          {
            "duration": 0.0625,
            "durationTicks": 120,
            "midi": 60,
            "name": "C4",
            "ticks": 245760,
            "time": 128,
            "velocity": 0.7874015748031497
          },
          {
            "duration": 0.0625,
            "durationTicks": 120,
            "midi": 60,
            "name": "C4",
            "ticks": 247200,
            "time": 128.75,
            "velocity": 0.7874015748031497
          },
          {
            "duration": 0.0625,
            "durationTicks": 120,
            "midi": 60,
            "name": "C4",
            "ticks": 248160,
            "time": 129.25,
            "velocity": 0.7874015748031497
          },
          {
            "duration": 0.0625,
            "durationTicks": 120,
            "midi": 60,
            "name": "C4",
            "ticks": 249600,
            "time": 130,
            "velocity": 0.7874015748031497
          },
          {
            "duration": 0.0625,
            "durationTicks": 120,
            "midi": 60,
            "name": "C4",
            "ticks": 251040,
            "time": 130.75,
            "velocity": 0.7874015748031497
          },
          {
            "duration": 0.0625,
            "durationTicks": 120,
            "midi": 60,
            "name": "C4",
            "ticks": 252000,
            "time": 131.25,
            "velocity": 0.7874015748031497
          },
          {
            "duration": 0.0625,
            "durationTicks": 120,
            "midi": 60,
            "name": "C4",
            "ticks": 252720,
            "time": 131.625,
            "velocity": 0.7874015748031497
          },
          {
            "duration": 0.0625,
            "durationTicks": 120,
            "midi": 60,
            "name": "C4",
            "ticks": 253440,
            "time": 132,
            "velocity": 0.7874015748031497
          },
          {
            "duration": 0.0625,
            "durationTicks": 120,
            "midi": 60,
            "name": "C4",
            "ticks": 254880,
            "time": 132.75,
            "velocity": 0.7874015748031497
          },
          {
            "duration": 0.0625,
            "durationTicks": 120,
            "midi": 60,
            "name": "C4",
            "ticks": 255840,
            "time": 133.25,
            "velocity": 0.7874015748031497
          },
          {
            "duration": 0.0625,
            "durationTicks": 120,
            "midi": 60,
            "name": "C4",
            "ticks": 257280,
            "time": 134,
            "velocity": 0.7874015748031497
          },
          {
            "duration": 0.0625,
            "durationTicks": 120,
            "midi": 60,
            "name": "C4",
            "ticks": 258720,
            "time": 134.75,
            "velocity": 0.7874015748031497
          },
          {
            "duration": 0.0625,
            "durationTicks": 120,
            "midi": 60,
            "name": "C4",
            "ticks": 258960,
            "time": 134.875,
            "velocity": 0.7874015748031497
          },
          {
            "duration": 0.0625,
            "durationTicks": 120,
            "midi": 60,
            "name": "C4",
            "ticks": 259680,
            "time": 135.25,
            "velocity": 0.7874015748031497
          },
          {
            "duration": 0.0625,
            "durationTicks": 120,
            "midi": 60,
            "name": "C4",
            "ticks": 260400,
            "time": 135.625,
            "velocity": 0.7874015748031497
          },
          {
            "duration": 0.0625,
            "durationTicks": 120,
            "midi": 60,
            "name": "C4",
            "ticks": 261120,
            "time": 136,
            "velocity": 0.7874015748031497
          },
          {
            "duration": 0.0625,
            "durationTicks": 120,
            "midi": 60,
            "name": "C4",
            "ticks": 262560,
            "time": 136.75,
            "velocity": 0.7874015748031497
          },
          {
            "duration": 0.0625,
            "durationTicks": 120,
            "midi": 60,
            "name": "C4",
            "ticks": 263520,
            "time": 137.25,
            "velocity": 0.7874015748031497
          },
          {
            "duration": 0.0625,
            "durationTicks": 120,
            "midi": 60,
            "name": "C4",
            "ticks": 264960,
            "time": 138,
            "velocity": 0.7874015748031497
          },
          {
            "duration": 0.0625,
            "durationTicks": 120,
            "midi": 60,
            "name": "C4",
            "ticks": 266400,
            "time": 138.75,
            "velocity": 0.7874015748031497
          },
          {
            "duration": 0.0625,
            "durationTicks": 120,
            "midi": 60,
            "name": "C4",
            "ticks": 267360,
            "time": 139.25,
            "velocity": 0.7874015748031497
          },
          {
            "duration": 0.0625,
            "durationTicks": 120,
            "midi": 60,
            "name": "C4",
            "ticks": 268080,
            "time": 139.625,
            "velocity": 0.7874015748031497
          },
          {
            "duration": 0.0625,
            "durationTicks": 120,
            "midi": 60,
            "name": "C4",
            "ticks": 268800,
            "time": 140,
            "velocity": 0.7874015748031497
          },
          {
            "duration": 0.0625,
            "durationTicks": 120,
            "midi": 60,
            "name": "C4",
            "ticks": 270240,
            "time": 140.75,
            "velocity": 0.7874015748031497
          },
          {
            "duration": 0.0625,
            "durationTicks": 120,
            "midi": 60,
            "name": "C4",
            "ticks": 271200,
            "time": 141.25,
            "velocity": 0.7874015748031497
          },
          {
            "duration": 0.0625,
            "durationTicks": 120,
            "midi": 60,
            "name": "C4",
            "ticks": 272640,
            "time": 142,
            "velocity": 0.7874015748031497
          },
          {
            "duration": 0.0625,
            "durationTicks": 120,
            "midi": 60,
            "name": "C4",
            "ticks": 274080,
            "time": 142.75,
            "velocity": 0.7874015748031497
          },
          {
            "duration": 0.0625,
            "durationTicks": 120,
            "midi": 60,
            "name": "C4",
            "ticks": 274320,
            "time": 142.875,
            "velocity": 0.7874015748031497
          },
          {
            "duration": 0.0625,
            "durationTicks": 120,
            "midi": 60,
            "name": "C4",
            "ticks": 275040,
            "time": 143.25,
            "velocity": 0.7874015748031497
          },
          {
            "duration": 0.0625,
            "durationTicks": 120,
            "midi": 60,
            "name": "C4",
            "ticks": 275760,
            "time": 143.625,
            "velocity": 0.7874015748031497
          },
          {
            "duration": 0.0625,
            "durationTicks": 120,
            "midi": 60,
            "name": "C4",
            "ticks": 276480,
            "time": 144,
            "velocity": 0.7874015748031497
          },
          {
            "duration": 0.0625,
            "durationTicks": 120,
            "midi": 60,
            "name": "C4",
            "ticks": 277920,
            "time": 144.75,
            "velocity": 0.7874015748031497
          },
          {
            "duration": 0.0625,
            "durationTicks": 120,
            "midi": 60,
            "name": "C4",
            "ticks": 278880,
            "time": 145.25,
            "velocity": 0.7874015748031497
          },
          {
            "duration": 0.0625,
            "durationTicks": 120,
            "midi": 60,
            "name": "C4",
            "ticks": 280320,
            "time": 146,
            "velocity": 0.7874015748031497
          },
          {
            "duration": 0.0625,
            "durationTicks": 120,
            "midi": 60,
            "name": "C4",
            "ticks": 281760,
            "time": 146.75,
            "velocity": 0.7874015748031497
          },
          {
            "duration": 0.0625,
            "durationTicks": 120,
            "midi": 60,
            "name": "C4",
            "ticks": 282720,
            "time": 147.25,
            "velocity": 0.7874015748031497
          },
          {
            "duration": 0.0625,
            "durationTicks": 120,
            "midi": 60,
            "name": "C4",
            "ticks": 283440,
            "time": 147.625,
            "velocity": 0.7874015748031497
          },
          {
            "duration": 0.0625,
            "durationTicks": 120,
            "midi": 60,
            "name": "C4",
            "ticks": 284160,
            "time": 148,
            "velocity": 0.7874015748031497
          },
          {
            "duration": 0.0625,
            "durationTicks": 120,
            "midi": 60,
            "name": "C4",
            "ticks": 285600,
            "time": 148.75,
            "velocity": 0.7874015748031497
          },
          {
            "duration": 0.0625,
            "durationTicks": 120,
            "midi": 60,
            "name": "C4",
            "ticks": 286560,
            "time": 149.25,
            "velocity": 0.7874015748031497
          },
          {
            "duration": 0.0625,
            "durationTicks": 120,
            "midi": 60,
            "name": "C4",
            "ticks": 288000,
            "time": 150,
            "velocity": 0.7874015748031497
          },
          {
            "duration": 0.0625,
            "durationTicks": 120,
            "midi": 60,
            "name": "C4",
            "ticks": 289440,
            "time": 150.75,
            "velocity": 0.7874015748031497
          },
          {
            "duration": 0.0625,
            "durationTicks": 120,
            "midi": 60,
            "name": "C4",
            "ticks": 289680,
            "time": 150.875,
            "velocity": 0.7874015748031497
          },
          {
            "duration": 0.0625,
            "durationTicks": 120,
            "midi": 60,
            "name": "C4",
            "ticks": 290400,
            "time": 151.25,
            "velocity": 0.7874015748031497
          },
          {
            "duration": 0.0625,
            "durationTicks": 120,
            "midi": 60,
            "name": "C4",
            "ticks": 291120,
            "time": 151.625,
            "velocity": 0.7874015748031497
          },
          {
            "duration": 0.0625,
            "durationTicks": 120,
            "midi": 60,
            "name": "C4",
            "ticks": 291840,
            "time": 152,
            "velocity": 0.7874015748031497
          },
          {
            "duration": 0.0625,
            "durationTicks": 120,
            "midi": 60,
            "name": "C4",
            "ticks": 293280,
            "time": 152.75,
            "velocity": 0.7874015748031497
          },
          {
            "duration": 0.0625,
            "durationTicks": 120,
            "midi": 60,
            "name": "C4",
            "ticks": 294240,
            "time": 153.25,
            "velocity": 0.7874015748031497
          },
          {
            "duration": 0.0625,
            "durationTicks": 120,
            "midi": 60,
            "name": "C4",
            "ticks": 295680,
            "time": 154,
            "velocity": 0.7874015748031497
          },
          {
            "duration": 0.0625,
            "durationTicks": 120,
            "midi": 60,
            "name": "C4",
            "ticks": 297120,
            "time": 154.75,
            "velocity": 0.7874015748031497
          },
          {
            "duration": 0.0625,
            "durationTicks": 120,
            "midi": 60,
            "name": "C4",
            "ticks": 298080,
            "time": 155.25,
            "velocity": 0.7874015748031497
          },
          {
            "duration": 0.0625,
            "durationTicks": 120,
            "midi": 60,
            "name": "C4",
            "ticks": 298800,
            "time": 155.625,
            "velocity": 0.7874015748031497
          },
          {
            "duration": 0.0625,
            "durationTicks": 120,
            "midi": 60,
            "name": "C4",
            "ticks": 299520,
            "time": 156,
            "velocity": 0.7874015748031497
          },
          {
            "duration": 0.0625,
            "durationTicks": 120,
            "midi": 60,
            "name": "C4",
            "ticks": 300960,
            "time": 156.75,
            "velocity": 0.7874015748031497
          },
          {
            "duration": 0.0625,
            "durationTicks": 120,
            "midi": 60,
            "name": "C4",
            "ticks": 301920,
            "time": 157.25,
            "velocity": 0.7874015748031497
          },
          {
            "duration": 0.0625,
            "durationTicks": 120,
            "midi": 60,
            "name": "C4",
            "ticks": 303360,
            "time": 158,
            "velocity": 0.7874015748031497
          },
          {
            "duration": 0.0625,
            "durationTicks": 120,
            "midi": 60,
            "name": "C4",
            "ticks": 304800,
            "time": 158.75,
            "velocity": 0.7874015748031497
          },
          {
            "duration": 0.0625,
            "durationTicks": 120,
            "midi": 60,
            "name": "C4",
            "ticks": 305040,
            "time": 158.875,
            "velocity": 0.7874015748031497
          },
          {
            "duration": 0.0625,
            "durationTicks": 120,
            "midi": 60,
            "name": "C4",
            "ticks": 305760,
            "time": 159.25,
            "velocity": 0.7874015748031497
          },
          {
            "duration": 0.0625,
            "durationTicks": 120,
            "midi": 60,
            "name": "C4",
            "ticks": 306480,
            "time": 159.625,
            "velocity": 0.7874015748031497
          },
          {
            "duration": 0.0625,
            "durationTicks": 120,
            "midi": 60,
            "name": "C4",
            "ticks": 307200,
            "time": 160,
            "velocity": 0.7874015748031497
          },
          {
            "duration": 0.0625,
            "durationTicks": 120,
            "midi": 60,
            "name": "C4",
            "ticks": 308640,
            "time": 160.75,
            "velocity": 0.7874015748031497
          },
          {
            "duration": 0.0625,
            "durationTicks": 120,
            "midi": 60,
            "name": "C4",
            "ticks": 309600,
            "time": 161.25,
            "velocity": 0.7874015748031497
          },
          {
            "duration": 0.0625,
            "durationTicks": 120,
            "midi": 60,
            "name": "C4",
            "ticks": 311040,
            "time": 162,
            "velocity": 0.7874015748031497
          },
          {
            "duration": 0.0625,
            "durationTicks": 120,
            "midi": 60,
            "name": "C4",
            "ticks": 312480,
            "time": 162.75,
            "velocity": 0.7874015748031497
          },
          {
            "duration": 0.0625,
            "durationTicks": 120,
            "midi": 60,
            "name": "C4",
            "ticks": 313440,
            "time": 163.25,
            "velocity": 0.7874015748031497
          },
          {
            "duration": 0.0625,
            "durationTicks": 120,
            "midi": 60,
            "name": "C4",
            "ticks": 314160,
            "time": 163.625,
            "velocity": 0.7874015748031497
          },
          {
            "duration": 0.0625,
            "durationTicks": 120,
            "midi": 60,
            "name": "C4",
            "ticks": 314880,
            "time": 164,
            "velocity": 0.7874015748031497
          },
          {
            "duration": 0.0625,
            "durationTicks": 120,
            "midi": 60,
            "name": "C4",
            "ticks": 316320,
            "time": 164.75,
            "velocity": 0.7874015748031497
          },
          {
            "duration": 0.0625,
            "durationTicks": 120,
            "midi": 60,
            "name": "C4",
            "ticks": 317280,
            "time": 165.25,
            "velocity": 0.7874015748031497
          },
          {
            "duration": 0.0625,
            "durationTicks": 120,
            "midi": 60,
            "name": "C4",
            "ticks": 318720,
            "time": 166,
            "velocity": 0.7874015748031497
          },
          {
            "duration": 0.0625,
            "durationTicks": 120,
            "midi": 60,
            "name": "C4",
            "ticks": 320160,
            "time": 166.75,
            "velocity": 0.7874015748031497
          },
          {
            "duration": 0.0625,
            "durationTicks": 120,
            "midi": 60,
            "name": "C4",
            "ticks": 320400,
            "time": 166.875,
            "velocity": 0.7874015748031497
          },
          {
            "duration": 0.0625,
            "durationTicks": 120,
            "midi": 60,
            "name": "C4",
            "ticks": 321120,
            "time": 167.25,
            "velocity": 0.7874015748031497
          },
          {
            "duration": 0.0625,
            "durationTicks": 120,
            "midi": 60,
            "name": "C4",
            "ticks": 321840,
            "time": 167.625,
            "velocity": 0.7874015748031497
          },
          {
            "duration": 0.0625,
            "durationTicks": 120,
            "midi": 60,
            "name": "C4",
            "ticks": 322560,
            "time": 168,
            "velocity": 0.7874015748031497
          },
          {
            "duration": 0.0625,
            "durationTicks": 120,
            "midi": 60,
            "name": "C4",
            "ticks": 324000,
            "time": 168.75,
            "velocity": 0.7874015748031497
          },
          {
            "duration": 0.0625,
            "durationTicks": 120,
            "midi": 60,
            "name": "C4",
            "ticks": 324960,
            "time": 169.25,
            "velocity": 0.7874015748031497
          },
          {
            "duration": 0.0625,
            "durationTicks": 120,
            "midi": 60,
            "name": "C4",
            "ticks": 326400,
            "time": 170,
            "velocity": 0.7874015748031497
          },
          {
            "duration": 0.0625,
            "durationTicks": 120,
            "midi": 60,
            "name": "C4",
            "ticks": 327840,
            "time": 170.75,
            "velocity": 0.7874015748031497
          },
          {
            "duration": 0.0625,
            "durationTicks": 120,
            "midi": 60,
            "name": "C4",
            "ticks": 328800,
            "time": 171.25,
            "velocity": 0.7874015748031497
          },
          {
            "duration": 0.0625,
            "durationTicks": 120,
            "midi": 60,
            "name": "C4",
            "ticks": 329520,
            "time": 171.625,
            "velocity": 0.7874015748031497
          },
          {
            "duration": 0.0625,
            "durationTicks": 120,
            "midi": 60,
            "name": "C4",
            "ticks": 330240,
            "time": 172,
            "velocity": 0.7874015748031497
          },
          {
            "duration": 0.0625,
            "durationTicks": 120,
            "midi": 60,
            "name": "C4",
            "ticks": 331680,
            "time": 172.75,
            "velocity": 0.7874015748031497
          },
          {
            "duration": 0.0625,
            "durationTicks": 120,
            "midi": 60,
            "name": "C4",
            "ticks": 332640,
            "time": 173.25,
            "velocity": 0.7874015748031497
          },
          {
            "duration": 0.0625,
            "durationTicks": 120,
            "midi": 60,
            "name": "C4",
            "ticks": 334080,
            "time": 174,
            "velocity": 0.7874015748031497
          },
          {
            "duration": 0.0625,
            "durationTicks": 120,
            "midi": 60,
            "name": "C4",
            "ticks": 335520,
            "time": 174.75,
            "velocity": 0.7874015748031497
          },
          {
            "duration": 0.0625,
            "durationTicks": 120,
            "midi": 60,
            "name": "C4",
            "ticks": 335760,
            "time": 174.875,
            "velocity": 0.7874015748031497
          },
          {
            "duration": 0.0625,
            "durationTicks": 120,
            "midi": 60,
            "name": "C4",
            "ticks": 336480,
            "time": 175.25,
            "velocity": 0.7874015748031497
          },
          {
            "duration": 0.0625,
            "durationTicks": 120,
            "midi": 60,
            "name": "C4",
            "ticks": 337200,
            "time": 175.625,
            "velocity": 0.7874015748031497
          },
          {
            "duration": 0.0625,
            "durationTicks": 120,
            "midi": 60,
            "name": "C4",
            "ticks": 339360,
            "time": 176.75,
            "velocity": 0.7874015748031497
          },
          {
            "duration": 0.0625,
            "durationTicks": 120,
            "midi": 60,
            "name": "C4",
            "ticks": 340320,
            "time": 177.25,
            "velocity": 0.7874015748031497
          },
          {
            "duration": 0.0625,
            "durationTicks": 120,
            "midi": 60,
            "name": "C4",
            "ticks": 341760,
            "time": 178,
            "velocity": 0.7874015748031497
          },
          {
            "duration": 0.0625,
            "durationTicks": 120,
            "midi": 60,
            "name": "C4",
            "ticks": 343200,
            "time": 178.75,
            "velocity": 0.7874015748031497
          },
          {
            "duration": 0.0625,
            "durationTicks": 120,
            "midi": 60,
            "name": "C4",
            "ticks": 344160,
            "time": 179.25,
            "velocity": 0.7874015748031497
          },
          {
            "duration": 0.0625,
            "durationTicks": 120,
            "midi": 60,
            "name": "C4",
            "ticks": 344880,
            "time": 179.625,
            "velocity": 0.7874015748031497
          },
          {
            "duration": 0.0625,
            "durationTicks": 120,
            "midi": 60,
            "name": "C4",
            "ticks": 345600,
            "time": 180,
            "velocity": 0.7874015748031497
          },
          {
            "duration": 0.0625,
            "durationTicks": 120,
            "midi": 60,
            "name": "C4",
            "ticks": 347040,
            "time": 180.75,
            "velocity": 0.7874015748031497
          },
          {
            "duration": 0.0625,
            "durationTicks": 120,
            "midi": 60,
            "name": "C4",
            "ticks": 348000,
            "time": 181.25,
            "velocity": 0.7874015748031497
          },
          {
            "duration": 0.0625,
            "durationTicks": 120,
            "midi": 60,
            "name": "C4",
            "ticks": 349440,
            "time": 182,
            "velocity": 0.7874015748031497
          },
          {
            "duration": 0.0625,
            "durationTicks": 120,
            "midi": 60,
            "name": "C4",
            "ticks": 350880,
            "time": 182.75,
            "velocity": 0.7874015748031497
          },
          {
            "duration": 0.0625,
            "durationTicks": 120,
            "midi": 60,
            "name": "C4",
            "ticks": 351120,
            "time": 182.875,
            "velocity": 0.7874015748031497
          },
          {
            "duration": 0.0625,
            "durationTicks": 120,
            "midi": 60,
            "name": "C4",
            "ticks": 351840,
            "time": 183.25,
            "velocity": 0.7874015748031497
          },
          {
            "duration": 0.0625,
            "durationTicks": 120,
            "midi": 60,
            "name": "C4",
            "ticks": 352560,
            "time": 183.625,
            "velocity": 0.7874015748031497
          },
          {
            "duration": 0.0625,
            "durationTicks": 120,
            "midi": 60,
            "name": "C4",
            "ticks": 353280,
            "time": 184,
            "velocity": 0.7874015748031497
          },
          {
            "duration": 0.0625,
            "durationTicks": 120,
            "midi": 60,
            "name": "C4",
            "ticks": 354720,
            "time": 184.75,
            "velocity": 0.7874015748031497
          },
          {
            "duration": 0.0625,
            "durationTicks": 120,
            "midi": 60,
            "name": "C4",
            "ticks": 355680,
            "time": 185.25,
            "velocity": 0.7874015748031497
          },
          {
            "duration": 0.0625,
            "durationTicks": 120,
            "midi": 60,
            "name": "C4",
            "ticks": 357120,
            "time": 186,
            "velocity": 0.7874015748031497
          },
          {
            "duration": 0.0625,
            "durationTicks": 120,
            "midi": 60,
            "name": "C4",
            "ticks": 358560,
            "time": 186.75,
            "velocity": 0.7874015748031497
          },
          {
            "duration": 0.0625,
            "durationTicks": 120,
            "midi": 60,
            "name": "C4",
            "ticks": 359520,
            "time": 187.25,
            "velocity": 0.7874015748031497
          },
          {
            "duration": 0.0625,
            "durationTicks": 120,
            "midi": 60,
            "name": "C4",
            "ticks": 360240,
            "time": 187.625,
            "velocity": 0.7874015748031497
          },
          {
            "duration": 0.0625,
            "durationTicks": 120,
            "midi": 60,
            "name": "C4",
            "ticks": 360960,
            "time": 188,
            "velocity": 0.7874015748031497
          },
          {
            "duration": 0.0625,
            "durationTicks": 120,
            "midi": 60,
            "name": "C4",
            "ticks": 362400,
            "time": 188.75,
            "velocity": 0.7874015748031497
          },
          {
            "duration": 0.0625,
            "durationTicks": 120,
            "midi": 60,
            "name": "C4",
            "ticks": 363360,
            "time": 189.25,
            "velocity": 0.7874015748031497
          },
          {
            "duration": 0.0625,
            "durationTicks": 120,
            "midi": 60,
            "name": "C4",
            "ticks": 364800,
            "time": 190,
            "velocity": 0.7874015748031497
          },
          {
            "duration": 0.0625,
            "durationTicks": 120,
            "midi": 60,
            "name": "C4",
            "ticks": 366240,
            "time": 190.75,
            "velocity": 0.7874015748031497
          },
          {
            "duration": 0.0625,
            "durationTicks": 120,
            "midi": 60,
            "name": "C4",
            "ticks": 366480,
            "time": 190.875,
            "velocity": 0.7874015748031497
          },
          {
            "duration": 0.0625,
            "durationTicks": 120,
            "midi": 60,
            "name": "C4",
            "ticks": 367200,
            "time": 191.25,
            "velocity": 0.7874015748031497
          },
          {
            "duration": 0.0625,
            "durationTicks": 120,
            "midi": 60,
            "name": "C4",
            "ticks": 367920,
            "time": 191.625,
            "velocity": 0.7874015748031497
          },
          {
            "duration": 0.0625,
            "durationTicks": 120,
            "midi": 60,
            "name": "C4",
            "ticks": 368640,
            "time": 192,
            "velocity": 0.7874015748031497
          },
          {
            "duration": 0.0625,
            "durationTicks": 120,
            "midi": 60,
            "name": "C4",
            "ticks": 370080,
            "time": 192.75,
            "velocity": 0.7874015748031497
          },
          {
            "duration": 0.0625,
            "durationTicks": 120,
            "midi": 60,
            "name": "C4",
            "ticks": 371040,
            "time": 193.25,
            "velocity": 0.7874015748031497
          },
          {
            "duration": 0.0625,
            "durationTicks": 120,
            "midi": 60,
            "name": "C4",
            "ticks": 372480,
            "time": 194,
            "velocity": 0.7874015748031497
          },
          {
            "duration": 0.0625,
            "durationTicks": 120,
            "midi": 60,
            "name": "C4",
            "ticks": 373920,
            "time": 194.75,
            "velocity": 0.7874015748031497
          },
          {
            "duration": 0.0625,
            "durationTicks": 120,
            "midi": 60,
            "name": "C4",
            "ticks": 374880,
            "time": 195.25,
            "velocity": 0.7874015748031497
          },
          {
            "duration": 0.0625,
            "durationTicks": 120,
            "midi": 60,
            "name": "C4",
            "ticks": 375600,
            "time": 195.625,
            "velocity": 0.7874015748031497
          },
          {
            "duration": 0.0625,
            "durationTicks": 120,
            "midi": 60,
            "name": "C4",
            "ticks": 376320,
            "time": 196,
            "velocity": 0.7874015748031497
          },
          {
            "duration": 0.0625,
            "durationTicks": 120,
            "midi": 60,
            "name": "C4",
            "ticks": 377760,
            "time": 196.75,
            "velocity": 0.7874015748031497
          },
          {
            "duration": 0.0625,
            "durationTicks": 120,
            "midi": 60,
            "name": "C4",
            "ticks": 378720,
            "time": 197.25,
            "velocity": 0.7874015748031497
          },
          {
            "duration": 0.0625,
            "durationTicks": 120,
            "midi": 60,
            "name": "C4",
            "ticks": 380160,
            "time": 198,
            "velocity": 0.7874015748031497
          },
          {
            "duration": 0.0625,
            "durationTicks": 120,
            "midi": 60,
            "name": "C4",
            "ticks": 381600,
            "time": 198.75,
            "velocity": 0.7874015748031497
          },
          {
            "duration": 0.0625,
            "durationTicks": 120,
            "midi": 60,
            "name": "C4",
            "ticks": 381840,
            "time": 198.875,
            "velocity": 0.7874015748031497
          },
          {
            "duration": 0.0625,
            "durationTicks": 120,
            "midi": 60,
            "name": "C4",
            "ticks": 382560,
            "time": 199.25,
            "velocity": 0.7874015748031497
          },
          {
            "duration": 0.0625,
            "durationTicks": 120,
            "midi": 60,
            "name": "C4",
            "ticks": 383280,
            "time": 199.625,
            "velocity": 0.7874015748031497
          },
          {
            "duration": 0.0625,
            "durationTicks": 120,
            "midi": 60,
            "name": "C4",
            "ticks": 384000,
            "time": 200,
            "velocity": 0.7874015748031497
          },
          {
            "duration": 0.0625,
            "durationTicks": 120,
            "midi": 60,
            "name": "C4",
            "ticks": 385440,
            "time": 200.75,
            "velocity": 0.7874015748031497
          },
          {
            "duration": 0.0625,
            "durationTicks": 120,
            "midi": 60,
            "name": "C4",
            "ticks": 386400,
            "time": 201.25,
            "velocity": 0.7874015748031497
          },
          {
            "duration": 0.0625,
            "durationTicks": 120,
            "midi": 60,
            "name": "C4",
            "ticks": 387840,
            "time": 202,
            "velocity": 0.7874015748031497
          },
          {
            "duration": 0.0625,
            "durationTicks": 120,
            "midi": 60,
            "name": "C4",
            "ticks": 389280,
            "time": 202.75,
            "velocity": 0.7874015748031497
          },
          {
            "duration": 0.0625,
            "durationTicks": 120,
            "midi": 60,
            "name": "C4",
            "ticks": 390240,
            "time": 203.25,
            "velocity": 0.7874015748031497
          },
          {
            "duration": 0.0625,
            "durationTicks": 120,
            "midi": 60,
            "name": "C4",
            "ticks": 390960,
            "time": 203.625,
            "velocity": 0.7874015748031497
          },
          {
            "duration": 0.0625,
            "durationTicks": 120,
            "midi": 60,
            "name": "C4",
            "ticks": 391680,
            "time": 204,
            "velocity": 0.7874015748031497
          },
          {
            "duration": 0.0625,
            "durationTicks": 120,
            "midi": 60,
            "name": "C4",
            "ticks": 393120,
            "time": 204.75,
            "velocity": 0.7874015748031497
          },
          {
            "duration": 0.0625,
            "durationTicks": 120,
            "midi": 60,
            "name": "C4",
            "ticks": 394080,
            "time": 205.25,
            "velocity": 0.7874015748031497
          },
          {
            "duration": 0.0625,
            "durationTicks": 120,
            "midi": 60,
            "name": "C4",
            "ticks": 395520,
            "time": 206,
            "velocity": 0.7874015748031497
          },
          {
            "duration": 0.0625,
            "durationTicks": 120,
            "midi": 60,
            "name": "C4",
            "ticks": 396960,
            "time": 206.75,
            "velocity": 0.7874015748031497
          },
          {
            "duration": 0.0625,
            "durationTicks": 120,
            "midi": 60,
            "name": "C4",
            "ticks": 397200,
            "time": 206.875,
            "velocity": 0.7874015748031497
          },
          {
            "duration": 0.0625,
            "durationTicks": 120,
            "midi": 60,
            "name": "C4",
            "ticks": 397920,
            "time": 207.25,
            "velocity": 0.7874015748031497
          },
          {
            "duration": 0.0625,
            "durationTicks": 120,
            "midi": 60,
            "name": "C4",
            "ticks": 398640,
            "time": 207.625,
            "velocity": 0.7874015748031497
          },
          {
            "duration": 0.0625,
            "durationTicks": 120,
            "midi": 60,
            "name": "C4",
            "ticks": 399360,
            "time": 208,
            "velocity": 0.7874015748031497
          },
          {
            "duration": 0.0625,
            "durationTicks": 120,
            "midi": 60,
            "name": "C4",
            "ticks": 400800,
            "time": 208.75,
            "velocity": 0.7874015748031497
          },
          {
            "duration": 0.0625,
            "durationTicks": 120,
            "midi": 60,
            "name": "C4",
            "ticks": 401760,
            "time": 209.25,
            "velocity": 0.7874015748031497
          },
          {
            "duration": 0.0625,
            "durationTicks": 120,
            "midi": 60,
            "name": "C4",
            "ticks": 403200,
            "time": 210,
            "velocity": 0.7874015748031497
          },
          {
            "duration": 0.0625,
            "durationTicks": 120,
            "midi": 60,
            "name": "C4",
            "ticks": 404640,
            "time": 210.75,
            "velocity": 0.7874015748031497
          },
          {
            "duration": 0.0625,
            "durationTicks": 120,
            "midi": 60,
            "name": "C4",
            "ticks": 405600,
            "time": 211.25,
            "velocity": 0.7874015748031497
          },
          {
            "duration": 0.0625,
            "durationTicks": 120,
            "midi": 60,
            "name": "C4",
            "ticks": 406320,
            "time": 211.625,
            "velocity": 0.7874015748031497
          },
          {
            "duration": 0.0625,
            "durationTicks": 120,
            "midi": 60,
            "name": "C4",
            "ticks": 407040,
            "time": 212,
            "velocity": 0.7874015748031497
          },
          {
            "duration": 0.0625,
            "durationTicks": 120,
            "midi": 60,
            "name": "C4",
            "ticks": 408480,
            "time": 212.75,
            "velocity": 0.7874015748031497
          },
          {
            "duration": 0.0625,
            "durationTicks": 120,
            "midi": 60,
            "name": "C4",
            "ticks": 409440,
            "time": 213.25,
            "velocity": 0.7874015748031497
          },
          {
            "duration": 0.0625,
            "durationTicks": 120,
            "midi": 60,
            "name": "C4",
            "ticks": 410880,
            "time": 214,
            "velocity": 0.7874015748031497
          },
          {
            "duration": 0.0625,
            "durationTicks": 120,
            "midi": 60,
            "name": "C4",
            "ticks": 412320,
            "time": 214.75,
            "velocity": 0.7874015748031497
          },
          {
            "duration": 0.0625,
            "durationTicks": 120,
            "midi": 60,
            "name": "C4",
            "ticks": 412560,
            "time": 214.875,
            "velocity": 0.7874015748031497
          },
          {
            "duration": 0.0625,
            "durationTicks": 120,
            "midi": 60,
            "name": "C4",
            "ticks": 413280,
            "time": 215.25,
            "velocity": 0.7874015748031497
          },
          {
            "duration": 0.0625,
            "durationTicks": 120,
            "midi": 60,
            "name": "C4",
            "ticks": 414000,
            "time": 215.625,
            "velocity": 0.7874015748031497
          },
          {
            "duration": 0.0625,
            "durationTicks": 120,
            "midi": 60,
            "name": "C4",
            "ticks": 414720,
            "time": 216,
            "velocity": 0.7874015748031497
          },
          {
            "duration": 0.0625,
            "durationTicks": 120,
            "midi": 60,
            "name": "C4",
            "ticks": 416160,
            "time": 216.75,
            "velocity": 0.7874015748031497
          },
          {
            "duration": 0.0625,
            "durationTicks": 120,
            "midi": 60,
            "name": "C4",
            "ticks": 417120,
            "time": 217.25,
            "velocity": 0.7874015748031497
          },
          {
            "duration": 0.0625,
            "durationTicks": 120,
            "midi": 60,
            "name": "C4",
            "ticks": 418560,
            "time": 218,
            "velocity": 0.7874015748031497
          },
          {
            "duration": 0.0625,
            "durationTicks": 120,
            "midi": 60,
            "name": "C4",
            "ticks": 420000,
            "time": 218.75,
            "velocity": 0.7874015748031497
          },
          {
            "duration": 0.0625,
            "durationTicks": 120,
            "midi": 60,
            "name": "C4",
            "ticks": 420960,
            "time": 219.25,
            "velocity": 0.7874015748031497
          },
          {
            "duration": 0.0625,
            "durationTicks": 120,
            "midi": 60,
            "name": "C4",
            "ticks": 421680,
            "time": 219.625,
            "velocity": 0.7874015748031497
          },
          {
            "duration": 0.0625,
            "durationTicks": 120,
            "midi": 60,
            "name": "C4",
            "ticks": 422400,
            "time": 220,
            "velocity": 0.7874015748031497
          },
          {
            "duration": 0.0625,
            "durationTicks": 120,
            "midi": 60,
            "name": "C4",
            "ticks": 423840,
            "time": 220.75,
            "velocity": 0.7874015748031497
          },
          {
            "duration": 0.0625,
            "durationTicks": 120,
            "midi": 60,
            "name": "C4",
            "ticks": 424800,
            "time": 221.25,
            "velocity": 0.7874015748031497
          },
          {
            "duration": 0.0625,
            "durationTicks": 120,
            "midi": 60,
            "name": "C4",
            "ticks": 426240,
            "time": 222,
            "velocity": 0.7874015748031497
          },
          {
            "duration": 0.0625,
            "durationTicks": 120,
            "midi": 60,
            "name": "C4",
            "ticks": 427680,
            "time": 222.75,
            "velocity": 0.7874015748031497
          },
          {
            "duration": 0.0625,
            "durationTicks": 120,
            "midi": 60,
            "name": "C4",
            "ticks": 427920,
            "time": 222.875,
            "velocity": 0.7874015748031497
          },
          {
            "duration": 0.0625,
            "durationTicks": 120,
            "midi": 60,
            "name": "C4",
            "ticks": 428640,
            "time": 223.25,
            "velocity": 0.7874015748031497
          },
          {
            "duration": 0.0625,
            "durationTicks": 120,
            "midi": 60,
            "name": "C4",
            "ticks": 429360,
            "time": 223.625,
            "velocity": 0.7874015748031497
          },
          {
            "duration": 0.0625,
            "durationTicks": 120,
            "midi": 60,
            "name": "C4",
            "ticks": 430080,
            "time": 224,
            "velocity": 0.7874015748031497
          },
          {
            "duration": 0.0625,
            "durationTicks": 120,
            "midi": 60,
            "name": "C4",
            "ticks": 431520,
            "time": 224.75,
            "velocity": 0.7874015748031497
          },
          {
            "duration": 0.0625,
            "durationTicks": 120,
            "midi": 60,
            "name": "C4",
            "ticks": 432480,
            "time": 225.25,
            "velocity": 0.7874015748031497
          },
          {
            "duration": 0.0625,
            "durationTicks": 120,
            "midi": 60,
            "name": "C4",
            "ticks": 433920,
            "time": 226,
            "velocity": 0.7874015748031497
          },
          {
            "duration": 0.0625,
            "durationTicks": 120,
            "midi": 60,
            "name": "C4",
            "ticks": 435360,
            "time": 226.75,
            "velocity": 0.7874015748031497
          },
          {
            "duration": 0.0625,
            "durationTicks": 120,
            "midi": 60,
            "name": "C4",
            "ticks": 436320,
            "time": 227.25,
            "velocity": 0.7874015748031497
          },
          {
            "duration": 0.0625,
            "durationTicks": 120,
            "midi": 60,
            "name": "C4",
            "ticks": 437040,
            "time": 227.625,
            "velocity": 0.7874015748031497
          },
          {
            "duration": 0.0625,
            "durationTicks": 120,
            "midi": 60,
            "name": "C4",
            "ticks": 437760,
            "time": 228,
            "velocity": 0.7874015748031497
          },
          {
            "duration": 0.0625,
            "durationTicks": 120,
            "midi": 60,
            "name": "C4",
            "ticks": 439200,
            "time": 228.75,
            "velocity": 0.7874015748031497
          },
          {
            "duration": 0.0625,
            "durationTicks": 120,
            "midi": 60,
            "name": "C4",
            "ticks": 440160,
            "time": 229.25,
            "velocity": 0.7874015748031497
          },
          {
            "duration": 0.0625,
            "durationTicks": 120,
            "midi": 60,
            "name": "C4",
            "ticks": 441600,
            "time": 230,
            "velocity": 0.7874015748031497
          },
          {
            "duration": 0.0625,
            "durationTicks": 120,
            "midi": 60,
            "name": "C4",
            "ticks": 443040,
            "time": 230.75,
            "velocity": 0.7874015748031497
          },
          {
            "duration": 0.0625,
            "durationTicks": 120,
            "midi": 60,
            "name": "C4",
            "ticks": 443280,
            "time": 230.875,
            "velocity": 0.7874015748031497
          },
          {
            "duration": 0.0625,
            "durationTicks": 120,
            "midi": 60,
            "name": "C4",
            "ticks": 444000,
            "time": 231.25,
            "velocity": 0.7874015748031497
          },
          {
            "duration": 0.0625,
            "durationTicks": 120,
            "midi": 60,
            "name": "C4",
            "ticks": 444720,
            "time": 231.625,
            "velocity": 0.7874015748031497
          },
          {
            "duration": 0.0625,
            "durationTicks": 120,
            "midi": 60,
            "name": "C4",
            "ticks": 445440,
            "time": 232,
            "velocity": 0.7874015748031497
          },
          {
            "duration": 0.0625,
            "durationTicks": 120,
            "midi": 60,
            "name": "C4",
            "ticks": 446880,
            "time": 232.75,
            "velocity": 0.7874015748031497
          },
          {
            "duration": 0.0625,
            "durationTicks": 120,
            "midi": 60,
            "name": "C4",
            "ticks": 447840,
            "time": 233.25,
            "velocity": 0.7874015748031497
          },
          {
            "duration": 0.0625,
            "durationTicks": 120,
            "midi": 60,
            "name": "C4",
            "ticks": 449280,
            "time": 234,
            "velocity": 0.7874015748031497
          },
          {
            "duration": 0.0625,
            "durationTicks": 120,
            "midi": 60,
            "name": "C4",
            "ticks": 450720,
            "time": 234.75,
            "velocity": 0.7874015748031497
          },
          {
            "duration": 0.0625,
            "durationTicks": 120,
            "midi": 60,
            "name": "C4",
            "ticks": 451680,
            "time": 235.25,
            "velocity": 0.7874015748031497
          },
          {
            "duration": 0.0625,
            "durationTicks": 120,
            "midi": 60,
            "name": "C4",
            "ticks": 452400,
            "time": 235.625,
            "velocity": 0.7874015748031497
          },
          {
            "duration": 0.0625,
            "durationTicks": 120,
            "midi": 60,
            "name": "C4",
            "ticks": 453120,
            "time": 236,
            "velocity": 0.7874015748031497
          },
          {
            "duration": 0.0625,
            "durationTicks": 120,
            "midi": 60,
            "name": "C4",
            "ticks": 454560,
            "time": 236.75,
            "velocity": 0.7874015748031497
          },
          {
            "duration": 0.0625,
            "durationTicks": 120,
            "midi": 60,
            "name": "C4",
            "ticks": 455520,
            "time": 237.25,
            "velocity": 0.7874015748031497
          },
          {
            "duration": 0.0625,
            "durationTicks": 120,
            "midi": 60,
            "name": "C4",
            "ticks": 456960,
            "time": 238,
            "velocity": 0.7874015748031497
          },
          {
            "duration": 0.0625,
            "durationTicks": 120,
            "midi": 60,
            "name": "C4",
            "ticks": 458400,
            "time": 238.75,
            "velocity": 0.7874015748031497
          },
          {
            "duration": 0.0625,
            "durationTicks": 120,
            "midi": 60,
            "name": "C4",
            "ticks": 458640,
            "time": 238.875,
            "velocity": 0.7874015748031497
          },
          {
            "duration": 0.0625,
            "durationTicks": 120,
            "midi": 60,
            "name": "C4",
            "ticks": 459360,
            "time": 239.25,
            "velocity": 0.7874015748031497
          },
          {
            "duration": 0.0625,
            "durationTicks": 120,
            "midi": 60,
            "name": "C4",
            "ticks": 460080,
            "time": 239.625,
            "velocity": 0.7874015748031497
          },
          {
            "duration": 0.0625,
            "durationTicks": 120,
            "midi": 60,
            "name": "C4",
            "ticks": 460800,
            "time": 240,
            "velocity": 0.7874015748031497
          },
          {
            "duration": 0.0625,
            "durationTicks": 120,
            "midi": 60,
            "name": "C4",
            "ticks": 463200,
            "time": 241.25,
            "velocity": 0.7874015748031497
          },
          {
            "duration": 0.0625,
            "durationTicks": 120,
            "midi": 60,
            "name": "C4",
            "ticks": 464640,
            "time": 242,
            "velocity": 0.7874015748031497
          },
          {
            "duration": 0.0625,
            "durationTicks": 120,
            "midi": 60,
            "name": "C4",
            "ticks": 467040,
            "time": 243.25,
            "velocity": 0.7874015748031497
          },
          {
            "duration": 0.0625,
            "durationTicks": 120,
            "midi": 60,
            "name": "C4",
            "ticks": 467760,
            "time": 243.625,
            "velocity": 0.7874015748031497
          },
          {
            "duration": 0.0625,
            "durationTicks": 120,
            "midi": 60,
            "name": "C4",
            "ticks": 468480,
            "time": 244,
            "velocity": 0.7874015748031497
          },
          {
            "duration": 0.0625,
            "durationTicks": 120,
            "midi": 60,
            "name": "C4",
            "ticks": 470880,
            "time": 245.25,
            "velocity": 0.7874015748031497
          },
          {
            "duration": 0.0625,
            "durationTicks": 120,
            "midi": 60,
            "name": "C4",
            "ticks": 472320,
            "time": 246,
            "velocity": 0.7874015748031497
          },
          {
            "duration": 0.0625,
            "durationTicks": 120,
            "midi": 60,
            "name": "C4",
            "ticks": 473760,
            "time": 246.75,
            "velocity": 0.7874015748031497
          },
          {
            "duration": 0.0625,
            "durationTicks": 120,
            "midi": 60,
            "name": "C4",
            "ticks": 474000,
            "time": 246.875,
            "velocity": 0.7874015748031497
          },
          {
            "duration": 0.0625,
            "durationTicks": 120,
            "midi": 60,
            "name": "C4",
            "ticks": 474720,
            "time": 247.25,
            "velocity": 0.7874015748031497
          },
          {
            "duration": 0.0625,
            "durationTicks": 120,
            "midi": 60,
            "name": "C4",
            "ticks": 475440,
            "time": 247.625,
            "velocity": 0.7874015748031497
          },
          {
            "duration": 0.0625,
            "durationTicks": 120,
            "midi": 60,
            "name": "C4",
            "ticks": 476160,
            "time": 248,
            "velocity": 0.7874015748031497
          },
          {
            "duration": 0.0625,
            "durationTicks": 120,
            "midi": 60,
            "name": "C4",
            "ticks": 478560,
            "time": 249.25,
            "velocity": 0.7874015748031497
          },
          {
            "duration": 0.0625,
            "durationTicks": 120,
            "midi": 60,
            "name": "C4",
            "ticks": 480000,
            "time": 250,
            "velocity": 0.7874015748031497
          },
          {
            "duration": 0.0625,
            "durationTicks": 120,
            "midi": 60,
            "name": "C4",
            "ticks": 482400,
            "time": 251.25,
            "velocity": 0.7874015748031497
          },
          {
            "duration": 0.0625,
            "durationTicks": 120,
            "midi": 60,
            "name": "C4",
            "ticks": 483120,
            "time": 251.625,
            "velocity": 0.7874015748031497
          },
          {
            "duration": 0.0625,
            "durationTicks": 120,
            "midi": 60,
            "name": "C4",
            "ticks": 483840,
            "time": 252,
            "velocity": 0.7874015748031497
          },
          {
            "duration": 0.0625,
            "durationTicks": 120,
            "midi": 60,
            "name": "C4",
            "ticks": 486240,
            "time": 253.25,
            "velocity": 0.7874015748031497
          },
          {
            "duration": 0.0625,
            "durationTicks": 120,
            "midi": 60,
            "name": "C4",
            "ticks": 487680,
            "time": 254,
            "velocity": 0.7874015748031497
          },
          {
            "duration": 0.0625,
            "durationTicks": 120,
            "midi": 60,
            "name": "C4",
            "ticks": 489120,
            "time": 254.75,
            "velocity": 0.7874015748031497
          },
          {
            "duration": 0.0625,
            "durationTicks": 120,
            "midi": 60,
            "name": "C4",
            "ticks": 489360,
            "time": 254.875,
            "velocity": 0.7874015748031497
          },
          {
            "duration": 0.0625,
            "durationTicks": 120,
            "midi": 60,
            "name": "C4",
            "ticks": 490080,
            "time": 255.25,
            "velocity": 0.7874015748031497
          },
          {
            "duration": 0.0625,
            "durationTicks": 120,
            "midi": 60,
            "name": "C4",
            "ticks": 490800,
            "time": 255.625,
            "velocity": 0.7874015748031497
          },
          {
            "duration": 0.0625,
            "durationTicks": 120,
            "midi": 60,
            "name": "C4",
            "ticks": 491520,
            "time": 256,
            "velocity": 0.7874015748031497
          },
          {
            "duration": 0.0625,
            "durationTicks": 120,
            "midi": 60,
            "name": "C4",
            "ticks": 493920,
            "time": 257.25,
            "velocity": 0.7874015748031497
          },
          {
            "duration": 0.0625,
            "durationTicks": 120,
            "midi": 60,
            "name": "C4",
            "ticks": 495360,
            "time": 258,
            "velocity": 0.7874015748031497
          },
          {
            "duration": 0.0625,
            "durationTicks": 120,
            "midi": 60,
            "name": "C4",
            "ticks": 497760,
            "time": 259.25,
            "velocity": 0.7874015748031497
          },
          {
            "duration": 0.0625,
            "durationTicks": 120,
            "midi": 60,
            "name": "C4",
            "ticks": 498480,
            "time": 259.625,
            "velocity": 0.7874015748031497
          },
          {
            "duration": 0.0625,
            "durationTicks": 120,
            "midi": 60,
            "name": "C4",
            "ticks": 499200,
            "time": 260,
            "velocity": 0.7874015748031497
          },
          {
            "duration": 0.0625,
            "durationTicks": 120,
            "midi": 60,
            "name": "C4",
            "ticks": 501600,
            "time": 261.25,
            "velocity": 0.7874015748031497
          },
          {
            "duration": 0.0625,
            "durationTicks": 120,
            "midi": 60,
            "name": "C4",
            "ticks": 503040,
            "time": 262,
            "velocity": 0.7874015748031497
          },
          {
            "duration": 0.0625,
            "durationTicks": 120,
            "midi": 60,
            "name": "C4",
            "ticks": 504480,
            "time": 262.75,
            "velocity": 0.7874015748031497
          },
          {
            "duration": 0.0625,
            "durationTicks": 120,
            "midi": 60,
            "name": "C4",
            "ticks": 504720,
            "time": 262.875,
            "velocity": 0.7874015748031497
          },
          {
            "duration": 0.0625,
            "durationTicks": 120,
            "midi": 60,
            "name": "C4",
            "ticks": 505440,
            "time": 263.25,
            "velocity": 0.7874015748031497
          },
          {
            "duration": 0.0625,
            "durationTicks": 120,
            "midi": 60,
            "name": "C4",
            "ticks": 506160,
            "time": 263.625,
            "velocity": 0.7874015748031497
          },
          {
            "duration": 0.0625,
            "durationTicks": 120,
            "midi": 60,
            "name": "C4",
            "ticks": 506880,
            "time": 264,
            "velocity": 0.7874015748031497
          },
          {
            "duration": 0.0625,
            "durationTicks": 120,
            "midi": 60,
            "name": "C4",
            "ticks": 509280,
            "time": 265.25,
            "velocity": 0.7874015748031497
          },
          {
            "duration": 0.0625,
            "durationTicks": 120,
            "midi": 60,
            "name": "C4",
            "ticks": 510720,
            "time": 266,
            "velocity": 0.7874015748031497
          },
          {
            "duration": 0.0625,
            "durationTicks": 120,
            "midi": 60,
            "name": "C4",
            "ticks": 513120,
            "time": 267.25,
            "velocity": 0.7874015748031497
          },
          {
            "duration": 0.0625,
            "durationTicks": 120,
            "midi": 60,
            "name": "C4",
            "ticks": 513840,
            "time": 267.625,
            "velocity": 0.7874015748031497
          },
          {
            "duration": 0.0625,
            "durationTicks": 120,
            "midi": 60,
            "name": "C4",
            "ticks": 514560,
            "time": 268,
            "velocity": 0.7874015748031497
          },
          {
            "duration": 0.0625,
            "durationTicks": 120,
            "midi": 60,
            "name": "C4",
            "ticks": 516960,
            "time": 269.25,
            "velocity": 0.7874015748031497
          },
          {
            "duration": 0.0625,
            "durationTicks": 120,
            "midi": 60,
            "name": "C4",
            "ticks": 518400,
            "time": 270,
            "velocity": 0.7874015748031497
          },
          {
            "duration": 0.0625,
            "durationTicks": 120,
            "midi": 60,
            "name": "C4",
            "ticks": 519840,
            "time": 270.75,
            "velocity": 0.7874015748031497
          },
          {
            "duration": 0.0625,
            "durationTicks": 120,
            "midi": 60,
            "name": "C4",
            "ticks": 520080,
            "time": 270.875,
            "velocity": 0.7874015748031497
          },
          {
            "duration": 0.0625,
            "durationTicks": 120,
            "midi": 60,
            "name": "C4",
            "ticks": 520800,
            "time": 271.25,
            "velocity": 0.7874015748031497
          },
          {
            "duration": 0.0625,
            "durationTicks": 120,
            "midi": 60,
            "name": "C4",
            "ticks": 521520,
            "time": 271.625,
            "velocity": 0.7874015748031497
          }
        ],
        "endOfTrackTicks": 521640
      },
      {
        "channel": 1,
        "controlChanges": {},
        "pitchBends": [],
        "instrument": {
          "family": "piano",
          "number": 0,
          "name": "acoustic grand piano"
        },
        "name": "Snare - MIDI\u0000",
        "notes": [
          {
            "duration": 0.0625,
            "durationTicks": 120,
            "midi": 60,
            "name": "C4",
            "ticks": 29760,
            "time": 15.5,
            "velocity": 0.7874015748031497
          },
          {
            "duration": 0.0625,
            "durationTicks": 120,
            "midi": 60,
            "name": "C4",
            "ticks": 31680,
            "time": 16.5,
            "velocity": 0.7874015748031497
          },
          {
            "duration": 0.0625,
            "durationTicks": 120,
            "midi": 60,
            "name": "C4",
            "ticks": 33600,
            "time": 17.5,
            "velocity": 0.7874015748031497
          },
          {
            "duration": 0.0625,
            "durationTicks": 120,
            "midi": 60,
            "name": "C4",
            "ticks": 35520,
            "time": 18.5,
            "velocity": 0.7874015748031497
          },
          {
            "duration": 0.0625,
            "durationTicks": 120,
            "midi": 60,
            "name": "C4",
            "ticks": 37440,
            "time": 19.5,
            "velocity": 0.7874015748031497
          },
          {
            "duration": 0.0625,
            "durationTicks": 120,
            "midi": 60,
            "name": "C4",
            "ticks": 39360,
            "time": 20.5,
            "velocity": 0.7874015748031497
          },
          {
            "duration": 0.0625,
            "durationTicks": 120,
            "midi": 60,
            "name": "C4",
            "ticks": 41280,
            "time": 21.5,
            "velocity": 0.7874015748031497
          },
          {
            "duration": 0.0625,
            "durationTicks": 120,
            "midi": 60,
            "name": "C4",
            "ticks": 43200,
            "time": 22.5,
            "velocity": 0.7874015748031497
          },
          {
            "duration": 0.0625,
            "durationTicks": 120,
            "midi": 60,
            "name": "C4",
            "ticks": 45120,
            "time": 23.5,
            "velocity": 0.7874015748031497
          },
          {
            "duration": 0.0625,
            "durationTicks": 120,
            "midi": 60,
            "name": "C4",
            "ticks": 47040,
            "time": 24.5,
            "velocity": 0.7874015748031497
          },
          {
            "duration": 0.0625,
            "durationTicks": 120,
            "midi": 60,
            "name": "C4",
            "ticks": 48960,
            "time": 25.5,
            "velocity": 0.7874015748031497
          },
          {
            "duration": 0.0625,
            "durationTicks": 120,
            "midi": 60,
            "name": "C4",
            "ticks": 50880,
            "time": 26.5,
            "velocity": 0.7874015748031497
          },
          {
            "duration": 0.0625,
            "durationTicks": 120,
            "midi": 60,
            "name": "C4",
            "ticks": 52800,
            "time": 27.5,
            "velocity": 0.7874015748031497
          },
          {
            "duration": 0.0625,
            "durationTicks": 120,
            "midi": 60,
            "name": "C4",
            "ticks": 54720,
            "time": 28.5,
            "velocity": 0.7874015748031497
          },
          {
            "duration": 0.0625,
            "durationTicks": 120,
            "midi": 60,
            "name": "C4",
            "ticks": 56640,
            "time": 29.5,
            "velocity": 0.7874015748031497
          },
          {
            "duration": 0.0625,
            "durationTicks": 120,
            "midi": 60,
            "name": "C4",
            "ticks": 58560,
            "time": 30.5,
            "velocity": 0.7874015748031497
          },
          {
            "duration": 0.0625,
            "durationTicks": 120,
            "midi": 60,
            "name": "C4",
            "ticks": 60480,
            "time": 31.5,
            "velocity": 0.7874015748031497
          },
          {
            "duration": 0.0625,
            "durationTicks": 120,
            "midi": 60,
            "name": "C4",
            "ticks": 62400,
            "time": 32.5,
            "velocity": 0.7874015748031497
          },
          {
            "duration": 0.0625,
            "durationTicks": 120,
            "midi": 60,
            "name": "C4",
            "ticks": 64320,
            "time": 33.5,
            "velocity": 0.7874015748031497
          },
          {
            "duration": 0.0625,
            "durationTicks": 120,
            "midi": 60,
            "name": "C4",
            "ticks": 66240,
            "time": 34.5,
            "velocity": 0.7874015748031497
          },
          {
            "duration": 0.0625,
            "durationTicks": 120,
            "midi": 60,
            "name": "C4",
            "ticks": 68160,
            "time": 35.5,
            "velocity": 0.7874015748031497
          },
          {
            "duration": 0.0625,
            "durationTicks": 120,
            "midi": 60,
            "name": "C4",
            "ticks": 70080,
            "time": 36.5,
            "velocity": 0.7874015748031497
          },
          {
            "duration": 0.0625,
            "durationTicks": 120,
            "midi": 60,
            "name": "C4",
            "ticks": 72000,
            "time": 37.5,
            "velocity": 0.7874015748031497
          },
          {
            "duration": 0.0625,
            "durationTicks": 120,
            "midi": 60,
            "name": "C4",
            "ticks": 73920,
            "time": 38.5,
            "velocity": 0.7874015748031497
          },
          {
            "duration": 0.0625,
            "durationTicks": 120,
            "midi": 60,
            "name": "C4",
            "ticks": 75840,
            "time": 39.5,
            "velocity": 0.7874015748031497
          },
          {
            "duration": 0.0625,
            "durationTicks": 120,
            "midi": 60,
            "name": "C4",
            "ticks": 77760,
            "time": 40.5,
            "velocity": 0.7874015748031497
          },
          {
            "duration": 0.0625,
            "durationTicks": 120,
            "midi": 60,
            "name": "C4",
            "ticks": 79680,
            "time": 41.5,
            "velocity": 0.7874015748031497
          },
          {
            "duration": 0.0625,
            "durationTicks": 120,
            "midi": 60,
            "name": "C4",
            "ticks": 81600,
            "time": 42.5,
            "velocity": 0.7874015748031497
          },
          {
            "duration": 0.0625,
            "durationTicks": 120,
            "midi": 60,
            "name": "C4",
            "ticks": 83520,
            "time": 43.5,
            "velocity": 0.7874015748031497
          },
          {
            "duration": 0.0625,
            "durationTicks": 120,
            "midi": 60,
            "name": "C4",
            "ticks": 85440,
            "time": 44.5,
            "velocity": 0.7874015748031497
          },
          {
            "duration": 0.0625,
            "durationTicks": 120,
            "midi": 60,
            "name": "C4",
            "ticks": 87360,
            "time": 45.5,
            "velocity": 0.7874015748031497
          },
          {
            "duration": 0.0625,
            "durationTicks": 120,
            "midi": 60,
            "name": "C4",
            "ticks": 89280,
            "time": 46.5,
            "velocity": 0.7874015748031497
          },
          {
            "duration": 0.0625,
            "durationTicks": 120,
            "midi": 60,
            "name": "C4",
            "ticks": 91200,
            "time": 47.5,
            "velocity": 0.7874015748031497
          },
          {
            "duration": 0.0625,
            "durationTicks": 120,
            "midi": 60,
            "name": "C4",
            "ticks": 93120,
            "time": 48.5,
            "velocity": 0.7874015748031497
          },
          {
            "duration": 0.0625,
            "durationTicks": 120,
            "midi": 60,
            "name": "C4",
            "ticks": 95040,
            "time": 49.5,
            "velocity": 0.7874015748031497
          },
          {
            "duration": 0.0625,
            "durationTicks": 120,
            "midi": 60,
            "name": "C4",
            "ticks": 96960,
            "time": 50.5,
            "velocity": 0.7874015748031497
          },
          {
            "duration": 0.0625,
            "durationTicks": 120,
            "midi": 60,
            "name": "C4",
            "ticks": 98880,
            "time": 51.5,
            "velocity": 0.7874015748031497
          },
          {
            "duration": 0.0625,
            "durationTicks": 120,
            "midi": 60,
            "name": "C4",
            "ticks": 100800,
            "time": 52.5,
            "velocity": 0.7874015748031497
          },
          {
            "duration": 0.0625,
            "durationTicks": 120,
            "midi": 60,
            "name": "C4",
            "ticks": 102720,
            "time": 53.5,
            "velocity": 0.7874015748031497
          },
          {
            "duration": 0.0625,
            "durationTicks": 120,
            "midi": 60,
            "name": "C4",
            "ticks": 104640,
            "time": 54.5,
            "velocity": 0.7874015748031497
          },
          {
            "duration": 0.0625,
            "durationTicks": 120,
            "midi": 60,
            "name": "C4",
            "ticks": 106560,
            "time": 55.5,
            "velocity": 0.7874015748031497
          },
          {
            "duration": 0.0625,
            "durationTicks": 120,
            "midi": 60,
            "name": "C4",
            "ticks": 108480,
            "time": 56.5,
            "velocity": 0.7874015748031497
          },
          {
            "duration": 0.0625,
            "durationTicks": 120,
            "midi": 60,
            "name": "C4",
            "ticks": 110400,
            "time": 57.5,
            "velocity": 0.7874015748031497
          },
          {
            "duration": 0.0625,
            "durationTicks": 120,
            "midi": 60,
            "name": "C4",
            "ticks": 112320,
            "time": 58.5,
            "velocity": 0.7874015748031497
          },
          {
            "duration": 0.0625,
            "durationTicks": 120,
            "midi": 60,
            "name": "C4",
            "ticks": 114240,
            "time": 59.5,
            "velocity": 0.7874015748031497
          },
          {
            "duration": 0.0625,
            "durationTicks": 120,
            "midi": 60,
            "name": "C4",
            "ticks": 116160,
            "time": 60.5,
            "velocity": 0.7874015748031497
          },
          {
            "duration": 0.0625,
            "durationTicks": 120,
            "midi": 60,
            "name": "C4",
            "ticks": 118080,
            "time": 61.5,
            "velocity": 0.7874015748031497
          },
          {
            "duration": 0.0625,
            "durationTicks": 120,
            "midi": 60,
            "name": "C4",
            "ticks": 120000,
            "time": 62.5,
            "velocity": 0.7874015748031497
          },
          {
            "duration": 0.0625,
            "durationTicks": 120,
            "midi": 60,
            "name": "C4",
            "ticks": 121920,
            "time": 63.5,
            "velocity": 0.7874015748031497
          },
          {
            "duration": 0.0625,
            "durationTicks": 120,
            "midi": 60,
            "name": "C4",
            "ticks": 123840,
            "time": 64.5,
            "velocity": 0.7874015748031497
          },
          {
            "duration": 0.0625,
            "durationTicks": 120,
            "midi": 60,
            "name": "C4",
            "ticks": 125760,
            "time": 65.5,
            "velocity": 0.7874015748031497
          },
          {
            "duration": 0.0625,
            "durationTicks": 120,
            "midi": 60,
            "name": "C4",
            "ticks": 127680,
            "time": 66.5,
            "velocity": 0.7874015748031497
          },
          {
            "duration": 0.0625,
            "durationTicks": 120,
            "midi": 60,
            "name": "C4",
            "ticks": 129600,
            "time": 67.5,
            "velocity": 0.7874015748031497
          },
          {
            "duration": 0.0625,
            "durationTicks": 120,
            "midi": 60,
            "name": "C4",
            "ticks": 131520,
            "time": 68.5,
            "velocity": 0.7874015748031497
          },
          {
            "duration": 0.0625,
            "durationTicks": 120,
            "midi": 60,
            "name": "C4",
            "ticks": 133440,
            "time": 69.5,
            "velocity": 0.7874015748031497
          },
          {
            "duration": 0.0625,
            "durationTicks": 120,
            "midi": 60,
            "name": "C4",
            "ticks": 135360,
            "time": 70.5,
            "velocity": 0.7874015748031497
          },
          {
            "duration": 0.0625,
            "durationTicks": 120,
            "midi": 60,
            "name": "C4",
            "ticks": 137280,
            "time": 71.5,
            "velocity": 0.7874015748031497
          },
          {
            "duration": 0.0625,
            "durationTicks": 120,
            "midi": 60,
            "name": "C4",
            "ticks": 139200,
            "time": 72.5,
            "velocity": 0.7874015748031497
          },
          {
            "duration": 0.0625,
            "durationTicks": 120,
            "midi": 60,
            "name": "C4",
            "ticks": 141120,
            "time": 73.5,
            "velocity": 0.7874015748031497
          },
          {
            "duration": 0.0625,
            "durationTicks": 120,
            "midi": 60,
            "name": "C4",
            "ticks": 143040,
            "time": 74.5,
            "velocity": 0.7874015748031497
          },
          {
            "duration": 0.0625,
            "durationTicks": 120,
            "midi": 60,
            "name": "C4",
            "ticks": 144960,
            "time": 75.5,
            "velocity": 0.7874015748031497
          },
          {
            "duration": 0.0625,
            "durationTicks": 120,
            "midi": 60,
            "name": "C4",
            "ticks": 146880,
            "time": 76.5,
            "velocity": 0.7874015748031497
          },
          {
            "duration": 0.0625,
            "durationTicks": 120,
            "midi": 60,
            "name": "C4",
            "ticks": 148800,
            "time": 77.5,
            "velocity": 0.7874015748031497
          },
          {
            "duration": 0.0625,
            "durationTicks": 120,
            "midi": 60,
            "name": "C4",
            "ticks": 150720,
            "time": 78.5,
            "velocity": 0.7874015748031497
          },
          {
            "duration": 0.0625,
            "durationTicks": 120,
            "midi": 60,
            "name": "C4",
            "ticks": 152640,
            "time": 79.5,
            "velocity": 0.7874015748031497
          },
          {
            "duration": 0.0625,
            "durationTicks": 120,
            "midi": 60,
            "name": "C4",
            "ticks": 154560,
            "time": 80.5,
            "velocity": 0.7874015748031497
          },
          {
            "duration": 0.0625,
            "durationTicks": 120,
            "midi": 60,
            "name": "C4",
            "ticks": 156480,
            "time": 81.5,
            "velocity": 0.7874015748031497
          },
          {
            "duration": 0.0625,
            "durationTicks": 120,
            "midi": 60,
            "name": "C4",
            "ticks": 158400,
            "time": 82.5,
            "velocity": 0.7874015748031497
          },
          {
            "duration": 0.0625,
            "durationTicks": 120,
            "midi": 60,
            "name": "C4",
            "ticks": 160320,
            "time": 83.5,
            "velocity": 0.7874015748031497
          },
          {
            "duration": 0.0625,
            "durationTicks": 120,
            "midi": 60,
            "name": "C4",
            "ticks": 162240,
            "time": 84.5,
            "velocity": 0.7874015748031497
          },
          {
            "duration": 0.0625,
            "durationTicks": 120,
            "midi": 60,
            "name": "C4",
            "ticks": 164160,
            "time": 85.5,
            "velocity": 0.7874015748031497
          },
          {
            "duration": 0.0625,
            "durationTicks": 120,
            "midi": 60,
            "name": "C4",
            "ticks": 166080,
            "time": 86.5,
            "velocity": 0.7874015748031497
          },
          {
            "duration": 0.0625,
            "durationTicks": 120,
            "midi": 60,
            "name": "C4",
            "ticks": 168000,
            "time": 87.5,
            "velocity": 0.7874015748031497
          },
          {
            "duration": 0.0625,
            "durationTicks": 120,
            "midi": 60,
            "name": "C4",
            "ticks": 169920,
            "time": 88.5,
            "velocity": 0.7874015748031497
          },
          {
            "duration": 0.0625,
            "durationTicks": 120,
            "midi": 60,
            "name": "C4",
            "ticks": 171840,
            "time": 89.5,
            "velocity": 0.7874015748031497
          },
          {
            "duration": 0.0625,
            "durationTicks": 120,
            "midi": 60,
            "name": "C4",
            "ticks": 173760,
            "time": 90.5,
            "velocity": 0.7874015748031497
          },
          {
            "duration": 0.0625,
            "durationTicks": 120,
            "midi": 60,
            "name": "C4",
            "ticks": 175680,
            "time": 91.5,
            "velocity": 0.7874015748031497
          },
          {
            "duration": 0.0625,
            "durationTicks": 120,
            "midi": 60,
            "name": "C4",
            "ticks": 177600,
            "time": 92.5,
            "velocity": 0.7874015748031497
          },
          {
            "duration": 0.0625,
            "durationTicks": 120,
            "midi": 60,
            "name": "C4",
            "ticks": 179520,
            "time": 93.5,
            "velocity": 0.7874015748031497
          },
          {
            "duration": 0.0625,
            "durationTicks": 120,
            "midi": 60,
            "name": "C4",
            "ticks": 181440,
            "time": 94.5,
            "velocity": 0.7874015748031497
          },
          {
            "duration": 0.0625,
            "durationTicks": 120,
            "midi": 60,
            "name": "C4",
            "ticks": 183360,
            "time": 95.5,
            "velocity": 0.7874015748031497
          },
          {
            "duration": 0.0625,
            "durationTicks": 120,
            "midi": 60,
            "name": "C4",
            "ticks": 185280,
            "time": 96.5,
            "velocity": 0.7874015748031497
          },
          {
            "duration": 0.0625,
            "durationTicks": 120,
            "midi": 60,
            "name": "C4",
            "ticks": 187200,
            "time": 97.5,
            "velocity": 0.7874015748031497
          },
          {
            "duration": 0.0625,
            "durationTicks": 120,
            "midi": 60,
            "name": "C4",
            "ticks": 189120,
            "time": 98.5,
            "velocity": 0.7874015748031497
          },
          {
            "duration": 0.0625,
            "durationTicks": 120,
            "midi": 60,
            "name": "C4",
            "ticks": 191040,
            "time": 99.5,
            "velocity": 0.7874015748031497
          },
          {
            "duration": 0.0625,
            "durationTicks": 120,
            "midi": 60,
            "name": "C4",
            "ticks": 192960,
            "time": 100.5,
            "velocity": 0.7874015748031497
          },
          {
            "duration": 0.0625,
            "durationTicks": 120,
            "midi": 60,
            "name": "C4",
            "ticks": 194880,
            "time": 101.5,
            "velocity": 0.7874015748031497
          },
          {
            "duration": 0.0625,
            "durationTicks": 120,
            "midi": 60,
            "name": "C4",
            "ticks": 196800,
            "time": 102.5,
            "velocity": 0.7874015748031497
          },
          {
            "duration": 0.0625,
            "durationTicks": 120,
            "midi": 60,
            "name": "C4",
            "ticks": 198720,
            "time": 103.5,
            "velocity": 0.7874015748031497
          },
          {
            "duration": 0.0625,
            "durationTicks": 120,
            "midi": 60,
            "name": "C4",
            "ticks": 200640,
            "time": 104.5,
            "velocity": 0.7874015748031497
          },
          {
            "duration": 0.0625,
            "durationTicks": 120,
            "midi": 60,
            "name": "C4",
            "ticks": 202560,
            "time": 105.5,
            "velocity": 0.7874015748031497
          },
          {
            "duration": 0.0625,
            "durationTicks": 120,
            "midi": 60,
            "name": "C4",
            "ticks": 204480,
            "time": 106.5,
            "velocity": 0.7874015748031497
          },
          {
            "duration": 0.0625,
            "durationTicks": 120,
            "midi": 60,
            "name": "C4",
            "ticks": 206400,
            "time": 107.5,
            "velocity": 0.7874015748031497
          },
          {
            "duration": 0.0625,
            "durationTicks": 120,
            "midi": 60,
            "name": "C4",
            "ticks": 208320,
            "time": 108.5,
            "velocity": 0.7874015748031497
          },
          {
            "duration": 0.0625,
            "durationTicks": 120,
            "midi": 60,
            "name": "C4",
            "ticks": 210240,
            "time": 109.5,
            "velocity": 0.7874015748031497
          },
          {
            "duration": 0.0625,
            "durationTicks": 120,
            "midi": 60,
            "name": "C4",
            "ticks": 212160,
            "time": 110.5,
            "velocity": 0.7874015748031497
          },
          {
            "duration": 0.0625,
            "durationTicks": 120,
            "midi": 60,
            "name": "C4",
            "ticks": 214080,
            "time": 111.5,
            "velocity": 0.7874015748031497
          },
          {
            "duration": 0.0625,
            "durationTicks": 120,
            "midi": 60,
            "name": "C4",
            "ticks": 216000,
            "time": 112.5,
            "velocity": 0.7874015748031497
          },
          {
            "duration": 0.0625,
            "durationTicks": 120,
            "midi": 60,
            "name": "C4",
            "ticks": 217920,
            "time": 113.5,
            "velocity": 0.7874015748031497
          },
          {
            "duration": 0.0625,
            "durationTicks": 120,
            "midi": 60,
            "name": "C4",
            "ticks": 219840,
            "time": 114.5,
            "velocity": 0.7874015748031497
          },
          {
            "duration": 0.0625,
            "durationTicks": 120,
            "midi": 60,
            "name": "C4",
            "ticks": 221760,
            "time": 115.5,
            "velocity": 0.7874015748031497
          },
          {
            "duration": 0.0625,
            "durationTicks": 120,
            "midi": 60,
            "name": "C4",
            "ticks": 223680,
            "time": 116.5,
            "velocity": 0.7874015748031497
          },
          {
            "duration": 0.0625,
            "durationTicks": 120,
            "midi": 60,
            "name": "C4",
            "ticks": 225600,
            "time": 117.5,
            "velocity": 0.7874015748031497
          },
          {
            "duration": 0.0625,
            "durationTicks": 120,
            "midi": 60,
            "name": "C4",
            "ticks": 227520,
            "time": 118.5,
            "velocity": 0.7874015748031497
          },
          {
            "duration": 0.0625,
            "durationTicks": 120,
            "midi": 60,
            "name": "C4",
            "ticks": 229440,
            "time": 119.5,
            "velocity": 0.7874015748031497
          },
          {
            "duration": 0.0625,
            "durationTicks": 120,
            "midi": 60,
            "name": "C4",
            "ticks": 231360,
            "time": 120.5,
            "velocity": 0.7874015748031497
          },
          {
            "duration": 0.0625,
            "durationTicks": 120,
            "midi": 60,
            "name": "C4",
            "ticks": 233280,
            "time": 121.5,
            "velocity": 0.7874015748031497
          },
          {
            "duration": 0.0625,
            "durationTicks": 120,
            "midi": 60,
            "name": "C4",
            "ticks": 235200,
            "time": 122.5,
            "velocity": 0.7874015748031497
          },
          {
            "duration": 0.0625,
            "durationTicks": 120,
            "midi": 60,
            "name": "C4",
            "ticks": 237120,
            "time": 123.5,
            "velocity": 0.7874015748031497
          },
          {
            "duration": 0.0625,
            "durationTicks": 120,
            "midi": 60,
            "name": "C4",
            "ticks": 239040,
            "time": 124.5,
            "velocity": 0.7874015748031497
          },
          {
            "duration": 0.0625,
            "durationTicks": 120,
            "midi": 60,
            "name": "C4",
            "ticks": 240960,
            "time": 125.5,
            "velocity": 0.7874015748031497
          },
          {
            "duration": 0.0625,
            "durationTicks": 120,
            "midi": 60,
            "name": "C4",
            "ticks": 242880,
            "time": 126.5,
            "velocity": 0.7874015748031497
          },
          {
            "duration": 0.0625,
            "durationTicks": 120,
            "midi": 60,
            "name": "C4",
            "ticks": 244800,
            "time": 127.5,
            "velocity": 0.7874015748031497
          },
          {
            "duration": 0.0625,
            "durationTicks": 120,
            "midi": 60,
            "name": "C4",
            "ticks": 246720,
            "time": 128.5,
            "velocity": 0.7874015748031497
          },
          {
            "duration": 0.0625,
            "durationTicks": 120,
            "midi": 60,
            "name": "C4",
            "ticks": 248640,
            "time": 129.5,
            "velocity": 0.7874015748031497
          },
          {
            "duration": 0.0625,
            "durationTicks": 120,
            "midi": 60,
            "name": "C4",
            "ticks": 250560,
            "time": 130.5,
            "velocity": 0.7874015748031497
          },
          {
            "duration": 0.0625,
            "durationTicks": 120,
            "midi": 60,
            "name": "C4",
            "ticks": 252480,
            "time": 131.5,
            "velocity": 0.7874015748031497
          },
          {
            "duration": 0.0625,
            "durationTicks": 120,
            "midi": 60,
            "name": "C4",
            "ticks": 254400,
            "time": 132.5,
            "velocity": 0.7874015748031497
          },
          {
            "duration": 0.0625,
            "durationTicks": 120,
            "midi": 60,
            "name": "C4",
            "ticks": 256320,
            "time": 133.5,
            "velocity": 0.7874015748031497
          },
          {
            "duration": 0.0625,
            "durationTicks": 120,
            "midi": 60,
            "name": "C4",
            "ticks": 258240,
            "time": 134.5,
            "velocity": 0.7874015748031497
          },
          {
            "duration": 0.0625,
            "durationTicks": 120,
            "midi": 60,
            "name": "C4",
            "ticks": 260160,
            "time": 135.5,
            "velocity": 0.7874015748031497
          },
          {
            "duration": 0.0625,
            "durationTicks": 120,
            "midi": 60,
            "name": "C4",
            "ticks": 262080,
            "time": 136.5,
            "velocity": 0.7874015748031497
          },
          {
            "duration": 0.0625,
            "durationTicks": 120,
            "midi": 60,
            "name": "C4",
            "ticks": 264000,
            "time": 137.5,
            "velocity": 0.7874015748031497
          },
          {
            "duration": 0.0625,
            "durationTicks": 120,
            "midi": 60,
            "name": "C4",
            "ticks": 265920,
            "time": 138.5,
            "velocity": 0.7874015748031497
          },
          {
            "duration": 0.0625,
            "durationTicks": 120,
            "midi": 60,
            "name": "C4",
            "ticks": 267840,
            "time": 139.5,
            "velocity": 0.7874015748031497
          },
          {
            "duration": 0.0625,
            "durationTicks": 120,
            "midi": 60,
            "name": "C4",
            "ticks": 269760,
            "time": 140.5,
            "velocity": 0.7874015748031497
          },
          {
            "duration": 0.0625,
            "durationTicks": 120,
            "midi": 60,
            "name": "C4",
            "ticks": 271680,
            "time": 141.5,
            "velocity": 0.7874015748031497
          },
          {
            "duration": 0.0625,
            "durationTicks": 120,
            "midi": 60,
            "name": "C4",
            "ticks": 273600,
            "time": 142.5,
            "velocity": 0.7874015748031497
          },
          {
            "duration": 0.0625,
            "durationTicks": 120,
            "midi": 60,
            "name": "C4",
            "ticks": 275520,
            "time": 143.5,
            "velocity": 0.7874015748031497
          },
          {
            "duration": 0.0625,
            "durationTicks": 120,
            "midi": 60,
            "name": "C4",
            "ticks": 277440,
            "time": 144.5,
            "velocity": 0.7874015748031497
          },
          {
            "duration": 0.0625,
            "durationTicks": 120,
            "midi": 60,
            "name": "C4",
            "ticks": 279360,
            "time": 145.5,
            "velocity": 0.7874015748031497
          },
          {
            "duration": 0.0625,
            "durationTicks": 120,
            "midi": 60,
            "name": "C4",
            "ticks": 281280,
            "time": 146.5,
            "velocity": 0.7874015748031497
          },
          {
            "duration": 0.0625,
            "durationTicks": 120,
            "midi": 60,
            "name": "C4",
            "ticks": 283200,
            "time": 147.5,
            "velocity": 0.7874015748031497
          },
          {
            "duration": 0.0625,
            "durationTicks": 120,
            "midi": 60,
            "name": "C4",
            "ticks": 285120,
            "time": 148.5,
            "velocity": 0.7874015748031497
          },
          {
            "duration": 0.0625,
            "durationTicks": 120,
            "midi": 60,
            "name": "C4",
            "ticks": 287040,
            "time": 149.5,
            "velocity": 0.7874015748031497
          },
          {
            "duration": 0.0625,
            "durationTicks": 120,
            "midi": 60,
            "name": "C4",
            "ticks": 288960,
            "time": 150.5,
            "velocity": 0.7874015748031497
          },
          {
            "duration": 0.0625,
            "durationTicks": 120,
            "midi": 60,
            "name": "C4",
            "ticks": 290880,
            "time": 151.5,
            "velocity": 0.7874015748031497
          },
          {
            "duration": 0.0625,
            "durationTicks": 120,
            "midi": 60,
            "name": "C4",
            "ticks": 292800,
            "time": 152.5,
            "velocity": 0.7874015748031497
          },
          {
            "duration": 0.0625,
            "durationTicks": 120,
            "midi": 60,
            "name": "C4",
            "ticks": 294720,
            "time": 153.5,
            "velocity": 0.7874015748031497
          },
          {
            "duration": 0.0625,
            "durationTicks": 120,
            "midi": 60,
            "name": "C4",
            "ticks": 296640,
            "time": 154.5,
            "velocity": 0.7874015748031497
          },
          {
            "duration": 0.0625,
            "durationTicks": 120,
            "midi": 60,
            "name": "C4",
            "ticks": 298560,
            "time": 155.5,
            "velocity": 0.7874015748031497
          },
          {
            "duration": 0.0625,
            "durationTicks": 120,
            "midi": 60,
            "name": "C4",
            "ticks": 300480,
            "time": 156.5,
            "velocity": 0.7874015748031497
          },
          {
            "duration": 0.0625,
            "durationTicks": 120,
            "midi": 60,
            "name": "C4",
            "ticks": 302400,
            "time": 157.5,
            "velocity": 0.7874015748031497
          },
          {
            "duration": 0.0625,
            "durationTicks": 120,
            "midi": 60,
            "name": "C4",
            "ticks": 304320,
            "time": 158.5,
            "velocity": 0.7874015748031497
          },
          {
            "duration": 0.0625,
            "durationTicks": 120,
            "midi": 60,
            "name": "C4",
            "ticks": 306240,
            "time": 159.5,
            "velocity": 0.7874015748031497
          },
          {
            "duration": 0.0625,
            "durationTicks": 120,
            "midi": 60,
            "name": "C4",
            "ticks": 308160,
            "time": 160.5,
            "velocity": 0.7874015748031497
          },
          {
            "duration": 0.0625,
            "durationTicks": 120,
            "midi": 60,
            "name": "C4",
            "ticks": 310080,
            "time": 161.5,
            "velocity": 0.7874015748031497
          },
          {
            "duration": 0.0625,
            "durationTicks": 120,
            "midi": 60,
            "name": "C4",
            "ticks": 312000,
            "time": 162.5,
            "velocity": 0.7874015748031497
          },
          {
            "duration": 0.0625,
            "durationTicks": 120,
            "midi": 60,
            "name": "C4",
            "ticks": 313920,
            "time": 163.5,
            "velocity": 0.7874015748031497
          },
          {
            "duration": 0.0625,
            "durationTicks": 120,
            "midi": 60,
            "name": "C4",
            "ticks": 315840,
            "time": 164.5,
            "velocity": 0.7874015748031497
          },
          {
            "duration": 0.0625,
            "durationTicks": 120,
            "midi": 60,
            "name": "C4",
            "ticks": 317760,
            "time": 165.5,
            "velocity": 0.7874015748031497
          },
          {
            "duration": 0.0625,
            "durationTicks": 120,
            "midi": 60,
            "name": "C4",
            "ticks": 319680,
            "time": 166.5,
            "velocity": 0.7874015748031497
          },
          {
            "duration": 0.0625,
            "durationTicks": 120,
            "midi": 60,
            "name": "C4",
            "ticks": 321600,
            "time": 167.5,
            "velocity": 0.7874015748031497
          },
          {
            "duration": 0.0625,
            "durationTicks": 120,
            "midi": 60,
            "name": "C4",
            "ticks": 323520,
            "time": 168.5,
            "velocity": 0.7874015748031497
          },
          {
            "duration": 0.0625,
            "durationTicks": 120,
            "midi": 60,
            "name": "C4",
            "ticks": 325440,
            "time": 169.5,
            "velocity": 0.7874015748031497
          },
          {
            "duration": 0.0625,
            "durationTicks": 120,
            "midi": 60,
            "name": "C4",
            "ticks": 327360,
            "time": 170.5,
            "velocity": 0.7874015748031497
          },
          {
            "duration": 0.0625,
            "durationTicks": 120,
            "midi": 60,
            "name": "C4",
            "ticks": 329280,
            "time": 171.5,
            "velocity": 0.7874015748031497
          },
          {
            "duration": 0.0625,
            "durationTicks": 120,
            "midi": 60,
            "name": "C4",
            "ticks": 331200,
            "time": 172.5,
            "velocity": 0.7874015748031497
          },
          {
            "duration": 0.0625,
            "durationTicks": 120,
            "midi": 60,
            "name": "C4",
            "ticks": 333120,
            "time": 173.5,
            "velocity": 0.7874015748031497
          },
          {
            "duration": 0.0625,
            "durationTicks": 120,
            "midi": 60,
            "name": "C4",
            "ticks": 335040,
            "time": 174.5,
            "velocity": 0.7874015748031497
          },
          {
            "duration": 0.0625,
            "durationTicks": 120,
            "midi": 60,
            "name": "C4",
            "ticks": 336960,
            "time": 175.5,
            "velocity": 0.7874015748031497
          },
          {
            "duration": 0.0625,
            "durationTicks": 120,
            "midi": 60,
            "name": "C4",
            "ticks": 338880,
            "time": 176.5,
            "velocity": 0.7874015748031497
          },
          {
            "duration": 0.0625,
            "durationTicks": 120,
            "midi": 60,
            "name": "C4",
            "ticks": 340800,
            "time": 177.5,
            "velocity": 0.7874015748031497
          },
          {
            "duration": 0.0625,
            "durationTicks": 120,
            "midi": 60,
            "name": "C4",
            "ticks": 342720,
            "time": 178.5,
            "velocity": 0.7874015748031497
          },
          {
            "duration": 0.0625,
            "durationTicks": 120,
            "midi": 60,
            "name": "C4",
            "ticks": 344640,
            "time": 179.5,
            "velocity": 0.7874015748031497
          },
          {
            "duration": 0.0625,
            "durationTicks": 120,
            "midi": 60,
            "name": "C4",
            "ticks": 346560,
            "time": 180.5,
            "velocity": 0.7874015748031497
          },
          {
            "duration": 0.0625,
            "durationTicks": 120,
            "midi": 60,
            "name": "C4",
            "ticks": 348480,
            "time": 181.5,
            "velocity": 0.7874015748031497
          },
          {
            "duration": 0.0625,
            "durationTicks": 120,
            "midi": 60,
            "name": "C4",
            "ticks": 350400,
            "time": 182.5,
            "velocity": 0.7874015748031497
          },
          {
            "duration": 0.0625,
            "durationTicks": 120,
            "midi": 60,
            "name": "C4",
            "ticks": 352320,
            "time": 183.5,
            "velocity": 0.7874015748031497
          },
          {
            "duration": 0.0625,
            "durationTicks": 120,
            "midi": 60,
            "name": "C4",
            "ticks": 354240,
            "time": 184.5,
            "velocity": 0.7874015748031497
          },
          {
            "duration": 0.0625,
            "durationTicks": 120,
            "midi": 60,
            "name": "C4",
            "ticks": 356160,
            "time": 185.5,
            "velocity": 0.7874015748031497
          },
          {
            "duration": 0.0625,
            "durationTicks": 120,
            "midi": 60,
            "name": "C4",
            "ticks": 358080,
            "time": 186.5,
            "velocity": 0.7874015748031497
          },
          {
            "duration": 0.0625,
            "durationTicks": 120,
            "midi": 60,
            "name": "C4",
            "ticks": 360000,
            "time": 187.5,
            "velocity": 0.7874015748031497
          },
          {
            "duration": 0.0625,
            "durationTicks": 120,
            "midi": 60,
            "name": "C4",
            "ticks": 361920,
            "time": 188.5,
            "velocity": 0.7874015748031497
          },
          {
            "duration": 0.0625,
            "durationTicks": 120,
            "midi": 60,
            "name": "C4",
            "ticks": 363840,
            "time": 189.5,
            "velocity": 0.7874015748031497
          },
          {
            "duration": 0.0625,
            "durationTicks": 120,
            "midi": 60,
            "name": "C4",
            "ticks": 365760,
            "time": 190.5,
            "velocity": 0.7874015748031497
          },
          {
            "duration": 0.0625,
            "durationTicks": 120,
            "midi": 60,
            "name": "C4",
            "ticks": 367680,
            "time": 191.5,
            "velocity": 0.7874015748031497
          },
          {
            "duration": 0.0625,
            "durationTicks": 120,
            "midi": 60,
            "name": "C4",
            "ticks": 369600,
            "time": 192.5,
            "velocity": 0.7874015748031497
          },
          {
            "duration": 0.0625,
            "durationTicks": 120,
            "midi": 60,
            "name": "C4",
            "ticks": 371520,
            "time": 193.5,
            "velocity": 0.7874015748031497
          },
          {
            "duration": 0.0625,
            "durationTicks": 120,
            "midi": 60,
            "name": "C4",
            "ticks": 373440,
            "time": 194.5,
            "velocity": 0.7874015748031497
          },
          {
            "duration": 0.0625,
            "durationTicks": 120,
            "midi": 60,
            "name": "C4",
            "ticks": 375360,
            "time": 195.5,
            "velocity": 0.7874015748031497
          },
          {
            "duration": 0.0625,
            "durationTicks": 120,
            "midi": 60,
            "name": "C4",
            "ticks": 377280,
            "time": 196.5,
            "velocity": 0.7874015748031497
          },
          {
            "duration": 0.0625,
            "durationTicks": 120,
            "midi": 60,
            "name": "C4",
            "ticks": 379200,
            "time": 197.5,
            "velocity": 0.7874015748031497
          },
          {
            "duration": 0.0625,
            "durationTicks": 120,
            "midi": 60,
            "name": "C4",
            "ticks": 381120,
            "time": 198.5,
            "velocity": 0.7874015748031497
          },
          {
            "duration": 0.0625,
            "durationTicks": 120,
            "midi": 60,
            "name": "C4",
            "ticks": 383040,
            "time": 199.5,
            "velocity": 0.7874015748031497
          },
          {
            "duration": 0.0625,
            "durationTicks": 120,
            "midi": 60,
            "name": "C4",
            "ticks": 384960,
            "time": 200.5,
            "velocity": 0.7874015748031497
          },
          {
            "duration": 0.0625,
            "durationTicks": 120,
            "midi": 60,
            "name": "C4",
            "ticks": 386880,
            "time": 201.5,
            "velocity": 0.7874015748031497
          },
          {
            "duration": 0.0625,
            "durationTicks": 120,
            "midi": 60,
            "name": "C4",
            "ticks": 388800,
            "time": 202.5,
            "velocity": 0.7874015748031497
          },
          {
            "duration": 0.0625,
            "durationTicks": 120,
            "midi": 60,
            "name": "C4",
            "ticks": 390720,
            "time": 203.5,
            "velocity": 0.7874015748031497
          },
          {
            "duration": 0.0625,
            "durationTicks": 120,
            "midi": 60,
            "name": "C4",
            "ticks": 392640,
            "time": 204.5,
            "velocity": 0.7874015748031497
          },
          {
            "duration": 0.0625,
            "durationTicks": 120,
            "midi": 60,
            "name": "C4",
            "ticks": 394560,
            "time": 205.5,
            "velocity": 0.7874015748031497
          },
          {
            "duration": 0.0625,
            "durationTicks": 120,
            "midi": 60,
            "name": "C4",
            "ticks": 396480,
            "time": 206.5,
            "velocity": 0.7874015748031497
          },
          {
            "duration": 0.0625,
            "durationTicks": 120,
            "midi": 60,
            "name": "C4",
            "ticks": 398400,
            "time": 207.5,
            "velocity": 0.7874015748031497
          },
          {
            "duration": 0.0625,
            "durationTicks": 120,
            "midi": 60,
            "name": "C4",
            "ticks": 400320,
            "time": 208.5,
            "velocity": 0.7874015748031497
          },
          {
            "duration": 0.0625,
            "durationTicks": 120,
            "midi": 60,
            "name": "C4",
            "ticks": 402240,
            "time": 209.5,
            "velocity": 0.7874015748031497
          },
          {
            "duration": 0.0625,
            "durationTicks": 120,
            "midi": 60,
            "name": "C4",
            "ticks": 404160,
            "time": 210.5,
            "velocity": 0.7874015748031497
          },
          {
            "duration": 0.0625,
            "durationTicks": 120,
            "midi": 60,
            "name": "C4",
            "ticks": 406080,
            "time": 211.5,
            "velocity": 0.7874015748031497
          },
          {
            "duration": 0.0625,
            "durationTicks": 120,
            "midi": 60,
            "name": "C4",
            "ticks": 408000,
            "time": 212.5,
            "velocity": 0.7874015748031497
          },
          {
            "duration": 0.0625,
            "durationTicks": 120,
            "midi": 60,
            "name": "C4",
            "ticks": 409920,
            "time": 213.5,
            "velocity": 0.7874015748031497
          },
          {
            "duration": 0.0625,
            "durationTicks": 120,
            "midi": 60,
            "name": "C4",
            "ticks": 411840,
            "time": 214.5,
            "velocity": 0.7874015748031497
          },
          {
            "duration": 0.0625,
            "durationTicks": 120,
            "midi": 60,
            "name": "C4",
            "ticks": 413760,
            "time": 215.5,
            "velocity": 0.7874015748031497
          },
          {
            "duration": 0.0625,
            "durationTicks": 120,
            "midi": 60,
            "name": "C4",
            "ticks": 415680,
            "time": 216.5,
            "velocity": 0.7874015748031497
          },
          {
            "duration": 0.0625,
            "durationTicks": 120,
            "midi": 60,
            "name": "C4",
            "ticks": 417600,
            "time": 217.5,
            "velocity": 0.7874015748031497
          },
          {
            "duration": 0.0625,
            "durationTicks": 120,
            "midi": 60,
            "name": "C4",
            "ticks": 419520,
            "time": 218.5,
            "velocity": 0.7874015748031497
          },
          {
            "duration": 0.0625,
            "durationTicks": 120,
            "midi": 60,
            "name": "C4",
            "ticks": 421440,
            "time": 219.5,
            "velocity": 0.7874015748031497
          },
          {
            "duration": 0.0625,
            "durationTicks": 120,
            "midi": 60,
            "name": "C4",
            "ticks": 423360,
            "time": 220.5,
            "velocity": 0.7874015748031497
          },
          {
            "duration": 0.0625,
            "durationTicks": 120,
            "midi": 60,
            "name": "C4",
            "ticks": 425280,
            "time": 221.5,
            "velocity": 0.7874015748031497
          },
          {
            "duration": 0.0625,
            "durationTicks": 120,
            "midi": 60,
            "name": "C4",
            "ticks": 427200,
            "time": 222.5,
            "velocity": 0.7874015748031497
          },
          {
            "duration": 0.0625,
            "durationTicks": 120,
            "midi": 60,
            "name": "C4",
            "ticks": 429120,
            "time": 223.5,
            "velocity": 0.7874015748031497
          },
          {
            "duration": 0.0625,
            "durationTicks": 120,
            "midi": 60,
            "name": "C4",
            "ticks": 431040,
            "time": 224.5,
            "velocity": 0.7874015748031497
          },
          {
            "duration": 0.0625,
            "durationTicks": 120,
            "midi": 60,
            "name": "C4",
            "ticks": 432960,
            "time": 225.5,
            "velocity": 0.7874015748031497
          },
          {
            "duration": 0.0625,
            "durationTicks": 120,
            "midi": 60,
            "name": "C4",
            "ticks": 434880,
            "time": 226.5,
            "velocity": 0.7874015748031497
          },
          {
            "duration": 0.0625,
            "durationTicks": 120,
            "midi": 60,
            "name": "C4",
            "ticks": 436800,
            "time": 227.5,
            "velocity": 0.7874015748031497
          },
          {
            "duration": 0.0625,
            "durationTicks": 120,
            "midi": 60,
            "name": "C4",
            "ticks": 438720,
            "time": 228.5,
            "velocity": 0.7874015748031497
          },
          {
            "duration": 0.0625,
            "durationTicks": 120,
            "midi": 60,
            "name": "C4",
            "ticks": 440640,
            "time": 229.5,
            "velocity": 0.7874015748031497
          },
          {
            "duration": 0.0625,
            "durationTicks": 120,
            "midi": 60,
            "name": "C4",
            "ticks": 442560,
            "time": 230.5,
            "velocity": 0.7874015748031497
          },
          {
            "duration": 0.0625,
            "durationTicks": 120,
            "midi": 60,
            "name": "C4",
            "ticks": 444480,
            "time": 231.5,
            "velocity": 0.7874015748031497
          },
          {
            "duration": 0.0625,
            "durationTicks": 120,
            "midi": 60,
            "name": "C4",
            "ticks": 446400,
            "time": 232.5,
            "velocity": 0.7874015748031497
          },
          {
            "duration": 0.0625,
            "durationTicks": 120,
            "midi": 60,
            "name": "C4",
            "ticks": 448320,
            "time": 233.5,
            "velocity": 0.7874015748031497
          },
          {
            "duration": 0.0625,
            "durationTicks": 120,
            "midi": 60,
            "name": "C4",
            "ticks": 450240,
            "time": 234.5,
            "velocity": 0.7874015748031497
          },
          {
            "duration": 0.0625,
            "durationTicks": 120,
            "midi": 60,
            "name": "C4",
            "ticks": 452160,
            "time": 235.5,
            "velocity": 0.7874015748031497
          },
          {
            "duration": 0.0625,
            "durationTicks": 120,
            "midi": 60,
            "name": "C4",
            "ticks": 454080,
            "time": 236.5,
            "velocity": 0.7874015748031497
          },
          {
            "duration": 0.0625,
            "durationTicks": 120,
            "midi": 60,
            "name": "C4",
            "ticks": 456000,
            "time": 237.5,
            "velocity": 0.7874015748031497
          },
          {
            "duration": 0.0625,
            "durationTicks": 120,
            "midi": 60,
            "name": "C4",
            "ticks": 457920,
            "time": 238.5,
            "velocity": 0.7874015748031497
          },
          {
            "duration": 0.0625,
            "durationTicks": 120,
            "midi": 60,
            "name": "C4",
            "ticks": 459840,
            "time": 239.5,
            "velocity": 0.7874015748031497
          },
          {
            "duration": 0.0625,
            "durationTicks": 120,
            "midi": 60,
            "name": "C4",
            "ticks": 461760,
            "time": 240.5,
            "velocity": 0.7874015748031497
          },
          {
            "duration": 0.0625,
            "durationTicks": 120,
            "midi": 60,
            "name": "C4",
            "ticks": 463680,
            "time": 241.5,
            "velocity": 0.7874015748031497
          },
          {
            "duration": 0.0625,
            "durationTicks": 120,
            "midi": 60,
            "name": "C4",
            "ticks": 465600,
            "time": 242.5,
            "velocity": 0.7874015748031497
          },
          {
            "duration": 0.0625,
            "durationTicks": 120,
            "midi": 60,
            "name": "C4",
            "ticks": 467520,
            "time": 243.5,
            "velocity": 0.7874015748031497
          },
          {
            "duration": 0.0625,
            "durationTicks": 120,
            "midi": 60,
            "name": "C4",
            "ticks": 469440,
            "time": 244.5,
            "velocity": 0.7874015748031497
          },
          {
            "duration": 0.0625,
            "durationTicks": 120,
            "midi": 60,
            "name": "C4",
            "ticks": 471360,
            "time": 245.5,
            "velocity": 0.7874015748031497
          },
          {
            "duration": 0.0625,
            "durationTicks": 120,
            "midi": 60,
            "name": "C4",
            "ticks": 473280,
            "time": 246.5,
            "velocity": 0.7874015748031497
          },
          {
            "duration": 0.0625,
            "durationTicks": 120,
            "midi": 60,
            "name": "C4",
            "ticks": 475200,
            "time": 247.5,
            "velocity": 0.7874015748031497
          },
          {
            "duration": 0.0625,
            "durationTicks": 120,
            "midi": 60,
            "name": "C4",
            "ticks": 477120,
            "time": 248.5,
            "velocity": 0.7874015748031497
          },
          {
            "duration": 0.0625,
            "durationTicks": 120,
            "midi": 60,
            "name": "C4",
            "ticks": 479040,
            "time": 249.5,
            "velocity": 0.7874015748031497
          },
          {
            "duration": 0.0625,
            "durationTicks": 120,
            "midi": 60,
            "name": "C4",
            "ticks": 480960,
            "time": 250.5,
            "velocity": 0.7874015748031497
          },
          {
            "duration": 0.0625,
            "durationTicks": 120,
            "midi": 60,
            "name": "C4",
            "ticks": 482880,
            "time": 251.5,
            "velocity": 0.7874015748031497
          },
          {
            "duration": 0.0625,
            "durationTicks": 120,
            "midi": 60,
            "name": "C4",
            "ticks": 484800,
            "time": 252.5,
            "velocity": 0.7874015748031497
          },
          {
            "duration": 0.0625,
            "durationTicks": 120,
            "midi": 60,
            "name": "C4",
            "ticks": 486720,
            "time": 253.5,
            "velocity": 0.7874015748031497
          },
          {
            "duration": 0.0625,
            "durationTicks": 120,
            "midi": 60,
            "name": "C4",
            "ticks": 488640,
            "time": 254.5,
            "velocity": 0.7874015748031497
          },
          {
            "duration": 0.0625,
            "durationTicks": 120,
            "midi": 60,
            "name": "C4",
            "ticks": 490560,
            "time": 255.5,
            "velocity": 0.7874015748031497
          },
          {
            "duration": 0.0625,
            "durationTicks": 120,
            "midi": 60,
            "name": "C4",
            "ticks": 492480,
            "time": 256.5,
            "velocity": 0.7874015748031497
          },
          {
            "duration": 0.0625,
            "durationTicks": 120,
            "midi": 60,
            "name": "C4",
            "ticks": 494400,
            "time": 257.5,
            "velocity": 0.7874015748031497
          },
          {
            "duration": 0.0625,
            "durationTicks": 120,
            "midi": 60,
            "name": "C4",
            "ticks": 496320,
            "time": 258.5,
            "velocity": 0.7874015748031497
          },
          {
            "duration": 0.0625,
            "durationTicks": 120,
            "midi": 60,
            "name": "C4",
            "ticks": 498240,
            "time": 259.5,
            "velocity": 0.7874015748031497
          },
          {
            "duration": 0.0625,
            "durationTicks": 120,
            "midi": 60,
            "name": "C4",
            "ticks": 500160,
            "time": 260.5,
            "velocity": 0.7874015748031497
          },
          {
            "duration": 0.0625,
            "durationTicks": 120,
            "midi": 60,
            "name": "C4",
            "ticks": 502080,
            "time": 261.5,
            "velocity": 0.7874015748031497
          },
          {
            "duration": 0.0625,
            "durationTicks": 120,
            "midi": 60,
            "name": "C4",
            "ticks": 504000,
            "time": 262.5,
            "velocity": 0.7874015748031497
          },
          {
            "duration": 0.0625,
            "durationTicks": 120,
            "midi": 60,
            "name": "C4",
            "ticks": 505920,
            "time": 263.5,
            "velocity": 0.7874015748031497
          },
          {
            "duration": 0.0625,
            "durationTicks": 120,
            "midi": 60,
            "name": "C4",
            "ticks": 507840,
            "time": 264.5,
            "velocity": 0.7874015748031497
          },
          {
            "duration": 0.0625,
            "durationTicks": 120,
            "midi": 60,
            "name": "C4",
            "ticks": 509760,
            "time": 265.5,
            "velocity": 0.7874015748031497
          },
          {
            "duration": 0.0625,
            "durationTicks": 120,
            "midi": 60,
            "name": "C4",
            "ticks": 511680,
            "time": 266.5,
            "velocity": 0.7874015748031497
          },
          {
            "duration": 0.0625,
            "durationTicks": 120,
            "midi": 60,
            "name": "C4",
            "ticks": 513600,
            "time": 267.5,
            "velocity": 0.7874015748031497
          },
          {
            "duration": 0.0625,
            "durationTicks": 120,
            "midi": 60,
            "name": "C4",
            "ticks": 515520,
            "time": 268.5,
            "velocity": 0.7874015748031497
          },
          {
            "duration": 0.0625,
            "durationTicks": 120,
            "midi": 60,
            "name": "C4",
            "ticks": 517440,
            "time": 269.5,
            "velocity": 0.7874015748031497
          },
          {
            "duration": 0.0625,
            "durationTicks": 120,
            "midi": 60,
            "name": "C4",
            "ticks": 519360,
            "time": 270.5,
            "velocity": 0.7874015748031497
          },
          {
            "duration": 0.0625,
            "durationTicks": 120,
            "midi": 60,
            "name": "C4",
            "ticks": 521280,
            "time": 271.5,
            "velocity": 0.7874015748031497
          }
        ],
        "endOfTrackTicks": 521400
      },
      {
        "channel": 2,
        "controlChanges": {},
        "pitchBends": [],
        "instrument": {
          "family": "piano",
          "number": 0,
          "name": "acoustic grand piano"
        },
        "name": "Clap - MIDI\u0000",
        "notes": [
          {
            "duration": 0.0625,
            "durationTicks": 120,
            "midi": 60,
            "name": "C4",
            "ticks": 60000,
            "time": 31.25,
            "velocity": 0.7874015748031497
          },
          {
            "duration": 0.0625,
            "durationTicks": 120,
            "midi": 60,
            "name": "C4",
            "ticks": 60480,
            "time": 31.5,
            "velocity": 0.7874015748031497
          },
          {
            "duration": 0.0625,
            "durationTicks": 120,
            "midi": 60,
            "name": "C4",
            "ticks": 60720,
            "time": 31.625,
            "velocity": 0.7874015748031497
          },
          {
            "duration": 0.0625,
            "durationTicks": 120,
            "midi": 60,
            "name": "C4",
            "ticks": 61200,
            "time": 31.875,
            "velocity": 0.7874015748031497
          },
          {
            "duration": 0.0625,
            "durationTicks": 120,
            "midi": 60,
            "name": "C4",
            "ticks": 90720,
            "time": 47.25,
            "velocity": 0.7874015748031497
          },
          {
            "duration": 0.0625,
            "durationTicks": 120,
            "midi": 60,
            "name": "C4",
            "ticks": 91200,
            "time": 47.5,
            "velocity": 0.7874015748031497
          },
          {
            "duration": 0.0625,
            "durationTicks": 120,
            "midi": 60,
            "name": "C4",
            "ticks": 91440,
            "time": 47.625,
            "velocity": 0.7874015748031497
          },
          {
            "duration": 0.0625,
            "durationTicks": 120,
            "midi": 60,
            "name": "C4",
            "ticks": 91920,
            "time": 47.875,
            "velocity": 0.7874015748031497
          },
          {
            "duration": 0.0625,
            "durationTicks": 120,
            "midi": 60,
            "name": "C4",
            "ticks": 121440,
            "time": 63.25,
            "velocity": 0.7874015748031497
          },
          {
            "duration": 0.0625,
            "durationTicks": 120,
            "midi": 60,
            "name": "C4",
            "ticks": 121920,
            "time": 63.5,
            "velocity": 0.7874015748031497
          },
          {
            "duration": 0.0625,
            "durationTicks": 120,
            "midi": 60,
            "name": "C4",
            "ticks": 122160,
            "time": 63.625,
            "velocity": 0.7874015748031497
          },
          {
            "duration": 0.0625,
            "durationTicks": 120,
            "midi": 60,
            "name": "C4",
            "ticks": 122640,
            "time": 63.875,
            "velocity": 0.7874015748031497
          },
          {
            "duration": 0.0625,
            "durationTicks": 120,
            "midi": 60,
            "name": "C4",
            "ticks": 152160,
            "time": 79.25,
            "velocity": 0.7874015748031497
          },
          {
            "duration": 0.0625,
            "durationTicks": 120,
            "midi": 60,
            "name": "C4",
            "ticks": 152640,
            "time": 79.5,
            "velocity": 0.7874015748031497
          },
          {
            "duration": 0.0625,
            "durationTicks": 120,
            "midi": 60,
            "name": "C4",
            "ticks": 152880,
            "time": 79.625,
            "velocity": 0.7874015748031497
          },
          {
            "duration": 0.0625,
            "durationTicks": 120,
            "midi": 60,
            "name": "C4",
            "ticks": 153360,
            "time": 79.875,
            "velocity": 0.7874015748031497
          },
          {
            "duration": 0.0625,
            "durationTicks": 120,
            "midi": 60,
            "name": "C4",
            "ticks": 182880,
            "time": 95.25,
            "velocity": 0.7874015748031497
          },
          {
            "duration": 0.0625,
            "durationTicks": 120,
            "midi": 60,
            "name": "C4",
            "ticks": 183360,
            "time": 95.5,
            "velocity": 0.7874015748031497
          },
          {
            "duration": 0.0625,
            "durationTicks": 120,
            "midi": 60,
            "name": "C4",
            "ticks": 183600,
            "time": 95.625,
            "velocity": 0.7874015748031497
          },
          {
            "duration": 0.0625,
            "durationTicks": 120,
            "midi": 60,
            "name": "C4",
            "ticks": 184080,
            "time": 95.875,
            "velocity": 0.7874015748031497
          },
          {
            "duration": 0.0625,
            "durationTicks": 120,
            "midi": 60,
            "name": "C4",
            "ticks": 213600,
            "time": 111.25,
            "velocity": 0.7874015748031497
          },
          {
            "duration": 0.0625,
            "durationTicks": 120,
            "midi": 60,
            "name": "C4",
            "ticks": 214080,
            "time": 111.5,
            "velocity": 0.7874015748031497
          },
          {
            "duration": 0.0625,
            "durationTicks": 120,
            "midi": 60,
            "name": "C4",
            "ticks": 214320,
            "time": 111.625,
            "velocity": 0.7874015748031497
          },
          {
            "duration": 0.0625,
            "durationTicks": 120,
            "midi": 60,
            "name": "C4",
            "ticks": 214800,
            "time": 111.875,
            "velocity": 0.7874015748031497
          },
          {
            "duration": 0.0625,
            "durationTicks": 120,
            "midi": 60,
            "name": "C4",
            "ticks": 244320,
            "time": 127.25,
            "velocity": 0.7874015748031497
          },
          {
            "duration": 0.0625,
            "durationTicks": 120,
            "midi": 60,
            "name": "C4",
            "ticks": 244800,
            "time": 127.5,
            "velocity": 0.7874015748031497
          },
          {
            "duration": 0.0625,
            "durationTicks": 120,
            "midi": 60,
            "name": "C4",
            "ticks": 245040,
            "time": 127.625,
            "velocity": 0.7874015748031497
          },
          {
            "duration": 0.0625,
            "durationTicks": 120,
            "midi": 60,
            "name": "C4",
            "ticks": 245520,
            "time": 127.875,
            "velocity": 0.7874015748031497
          },
          {
            "duration": 0.0625,
            "durationTicks": 120,
            "midi": 60,
            "name": "C4",
            "ticks": 275040,
            "time": 143.25,
            "velocity": 0.7874015748031497
          },
          {
            "duration": 0.0625,
            "durationTicks": 120,
            "midi": 60,
            "name": "C4",
            "ticks": 275520,
            "time": 143.5,
            "velocity": 0.7874015748031497
          },
          {
            "duration": 0.0625,
            "durationTicks": 120,
            "midi": 60,
            "name": "C4",
            "ticks": 275760,
            "time": 143.625,
            "velocity": 0.7874015748031497
          },
          {
            "duration": 0.0625,
            "durationTicks": 120,
            "midi": 60,
            "name": "C4",
            "ticks": 276240,
            "time": 143.875,
            "velocity": 0.7874015748031497
          },
          {
            "duration": 0.0625,
            "durationTicks": 120,
            "midi": 60,
            "name": "C4",
            "ticks": 305760,
            "time": 159.25,
            "velocity": 0.7874015748031497
          },
          {
            "duration": 0.0625,
            "durationTicks": 120,
            "midi": 60,
            "name": "C4",
            "ticks": 306240,
            "time": 159.5,
            "velocity": 0.7874015748031497
          },
          {
            "duration": 0.0625,
            "durationTicks": 120,
            "midi": 60,
            "name": "C4",
            "ticks": 306480,
            "time": 159.625,
            "velocity": 0.7874015748031497
          },
          {
            "duration": 0.0625,
            "durationTicks": 120,
            "midi": 60,
            "name": "C4",
            "ticks": 306960,
            "time": 159.875,
            "velocity": 0.7874015748031497
          },
          {
            "duration": 0.0625,
            "durationTicks": 120,
            "midi": 60,
            "name": "C4",
            "ticks": 336480,
            "time": 175.25,
            "velocity": 0.7874015748031497
          },
          {
            "duration": 0.0625,
            "durationTicks": 120,
            "midi": 60,
            "name": "C4",
            "ticks": 336960,
            "time": 175.5,
            "velocity": 0.7874015748031497
          },
          {
            "duration": 0.0625,
            "durationTicks": 120,
            "midi": 60,
            "name": "C4",
            "ticks": 337200,
            "time": 175.625,
            "velocity": 0.7874015748031497
          },
          {
            "duration": 0.0625,
            "durationTicks": 120,
            "midi": 60,
            "name": "C4",
            "ticks": 337680,
            "time": 175.875,
            "velocity": 0.7874015748031497
          },
          {
            "duration": 0.0625,
            "durationTicks": 120,
            "midi": 60,
            "name": "C4",
            "ticks": 367200,
            "time": 191.25,
            "velocity": 0.7874015748031497
          },
          {
            "duration": 0.0625,
            "durationTicks": 120,
            "midi": 60,
            "name": "C4",
            "ticks": 367680,
            "time": 191.5,
            "velocity": 0.7874015748031497
          },
          {
            "duration": 0.0625,
            "durationTicks": 120,
            "midi": 60,
            "name": "C4",
            "ticks": 367920,
            "time": 191.625,
            "velocity": 0.7874015748031497
          },
          {
            "duration": 0.0625,
            "durationTicks": 120,
            "midi": 60,
            "name": "C4",
            "ticks": 368400,
            "time": 191.875,
            "velocity": 0.7874015748031497
          },
          {
            "duration": 0.0625,
            "durationTicks": 120,
            "midi": 60,
            "name": "C4",
            "ticks": 397920,
            "time": 207.25,
            "velocity": 0.7874015748031497
          },
          {
            "duration": 0.0625,
            "durationTicks": 120,
            "midi": 60,
            "name": "C4",
            "ticks": 398400,
            "time": 207.5,
            "velocity": 0.7874015748031497
          },
          {
            "duration": 0.0625,
            "durationTicks": 120,
            "midi": 60,
            "name": "C4",
            "ticks": 398640,
            "time": 207.625,
            "velocity": 0.7874015748031497
          },
          {
            "duration": 0.0625,
            "durationTicks": 120,
            "midi": 60,
            "name": "C4",
            "ticks": 399120,
            "time": 207.875,
            "velocity": 0.7874015748031497
          },
          {
            "duration": 0.0625,
            "durationTicks": 120,
            "midi": 60,
            "name": "C4",
            "ticks": 428640,
            "time": 223.25,
            "velocity": 0.7874015748031497
          },
          {
            "duration": 0.0625,
            "durationTicks": 120,
            "midi": 60,
            "name": "C4",
            "ticks": 429120,
            "time": 223.5,
            "velocity": 0.7874015748031497
          },
          {
            "duration": 0.0625,
            "durationTicks": 120,
            "midi": 60,
            "name": "C4",
            "ticks": 429360,
            "time": 223.625,
            "velocity": 0.7874015748031497
          },
          {
            "duration": 0.0625,
            "durationTicks": 120,
            "midi": 60,
            "name": "C4",
            "ticks": 429840,
            "time": 223.875,
            "velocity": 0.7874015748031497
          },
          {
            "duration": 0.0625,
            "durationTicks": 120,
            "midi": 60,
            "name": "C4",
            "ticks": 459360,
            "time": 239.25,
            "velocity": 0.7874015748031497
          },
          {
            "duration": 0.0625,
            "durationTicks": 120,
            "midi": 60,
            "name": "C4",
            "ticks": 459840,
            "time": 239.5,
            "velocity": 0.7874015748031497
          },
          {
            "duration": 0.0625,
            "durationTicks": 120,
            "midi": 60,
            "name": "C4",
            "ticks": 460080,
            "time": 239.625,
            "velocity": 0.7874015748031497
          },
          {
            "duration": 0.0625,
            "durationTicks": 120,
            "midi": 60,
            "name": "C4",
            "ticks": 460560,
            "time": 239.875,
            "velocity": 0.7874015748031497
          }
        ],
        "endOfTrackTicks": 460680
      },
      {
        "channel": 3,
        "controlChanges": {},
        "pitchBends": [],
        "instrument": {
          "family": "piano",
          "number": 0,
          "name": "acoustic grand piano"
        },
        "name": "Bass - MIDI\u0000",
        "notes": [
          {
            "duration": 0.25,
            "durationTicks": 480,
            "midi": 52,
            "name": "E3",
            "ticks": 30240,
            "time": 15.75,
            "velocity": 0.8661417322834646
          },
          {
            "duration": 0.0625,
            "durationTicks": 120,
            "midi": 55,
            "name": "G3",
            "ticks": 30960,
            "time": 16.125,
            "velocity": 0.7874015748031497
          },
          {
            "duration": 0.0625,
            "durationTicks": 120,
            "midi": 57,
            "name": "A3",
            "ticks": 31200,
            "time": 16.25,
            "velocity": 0.7874015748031497
          },
          {
            "duration": 0.125,
            "durationTicks": 240,
            "midi": 57,
            "name": "A3",
            "ticks": 31440,
            "time": 16.375,
            "velocity": 0.7874015748031497
          },
          {
            "duration": 0.0625,
            "durationTicks": 120,
            "midi": 58,
            "name": "A#3",
            "ticks": 31920,
            "time": 16.625,
            "velocity": 0.7874015748031497
          },
          {
            "duration": 0.125,
            "durationTicks": 240,
            "midi": 57,
            "name": "A3",
            "ticks": 32160,
            "time": 16.75,
            "velocity": 0.7874015748031497
          },
          {
            "duration": 0.0625,
            "durationTicks": 120,
            "midi": 55,
            "name": "G3",
            "ticks": 32400,
            "time": 16.875,
            "velocity": 0.7874015748031497
          },
          {
            "duration": 0.125,
            "durationTicks": 240,
            "midi": 58,
            "name": "A#3",
            "ticks": 32640,
            "time": 17,
            "velocity": 0.7874015748031497
          },
          {
            "duration": 0.0625,
            "durationTicks": 120,
            "midi": 55,
            "name": "G3",
            "ticks": 33120,
            "time": 17.25,
            "velocity": 0.7874015748031497
          },
          {
            "duration": 0.1875,
            "durationTicks": 360,
            "midi": 57,
            "name": "A3",
            "ticks": 33360,
            "time": 17.375,
            "velocity": 0.7874015748031497
          },
          {
            "duration": 0.125,
            "durationTicks": 240,
            "midi": 52,
            "name": "E3",
            "ticks": 38400,
            "time": 20,
            "velocity": 0.7874015748031497
          },
          {
            "duration": 0.0625,
            "durationTicks": 120,
            "midi": 55,
            "name": "G3",
            "ticks": 38640,
            "time": 20.125,
            "velocity": 0.7874015748031497
          },
          {
            "duration": 0.0625,
            "durationTicks": 120,
            "midi": 57,
            "name": "A3",
            "ticks": 38880,
            "time": 20.25,
            "velocity": 0.7874015748031497
          },
          {
            "duration": 0.125,
            "durationTicks": 240,
            "midi": 57,
            "name": "A3",
            "ticks": 39120,
            "time": 20.375,
            "velocity": 0.7874015748031497
          },
          {
            "duration": 0.0625,
            "durationTicks": 120,
            "midi": 58,
            "name": "A#3",
            "ticks": 39600,
            "time": 20.625,
            "velocity": 0.7874015748031497
          },
          {
            "duration": 0.125,
            "durationTicks": 240,
            "midi": 57,
            "name": "A3",
            "ticks": 39840,
            "time": 20.75,
            "velocity": 0.7874015748031497
          },
          {
            "duration": 0.0625,
            "durationTicks": 120,
            "midi": 55,
            "name": "G3",
            "ticks": 40080,
            "time": 20.875,
            "velocity": 0.7874015748031497
          },
          {
            "duration": 0.125,
            "durationTicks": 240,
            "midi": 58,
            "name": "A#3",
            "ticks": 40320,
            "time": 21,
            "velocity": 0.7874015748031497
          },
          {
            "duration": 0.0625,
            "durationTicks": 120,
            "midi": 55,
            "name": "G3",
            "ticks": 40800,
            "time": 21.25,
            "velocity": 0.7874015748031497
          },
          {
            "duration": 0.1875,
            "durationTicks": 360,
            "midi": 57,
            "name": "A3",
            "ticks": 41040,
            "time": 21.375,
            "velocity": 0.7874015748031497
          },
          {
            "duration": 0.0625,
            "durationTicks": 120,
            "midi": 55,
            "name": "G3",
            "ticks": 46320,
            "time": 24.125,
            "velocity": 0.7874015748031497
          },
          {
            "duration": 0.0625,
            "durationTicks": 120,
            "midi": 57,
            "name": "A3",
            "ticks": 46560,
            "time": 24.25,
            "velocity": 0.7874015748031497
          },
          {
            "duration": 0.125,
            "durationTicks": 240,
            "midi": 57,
            "name": "A3",
            "ticks": 46800,
            "time": 24.375,
            "velocity": 0.7874015748031497
          },
          {
            "duration": 0.0625,
            "durationTicks": 120,
            "midi": 58,
            "name": "A#3",
            "ticks": 47280,
            "time": 24.625,
            "velocity": 0.7874015748031497
          },
          {
            "duration": 0.125,
            "durationTicks": 240,
            "midi": 57,
            "name": "A3",
            "ticks": 47520,
            "time": 24.75,
            "velocity": 0.7874015748031497
          },
          {
            "duration": 0.0625,
            "durationTicks": 120,
            "midi": 55,
            "name": "G3",
            "ticks": 47760,
            "time": 24.875,
            "velocity": 0.7874015748031497
          },
          {
            "duration": 0.125,
            "durationTicks": 240,
            "midi": 58,
            "name": "A#3",
            "ticks": 48000,
            "time": 25,
            "velocity": 0.7874015748031497
          },
          {
            "duration": 0.0625,
            "durationTicks": 120,
            "midi": 55,
            "name": "G3",
            "ticks": 48480,
            "time": 25.25,
            "velocity": 0.7874015748031497
          },
          {
            "duration": 0.1875,
            "durationTicks": 360,
            "midi": 57,
            "name": "A3",
            "ticks": 48720,
            "time": 25.375,
            "velocity": 0.7874015748031497
          },
          {
            "duration": 0.125,
            "durationTicks": 240,
            "midi": 52,
            "name": "E3",
            "ticks": 53760,
            "time": 28,
            "velocity": 0.7874015748031497
          },
          {
            "duration": 0.0625,
            "durationTicks": 120,
            "midi": 55,
            "name": "G3",
            "ticks": 54000,
            "time": 28.125,
            "velocity": 0.7874015748031497
          },
          {
            "duration": 0.0625,
            "durationTicks": 120,
            "midi": 57,
            "name": "A3",
            "ticks": 54240,
            "time": 28.25,
            "velocity": 0.7874015748031497
          },
          {
            "duration": 0.125,
            "durationTicks": 240,
            "midi": 57,
            "name": "A3",
            "ticks": 54480,
            "time": 28.375,
            "velocity": 0.7874015748031497
          },
          {
            "duration": 0.0625,
            "durationTicks": 120,
            "midi": 58,
            "name": "A#3",
            "ticks": 54960,
            "time": 28.625,
            "velocity": 0.7874015748031497
          },
          {
            "duration": 0.125,
            "durationTicks": 240,
            "midi": 57,
            "name": "A3",
            "ticks": 55200,
            "time": 28.75,
            "velocity": 0.7874015748031497
          },
          {
            "duration": 0.0625,
            "durationTicks": 120,
            "midi": 55,
            "name": "G3",
            "ticks": 55440,
            "time": 28.875,
            "velocity": 0.7874015748031497
          },
          {
            "duration": 0.125,
            "durationTicks": 240,
            "midi": 58,
            "name": "A#3",
            "ticks": 55680,
            "time": 29,
            "velocity": 0.7874015748031497
          },
          {
            "duration": 0.0625,
            "durationTicks": 120,
            "midi": 55,
            "name": "G3",
            "ticks": 56160,
            "time": 29.25,
            "velocity": 0.7874015748031497
          },
          {
            "duration": 0.1875,
            "durationTicks": 360,
            "midi": 57,
            "name": "A3",
            "ticks": 56400,
            "time": 29.375,
            "velocity": 0.7874015748031497
          },
          {
            "duration": 0.75,
            "durationTicks": 1440,
            "midi": 48,
            "name": "C3",
            "ticks": 57600,
            "time": 30,
            "velocity": 0.7874015748031497
          },
          {
            "duration": 1.25,
            "durationTicks": 2400,
            "midi": 53,
            "name": "F3",
            "ticks": 59040,
            "time": 30.75,
            "velocity": 0.7874015748031497
          },
          {
            "duration": 0.0625,
            "durationTicks": 120,
            "midi": 55,
            "name": "G3",
            "ticks": 61680,
            "time": 32.125,
            "velocity": 0.7874015748031497
          },
          {
            "duration": 0.0625,
            "durationTicks": 120,
            "midi": 57,
            "name": "A3",
            "ticks": 61920,
            "time": 32.25,
            "velocity": 0.7874015748031497
          },
          {
            "duration": 0.125,
            "durationTicks": 240,
            "midi": 57,
            "name": "A3",
            "ticks": 62160,
            "time": 32.375,
            "velocity": 0.7874015748031497
          },
          {
            "duration": 0.0625,
            "durationTicks": 120,
            "midi": 58,
            "name": "A#3",
            "ticks": 62640,
            "time": 32.625,
            "velocity": 0.7874015748031497
          },
          {
            "duration": 0.125,
            "durationTicks": 240,
            "midi": 57,
            "name": "A3",
            "ticks": 62880,
            "time": 32.75,
            "velocity": 0.7874015748031497
          },
          {
            "duration": 0.0625,
            "durationTicks": 120,
            "midi": 55,
            "name": "G3",
            "ticks": 63120,
            "time": 32.875,
            "velocity": 0.7874015748031497
          },
          {
            "duration": 0.125,
            "durationTicks": 240,
            "midi": 58,
            "name": "A#3",
            "ticks": 63360,
            "time": 33,
            "velocity": 0.7874015748031497
          },
          {
            "duration": 0.0625,
            "durationTicks": 120,
            "midi": 55,
            "name": "G3",
            "ticks": 63840,
            "time": 33.25,
            "velocity": 0.7874015748031497
          },
          {
            "duration": 0.1875,
            "durationTicks": 360,
            "midi": 57,
            "name": "A3",
            "ticks": 64080,
            "time": 33.375,
            "velocity": 0.7874015748031497
          },
          {
            "duration": 0.125,
            "durationTicks": 240,
            "midi": 52,
            "name": "E3",
            "ticks": 69120,
            "time": 36,
            "velocity": 0.7874015748031497
          },
          {
            "duration": 0.0625,
            "durationTicks": 120,
            "midi": 55,
            "name": "G3",
            "ticks": 69360,
            "time": 36.125,
            "velocity": 0.7874015748031497
          },
          {
            "duration": 0.0625,
            "durationTicks": 120,
            "midi": 57,
            "name": "A3",
            "ticks": 69600,
            "time": 36.25,
            "velocity": 0.7874015748031497
          },
          {
            "duration": 0.125,
            "durationTicks": 240,
            "midi": 57,
            "name": "A3",
            "ticks": 69840,
            "time": 36.375,
            "velocity": 0.7874015748031497
          },
          {
            "duration": 0.0625,
            "durationTicks": 120,
            "midi": 58,
            "name": "A#3",
            "ticks": 70320,
            "time": 36.625,
            "velocity": 0.7874015748031497
          },
          {
            "duration": 0.125,
            "durationTicks": 240,
            "midi": 57,
            "name": "A3",
            "ticks": 70560,
            "time": 36.75,
            "velocity": 0.7874015748031497
          },
          {
            "duration": 0.0625,
            "durationTicks": 120,
            "midi": 55,
            "name": "G3",
            "ticks": 70800,
            "time": 36.875,
            "velocity": 0.7874015748031497
          },
          {
            "duration": 0.125,
            "durationTicks": 240,
            "midi": 58,
            "name": "A#3",
            "ticks": 71040,
            "time": 37,
            "velocity": 0.7874015748031497
          },
          {
            "duration": 0.0625,
            "durationTicks": 120,
            "midi": 55,
            "name": "G3",
            "ticks": 71520,
            "time": 37.25,
            "velocity": 0.7874015748031497
          },
          {
            "duration": 0.1875,
            "durationTicks": 360,
            "midi": 57,
            "name": "A3",
            "ticks": 71760,
            "time": 37.375,
            "velocity": 0.7874015748031497
          },
          {
            "duration": 0.0625,
            "durationTicks": 120,
            "midi": 55,
            "name": "G3",
            "ticks": 77040,
            "time": 40.125,
            "velocity": 0.7874015748031497
          },
          {
            "duration": 0.0625,
            "durationTicks": 120,
            "midi": 57,
            "name": "A3",
            "ticks": 77280,
            "time": 40.25,
            "velocity": 0.7874015748031497
          },
          {
            "duration": 0.125,
            "durationTicks": 240,
            "midi": 57,
            "name": "A3",
            "ticks": 77520,
            "time": 40.375,
            "velocity": 0.7874015748031497
          },
          {
            "duration": 0.0625,
            "durationTicks": 120,
            "midi": 58,
            "name": "A#3",
            "ticks": 78000,
            "time": 40.625,
            "velocity": 0.7874015748031497
          },
          {
            "duration": 0.125,
            "durationTicks": 240,
            "midi": 57,
            "name": "A3",
            "ticks": 78240,
            "time": 40.75,
            "velocity": 0.7874015748031497
          },
          {
            "duration": 0.0625,
            "durationTicks": 120,
            "midi": 55,
            "name": "G3",
            "ticks": 78480,
            "time": 40.875,
            "velocity": 0.7874015748031497
          },
          {
            "duration": 0.125,
            "durationTicks": 240,
            "midi": 58,
            "name": "A#3",
            "ticks": 78720,
            "time": 41,
            "velocity": 0.7874015748031497
          },
          {
            "duration": 0.0625,
            "durationTicks": 120,
            "midi": 55,
            "name": "G3",
            "ticks": 79200,
            "time": 41.25,
            "velocity": 0.7874015748031497
          },
          {
            "duration": 0.1875,
            "durationTicks": 360,
            "midi": 57,
            "name": "A3",
            "ticks": 79440,
            "time": 41.375,
            "velocity": 0.7874015748031497
          },
          {
            "duration": 0.125,
            "durationTicks": 240,
            "midi": 52,
            "name": "E3",
            "ticks": 84480,
            "time": 44,
            "velocity": 0.7874015748031497
          },
          {
            "duration": 0.0625,
            "durationTicks": 120,
            "midi": 55,
            "name": "G3",
            "ticks": 84720,
            "time": 44.125,
            "velocity": 0.7874015748031497
          },
          {
            "duration": 0.0625,
            "durationTicks": 120,
            "midi": 57,
            "name": "A3",
            "ticks": 84960,
            "time": 44.25,
            "velocity": 0.7874015748031497
          },
          {
            "duration": 0.125,
            "durationTicks": 240,
            "midi": 57,
            "name": "A3",
            "ticks": 85200,
            "time": 44.375,
            "velocity": 0.7874015748031497
          },
          {
            "duration": 0.0625,
            "durationTicks": 120,
            "midi": 58,
            "name": "A#3",
            "ticks": 85680,
            "time": 44.625,
            "velocity": 0.7874015748031497
          },
          {
            "duration": 0.125,
            "durationTicks": 240,
            "midi": 57,
            "name": "A3",
            "ticks": 85920,
            "time": 44.75,
            "velocity": 0.7874015748031497
          },
          {
            "duration": 0.0625,
            "durationTicks": 120,
            "midi": 55,
            "name": "G3",
            "ticks": 86160,
            "time": 44.875,
            "velocity": 0.7874015748031497
          },
          {
            "duration": 0.125,
            "durationTicks": 240,
            "midi": 58,
            "name": "A#3",
            "ticks": 86400,
            "time": 45,
            "velocity": 0.7874015748031497
          },
          {
            "duration": 0.0625,
            "durationTicks": 120,
            "midi": 55,
            "name": "G3",
            "ticks": 86880,
            "time": 45.25,
            "velocity": 0.7874015748031497
          },
          {
            "duration": 0.1875,
            "durationTicks": 360,
            "midi": 57,
            "name": "A3",
            "ticks": 87120,
            "time": 45.375,
            "velocity": 0.7874015748031497
          },
          {
            "duration": 0.75,
            "durationTicks": 1440,
            "midi": 48,
            "name": "C3",
            "ticks": 88320,
            "time": 46,
            "velocity": 0.7874015748031497
          },
          {
            "duration": 1.25,
            "durationTicks": 2400,
            "midi": 53,
            "name": "F3",
            "ticks": 89760,
            "time": 46.75,
            "velocity": 0.7874015748031497
          },
          {
            "duration": 0.0625,
            "durationTicks": 120,
            "midi": 55,
            "name": "G3",
            "ticks": 92400,
            "time": 48.125,
            "velocity": 0.7874015748031497
          },
          {
            "duration": 0.0625,
            "durationTicks": 120,
            "midi": 57,
            "name": "A3",
            "ticks": 92640,
            "time": 48.25,
            "velocity": 0.7874015748031497
          },
          {
            "duration": 0.125,
            "durationTicks": 240,
            "midi": 57,
            "name": "A3",
            "ticks": 92880,
            "time": 48.375,
            "velocity": 0.7874015748031497
          },
          {
            "duration": 0.0625,
            "durationTicks": 120,
            "midi": 58,
            "name": "A#3",
            "ticks": 93360,
            "time": 48.625,
            "velocity": 0.7874015748031497
          },
          {
            "duration": 0.125,
            "durationTicks": 240,
            "midi": 57,
            "name": "A3",
            "ticks": 93600,
            "time": 48.75,
            "velocity": 0.7874015748031497
          },
          {
            "duration": 0.0625,
            "durationTicks": 120,
            "midi": 55,
            "name": "G3",
            "ticks": 93840,
            "time": 48.875,
            "velocity": 0.7874015748031497
          },
          {
            "duration": 0.125,
            "durationTicks": 240,
            "midi": 58,
            "name": "A#3",
            "ticks": 94080,
            "time": 49,
            "velocity": 0.7874015748031497
          },
          {
            "duration": 0.0625,
            "durationTicks": 120,
            "midi": 55,
            "name": "G3",
            "ticks": 94560,
            "time": 49.25,
            "velocity": 0.7874015748031497
          },
          {
            "duration": 0.1875,
            "durationTicks": 360,
            "midi": 57,
            "name": "A3",
            "ticks": 94800,
            "time": 49.375,
            "velocity": 0.7874015748031497
          },
          {
            "duration": 0.125,
            "durationTicks": 240,
            "midi": 52,
            "name": "E3",
            "ticks": 99840,
            "time": 52,
            "velocity": 0.7874015748031497
          },
          {
            "duration": 0.0625,
            "durationTicks": 120,
            "midi": 55,
            "name": "G3",
            "ticks": 100080,
            "time": 52.125,
            "velocity": 0.7874015748031497
          },
          {
            "duration": 0.0625,
            "durationTicks": 120,
            "midi": 57,
            "name": "A3",
            "ticks": 100320,
            "time": 52.25,
            "velocity": 0.7874015748031497
          },
          {
            "duration": 0.125,
            "durationTicks": 240,
            "midi": 57,
            "name": "A3",
            "ticks": 100560,
            "time": 52.375,
            "velocity": 0.7874015748031497
          },
          {
            "duration": 0.0625,
            "durationTicks": 120,
            "midi": 58,
            "name": "A#3",
            "ticks": 101040,
            "time": 52.625,
            "velocity": 0.7874015748031497
          },
          {
            "duration": 0.125,
            "durationTicks": 240,
            "midi": 57,
            "name": "A3",
            "ticks": 101280,
            "time": 52.75,
            "velocity": 0.7874015748031497
          },
          {
            "duration": 0.0625,
            "durationTicks": 120,
            "midi": 55,
            "name": "G3",
            "ticks": 101520,
            "time": 52.875,
            "velocity": 0.7874015748031497
          },
          {
            "duration": 0.125,
            "durationTicks": 240,
            "midi": 58,
            "name": "A#3",
            "ticks": 101760,
            "time": 53,
            "velocity": 0.7874015748031497
          },
          {
            "duration": 0.0625,
            "durationTicks": 120,
            "midi": 55,
            "name": "G3",
            "ticks": 102240,
            "time": 53.25,
            "velocity": 0.7874015748031497
          },
          {
            "duration": 0.1875,
            "durationTicks": 360,
            "midi": 57,
            "name": "A3",
            "ticks": 102480,
            "time": 53.375,
            "velocity": 0.7874015748031497
          },
          {
            "duration": 0.0625,
            "durationTicks": 120,
            "midi": 55,
            "name": "G3",
            "ticks": 107760,
            "time": 56.125,
            "velocity": 0.7874015748031497
          },
          {
            "duration": 0.0625,
            "durationTicks": 120,
            "midi": 57,
            "name": "A3",
            "ticks": 108000,
            "time": 56.25,
            "velocity": 0.7874015748031497
          },
          {
            "duration": 0.125,
            "durationTicks": 240,
            "midi": 57,
            "name": "A3",
            "ticks": 108240,
            "time": 56.375,
            "velocity": 0.7874015748031497
          },
          {
            "duration": 0.0625,
            "durationTicks": 120,
            "midi": 58,
            "name": "A#3",
            "ticks": 108720,
            "time": 56.625,
            "velocity": 0.7874015748031497
          },
          {
            "duration": 0.125,
            "durationTicks": 240,
            "midi": 57,
            "name": "A3",
            "ticks": 108960,
            "time": 56.75,
            "velocity": 0.7874015748031497
          },
          {
            "duration": 0.0625,
            "durationTicks": 120,
            "midi": 55,
            "name": "G3",
            "ticks": 109200,
            "time": 56.875,
            "velocity": 0.7874015748031497
          },
          {
            "duration": 0.125,
            "durationTicks": 240,
            "midi": 58,
            "name": "A#3",
            "ticks": 109440,
            "time": 57,
            "velocity": 0.7874015748031497
          },
          {
            "duration": 0.0625,
            "durationTicks": 120,
            "midi": 55,
            "name": "G3",
            "ticks": 109920,
            "time": 57.25,
            "velocity": 0.7874015748031497
          },
          {
            "duration": 0.1875,
            "durationTicks": 360,
            "midi": 57,
            "name": "A3",
            "ticks": 110160,
            "time": 57.375,
            "velocity": 0.7874015748031497
          },
          {
            "duration": 0.125,
            "durationTicks": 240,
            "midi": 52,
            "name": "E3",
            "ticks": 115200,
            "time": 60,
            "velocity": 0.7874015748031497
          },
          {
            "duration": 0.0625,
            "durationTicks": 120,
            "midi": 55,
            "name": "G3",
            "ticks": 115440,
            "time": 60.125,
            "velocity": 0.7874015748031497
          },
          {
            "duration": 0.0625,
            "durationTicks": 120,
            "midi": 57,
            "name": "A3",
            "ticks": 115680,
            "time": 60.25,
            "velocity": 0.7874015748031497
          },
          {
            "duration": 0.125,
            "durationTicks": 240,
            "midi": 57,
            "name": "A3",
            "ticks": 115920,
            "time": 60.375,
            "velocity": 0.7874015748031497
          },
          {
            "duration": 0.0625,
            "durationTicks": 120,
            "midi": 58,
            "name": "A#3",
            "ticks": 116400,
            "time": 60.625,
            "velocity": 0.7874015748031497
          },
          {
            "duration": 0.125,
            "durationTicks": 240,
            "midi": 57,
            "name": "A3",
            "ticks": 116640,
            "time": 60.75,
            "velocity": 0.7874015748031497
          },
          {
            "duration": 0.0625,
            "durationTicks": 120,
            "midi": 55,
            "name": "G3",
            "ticks": 116880,
            "time": 60.875,
            "velocity": 0.7874015748031497
          },
          {
            "duration": 0.125,
            "durationTicks": 240,
            "midi": 58,
            "name": "A#3",
            "ticks": 117120,
            "time": 61,
            "velocity": 0.7874015748031497
          },
          {
            "duration": 0.0625,
            "durationTicks": 120,
            "midi": 55,
            "name": "G3",
            "ticks": 117600,
            "time": 61.25,
            "velocity": 0.7874015748031497
          },
          {
            "duration": 0.1875,
            "durationTicks": 360,
            "midi": 57,
            "name": "A3",
            "ticks": 117840,
            "time": 61.375,
            "velocity": 0.7874015748031497
          },
          {
            "duration": 0.75,
            "durationTicks": 1440,
            "midi": 48,
            "name": "C3",
            "ticks": 119040,
            "time": 62,
            "velocity": 0.7874015748031497
          },
          {
            "duration": 1.25,
            "durationTicks": 2400,
            "midi": 53,
            "name": "F3",
            "ticks": 120480,
            "time": 62.75,
            "velocity": 0.7874015748031497
          },
          {
            "duration": 0.0625,
            "durationTicks": 120,
            "midi": 55,
            "name": "G3",
            "ticks": 123120,
            "time": 64.125,
            "velocity": 0.7874015748031497
          },
          {
            "duration": 0.0625,
            "durationTicks": 120,
            "midi": 57,
            "name": "A3",
            "ticks": 123360,
            "time": 64.25,
            "velocity": 0.7874015748031497
          },
          {
            "duration": 0.125,
            "durationTicks": 240,
            "midi": 57,
            "name": "A3",
            "ticks": 123600,
            "time": 64.375,
            "velocity": 0.7874015748031497
          },
          {
            "duration": 0.0625,
            "durationTicks": 120,
            "midi": 58,
            "name": "A#3",
            "ticks": 124080,
            "time": 64.625,
            "velocity": 0.7874015748031497
          },
          {
            "duration": 0.125,
            "durationTicks": 240,
            "midi": 57,
            "name": "A3",
            "ticks": 124320,
            "time": 64.75,
            "velocity": 0.7874015748031497
          },
          {
            "duration": 0.0625,
            "durationTicks": 120,
            "midi": 55,
            "name": "G3",
            "ticks": 124560,
            "time": 64.875,
            "velocity": 0.7874015748031497
          },
          {
            "duration": 0.125,
            "durationTicks": 240,
            "midi": 58,
            "name": "A#3",
            "ticks": 124800,
            "time": 65,
            "velocity": 0.7874015748031497
          },
          {
            "duration": 0.0625,
            "durationTicks": 120,
            "midi": 55,
            "name": "G3",
            "ticks": 125280,
            "time": 65.25,
            "velocity": 0.7874015748031497
          },
          {
            "duration": 0.1875,
            "durationTicks": 360,
            "midi": 57,
            "name": "A3",
            "ticks": 125520,
            "time": 65.375,
            "velocity": 0.7874015748031497
          },
          {
            "duration": 0.125,
            "durationTicks": 240,
            "midi": 52,
            "name": "E3",
            "ticks": 130560,
            "time": 68,
            "velocity": 0.7874015748031497
          },
          {
            "duration": 0.0625,
            "durationTicks": 120,
            "midi": 55,
            "name": "G3",
            "ticks": 130800,
            "time": 68.125,
            "velocity": 0.7874015748031497
          },
          {
            "duration": 0.0625,
            "durationTicks": 120,
            "midi": 57,
            "name": "A3",
            "ticks": 131040,
            "time": 68.25,
            "velocity": 0.7874015748031497
          },
          {
            "duration": 0.125,
            "durationTicks": 240,
            "midi": 57,
            "name": "A3",
            "ticks": 131280,
            "time": 68.375,
            "velocity": 0.7874015748031497
          },
          {
            "duration": 0.0625,
            "durationTicks": 120,
            "midi": 58,
            "name": "A#3",
            "ticks": 131760,
            "time": 68.625,
            "velocity": 0.7874015748031497
          },
          {
            "duration": 0.125,
            "durationTicks": 240,
            "midi": 57,
            "name": "A3",
            "ticks": 132000,
            "time": 68.75,
            "velocity": 0.7874015748031497
          },
          {
            "duration": 0.0625,
            "durationTicks": 120,
            "midi": 55,
            "name": "G3",
            "ticks": 132240,
            "time": 68.875,
            "velocity": 0.7874015748031497
          },
          {
            "duration": 0.125,
            "durationTicks": 240,
            "midi": 58,
            "name": "A#3",
            "ticks": 132480,
            "time": 69,
            "velocity": 0.7874015748031497
          },
          {
            "duration": 0.0625,
            "durationTicks": 120,
            "midi": 55,
            "name": "G3",
            "ticks": 132960,
            "time": 69.25,
            "velocity": 0.7874015748031497
          },
          {
            "duration": 0.1875,
            "durationTicks": 360,
            "midi": 57,
            "name": "A3",
            "ticks": 133200,
            "time": 69.375,
            "velocity": 0.7874015748031497
          },
          {
            "duration": 0.0625,
            "durationTicks": 120,
            "midi": 55,
            "name": "G3",
            "ticks": 138480,
            "time": 72.125,
            "velocity": 0.7874015748031497
          },
          {
            "duration": 0.0625,
            "durationTicks": 120,
            "midi": 57,
            "name": "A3",
            "ticks": 138720,
            "time": 72.25,
            "velocity": 0.7874015748031497
          },
          {
            "duration": 0.125,
            "durationTicks": 240,
            "midi": 57,
            "name": "A3",
            "ticks": 138960,
            "time": 72.375,
            "velocity": 0.7874015748031497
          },
          {
            "duration": 0.0625,
            "durationTicks": 120,
            "midi": 58,
            "name": "A#3",
            "ticks": 139440,
            "time": 72.625,
            "velocity": 0.7874015748031497
          },
          {
            "duration": 0.125,
            "durationTicks": 240,
            "midi": 57,
            "name": "A3",
            "ticks": 139680,
            "time": 72.75,
            "velocity": 0.7874015748031497
          },
          {
            "duration": 0.0625,
            "durationTicks": 120,
            "midi": 55,
            "name": "G3",
            "ticks": 139920,
            "time": 72.875,
            "velocity": 0.7874015748031497
          },
          {
            "duration": 0.125,
            "durationTicks": 240,
            "midi": 58,
            "name": "A#3",
            "ticks": 140160,
            "time": 73,
            "velocity": 0.7874015748031497
          },
          {
            "duration": 0.0625,
            "durationTicks": 120,
            "midi": 55,
            "name": "G3",
            "ticks": 140640,
            "time": 73.25,
            "velocity": 0.7874015748031497
          },
          {
            "duration": 0.1875,
            "durationTicks": 360,
            "midi": 57,
            "name": "A3",
            "ticks": 140880,
            "time": 73.375,
            "velocity": 0.7874015748031497
          },
          {
            "duration": 0.125,
            "durationTicks": 240,
            "midi": 52,
            "name": "E3",
            "ticks": 145920,
            "time": 76,
            "velocity": 0.7874015748031497
          },
          {
            "duration": 0.0625,
            "durationTicks": 120,
            "midi": 55,
            "name": "G3",
            "ticks": 146160,
            "time": 76.125,
            "velocity": 0.7874015748031497
          },
          {
            "duration": 0.0625,
            "durationTicks": 120,
            "midi": 57,
            "name": "A3",
            "ticks": 146400,
            "time": 76.25,
            "velocity": 0.7874015748031497
          },
          {
            "duration": 0.125,
            "durationTicks": 240,
            "midi": 57,
            "name": "A3",
            "ticks": 146640,
            "time": 76.375,
            "velocity": 0.7874015748031497
          },
          {
            "duration": 0.0625,
            "durationTicks": 120,
            "midi": 58,
            "name": "A#3",
            "ticks": 147120,
            "time": 76.625,
            "velocity": 0.7874015748031497
          },
          {
            "duration": 0.125,
            "durationTicks": 240,
            "midi": 57,
            "name": "A3",
            "ticks": 147360,
            "time": 76.75,
            "velocity": 0.7874015748031497
          },
          {
            "duration": 0.0625,
            "durationTicks": 120,
            "midi": 55,
            "name": "G3",
            "ticks": 147600,
            "time": 76.875,
            "velocity": 0.7874015748031497
          },
          {
            "duration": 0.125,
            "durationTicks": 240,
            "midi": 58,
            "name": "A#3",
            "ticks": 147840,
            "time": 77,
            "velocity": 0.7874015748031497
          },
          {
            "duration": 0.0625,
            "durationTicks": 120,
            "midi": 55,
            "name": "G3",
            "ticks": 148320,
            "time": 77.25,
            "velocity": 0.7874015748031497
          },
          {
            "duration": 0.1875,
            "durationTicks": 360,
            "midi": 57,
            "name": "A3",
            "ticks": 148560,
            "time": 77.375,
            "velocity": 0.7874015748031497
          },
          {
            "duration": 0.75,
            "durationTicks": 1440,
            "midi": 48,
            "name": "C3",
            "ticks": 149760,
            "time": 78,
            "velocity": 0.7874015748031497
          },
          {
            "duration": 1.25,
            "durationTicks": 2400,
            "midi": 53,
            "name": "F3",
            "ticks": 151200,
            "time": 78.75,
            "velocity": 0.7874015748031497
          },
          {
            "duration": 0.0625,
            "durationTicks": 120,
            "midi": 55,
            "name": "G3",
            "ticks": 153840,
            "time": 80.125,
            "velocity": 0.7874015748031497
          },
          {
            "duration": 0.0625,
            "durationTicks": 120,
            "midi": 57,
            "name": "A3",
            "ticks": 154080,
            "time": 80.25,
            "velocity": 0.7874015748031497
          },
          {
            "duration": 0.125,
            "durationTicks": 240,
            "midi": 57,
            "name": "A3",
            "ticks": 154320,
            "time": 80.375,
            "velocity": 0.7874015748031497
          },
          {
            "duration": 0.125,
            "durationTicks": 240,
            "midi": 52,
            "name": "E3",
            "ticks": 161280,
            "time": 84,
            "velocity": 0.7874015748031497
          },
          {
            "duration": 0.0625,
            "durationTicks": 120,
            "midi": 55,
            "name": "G3",
            "ticks": 161520,
            "time": 84.125,
            "velocity": 0.7874015748031497
          },
          {
            "duration": 0.0625,
            "durationTicks": 120,
            "midi": 57,
            "name": "A3",
            "ticks": 161760,
            "time": 84.25,
            "velocity": 0.7874015748031497
          },
          {
            "duration": 0.125,
            "durationTicks": 240,
            "midi": 57,
            "name": "A3",
            "ticks": 162000,
            "time": 84.375,
            "velocity": 0.7874015748031497
          },
          {
            "duration": 0.0625,
            "durationTicks": 120,
            "midi": 55,
            "name": "G3",
            "ticks": 169200,
            "time": 88.125,
            "velocity": 0.7874015748031497
          },
          {
            "duration": 0.0625,
            "durationTicks": 120,
            "midi": 57,
            "name": "A3",
            "ticks": 169440,
            "time": 88.25,
            "velocity": 0.7874015748031497
          },
          {
            "duration": 0.125,
            "durationTicks": 240,
            "midi": 57,
            "name": "A3",
            "ticks": 169680,
            "time": 88.375,
            "velocity": 0.7874015748031497
          },
          {
            "duration": 0.125,
            "durationTicks": 240,
            "midi": 52,
            "name": "E3",
            "ticks": 176640,
            "time": 92,
            "velocity": 0.7874015748031497
          },
          {
            "duration": 0.0625,
            "durationTicks": 120,
            "midi": 55,
            "name": "G3",
            "ticks": 176880,
            "time": 92.125,
            "velocity": 0.7874015748031497
          },
          {
            "duration": 0.0625,
            "durationTicks": 120,
            "midi": 57,
            "name": "A3",
            "ticks": 177120,
            "time": 92.25,
            "velocity": 0.7874015748031497
          },
          {
            "duration": 0.125,
            "durationTicks": 240,
            "midi": 57,
            "name": "A3",
            "ticks": 177360,
            "time": 92.375,
            "velocity": 0.7874015748031497
          },
          {
            "duration": 0.0625,
            "durationTicks": 120,
            "midi": 55,
            "name": "G3",
            "ticks": 184560,
            "time": 96.125,
            "velocity": 0.7874015748031497
          },
          {
            "duration": 0.0625,
            "durationTicks": 120,
            "midi": 57,
            "name": "A3",
            "ticks": 184800,
            "time": 96.25,
            "velocity": 0.7874015748031497
          },
          {
            "duration": 0.125,
            "durationTicks": 240,
            "midi": 57,
            "name": "A3",
            "ticks": 185040,
            "time": 96.375,
            "velocity": 0.7874015748031497
          },
          {
            "duration": 0.125,
            "durationTicks": 240,
            "midi": 52,
            "name": "E3",
            "ticks": 192000,
            "time": 100,
            "velocity": 0.7874015748031497
          },
          {
            "duration": 0.0625,
            "durationTicks": 120,
            "midi": 55,
            "name": "G3",
            "ticks": 192240,
            "time": 100.125,
            "velocity": 0.7874015748031497
          },
          {
            "duration": 0.0625,
            "durationTicks": 120,
            "midi": 57,
            "name": "A3",
            "ticks": 192480,
            "time": 100.25,
            "velocity": 0.7874015748031497
          },
          {
            "duration": 0.125,
            "durationTicks": 240,
            "midi": 57,
            "name": "A3",
            "ticks": 192720,
            "time": 100.375,
            "velocity": 0.7874015748031497
          },
          {
            "duration": 0.0625,
            "durationTicks": 120,
            "midi": 55,
            "name": "G3",
            "ticks": 199920,
            "time": 104.125,
            "velocity": 0.7874015748031497
          },
          {
            "duration": 0.0625,
            "durationTicks": 120,
            "midi": 57,
            "name": "A3",
            "ticks": 200160,
            "time": 104.25,
            "velocity": 0.7874015748031497
          },
          {
            "duration": 0.125,
            "durationTicks": 240,
            "midi": 57,
            "name": "A3",
            "ticks": 200400,
            "time": 104.375,
            "velocity": 0.7874015748031497
          },
          {
            "duration": 0.125,
            "durationTicks": 240,
            "midi": 52,
            "name": "E3",
            "ticks": 207360,
            "time": 108,
            "velocity": 0.7874015748031497
          },
          {
            "duration": 0.0625,
            "durationTicks": 120,
            "midi": 55,
            "name": "G3",
            "ticks": 207600,
            "time": 108.125,
            "velocity": 0.7874015748031497
          },
          {
            "duration": 0.0625,
            "durationTicks": 120,
            "midi": 57,
            "name": "A3",
            "ticks": 207840,
            "time": 108.25,
            "velocity": 0.7874015748031497
          },
          {
            "duration": 0.125,
            "durationTicks": 240,
            "midi": 57,
            "name": "A3",
            "ticks": 208080,
            "time": 108.375,
            "velocity": 0.7874015748031497
          },
          {
            "duration": 0.75,
            "durationTicks": 1440,
            "midi": 48,
            "name": "C3",
            "ticks": 211200,
            "time": 110,
            "velocity": 0.7874015748031497
          },
          {
            "duration": 1.25,
            "durationTicks": 2400,
            "midi": 53,
            "name": "F3",
            "ticks": 212640,
            "time": 110.75,
            "velocity": 0.7874015748031497
          },
          {
            "duration": 0.0625,
            "durationTicks": 120,
            "midi": 55,
            "name": "G3",
            "ticks": 215280,
            "time": 112.125,
            "velocity": 0.7874015748031497
          },
          {
            "duration": 0.0625,
            "durationTicks": 120,
            "midi": 57,
            "name": "A3",
            "ticks": 215520,
            "time": 112.25,
            "velocity": 0.7874015748031497
          },
          {
            "duration": 0.125,
            "durationTicks": 240,
            "midi": 57,
            "name": "A3",
            "ticks": 215760,
            "time": 112.375,
            "velocity": 0.7874015748031497
          },
          {
            "duration": 0.0625,
            "durationTicks": 120,
            "midi": 58,
            "name": "A#3",
            "ticks": 216240,
            "time": 112.625,
            "velocity": 0.7874015748031497
          },
          {
            "duration": 0.125,
            "durationTicks": 240,
            "midi": 57,
            "name": "A3",
            "ticks": 216480,
            "time": 112.75,
            "velocity": 0.7874015748031497
          },
          {
            "duration": 0.0625,
            "durationTicks": 120,
            "midi": 55,
            "name": "G3",
            "ticks": 216720,
            "time": 112.875,
            "velocity": 0.7874015748031497
          },
          {
            "duration": 0.125,
            "durationTicks": 240,
            "midi": 58,
            "name": "A#3",
            "ticks": 216960,
            "time": 113,
            "velocity": 0.7874015748031497
          },
          {
            "duration": 0.0625,
            "durationTicks": 120,
            "midi": 55,
            "name": "G3",
            "ticks": 217440,
            "time": 113.25,
            "velocity": 0.7874015748031497
          },
          {
            "duration": 0.1875,
            "durationTicks": 360,
            "midi": 57,
            "name": "A3",
            "ticks": 217680,
            "time": 113.375,
            "velocity": 0.7874015748031497
          },
          {
            "duration": 0.125,
            "durationTicks": 240,
            "midi": 52,
            "name": "E3",
            "ticks": 222720,
            "time": 116,
            "velocity": 0.7874015748031497
          },
          {
            "duration": 0.0625,
            "durationTicks": 120,
            "midi": 55,
            "name": "G3",
            "ticks": 222960,
            "time": 116.125,
            "velocity": 0.7874015748031497
          },
          {
            "duration": 0.0625,
            "durationTicks": 120,
            "midi": 57,
            "name": "A3",
            "ticks": 223200,
            "time": 116.25,
            "velocity": 0.7874015748031497
          },
          {
            "duration": 0.125,
            "durationTicks": 240,
            "midi": 57,
            "name": "A3",
            "ticks": 223440,
            "time": 116.375,
            "velocity": 0.7874015748031497
          },
          {
            "duration": 0.0625,
            "durationTicks": 120,
            "midi": 58,
            "name": "A#3",
            "ticks": 223920,
            "time": 116.625,
            "velocity": 0.7874015748031497
          },
          {
            "duration": 0.125,
            "durationTicks": 240,
            "midi": 57,
            "name": "A3",
            "ticks": 224160,
            "time": 116.75,
            "velocity": 0.7874015748031497
          },
          {
            "duration": 0.0625,
            "durationTicks": 120,
            "midi": 55,
            "name": "G3",
            "ticks": 224400,
            "time": 116.875,
            "velocity": 0.7874015748031497
          },
          {
            "duration": 0.125,
            "durationTicks": 240,
            "midi": 58,
            "name": "A#3",
            "ticks": 224640,
            "time": 117,
            "velocity": 0.7874015748031497
          },
          {
            "duration": 0.0625,
            "durationTicks": 120,
            "midi": 55,
            "name": "G3",
            "ticks": 225120,
            "time": 117.25,
            "velocity": 0.7874015748031497
          },
          {
            "duration": 0.1875,
            "durationTicks": 360,
            "midi": 57,
            "name": "A3",
            "ticks": 225360,
            "time": 117.375,
            "velocity": 0.7874015748031497
          },
          {
            "duration": 0.0625,
            "durationTicks": 120,
            "midi": 55,
            "name": "G3",
            "ticks": 230640,
            "time": 120.125,
            "velocity": 0.7874015748031497
          },
          {
            "duration": 0.0625,
            "durationTicks": 120,
            "midi": 57,
            "name": "A3",
            "ticks": 230880,
            "time": 120.25,
            "velocity": 0.7874015748031497
          },
          {
            "duration": 0.125,
            "durationTicks": 240,
            "midi": 57,
            "name": "A3",
            "ticks": 231120,
            "time": 120.375,
            "velocity": 0.7874015748031497
          },
          {
            "duration": 0.0625,
            "durationTicks": 120,
            "midi": 58,
            "name": "A#3",
            "ticks": 231600,
            "time": 120.625,
            "velocity": 0.7874015748031497
          },
          {
            "duration": 0.125,
            "durationTicks": 240,
            "midi": 57,
            "name": "A3",
            "ticks": 231840,
            "time": 120.75,
            "velocity": 0.7874015748031497
          },
          {
            "duration": 0.0625,
            "durationTicks": 120,
            "midi": 55,
            "name": "G3",
            "ticks": 232080,
            "time": 120.875,
            "velocity": 0.7874015748031497
          },
          {
            "duration": 0.125,
            "durationTicks": 240,
            "midi": 58,
            "name": "A#3",
            "ticks": 232320,
            "time": 121,
            "velocity": 0.7874015748031497
          },
          {
            "duration": 0.0625,
            "durationTicks": 120,
            "midi": 55,
            "name": "G3",
            "ticks": 232800,
            "time": 121.25,
            "velocity": 0.7874015748031497
          },
          {
            "duration": 0.1875,
            "durationTicks": 360,
            "midi": 57,
            "name": "A3",
            "ticks": 233040,
            "time": 121.375,
            "velocity": 0.7874015748031497
          },
          {
            "duration": 0.125,
            "durationTicks": 240,
            "midi": 52,
            "name": "E3",
            "ticks": 238080,
            "time": 124,
            "velocity": 0.7874015748031497
          },
          {
            "duration": 0.0625,
            "durationTicks": 120,
            "midi": 55,
            "name": "G3",
            "ticks": 238320,
            "time": 124.125,
            "velocity": 0.7874015748031497
          },
          {
            "duration": 0.0625,
            "durationTicks": 120,
            "midi": 57,
            "name": "A3",
            "ticks": 238560,
            "time": 124.25,
            "velocity": 0.7874015748031497
          },
          {
            "duration": 0.125,
            "durationTicks": 240,
            "midi": 57,
            "name": "A3",
            "ticks": 238800,
            "time": 124.375,
            "velocity": 0.7874015748031497
          },
          {
            "duration": 0.0625,
            "durationTicks": 120,
            "midi": 58,
            "name": "A#3",
            "ticks": 239280,
            "time": 124.625,
            "velocity": 0.7874015748031497
          },
          {
            "duration": 0.125,
            "durationTicks": 240,
            "midi": 57,
            "name": "A3",
            "ticks": 239520,
            "time": 124.75,
            "velocity": 0.7874015748031497
          },
          {
            "duration": 0.0625,
            "durationTicks": 120,
            "midi": 55,
            "name": "G3",
            "ticks": 239760,
            "time": 124.875,
            "velocity": 0.7874015748031497
          },
          {
            "duration": 0.125,
            "durationTicks": 240,
            "midi": 58,
            "name": "A#3",
            "ticks": 240000,
            "time": 125,
            "velocity": 0.7874015748031497
          },
          {
            "duration": 0.0625,
            "durationTicks": 120,
            "midi": 55,
            "name": "G3",
            "ticks": 240480,
            "time": 125.25,
            "velocity": 0.7874015748031497
          },
          {
            "duration": 0.1875,
            "durationTicks": 360,
            "midi": 57,
            "name": "A3",
            "ticks": 240720,
            "time": 125.375,
            "velocity": 0.7874015748031497
          },
          {
            "duration": 0.75,
            "durationTicks": 1440,
            "midi": 48,
            "name": "C3",
            "ticks": 241920,
            "time": 126,
            "velocity": 0.7874015748031497
          },
          {
            "duration": 1.25,
            "durationTicks": 2400,
            "midi": 53,
            "name": "F3",
            "ticks": 243360,
            "time": 126.75,
            "velocity": 0.7874015748031497
          },
          {
            "duration": 0.0625,
            "durationTicks": 120,
            "midi": 55,
            "name": "G3",
            "ticks": 246000,
            "time": 128.125,
            "velocity": 0.7874015748031497
          },
          {
            "duration": 0.0625,
            "durationTicks": 120,
            "midi": 57,
            "name": "A3",
            "ticks": 246240,
            "time": 128.25,
            "velocity": 0.7874015748031497
          },
          {
            "duration": 0.125,
            "durationTicks": 240,
            "midi": 57,
            "name": "A3",
            "ticks": 246480,
            "time": 128.375,
            "velocity": 0.7874015748031497
          },
          {
            "duration": 0.0625,
            "durationTicks": 120,
            "midi": 58,
            "name": "A#3",
            "ticks": 246960,
            "time": 128.625,
            "velocity": 0.7874015748031497
          },
          {
            "duration": 0.125,
            "durationTicks": 240,
            "midi": 57,
            "name": "A3",
            "ticks": 247200,
            "time": 128.75,
            "velocity": 0.7874015748031497
          },
          {
            "duration": 0.0625,
            "durationTicks": 120,
            "midi": 55,
            "name": "G3",
            "ticks": 247440,
            "time": 128.875,
            "velocity": 0.7874015748031497
          },
          {
            "duration": 0.125,
            "durationTicks": 240,
            "midi": 58,
            "name": "A#3",
            "ticks": 247680,
            "time": 129,
            "velocity": 0.7874015748031497
          },
          {
            "duration": 0.0625,
            "durationTicks": 120,
            "midi": 55,
            "name": "G3",
            "ticks": 248160,
            "time": 129.25,
            "velocity": 0.7874015748031497
          },
          {
            "duration": 0.1875,
            "durationTicks": 360,
            "midi": 57,
            "name": "A3",
            "ticks": 248400,
            "time": 129.375,
            "velocity": 0.7874015748031497
          },
          {
            "duration": 0.125,
            "durationTicks": 240,
            "midi": 52,
            "name": "E3",
            "ticks": 253440,
            "time": 132,
            "velocity": 0.7874015748031497
          },
          {
            "duration": 0.0625,
            "durationTicks": 120,
            "midi": 55,
            "name": "G3",
            "ticks": 253680,
            "time": 132.125,
            "velocity": 0.7874015748031497
          },
          {
            "duration": 0.0625,
            "durationTicks": 120,
            "midi": 57,
            "name": "A3",
            "ticks": 253920,
            "time": 132.25,
            "velocity": 0.7874015748031497
          },
          {
            "duration": 0.125,
            "durationTicks": 240,
            "midi": 57,
            "name": "A3",
            "ticks": 254160,
            "time": 132.375,
            "velocity": 0.7874015748031497
          },
          {
            "duration": 0.0625,
            "durationTicks": 120,
            "midi": 58,
            "name": "A#3",
            "ticks": 254640,
            "time": 132.625,
            "velocity": 0.7874015748031497
          },
          {
            "duration": 0.125,
            "durationTicks": 240,
            "midi": 57,
            "name": "A3",
            "ticks": 254880,
            "time": 132.75,
            "velocity": 0.7874015748031497
          },
          {
            "duration": 0.0625,
            "durationTicks": 120,
            "midi": 55,
            "name": "G3",
            "ticks": 255120,
            "time": 132.875,
            "velocity": 0.7874015748031497
          },
          {
            "duration": 0.125,
            "durationTicks": 240,
            "midi": 58,
            "name": "A#3",
            "ticks": 255360,
            "time": 133,
            "velocity": 0.7874015748031497
          },
          {
            "duration": 0.0625,
            "durationTicks": 120,
            "midi": 55,
            "name": "G3",
            "ticks": 255840,
            "time": 133.25,
            "velocity": 0.7874015748031497
          },
          {
            "duration": 0.1875,
            "durationTicks": 360,
            "midi": 57,
            "name": "A3",
            "ticks": 256080,
            "time": 133.375,
            "velocity": 0.7874015748031497
          },
          {
            "duration": 0.0625,
            "durationTicks": 120,
            "midi": 55,
            "name": "G3",
            "ticks": 261360,
            "time": 136.125,
            "velocity": 0.7874015748031497
          },
          {
            "duration": 0.0625,
            "durationTicks": 120,
            "midi": 57,
            "name": "A3",
            "ticks": 261600,
            "time": 136.25,
            "velocity": 0.7874015748031497
          },
          {
            "duration": 0.125,
            "durationTicks": 240,
            "midi": 57,
            "name": "A3",
            "ticks": 261840,
            "time": 136.375,
            "velocity": 0.7874015748031497
          },
          {
            "duration": 0.0625,
            "durationTicks": 120,
            "midi": 58,
            "name": "A#3",
            "ticks": 262320,
            "time": 136.625,
            "velocity": 0.7874015748031497
          },
          {
            "duration": 0.125,
            "durationTicks": 240,
            "midi": 57,
            "name": "A3",
            "ticks": 262560,
            "time": 136.75,
            "velocity": 0.7874015748031497
          },
          {
            "duration": 0.0625,
            "durationTicks": 120,
            "midi": 55,
            "name": "G3",
            "ticks": 262800,
            "time": 136.875,
            "velocity": 0.7874015748031497
          },
          {
            "duration": 0.125,
            "durationTicks": 240,
            "midi": 58,
            "name": "A#3",
            "ticks": 263040,
            "time": 137,
            "velocity": 0.7874015748031497
          },
          {
            "duration": 0.0625,
            "durationTicks": 120,
            "midi": 55,
            "name": "G3",
            "ticks": 263520,
            "time": 137.25,
            "velocity": 0.7874015748031497
          },
          {
            "duration": 0.1875,
            "durationTicks": 360,
            "midi": 57,
            "name": "A3",
            "ticks": 263760,
            "time": 137.375,
            "velocity": 0.7874015748031497
          },
          {
            "duration": 0.125,
            "durationTicks": 240,
            "midi": 52,
            "name": "E3",
            "ticks": 268800,
            "time": 140,
            "velocity": 0.7874015748031497
          },
          {
            "duration": 0.0625,
            "durationTicks": 120,
            "midi": 55,
            "name": "G3",
            "ticks": 269040,
            "time": 140.125,
            "velocity": 0.7874015748031497
          },
          {
            "duration": 0.0625,
            "durationTicks": 120,
            "midi": 57,
            "name": "A3",
            "ticks": 269280,
            "time": 140.25,
            "velocity": 0.7874015748031497
          },
          {
            "duration": 0.125,
            "durationTicks": 240,
            "midi": 57,
            "name": "A3",
            "ticks": 269520,
            "time": 140.375,
            "velocity": 0.7874015748031497
          },
          {
            "duration": 0.0625,
            "durationTicks": 120,
            "midi": 58,
            "name": "A#3",
            "ticks": 270000,
            "time": 140.625,
            "velocity": 0.7874015748031497
          },
          {
            "duration": 0.125,
            "durationTicks": 240,
            "midi": 57,
            "name": "A3",
            "ticks": 270240,
            "time": 140.75,
            "velocity": 0.7874015748031497
          },
          {
            "duration": 0.0625,
            "durationTicks": 120,
            "midi": 55,
            "name": "G3",
            "ticks": 270480,
            "time": 140.875,
            "velocity": 0.7874015748031497
          },
          {
            "duration": 0.125,
            "durationTicks": 240,
            "midi": 58,
            "name": "A#3",
            "ticks": 270720,
            "time": 141,
            "velocity": 0.7874015748031497
          },
          {
            "duration": 0.0625,
            "durationTicks": 120,
            "midi": 55,
            "name": "G3",
            "ticks": 271200,
            "time": 141.25,
            "velocity": 0.7874015748031497
          },
          {
            "duration": 0.1875,
            "durationTicks": 360,
            "midi": 57,
            "name": "A3",
            "ticks": 271440,
            "time": 141.375,
            "velocity": 0.7874015748031497
          },
          {
            "duration": 0.75,
            "durationTicks": 1440,
            "midi": 48,
            "name": "C3",
            "ticks": 272640,
            "time": 142,
            "velocity": 0.7874015748031497
          },
          {
            "duration": 1.25,
            "durationTicks": 2400,
            "midi": 53,
            "name": "F3",
            "ticks": 274080,
            "time": 142.75,
            "velocity": 0.7874015748031497
          },
          {
            "duration": 0.0625,
            "durationTicks": 120,
            "midi": 55,
            "name": "G3",
            "ticks": 276720,
            "time": 144.125,
            "velocity": 0.7874015748031497
          },
          {
            "duration": 0.0625,
            "durationTicks": 120,
            "midi": 57,
            "name": "A3",
            "ticks": 276960,
            "time": 144.25,
            "velocity": 0.7874015748031497
          },
          {
            "duration": 0.125,
            "durationTicks": 240,
            "midi": 57,
            "name": "A3",
            "ticks": 277200,
            "time": 144.375,
            "velocity": 0.7874015748031497
          },
          {
            "duration": 0.0625,
            "durationTicks": 120,
            "midi": 58,
            "name": "A#3",
            "ticks": 277680,
            "time": 144.625,
            "velocity": 0.7874015748031497
          },
          {
            "duration": 0.125,
            "durationTicks": 240,
            "midi": 57,
            "name": "A3",
            "ticks": 277920,
            "time": 144.75,
            "velocity": 0.7874015748031497
          },
          {
            "duration": 0.0625,
            "durationTicks": 120,
            "midi": 55,
            "name": "G3",
            "ticks": 278160,
            "time": 144.875,
            "velocity": 0.7874015748031497
          },
          {
            "duration": 0.125,
            "durationTicks": 240,
            "midi": 58,
            "name": "A#3",
            "ticks": 278400,
            "time": 145,
            "velocity": 0.7874015748031497
          },
          {
            "duration": 0.0625,
            "durationTicks": 120,
            "midi": 55,
            "name": "G3",
            "ticks": 278880,
            "time": 145.25,
            "velocity": 0.7874015748031497
          },
          {
            "duration": 0.1875,
            "durationTicks": 360,
            "midi": 57,
            "name": "A3",
            "ticks": 279120,
            "time": 145.375,
            "velocity": 0.7874015748031497
          },
          {
            "duration": 0.125,
            "durationTicks": 240,
            "midi": 52,
            "name": "E3",
            "ticks": 284160,
            "time": 148,
            "velocity": 0.7874015748031497
          },
          {
            "duration": 0.0625,
            "durationTicks": 120,
            "midi": 55,
            "name": "G3",
            "ticks": 284400,
            "time": 148.125,
            "velocity": 0.7874015748031497
          },
          {
            "duration": 0.0625,
            "durationTicks": 120,
            "midi": 57,
            "name": "A3",
            "ticks": 284640,
            "time": 148.25,
            "velocity": 0.7874015748031497
          },
          {
            "duration": 0.125,
            "durationTicks": 240,
            "midi": 57,
            "name": "A3",
            "ticks": 284880,
            "time": 148.375,
            "velocity": 0.7874015748031497
          },
          {
            "duration": 0.0625,
            "durationTicks": 120,
            "midi": 58,
            "name": "A#3",
            "ticks": 285360,
            "time": 148.625,
            "velocity": 0.7874015748031497
          },
          {
            "duration": 0.125,
            "durationTicks": 240,
            "midi": 57,
            "name": "A3",
            "ticks": 285600,
            "time": 148.75,
            "velocity": 0.7874015748031497
          },
          {
            "duration": 0.0625,
            "durationTicks": 120,
            "midi": 55,
            "name": "G3",
            "ticks": 285840,
            "time": 148.875,
            "velocity": 0.7874015748031497
          },
          {
            "duration": 0.125,
            "durationTicks": 240,
            "midi": 58,
            "name": "A#3",
            "ticks": 286080,
            "time": 149,
            "velocity": 0.7874015748031497
          },
          {
            "duration": 0.0625,
            "durationTicks": 120,
            "midi": 55,
            "name": "G3",
            "ticks": 286560,
            "time": 149.25,
            "velocity": 0.7874015748031497
          },
          {
            "duration": 0.1875,
            "durationTicks": 360,
            "midi": 57,
            "name": "A3",
            "ticks": 286800,
            "time": 149.375,
            "velocity": 0.7874015748031497
          },
          {
            "duration": 0.0625,
            "durationTicks": 120,
            "midi": 55,
            "name": "G3",
            "ticks": 292080,
            "time": 152.125,
            "velocity": 0.7874015748031497
          },
          {
            "duration": 0.0625,
            "durationTicks": 120,
            "midi": 57,
            "name": "A3",
            "ticks": 292320,
            "time": 152.25,
            "velocity": 0.7874015748031497
          },
          {
            "duration": 0.125,
            "durationTicks": 240,
            "midi": 57,
            "name": "A3",
            "ticks": 292560,
            "time": 152.375,
            "velocity": 0.7874015748031497
          },
          {
            "duration": 0.0625,
            "durationTicks": 120,
            "midi": 58,
            "name": "A#3",
            "ticks": 293040,
            "time": 152.625,
            "velocity": 0.7874015748031497
          },
          {
            "duration": 0.125,
            "durationTicks": 240,
            "midi": 57,
            "name": "A3",
            "ticks": 293280,
            "time": 152.75,
            "velocity": 0.7874015748031497
          },
          {
            "duration": 0.0625,
            "durationTicks": 120,
            "midi": 55,
            "name": "G3",
            "ticks": 293520,
            "time": 152.875,
            "velocity": 0.7874015748031497
          },
          {
            "duration": 0.125,
            "durationTicks": 240,
            "midi": 58,
            "name": "A#3",
            "ticks": 293760,
            "time": 153,
            "velocity": 0.7874015748031497
          },
          {
            "duration": 0.0625,
            "durationTicks": 120,
            "midi": 55,
            "name": "G3",
            "ticks": 294240,
            "time": 153.25,
            "velocity": 0.7874015748031497
          },
          {
            "duration": 0.1875,
            "durationTicks": 360,
            "midi": 57,
            "name": "A3",
            "ticks": 294480,
            "time": 153.375,
            "velocity": 0.7874015748031497
          },
          {
            "duration": 0.125,
            "durationTicks": 240,
            "midi": 52,
            "name": "E3",
            "ticks": 299520,
            "time": 156,
            "velocity": 0.7874015748031497
          },
          {
            "duration": 0.0625,
            "durationTicks": 120,
            "midi": 55,
            "name": "G3",
            "ticks": 299760,
            "time": 156.125,
            "velocity": 0.7874015748031497
          },
          {
            "duration": 0.0625,
            "durationTicks": 120,
            "midi": 57,
            "name": "A3",
            "ticks": 300000,
            "time": 156.25,
            "velocity": 0.7874015748031497
          },
          {
            "duration": 0.125,
            "durationTicks": 240,
            "midi": 57,
            "name": "A3",
            "ticks": 300240,
            "time": 156.375,
            "velocity": 0.7874015748031497
          },
          {
            "duration": 0.0625,
            "durationTicks": 120,
            "midi": 58,
            "name": "A#3",
            "ticks": 300720,
            "time": 156.625,
            "velocity": 0.7874015748031497
          },
          {
            "duration": 0.125,
            "durationTicks": 240,
            "midi": 57,
            "name": "A3",
            "ticks": 300960,
            "time": 156.75,
            "velocity": 0.7874015748031497
          },
          {
            "duration": 0.0625,
            "durationTicks": 120,
            "midi": 55,
            "name": "G3",
            "ticks": 301200,
            "time": 156.875,
            "velocity": 0.7874015748031497
          },
          {
            "duration": 0.125,
            "durationTicks": 240,
            "midi": 58,
            "name": "A#3",
            "ticks": 301440,
            "time": 157,
            "velocity": 0.7874015748031497
          },
          {
            "duration": 0.0625,
            "durationTicks": 120,
            "midi": 55,
            "name": "G3",
            "ticks": 301920,
            "time": 157.25,
            "velocity": 0.7874015748031497
          },
          {
            "duration": 0.1875,
            "durationTicks": 360,
            "midi": 57,
            "name": "A3",
            "ticks": 302160,
            "time": 157.375,
            "velocity": 0.7874015748031497
          },
          {
            "duration": 0.75,
            "durationTicks": 1440,
            "midi": 48,
            "name": "C3",
            "ticks": 303360,
            "time": 158,
            "velocity": 0.7874015748031497
          },
          {
            "duration": 1.25,
            "durationTicks": 2400,
            "midi": 53,
            "name": "F3",
            "ticks": 304800,
            "time": 158.75,
            "velocity": 0.7874015748031497
          },
          {
            "duration": 0.0625,
            "durationTicks": 120,
            "midi": 55,
            "name": "G3",
            "ticks": 307440,
            "time": 160.125,
            "velocity": 0.7874015748031497
          },
          {
            "duration": 0.0625,
            "durationTicks": 120,
            "midi": 57,
            "name": "A3",
            "ticks": 307680,
            "time": 160.25,
            "velocity": 0.7874015748031497
          },
          {
            "duration": 0.125,
            "durationTicks": 240,
            "midi": 57,
            "name": "A3",
            "ticks": 307920,
            "time": 160.375,
            "velocity": 0.7874015748031497
          },
          {
            "duration": 0.0625,
            "durationTicks": 120,
            "midi": 58,
            "name": "A#3",
            "ticks": 308400,
            "time": 160.625,
            "velocity": 0.7874015748031497
          },
          {
            "duration": 0.125,
            "durationTicks": 240,
            "midi": 57,
            "name": "A3",
            "ticks": 308640,
            "time": 160.75,
            "velocity": 0.7874015748031497
          },
          {
            "duration": 0.0625,
            "durationTicks": 120,
            "midi": 55,
            "name": "G3",
            "ticks": 308880,
            "time": 160.875,
            "velocity": 0.7874015748031497
          },
          {
            "duration": 0.125,
            "durationTicks": 240,
            "midi": 58,
            "name": "A#3",
            "ticks": 309120,
            "time": 161,
            "velocity": 0.7874015748031497
          },
          {
            "duration": 0.0625,
            "durationTicks": 120,
            "midi": 55,
            "name": "G3",
            "ticks": 309600,
            "time": 161.25,
            "velocity": 0.7874015748031497
          },
          {
            "duration": 0.1875,
            "durationTicks": 360,
            "midi": 57,
            "name": "A3",
            "ticks": 309840,
            "time": 161.375,
            "velocity": 0.7874015748031497
          },
          {
            "duration": 0.125,
            "durationTicks": 240,
            "midi": 52,
            "name": "E3",
            "ticks": 314880,
            "time": 164,
            "velocity": 0.7874015748031497
          },
          {
            "duration": 0.0625,
            "durationTicks": 120,
            "midi": 55,
            "name": "G3",
            "ticks": 315120,
            "time": 164.125,
            "velocity": 0.7874015748031497
          },
          {
            "duration": 0.0625,
            "durationTicks": 120,
            "midi": 57,
            "name": "A3",
            "ticks": 315360,
            "time": 164.25,
            "velocity": 0.7874015748031497
          },
          {
            "duration": 0.125,
            "durationTicks": 240,
            "midi": 57,
            "name": "A3",
            "ticks": 315600,
            "time": 164.375,
            "velocity": 0.7874015748031497
          },
          {
            "duration": 0.0625,
            "durationTicks": 120,
            "midi": 58,
            "name": "A#3",
            "ticks": 316080,
            "time": 164.625,
            "velocity": 0.7874015748031497
          },
          {
            "duration": 0.125,
            "durationTicks": 240,
            "midi": 57,
            "name": "A3",
            "ticks": 316320,
            "time": 164.75,
            "velocity": 0.7874015748031497
          },
          {
            "duration": 0.0625,
            "durationTicks": 120,
            "midi": 55,
            "name": "G3",
            "ticks": 316560,
            "time": 164.875,
            "velocity": 0.7874015748031497
          },
          {
            "duration": 0.125,
            "durationTicks": 240,
            "midi": 58,
            "name": "A#3",
            "ticks": 316800,
            "time": 165,
            "velocity": 0.7874015748031497
          },
          {
            "duration": 0.0625,
            "durationTicks": 120,
            "midi": 55,
            "name": "G3",
            "ticks": 317280,
            "time": 165.25,
            "velocity": 0.7874015748031497
          },
          {
            "duration": 0.1875,
            "durationTicks": 360,
            "midi": 57,
            "name": "A3",
            "ticks": 317520,
            "time": 165.375,
            "velocity": 0.7874015748031497
          },
          {
            "duration": 0.0625,
            "durationTicks": 120,
            "midi": 55,
            "name": "G3",
            "ticks": 322800,
            "time": 168.125,
            "velocity": 0.7874015748031497
          },
          {
            "duration": 0.0625,
            "durationTicks": 120,
            "midi": 57,
            "name": "A3",
            "ticks": 323040,
            "time": 168.25,
            "velocity": 0.7874015748031497
          },
          {
            "duration": 0.125,
            "durationTicks": 240,
            "midi": 57,
            "name": "A3",
            "ticks": 323280,
            "time": 168.375,
            "velocity": 0.7874015748031497
          },
          {
            "duration": 0.0625,
            "durationTicks": 120,
            "midi": 58,
            "name": "A#3",
            "ticks": 323760,
            "time": 168.625,
            "velocity": 0.7874015748031497
          },
          {
            "duration": 0.125,
            "durationTicks": 240,
            "midi": 57,
            "name": "A3",
            "ticks": 324000,
            "time": 168.75,
            "velocity": 0.7874015748031497
          },
          {
            "duration": 0.0625,
            "durationTicks": 120,
            "midi": 55,
            "name": "G3",
            "ticks": 324240,
            "time": 168.875,
            "velocity": 0.7874015748031497
          },
          {
            "duration": 0.125,
            "durationTicks": 240,
            "midi": 58,
            "name": "A#3",
            "ticks": 324480,
            "time": 169,
            "velocity": 0.7874015748031497
          },
          {
            "duration": 0.0625,
            "durationTicks": 120,
            "midi": 55,
            "name": "G3",
            "ticks": 324960,
            "time": 169.25,
            "velocity": 0.7874015748031497
          },
          {
            "duration": 0.1875,
            "durationTicks": 360,
            "midi": 57,
            "name": "A3",
            "ticks": 325200,
            "time": 169.375,
            "velocity": 0.7874015748031497
          },
          {
            "duration": 0.125,
            "durationTicks": 240,
            "midi": 52,
            "name": "E3",
            "ticks": 330240,
            "time": 172,
            "velocity": 0.7874015748031497
          },
          {
            "duration": 0.0625,
            "durationTicks": 120,
            "midi": 55,
            "name": "G3",
            "ticks": 330480,
            "time": 172.125,
            "velocity": 0.7874015748031497
          },
          {
            "duration": 0.0625,
            "durationTicks": 120,
            "midi": 57,
            "name": "A3",
            "ticks": 330720,
            "time": 172.25,
            "velocity": 0.7874015748031497
          },
          {
            "duration": 0.125,
            "durationTicks": 240,
            "midi": 57,
            "name": "A3",
            "ticks": 330960,
            "time": 172.375,
            "velocity": 0.7874015748031497
          },
          {
            "duration": 0.0625,
            "durationTicks": 120,
            "midi": 58,
            "name": "A#3",
            "ticks": 331440,
            "time": 172.625,
            "velocity": 0.7874015748031497
          },
          {
            "duration": 0.125,
            "durationTicks": 240,
            "midi": 57,
            "name": "A3",
            "ticks": 331680,
            "time": 172.75,
            "velocity": 0.7874015748031497
          },
          {
            "duration": 0.0625,
            "durationTicks": 120,
            "midi": 55,
            "name": "G3",
            "ticks": 331920,
            "time": 172.875,
            "velocity": 0.7874015748031497
          },
          {
            "duration": 0.125,
            "durationTicks": 240,
            "midi": 58,
            "name": "A#3",
            "ticks": 332160,
            "time": 173,
            "velocity": 0.7874015748031497
          },
          {
            "duration": 0.0625,
            "durationTicks": 120,
            "midi": 55,
            "name": "G3",
            "ticks": 332640,
            "time": 173.25,
            "velocity": 0.7874015748031497
          },
          {
            "duration": 0.1875,
            "durationTicks": 360,
            "midi": 57,
            "name": "A3",
            "ticks": 332880,
            "time": 173.375,
            "velocity": 0.7874015748031497
          },
          {
            "duration": 0.75,
            "durationTicks": 1440,
            "midi": 48,
            "name": "C3",
            "ticks": 334080,
            "time": 174,
            "velocity": 0.7874015748031497
          },
          {
            "duration": 1.25,
            "durationTicks": 2400,
            "midi": 53,
            "name": "F3",
            "ticks": 335520,
            "time": 174.75,
            "velocity": 0.7874015748031497
          },
          {
            "duration": 0.0625,
            "durationTicks": 120,
            "midi": 58,
            "name": "A#3",
            "ticks": 339120,
            "time": 176.625,
            "velocity": 0.7874015748031497
          },
          {
            "duration": 0.125,
            "durationTicks": 240,
            "midi": 57,
            "name": "A3",
            "ticks": 339360,
            "time": 176.75,
            "velocity": 0.7874015748031497
          },
          {
            "duration": 0.0625,
            "durationTicks": 120,
            "midi": 55,
            "name": "G3",
            "ticks": 339600,
            "time": 176.875,
            "velocity": 0.7874015748031497
          },
          {
            "duration": 0.125,
            "durationTicks": 240,
            "midi": 58,
            "name": "A#3",
            "ticks": 339840,
            "time": 177,
            "velocity": 0.7874015748031497
          },
          {
            "duration": 0.0625,
            "durationTicks": 120,
            "midi": 55,
            "name": "G3",
            "ticks": 340320,
            "time": 177.25,
            "velocity": 0.7874015748031497
          },
          {
            "duration": 0.1875,
            "durationTicks": 360,
            "midi": 57,
            "name": "A3",
            "ticks": 340560,
            "time": 177.375,
            "velocity": 0.7874015748031497
          },
          {
            "duration": 0.125,
            "durationTicks": 240,
            "midi": 52,
            "name": "E3",
            "ticks": 345600,
            "time": 180,
            "velocity": 0.7874015748031497
          },
          {
            "duration": 0.0625,
            "durationTicks": 120,
            "midi": 55,
            "name": "G3",
            "ticks": 345840,
            "time": 180.125,
            "velocity": 0.7874015748031497
          },
          {
            "duration": 0.0625,
            "durationTicks": 120,
            "midi": 57,
            "name": "A3",
            "ticks": 346080,
            "time": 180.25,
            "velocity": 0.7874015748031497
          },
          {
            "duration": 0.125,
            "durationTicks": 240,
            "midi": 57,
            "name": "A3",
            "ticks": 346320,
            "time": 180.375,
            "velocity": 0.7874015748031497
          },
          {
            "duration": 0.0625,
            "durationTicks": 120,
            "midi": 58,
            "name": "A#3",
            "ticks": 346800,
            "time": 180.625,
            "velocity": 0.7874015748031497
          },
          {
            "duration": 0.125,
            "durationTicks": 240,
            "midi": 57,
            "name": "A3",
            "ticks": 347040,
            "time": 180.75,
            "velocity": 0.7874015748031497
          },
          {
            "duration": 0.0625,
            "durationTicks": 120,
            "midi": 55,
            "name": "G3",
            "ticks": 347280,
            "time": 180.875,
            "velocity": 0.7874015748031497
          },
          {
            "duration": 0.125,
            "durationTicks": 240,
            "midi": 58,
            "name": "A#3",
            "ticks": 347520,
            "time": 181,
            "velocity": 0.7874015748031497
          },
          {
            "duration": 0.0625,
            "durationTicks": 120,
            "midi": 55,
            "name": "G3",
            "ticks": 348000,
            "time": 181.25,
            "velocity": 0.7874015748031497
          },
          {
            "duration": 0.1875,
            "durationTicks": 360,
            "midi": 57,
            "name": "A3",
            "ticks": 348240,
            "time": 181.375,
            "velocity": 0.7874015748031497
          },
          {
            "duration": 0.0625,
            "durationTicks": 120,
            "midi": 55,
            "name": "G3",
            "ticks": 353520,
            "time": 184.125,
            "velocity": 0.7874015748031497
          },
          {
            "duration": 0.0625,
            "durationTicks": 120,
            "midi": 57,
            "name": "A3",
            "ticks": 353760,
            "time": 184.25,
            "velocity": 0.7874015748031497
          },
          {
            "duration": 0.125,
            "durationTicks": 240,
            "midi": 57,
            "name": "A3",
            "ticks": 354000,
            "time": 184.375,
            "velocity": 0.7874015748031497
          },
          {
            "duration": 0.0625,
            "durationTicks": 120,
            "midi": 58,
            "name": "A#3",
            "ticks": 354480,
            "time": 184.625,
            "velocity": 0.7874015748031497
          },
          {
            "duration": 0.125,
            "durationTicks": 240,
            "midi": 57,
            "name": "A3",
            "ticks": 354720,
            "time": 184.75,
            "velocity": 0.7874015748031497
          },
          {
            "duration": 0.0625,
            "durationTicks": 120,
            "midi": 55,
            "name": "G3",
            "ticks": 354960,
            "time": 184.875,
            "velocity": 0.7874015748031497
          },
          {
            "duration": 0.125,
            "durationTicks": 240,
            "midi": 58,
            "name": "A#3",
            "ticks": 355200,
            "time": 185,
            "velocity": 0.7874015748031497
          },
          {
            "duration": 0.0625,
            "durationTicks": 120,
            "midi": 55,
            "name": "G3",
            "ticks": 355680,
            "time": 185.25,
            "velocity": 0.7874015748031497
          },
          {
            "duration": 0.1875,
            "durationTicks": 360,
            "midi": 57,
            "name": "A3",
            "ticks": 355920,
            "time": 185.375,
            "velocity": 0.7874015748031497
          },
          {
            "duration": 0.125,
            "durationTicks": 240,
            "midi": 52,
            "name": "E3",
            "ticks": 360960,
            "time": 188,
            "velocity": 0.7874015748031497
          },
          {
            "duration": 0.0625,
            "durationTicks": 120,
            "midi": 55,
            "name": "G3",
            "ticks": 361200,
            "time": 188.125,
            "velocity": 0.7874015748031497
          },
          {
            "duration": 0.0625,
            "durationTicks": 120,
            "midi": 57,
            "name": "A3",
            "ticks": 361440,
            "time": 188.25,
            "velocity": 0.7874015748031497
          },
          {
            "duration": 0.125,
            "durationTicks": 240,
            "midi": 57,
            "name": "A3",
            "ticks": 361680,
            "time": 188.375,
            "velocity": 0.7874015748031497
          },
          {
            "duration": 0.0625,
            "durationTicks": 120,
            "midi": 58,
            "name": "A#3",
            "ticks": 362160,
            "time": 188.625,
            "velocity": 0.7874015748031497
          },
          {
            "duration": 0.125,
            "durationTicks": 240,
            "midi": 57,
            "name": "A3",
            "ticks": 362400,
            "time": 188.75,
            "velocity": 0.7874015748031497
          },
          {
            "duration": 0.0625,
            "durationTicks": 120,
            "midi": 55,
            "name": "G3",
            "ticks": 362640,
            "time": 188.875,
            "velocity": 0.7874015748031497
          },
          {
            "duration": 0.125,
            "durationTicks": 240,
            "midi": 58,
            "name": "A#3",
            "ticks": 362880,
            "time": 189,
            "velocity": 0.7874015748031497
          },
          {
            "duration": 0.0625,
            "durationTicks": 120,
            "midi": 55,
            "name": "G3",
            "ticks": 363360,
            "time": 189.25,
            "velocity": 0.7874015748031497
          },
          {
            "duration": 0.1875,
            "durationTicks": 360,
            "midi": 57,
            "name": "A3",
            "ticks": 363600,
            "time": 189.375,
            "velocity": 0.7874015748031497
          },
          {
            "duration": 0.75,
            "durationTicks": 1440,
            "midi": 48,
            "name": "C3",
            "ticks": 364800,
            "time": 190,
            "velocity": 0.7874015748031497
          },
          {
            "duration": 1.25,
            "durationTicks": 2400,
            "midi": 53,
            "name": "F3",
            "ticks": 366240,
            "time": 190.75,
            "velocity": 0.7874015748031497
          },
          {
            "duration": 0.0625,
            "durationTicks": 120,
            "midi": 55,
            "name": "G3",
            "ticks": 368880,
            "time": 192.125,
            "velocity": 0.7874015748031497
          },
          {
            "duration": 0.0625,
            "durationTicks": 120,
            "midi": 57,
            "name": "A3",
            "ticks": 369120,
            "time": 192.25,
            "velocity": 0.7874015748031497
          },
          {
            "duration": 0.125,
            "durationTicks": 240,
            "midi": 57,
            "name": "A3",
            "ticks": 369360,
            "time": 192.375,
            "velocity": 0.7874015748031497
          },
          {
            "duration": 0.0625,
            "durationTicks": 120,
            "midi": 58,
            "name": "A#3",
            "ticks": 369840,
            "time": 192.625,
            "velocity": 0.7874015748031497
          },
          {
            "duration": 0.125,
            "durationTicks": 240,
            "midi": 57,
            "name": "A3",
            "ticks": 370080,
            "time": 192.75,
            "velocity": 0.7874015748031497
          },
          {
            "duration": 0.0625,
            "durationTicks": 120,
            "midi": 55,
            "name": "G3",
            "ticks": 370320,
            "time": 192.875,
            "velocity": 0.7874015748031497
          },
          {
            "duration": 0.125,
            "durationTicks": 240,
            "midi": 58,
            "name": "A#3",
            "ticks": 370560,
            "time": 193,
            "velocity": 0.7874015748031497
          },
          {
            "duration": 0.0625,
            "durationTicks": 120,
            "midi": 55,
            "name": "G3",
            "ticks": 371040,
            "time": 193.25,
            "velocity": 0.7874015748031497
          },
          {
            "duration": 0.1875,
            "durationTicks": 360,
            "midi": 57,
            "name": "A3",
            "ticks": 371280,
            "time": 193.375,
            "velocity": 0.7874015748031497
          },
          {
            "duration": 0.125,
            "durationTicks": 240,
            "midi": 52,
            "name": "E3",
            "ticks": 376320,
            "time": 196,
            "velocity": 0.7874015748031497
          },
          {
            "duration": 0.0625,
            "durationTicks": 120,
            "midi": 55,
            "name": "G3",
            "ticks": 376560,
            "time": 196.125,
            "velocity": 0.7874015748031497
          },
          {
            "duration": 0.0625,
            "durationTicks": 120,
            "midi": 57,
            "name": "A3",
            "ticks": 376800,
            "time": 196.25,
            "velocity": 0.7874015748031497
          },
          {
            "duration": 0.125,
            "durationTicks": 240,
            "midi": 57,
            "name": "A3",
            "ticks": 377040,
            "time": 196.375,
            "velocity": 0.7874015748031497
          },
          {
            "duration": 0.0625,
            "durationTicks": 120,
            "midi": 58,
            "name": "A#3",
            "ticks": 377520,
            "time": 196.625,
            "velocity": 0.7874015748031497
          },
          {
            "duration": 0.125,
            "durationTicks": 240,
            "midi": 57,
            "name": "A3",
            "ticks": 377760,
            "time": 196.75,
            "velocity": 0.7874015748031497
          },
          {
            "duration": 0.0625,
            "durationTicks": 120,
            "midi": 55,
            "name": "G3",
            "ticks": 378000,
            "time": 196.875,
            "velocity": 0.7874015748031497
          },
          {
            "duration": 0.125,
            "durationTicks": 240,
            "midi": 58,
            "name": "A#3",
            "ticks": 378240,
            "time": 197,
            "velocity": 0.7874015748031497
          },
          {
            "duration": 0.0625,
            "durationTicks": 120,
            "midi": 55,
            "name": "G3",
            "ticks": 378720,
            "time": 197.25,
            "velocity": 0.7874015748031497
          },
          {
            "duration": 0.1875,
            "durationTicks": 360,
            "midi": 57,
            "name": "A3",
            "ticks": 378960,
            "time": 197.375,
            "velocity": 0.7874015748031497
          },
          {
            "duration": 0.0625,
            "durationTicks": 120,
            "midi": 55,
            "name": "G3",
            "ticks": 384240,
            "time": 200.125,
            "velocity": 0.7874015748031497
          },
          {
            "duration": 0.0625,
            "durationTicks": 120,
            "midi": 57,
            "name": "A3",
            "ticks": 384480,
            "time": 200.25,
            "velocity": 0.7874015748031497
          },
          {
            "duration": 0.125,
            "durationTicks": 240,
            "midi": 57,
            "name": "A3",
            "ticks": 384720,
            "time": 200.375,
            "velocity": 0.7874015748031497
          },
          {
            "duration": 0.0625,
            "durationTicks": 120,
            "midi": 58,
            "name": "A#3",
            "ticks": 385200,
            "time": 200.625,
            "velocity": 0.7874015748031497
          },
          {
            "duration": 0.125,
            "durationTicks": 240,
            "midi": 57,
            "name": "A3",
            "ticks": 385440,
            "time": 200.75,
            "velocity": 0.7874015748031497
          },
          {
            "duration": 0.0625,
            "durationTicks": 120,
            "midi": 55,
            "name": "G3",
            "ticks": 385680,
            "time": 200.875,
            "velocity": 0.7874015748031497
          },
          {
            "duration": 0.125,
            "durationTicks": 240,
            "midi": 58,
            "name": "A#3",
            "ticks": 385920,
            "time": 201,
            "velocity": 0.7874015748031497
          },
          {
            "duration": 0.0625,
            "durationTicks": 120,
            "midi": 55,
            "name": "G3",
            "ticks": 386400,
            "time": 201.25,
            "velocity": 0.7874015748031497
          },
          {
            "duration": 0.1875,
            "durationTicks": 360,
            "midi": 57,
            "name": "A3",
            "ticks": 386640,
            "time": 201.375,
            "velocity": 0.7874015748031497
          },
          {
            "duration": 0.125,
            "durationTicks": 240,
            "midi": 52,
            "name": "E3",
            "ticks": 391680,
            "time": 204,
            "velocity": 0.7874015748031497
          },
          {
            "duration": 0.0625,
            "durationTicks": 120,
            "midi": 55,
            "name": "G3",
            "ticks": 391920,
            "time": 204.125,
            "velocity": 0.7874015748031497
          },
          {
            "duration": 0.0625,
            "durationTicks": 120,
            "midi": 57,
            "name": "A3",
            "ticks": 392160,
            "time": 204.25,
            "velocity": 0.7874015748031497
          },
          {
            "duration": 0.125,
            "durationTicks": 240,
            "midi": 57,
            "name": "A3",
            "ticks": 392400,
            "time": 204.375,
            "velocity": 0.7874015748031497
          },
          {
            "duration": 0.0625,
            "durationTicks": 120,
            "midi": 58,
            "name": "A#3",
            "ticks": 392880,
            "time": 204.625,
            "velocity": 0.7874015748031497
          },
          {
            "duration": 0.125,
            "durationTicks": 240,
            "midi": 57,
            "name": "A3",
            "ticks": 393120,
            "time": 204.75,
            "velocity": 0.7874015748031497
          },
          {
            "duration": 0.0625,
            "durationTicks": 120,
            "midi": 55,
            "name": "G3",
            "ticks": 393360,
            "time": 204.875,
            "velocity": 0.7874015748031497
          },
          {
            "duration": 0.125,
            "durationTicks": 240,
            "midi": 58,
            "name": "A#3",
            "ticks": 393600,
            "time": 205,
            "velocity": 0.7874015748031497
          },
          {
            "duration": 0.0625,
            "durationTicks": 120,
            "midi": 55,
            "name": "G3",
            "ticks": 394080,
            "time": 205.25,
            "velocity": 0.7874015748031497
          },
          {
            "duration": 0.1875,
            "durationTicks": 360,
            "midi": 57,
            "name": "A3",
            "ticks": 394320,
            "time": 205.375,
            "velocity": 0.7874015748031497
          },
          {
            "duration": 0.75,
            "durationTicks": 1440,
            "midi": 48,
            "name": "C3",
            "ticks": 395520,
            "time": 206,
            "velocity": 0.7874015748031497
          },
          {
            "duration": 1.25,
            "durationTicks": 2400,
            "midi": 53,
            "name": "F3",
            "ticks": 396960,
            "time": 206.75,
            "velocity": 0.7874015748031497
          },
          {
            "duration": 0.0625,
            "durationTicks": 120,
            "midi": 55,
            "name": "G3",
            "ticks": 399600,
            "time": 208.125,
            "velocity": 0.7874015748031497
          },
          {
            "duration": 0.0625,
            "durationTicks": 120,
            "midi": 57,
            "name": "A3",
            "ticks": 399840,
            "time": 208.25,
            "velocity": 0.7874015748031497
          },
          {
            "duration": 0.125,
            "durationTicks": 240,
            "midi": 57,
            "name": "A3",
            "ticks": 400080,
            "time": 208.375,
            "velocity": 0.7874015748031497
          },
          {
            "duration": 0.0625,
            "durationTicks": 120,
            "midi": 58,
            "name": "A#3",
            "ticks": 400560,
            "time": 208.625,
            "velocity": 0.7874015748031497
          },
          {
            "duration": 0.125,
            "durationTicks": 240,
            "midi": 57,
            "name": "A3",
            "ticks": 400800,
            "time": 208.75,
            "velocity": 0.7874015748031497
          },
          {
            "duration": 0.0625,
            "durationTicks": 120,
            "midi": 55,
            "name": "G3",
            "ticks": 401040,
            "time": 208.875,
            "velocity": 0.7874015748031497
          },
          {
            "duration": 0.125,
            "durationTicks": 240,
            "midi": 58,
            "name": "A#3",
            "ticks": 401280,
            "time": 209,
            "velocity": 0.7874015748031497
          },
          {
            "duration": 0.0625,
            "durationTicks": 120,
            "midi": 55,
            "name": "G3",
            "ticks": 401760,
            "time": 209.25,
            "velocity": 0.7874015748031497
          },
          {
            "duration": 0.1875,
            "durationTicks": 360,
            "midi": 57,
            "name": "A3",
            "ticks": 402000,
            "time": 209.375,
            "velocity": 0.7874015748031497
          },
          {
            "duration": 0.125,
            "durationTicks": 240,
            "midi": 52,
            "name": "E3",
            "ticks": 407040,
            "time": 212,
            "velocity": 0.7874015748031497
          },
          {
            "duration": 0.0625,
            "durationTicks": 120,
            "midi": 55,
            "name": "G3",
            "ticks": 407280,
            "time": 212.125,
            "velocity": 0.7874015748031497
          },
          {
            "duration": 0.0625,
            "durationTicks": 120,
            "midi": 57,
            "name": "A3",
            "ticks": 407520,
            "time": 212.25,
            "velocity": 0.7874015748031497
          },
          {
            "duration": 0.125,
            "durationTicks": 240,
            "midi": 57,
            "name": "A3",
            "ticks": 407760,
            "time": 212.375,
            "velocity": 0.7874015748031497
          },
          {
            "duration": 0.0625,
            "durationTicks": 120,
            "midi": 58,
            "name": "A#3",
            "ticks": 408240,
            "time": 212.625,
            "velocity": 0.7874015748031497
          },
          {
            "duration": 0.125,
            "durationTicks": 240,
            "midi": 57,
            "name": "A3",
            "ticks": 408480,
            "time": 212.75,
            "velocity": 0.7874015748031497
          },
          {
            "duration": 0.0625,
            "durationTicks": 120,
            "midi": 55,
            "name": "G3",
            "ticks": 408720,
            "time": 212.875,
            "velocity": 0.7874015748031497
          },
          {
            "duration": 0.125,
            "durationTicks": 240,
            "midi": 58,
            "name": "A#3",
            "ticks": 408960,
            "time": 213,
            "velocity": 0.7874015748031497
          },
          {
            "duration": 0.0625,
            "durationTicks": 120,
            "midi": 55,
            "name": "G3",
            "ticks": 409440,
            "time": 213.25,
            "velocity": 0.7874015748031497
          },
          {
            "duration": 0.1875,
            "durationTicks": 360,
            "midi": 57,
            "name": "A3",
            "ticks": 409680,
            "time": 213.375,
            "velocity": 0.7874015748031497
          },
          {
            "duration": 0.0625,
            "durationTicks": 120,
            "midi": 55,
            "name": "G3",
            "ticks": 414960,
            "time": 216.125,
            "velocity": 0.7874015748031497
          },
          {
            "duration": 0.0625,
            "durationTicks": 120,
            "midi": 57,
            "name": "A3",
            "ticks": 415200,
            "time": 216.25,
            "velocity": 0.7874015748031497
          },
          {
            "duration": 0.125,
            "durationTicks": 240,
            "midi": 57,
            "name": "A3",
            "ticks": 415440,
            "time": 216.375,
            "velocity": 0.7874015748031497
          },
          {
            "duration": 0.0625,
            "durationTicks": 120,
            "midi": 58,
            "name": "A#3",
            "ticks": 415920,
            "time": 216.625,
            "velocity": 0.7874015748031497
          },
          {
            "duration": 0.125,
            "durationTicks": 240,
            "midi": 57,
            "name": "A3",
            "ticks": 416160,
            "time": 216.75,
            "velocity": 0.7874015748031497
          },
          {
            "duration": 0.0625,
            "durationTicks": 120,
            "midi": 55,
            "name": "G3",
            "ticks": 416400,
            "time": 216.875,
            "velocity": 0.7874015748031497
          },
          {
            "duration": 0.125,
            "durationTicks": 240,
            "midi": 58,
            "name": "A#3",
            "ticks": 416640,
            "time": 217,
            "velocity": 0.7874015748031497
          },
          {
            "duration": 0.0625,
            "durationTicks": 120,
            "midi": 55,
            "name": "G3",
            "ticks": 417120,
            "time": 217.25,
            "velocity": 0.7874015748031497
          },
          {
            "duration": 0.1875,
            "durationTicks": 360,
            "midi": 57,
            "name": "A3",
            "ticks": 417360,
            "time": 217.375,
            "velocity": 0.7874015748031497
          },
          {
            "duration": 0.125,
            "durationTicks": 240,
            "midi": 52,
            "name": "E3",
            "ticks": 422400,
            "time": 220,
            "velocity": 0.7874015748031497
          },
          {
            "duration": 0.0625,
            "durationTicks": 120,
            "midi": 55,
            "name": "G3",
            "ticks": 422640,
            "time": 220.125,
            "velocity": 0.7874015748031497
          },
          {
            "duration": 0.0625,
            "durationTicks": 120,
            "midi": 57,
            "name": "A3",
            "ticks": 422880,
            "time": 220.25,
            "velocity": 0.7874015748031497
          },
          {
            "duration": 0.125,
            "durationTicks": 240,
            "midi": 57,
            "name": "A3",
            "ticks": 423120,
            "time": 220.375,
            "velocity": 0.7874015748031497
          },
          {
            "duration": 0.0625,
            "durationTicks": 120,
            "midi": 58,
            "name": "A#3",
            "ticks": 423600,
            "time": 220.625,
            "velocity": 0.7874015748031497
          },
          {
            "duration": 0.125,
            "durationTicks": 240,
            "midi": 57,
            "name": "A3",
            "ticks": 423840,
            "time": 220.75,
            "velocity": 0.7874015748031497
          },
          {
            "duration": 0.0625,
            "durationTicks": 120,
            "midi": 55,
            "name": "G3",
            "ticks": 424080,
            "time": 220.875,
            "velocity": 0.7874015748031497
          },
          {
            "duration": 0.125,
            "durationTicks": 240,
            "midi": 58,
            "name": "A#3",
            "ticks": 424320,
            "time": 221,
            "velocity": 0.7874015748031497
          },
          {
            "duration": 0.0625,
            "durationTicks": 120,
            "midi": 55,
            "name": "G3",
            "ticks": 424800,
            "time": 221.25,
            "velocity": 0.7874015748031497
          },
          {
            "duration": 0.1875,
            "durationTicks": 360,
            "midi": 57,
            "name": "A3",
            "ticks": 425040,
            "time": 221.375,
            "velocity": 0.7874015748031497
          },
          {
            "duration": 0.75,
            "durationTicks": 1440,
            "midi": 48,
            "name": "C3",
            "ticks": 426240,
            "time": 222,
            "velocity": 0.7874015748031497
          },
          {
            "duration": 1.25,
            "durationTicks": 2400,
            "midi": 53,
            "name": "F3",
            "ticks": 427680,
            "time": 222.75,
            "velocity": 0.7874015748031497
          },
          {
            "duration": 0.0625,
            "durationTicks": 120,
            "midi": 55,
            "name": "G3",
            "ticks": 430320,
            "time": 224.125,
            "velocity": 0.7874015748031497
          },
          {
            "duration": 0.0625,
            "durationTicks": 120,
            "midi": 57,
            "name": "A3",
            "ticks": 430560,
            "time": 224.25,
            "velocity": 0.7874015748031497
          },
          {
            "duration": 0.125,
            "durationTicks": 240,
            "midi": 57,
            "name": "A3",
            "ticks": 430800,
            "time": 224.375,
            "velocity": 0.7874015748031497
          },
          {
            "duration": 0.0625,
            "durationTicks": 120,
            "midi": 58,
            "name": "A#3",
            "ticks": 431280,
            "time": 224.625,
            "velocity": 0.7874015748031497
          },
          {
            "duration": 0.125,
            "durationTicks": 240,
            "midi": 57,
            "name": "A3",
            "ticks": 431520,
            "time": 224.75,
            "velocity": 0.7874015748031497
          },
          {
            "duration": 0.0625,
            "durationTicks": 120,
            "midi": 55,
            "name": "G3",
            "ticks": 431760,
            "time": 224.875,
            "velocity": 0.7874015748031497
          },
          {
            "duration": 0.125,
            "durationTicks": 240,
            "midi": 58,
            "name": "A#3",
            "ticks": 432000,
            "time": 225,
            "velocity": 0.7874015748031497
          },
          {
            "duration": 0.0625,
            "durationTicks": 120,
            "midi": 55,
            "name": "G3",
            "ticks": 432480,
            "time": 225.25,
            "velocity": 0.7874015748031497
          },
          {
            "duration": 0.1875,
            "durationTicks": 360,
            "midi": 57,
            "name": "A3",
            "ticks": 432720,
            "time": 225.375,
            "velocity": 0.7874015748031497
          },
          {
            "duration": 0.125,
            "durationTicks": 240,
            "midi": 52,
            "name": "E3",
            "ticks": 437760,
            "time": 228,
            "velocity": 0.7874015748031497
          },
          {
            "duration": 0.0625,
            "durationTicks": 120,
            "midi": 55,
            "name": "G3",
            "ticks": 438000,
            "time": 228.125,
            "velocity": 0.7874015748031497
          },
          {
            "duration": 0.0625,
            "durationTicks": 120,
            "midi": 57,
            "name": "A3",
            "ticks": 438240,
            "time": 228.25,
            "velocity": 0.7874015748031497
          },
          {
            "duration": 0.125,
            "durationTicks": 240,
            "midi": 57,
            "name": "A3",
            "ticks": 438480,
            "time": 228.375,
            "velocity": 0.7874015748031497
          },
          {
            "duration": 0.0625,
            "durationTicks": 120,
            "midi": 58,
            "name": "A#3",
            "ticks": 438960,
            "time": 228.625,
            "velocity": 0.7874015748031497
          },
          {
            "duration": 0.125,
            "durationTicks": 240,
            "midi": 57,
            "name": "A3",
            "ticks": 439200,
            "time": 228.75,
            "velocity": 0.7874015748031497
          },
          {
            "duration": 0.0625,
            "durationTicks": 120,
            "midi": 55,
            "name": "G3",
            "ticks": 439440,
            "time": 228.875,
            "velocity": 0.7874015748031497
          },
          {
            "duration": 0.125,
            "durationTicks": 240,
            "midi": 58,
            "name": "A#3",
            "ticks": 439680,
            "time": 229,
            "velocity": 0.7874015748031497
          },
          {
            "duration": 0.0625,
            "durationTicks": 120,
            "midi": 55,
            "name": "G3",
            "ticks": 440160,
            "time": 229.25,
            "velocity": 0.7874015748031497
          },
          {
            "duration": 0.1875,
            "durationTicks": 360,
            "midi": 57,
            "name": "A3",
            "ticks": 440400,
            "time": 229.375,
            "velocity": 0.7874015748031497
          },
          {
            "duration": 0.0625,
            "durationTicks": 120,
            "midi": 55,
            "name": "G3",
            "ticks": 445680,
            "time": 232.125,
            "velocity": 0.7874015748031497
          },
          {
            "duration": 0.0625,
            "durationTicks": 120,
            "midi": 57,
            "name": "A3",
            "ticks": 445920,
            "time": 232.25,
            "velocity": 0.7874015748031497
          },
          {
            "duration": 0.125,
            "durationTicks": 240,
            "midi": 57,
            "name": "A3",
            "ticks": 446160,
            "time": 232.375,
            "velocity": 0.7874015748031497
          },
          {
            "duration": 0.0625,
            "durationTicks": 120,
            "midi": 58,
            "name": "A#3",
            "ticks": 446640,
            "time": 232.625,
            "velocity": 0.7874015748031497
          },
          {
            "duration": 0.125,
            "durationTicks": 240,
            "midi": 57,
            "name": "A3",
            "ticks": 446880,
            "time": 232.75,
            "velocity": 0.7874015748031497
          },
          {
            "duration": 0.0625,
            "durationTicks": 120,
            "midi": 55,
            "name": "G3",
            "ticks": 447120,
            "time": 232.875,
            "velocity": 0.7874015748031497
          },
          {
            "duration": 0.125,
            "durationTicks": 240,
            "midi": 58,
            "name": "A#3",
            "ticks": 447360,
            "time": 233,
            "velocity": 0.7874015748031497
          },
          {
            "duration": 0.0625,
            "durationTicks": 120,
            "midi": 55,
            "name": "G3",
            "ticks": 447840,
            "time": 233.25,
            "velocity": 0.7874015748031497
          },
          {
            "duration": 0.1875,
            "durationTicks": 360,
            "midi": 57,
            "name": "A3",
            "ticks": 448080,
            "time": 233.375,
            "velocity": 0.7874015748031497
          },
          {
            "duration": 0.125,
            "durationTicks": 240,
            "midi": 52,
            "name": "E3",
            "ticks": 453120,
            "time": 236,
            "velocity": 0.7874015748031497
          },
          {
            "duration": 0.0625,
            "durationTicks": 120,
            "midi": 55,
            "name": "G3",
            "ticks": 453360,
            "time": 236.125,
            "velocity": 0.7874015748031497
          },
          {
            "duration": 0.0625,
            "durationTicks": 120,
            "midi": 57,
            "name": "A3",
            "ticks": 453600,
            "time": 236.25,
            "velocity": 0.7874015748031497
          },
          {
            "duration": 0.125,
            "durationTicks": 240,
            "midi": 57,
            "name": "A3",
            "ticks": 453840,
            "time": 236.375,
            "velocity": 0.7874015748031497
          },
          {
            "duration": 0.0625,
            "durationTicks": 120,
            "midi": 58,
            "name": "A#3",
            "ticks": 454320,
            "time": 236.625,
            "velocity": 0.7874015748031497
          },
          {
            "duration": 0.125,
            "durationTicks": 240,
            "midi": 57,
            "name": "A3",
            "ticks": 454560,
            "time": 236.75,
            "velocity": 0.7874015748031497
          },
          {
            "duration": 0.0625,
            "durationTicks": 120,
            "midi": 55,
            "name": "G3",
            "ticks": 454800,
            "time": 236.875,
            "velocity": 0.7874015748031497
          },
          {
            "duration": 0.125,
            "durationTicks": 240,
            "midi": 58,
            "name": "A#3",
            "ticks": 455040,
            "time": 237,
            "velocity": 0.7874015748031497
          },
          {
            "duration": 0.0625,
            "durationTicks": 120,
            "midi": 55,
            "name": "G3",
            "ticks": 455520,
            "time": 237.25,
            "velocity": 0.7874015748031497
          },
          {
            "duration": 0.1875,
            "durationTicks": 360,
            "midi": 57,
            "name": "A3",
            "ticks": 455760,
            "time": 237.375,
            "velocity": 0.7874015748031497
          },
          {
            "duration": 0.75,
            "durationTicks": 1440,
            "midi": 48,
            "name": "C3",
            "ticks": 456960,
            "time": 238,
            "velocity": 0.7874015748031497
          },
          {
            "duration": 1.25,
            "durationTicks": 2400,
            "midi": 53,
            "name": "F3",
            "ticks": 458400,
            "time": 238.75,
            "velocity": 0.7874015748031497
          },
          {
            "duration": 0.0625,
            "durationTicks": 120,
            "midi": 55,
            "name": "G3",
            "ticks": 461040,
            "time": 240.125,
            "velocity": 0.7874015748031497
          },
          {
            "duration": 0.0625,
            "durationTicks": 120,
            "midi": 57,
            "name": "A3",
            "ticks": 461280,
            "time": 240.25,
            "velocity": 0.7874015748031497
          },
          {
            "duration": 0.125,
            "durationTicks": 240,
            "midi": 57,
            "name": "A3",
            "ticks": 461520,
            "time": 240.375,
            "velocity": 0.7874015748031497
          },
          {
            "duration": 0.125,
            "durationTicks": 240,
            "midi": 52,
            "name": "E3",
            "ticks": 468480,
            "time": 244,
            "velocity": 0.7874015748031497
          },
          {
            "duration": 0.0625,
            "durationTicks": 120,
            "midi": 55,
            "name": "G3",
            "ticks": 468720,
            "time": 244.125,
            "velocity": 0.7874015748031497
          },
          {
            "duration": 0.0625,
            "durationTicks": 120,
            "midi": 57,
            "name": "A3",
            "ticks": 468960,
            "time": 244.25,
            "velocity": 0.7874015748031497
          },
          {
            "duration": 0.125,
            "durationTicks": 240,
            "midi": 57,
            "name": "A3",
            "ticks": 469200,
            "time": 244.375,
            "velocity": 0.7874015748031497
          },
          {
            "duration": 0.0625,
            "durationTicks": 120,
            "midi": 55,
            "name": "G3",
            "ticks": 476400,
            "time": 248.125,
            "velocity": 0.7874015748031497
          },
          {
            "duration": 0.0625,
            "durationTicks": 120,
            "midi": 57,
            "name": "A3",
            "ticks": 476640,
            "time": 248.25,
            "velocity": 0.7874015748031497
          },
          {
            "duration": 0.125,
            "durationTicks": 240,
            "midi": 57,
            "name": "A3",
            "ticks": 476880,
            "time": 248.375,
            "velocity": 0.7874015748031497
          },
          {
            "duration": 0.125,
            "durationTicks": 240,
            "midi": 52,
            "name": "E3",
            "ticks": 483840,
            "time": 252,
            "velocity": 0.7874015748031497
          },
          {
            "duration": 0.0625,
            "durationTicks": 120,
            "midi": 55,
            "name": "G3",
            "ticks": 484080,
            "time": 252.125,
            "velocity": 0.7874015748031497
          },
          {
            "duration": 0.0625,
            "durationTicks": 120,
            "midi": 57,
            "name": "A3",
            "ticks": 484320,
            "time": 252.25,
            "velocity": 0.7874015748031497
          },
          {
            "duration": 0.125,
            "durationTicks": 240,
            "midi": 57,
            "name": "A3",
            "ticks": 484560,
            "time": 252.375,
            "velocity": 0.7874015748031497
          }
        ],
        "endOfTrackTicks": 484800
      },
      {
        "channel": 4,
        "controlChanges": {},
        "pitchBends": [],
        "instrument": {
          "family": "piano",
          "number": 0,
          "name": "acoustic grand piano"
        },
        "name": "Scratch - MIDI\u0000",
        "notes": [
          {
            "duration": 0.0625,
            "durationTicks": 120,
            "midi": 48,
            "name": "C3",
            "ticks": 154560,
            "time": 80.5,
            "velocity": 0.7874015748031497
          },
          {
            "duration": 0.0625,
            "durationTicks": 120,
            "midi": 48,
            "name": "C3",
            "ticks": 155040,
            "time": 80.75,
            "velocity": 0.3937007874015748
          },
          {
            "duration": 0.0625,
            "durationTicks": 120,
            "midi": 60,
            "name": "C4",
            "ticks": 155520,
            "time": 81,
            "velocity": 0.7874015748031497
          },
          {
            "duration": 0.0625,
            "durationTicks": 120,
            "midi": 48,
            "name": "C3",
            "ticks": 155760,
            "time": 81.125,
            "velocity": 0.3937007874015748
          },
          {
            "duration": 0.0625,
            "durationTicks": 120,
            "midi": 60,
            "name": "C4",
            "ticks": 156120,
            "time": 81.3125,
            "velocity": 0.7874015748031497
          },
          {
            "duration": 0.0625,
            "durationTicks": 120,
            "midi": 48,
            "name": "C3",
            "ticks": 156480,
            "time": 81.5,
            "velocity": 0.3937007874015748
          },
          {
            "duration": 0.0625,
            "durationTicks": 120,
            "midi": 48,
            "name": "C3",
            "ticks": 156960,
            "time": 81.75,
            "velocity": 0.3937007874015748
          },
          {
            "duration": 0.0625,
            "durationTicks": 120,
            "midi": 48,
            "name": "C3",
            "ticks": 157920,
            "time": 82.25,
            "velocity": 0.7874015748031497
          },
          {
            "duration": 0.0625,
            "durationTicks": 120,
            "midi": 48,
            "name": "C3",
            "ticks": 158400,
            "time": 82.5,
            "velocity": 0.7874015748031497
          },
          {
            "duration": 0.0625,
            "durationTicks": 120,
            "midi": 60,
            "name": "C4",
            "ticks": 158640,
            "time": 82.625,
            "velocity": 0.7874015748031497
          },
          {
            "duration": 0.0625,
            "durationTicks": 120,
            "midi": 48,
            "name": "C3",
            "ticks": 158880,
            "time": 82.75,
            "velocity": 0.7874015748031497
          },
          {
            "duration": 0.0625,
            "durationTicks": 120,
            "midi": 60,
            "name": "C4",
            "ticks": 159120,
            "time": 82.875,
            "velocity": 0.7874015748031497
          },
          {
            "duration": 0.0625,
            "durationTicks": 120,
            "midi": 48,
            "name": "C3",
            "ticks": 159360,
            "time": 83,
            "velocity": 0.3937007874015748
          },
          {
            "duration": 0.0625,
            "durationTicks": 120,
            "midi": 60,
            "name": "C4",
            "ticks": 159840,
            "time": 83.25,
            "velocity": 0.7874015748031497
          },
          {
            "duration": 0.0625,
            "durationTicks": 120,
            "midi": 48,
            "name": "C3",
            "ticks": 160080,
            "time": 83.375,
            "velocity": 0.3937007874015748
          },
          {
            "duration": 0.0625,
            "durationTicks": 120,
            "midi": 60,
            "name": "C4",
            "ticks": 160560,
            "time": 83.625,
            "velocity": 0.3937007874015748
          },
          {
            "duration": 0.0625,
            "durationTicks": 120,
            "midi": 48,
            "name": "C3",
            "ticks": 160800,
            "time": 83.75,
            "velocity": 0.3937007874015748
          },
          {
            "duration": 0.0625,
            "durationTicks": 120,
            "midi": 48,
            "name": "C3",
            "ticks": 161760,
            "time": 84.25,
            "velocity": 0.7874015748031497
          },
          {
            "duration": 0.0625,
            "durationTicks": 120,
            "midi": 60,
            "name": "C4",
            "ticks": 162000,
            "time": 84.375,
            "velocity": 0.7874015748031497
          },
          {
            "duration": 0.0625,
            "durationTicks": 120,
            "midi": 48,
            "name": "C3",
            "ticks": 162240,
            "time": 84.5,
            "velocity": 0.7874015748031497
          },
          {
            "duration": 0.0625,
            "durationTicks": 120,
            "midi": 48,
            "name": "C3",
            "ticks": 162720,
            "time": 84.75,
            "velocity": 0.7874015748031497
          },
          {
            "duration": 0.0625,
            "durationTicks": 120,
            "midi": 48,
            "name": "C3",
            "ticks": 163200,
            "time": 85,
            "velocity": 0.3937007874015748
          },
          {
            "duration": 0.0625,
            "durationTicks": 120,
            "midi": 48,
            "name": "C3",
            "ticks": 163680,
            "time": 85.25,
            "velocity": 0.7874015748031497
          },
          {
            "duration": 0.0625,
            "durationTicks": 120,
            "midi": 60,
            "name": "C4",
            "ticks": 163920,
            "time": 85.375,
            "velocity": 0.7874015748031497
          },
          {
            "duration": 0.0625,
            "durationTicks": 120,
            "midi": 48,
            "name": "C3",
            "ticks": 164160,
            "time": 85.5,
            "velocity": 0.3937007874015748
          },
          {
            "duration": 0.0625,
            "durationTicks": 120,
            "midi": 60,
            "name": "C4",
            "ticks": 164520,
            "time": 85.6875,
            "velocity": 0.3937007874015748
          },
          {
            "duration": 0.0625,
            "durationTicks": 120,
            "midi": 48,
            "name": "C3",
            "ticks": 164760,
            "time": 85.8125,
            "velocity": 0.3937007874015748
          },
          {
            "duration": 0.0625,
            "durationTicks": 120,
            "midi": 48,
            "name": "C3",
            "ticks": 165240,
            "time": 86.0625,
            "velocity": 0.3937007874015748
          },
          {
            "duration": 0.0625,
            "durationTicks": 120,
            "midi": 60,
            "name": "C4",
            "ticks": 165720,
            "time": 86.3125,
            "velocity": 0.7874015748031497
          },
          {
            "duration": 0.0625,
            "durationTicks": 120,
            "midi": 48,
            "name": "C3",
            "ticks": 165960,
            "time": 86.4375,
            "velocity": 0.7874015748031497
          },
          {
            "duration": 0.0625,
            "durationTicks": 120,
            "midi": 60,
            "name": "C4",
            "ticks": 166440,
            "time": 86.6875,
            "velocity": 0.7874015748031497
          },
          {
            "duration": 0.0625,
            "durationTicks": 120,
            "midi": 48,
            "name": "C3",
            "ticks": 167040,
            "time": 87,
            "velocity": 0.7874015748031497
          },
          {
            "duration": 0.0625,
            "durationTicks": 120,
            "midi": 60,
            "name": "C4",
            "ticks": 167280,
            "time": 87.125,
            "velocity": 0.7874015748031497
          },
          {
            "duration": 0.0625,
            "durationTicks": 120,
            "midi": 48,
            "name": "C3",
            "ticks": 167520,
            "time": 87.25,
            "velocity": 0.7874015748031497
          },
          {
            "duration": 0.0625,
            "durationTicks": 120,
            "midi": 48,
            "name": "C3",
            "ticks": 168000,
            "time": 87.5,
            "velocity": 0.3937007874015748
          },
          {
            "duration": 0.0625,
            "durationTicks": 120,
            "midi": 48,
            "name": "C3",
            "ticks": 169920,
            "time": 88.5,
            "velocity": 0.7874015748031497
          },
          {
            "duration": 0.0625,
            "durationTicks": 120,
            "midi": 48,
            "name": "C3",
            "ticks": 170400,
            "time": 88.75,
            "velocity": 0.3937007874015748
          },
          {
            "duration": 0.0625,
            "durationTicks": 120,
            "midi": 48,
            "name": "C3",
            "ticks": 171120,
            "time": 89.125,
            "velocity": 0.3937007874015748
          },
          {
            "duration": 0.0625,
            "durationTicks": 120,
            "midi": 60,
            "name": "C4",
            "ticks": 171480,
            "time": 89.3125,
            "velocity": 0.3937007874015748
          },
          {
            "duration": 0.0625,
            "durationTicks": 120,
            "midi": 48,
            "name": "C3",
            "ticks": 171840,
            "time": 89.5,
            "velocity": 0.3937007874015748
          },
          {
            "duration": 0.0625,
            "durationTicks": 120,
            "midi": 48,
            "name": "C3",
            "ticks": 172320,
            "time": 89.75,
            "velocity": 0.3937007874015748
          },
          {
            "duration": 0.0625,
            "durationTicks": 120,
            "midi": 48,
            "name": "C3",
            "ticks": 172800,
            "time": 90,
            "velocity": 0.7874015748031497
          },
          {
            "duration": 0.0625,
            "durationTicks": 120,
            "midi": 60,
            "name": "C4",
            "ticks": 173040,
            "time": 90.125,
            "velocity": 0.3937007874015748
          },
          {
            "duration": 0.0625,
            "durationTicks": 120,
            "midi": 48,
            "name": "C3",
            "ticks": 173280,
            "time": 90.25,
            "velocity": 0.3937007874015748
          },
          {
            "duration": 0.0625,
            "durationTicks": 120,
            "midi": 60,
            "name": "C4",
            "ticks": 173520,
            "time": 90.375,
            "velocity": 0.7874015748031497
          },
          {
            "duration": 0.0625,
            "durationTicks": 120,
            "midi": 48,
            "name": "C3",
            "ticks": 173760,
            "time": 90.5,
            "velocity": 0.7874015748031497
          },
          {
            "duration": 0.0625,
            "durationTicks": 120,
            "midi": 48,
            "name": "C3",
            "ticks": 174240,
            "time": 90.75,
            "velocity": 0.7874015748031497
          },
          {
            "duration": 0.0625,
            "durationTicks": 120,
            "midi": 48,
            "name": "C3",
            "ticks": 174600,
            "time": 90.9375,
            "velocity": 0.7874015748031497
          },
          {
            "duration": 0.0625,
            "durationTicks": 120,
            "midi": 60,
            "name": "C4",
            "ticks": 174720,
            "time": 91,
            "velocity": 0.7874015748031497
          },
          {
            "duration": 0.0625,
            "durationTicks": 120,
            "midi": 48,
            "name": "C3",
            "ticks": 174840,
            "time": 91.0625,
            "velocity": 0.7874015748031497
          },
          {
            "duration": 0.0625,
            "durationTicks": 120,
            "midi": 60,
            "name": "C4",
            "ticks": 174960,
            "time": 91.125,
            "velocity": 0.7874015748031497
          },
          {
            "duration": 0.0625,
            "durationTicks": 120,
            "midi": 48,
            "name": "C3",
            "ticks": 175080,
            "time": 91.1875,
            "velocity": 0.7874015748031497
          },
          {
            "duration": 0.0625,
            "durationTicks": 120,
            "midi": 48,
            "name": "C3",
            "ticks": 175680,
            "time": 91.5,
            "velocity": 0.3937007874015748
          },
          {
            "duration": 0.0625,
            "durationTicks": 120,
            "midi": 48,
            "name": "C3",
            "ticks": 176640,
            "time": 92,
            "velocity": 0.7874015748031497
          },
          {
            "duration": 0.0625,
            "durationTicks": 120,
            "midi": 60,
            "name": "C4",
            "ticks": 177120,
            "time": 92.25,
            "velocity": 0.3937007874015748
          },
          {
            "duration": 0.0625,
            "durationTicks": 120,
            "midi": 48,
            "name": "C3",
            "ticks": 177360,
            "time": 92.375,
            "velocity": 0.3937007874015748
          },
          {
            "duration": 0.0625,
            "durationTicks": 120,
            "midi": 60,
            "name": "C4",
            "ticks": 177600,
            "time": 92.5,
            "velocity": 0.3937007874015748
          },
          {
            "duration": 0.0625,
            "durationTicks": 120,
            "midi": 48,
            "name": "C3",
            "ticks": 177840,
            "time": 92.625,
            "velocity": 0.3937007874015748
          },
          {
            "duration": 0.0625,
            "durationTicks": 120,
            "midi": 48,
            "name": "C3",
            "ticks": 178080,
            "time": 92.75,
            "velocity": 0.7874015748031497
          },
          {
            "duration": 0.0625,
            "durationTicks": 120,
            "midi": 48,
            "name": "C3",
            "ticks": 178560,
            "time": 93,
            "velocity": 0.7874015748031497
          },
          {
            "duration": 0.0625,
            "durationTicks": 120,
            "midi": 60,
            "name": "C4",
            "ticks": 178800,
            "time": 93.125,
            "velocity": 0.3937007874015748
          },
          {
            "duration": 0.0625,
            "durationTicks": 120,
            "midi": 48,
            "name": "C3",
            "ticks": 179040,
            "time": 93.25,
            "velocity": 0.3937007874015748
          },
          {
            "duration": 0.0625,
            "durationTicks": 120,
            "midi": 60,
            "name": "C4",
            "ticks": 179160,
            "time": 93.3125,
            "velocity": 0.3937007874015748
          },
          {
            "duration": 0.0625,
            "durationTicks": 120,
            "midi": 48,
            "name": "C3",
            "ticks": 179280,
            "time": 93.375,
            "velocity": 0.3937007874015748
          },
          {
            "duration": 0.0625,
            "durationTicks": 120,
            "midi": 60,
            "name": "C4",
            "ticks": 179400,
            "time": 93.4375,
            "velocity": 0.3937007874015748
          },
          {
            "duration": 0.0625,
            "durationTicks": 120,
            "midi": 48,
            "name": "C3",
            "ticks": 179520,
            "time": 93.5,
            "velocity": 0.3937007874015748
          },
          {
            "duration": 0.0625,
            "durationTicks": 120,
            "midi": 48,
            "name": "C3",
            "ticks": 180000,
            "time": 93.75,
            "velocity": 0.7874015748031497
          },
          {
            "duration": 0.0625,
            "durationTicks": 120,
            "midi": 48,
            "name": "C3",
            "ticks": 180480,
            "time": 94,
            "velocity": 0.7874015748031497
          },
          {
            "duration": 0.0625,
            "durationTicks": 120,
            "midi": 48,
            "name": "C3",
            "ticks": 180960,
            "time": 94.25,
            "velocity": 0.3937007874015748
          },
          {
            "duration": 0.0625,
            "durationTicks": 120,
            "midi": 60,
            "name": "C4",
            "ticks": 181200,
            "time": 94.375,
            "velocity": 0.3937007874015748
          },
          {
            "duration": 0.0625,
            "durationTicks": 120,
            "midi": 48,
            "name": "C3",
            "ticks": 181920,
            "time": 94.75,
            "velocity": 0.7874015748031497
          },
          {
            "duration": 0.0625,
            "durationTicks": 120,
            "midi": 60,
            "name": "C4",
            "ticks": 182400,
            "time": 95,
            "velocity": 0.3937007874015748
          },
          {
            "duration": 0.0625,
            "durationTicks": 120,
            "midi": 48,
            "name": "C3",
            "ticks": 182880,
            "time": 95.25,
            "velocity": 0.3937007874015748
          },
          {
            "duration": 0.0625,
            "durationTicks": 120,
            "midi": 48,
            "name": "C3",
            "ticks": 183360,
            "time": 95.5,
            "velocity": 0.3937007874015748
          },
          {
            "duration": 0.0625,
            "durationTicks": 120,
            "midi": 48,
            "name": "C3",
            "ticks": 185280,
            "time": 96.5,
            "velocity": 0.7874015748031497
          },
          {
            "duration": 0.0625,
            "durationTicks": 120,
            "midi": 60,
            "name": "C4",
            "ticks": 185520,
            "time": 96.625,
            "velocity": 0.7874015748031497
          },
          {
            "duration": 0.0625,
            "durationTicks": 120,
            "midi": 48,
            "name": "C3",
            "ticks": 185760,
            "time": 96.75,
            "velocity": 0.7874015748031497
          },
          {
            "duration": 0.0625,
            "durationTicks": 120,
            "midi": 60,
            "name": "C4",
            "ticks": 186240,
            "time": 97,
            "velocity": 0.7874015748031497
          },
          {
            "duration": 0.0625,
            "durationTicks": 120,
            "midi": 60,
            "name": "C4",
            "ticks": 186720,
            "time": 97.25,
            "velocity": 0.7874015748031497
          },
          {
            "duration": 0.0625,
            "durationTicks": 120,
            "midi": 60,
            "name": "C4",
            "ticks": 187200,
            "time": 97.5,
            "velocity": 0.7874015748031497
          },
          {
            "duration": 0.0625,
            "durationTicks": 120,
            "midi": 60,
            "name": "C4",
            "ticks": 187680,
            "time": 97.75,
            "velocity": 0.7874015748031497
          },
          {
            "duration": 0.0625,
            "durationTicks": 120,
            "midi": 48,
            "name": "C3",
            "ticks": 188160,
            "time": 98,
            "velocity": 0.3937007874015748
          },
          {
            "duration": 0.0625,
            "durationTicks": 120,
            "midi": 48,
            "name": "C3",
            "ticks": 188640,
            "time": 98.25,
            "velocity": 0.7874015748031497
          },
          {
            "duration": 0.0625,
            "durationTicks": 120,
            "midi": 60,
            "name": "C4",
            "ticks": 188880,
            "time": 98.375,
            "velocity": 0.3937007874015748
          },
          {
            "duration": 0.0625,
            "durationTicks": 120,
            "midi": 48,
            "name": "C3",
            "ticks": 189120,
            "time": 98.5,
            "velocity": 0.3937007874015748
          },
          {
            "duration": 0.0625,
            "durationTicks": 120,
            "midi": 60,
            "name": "C4",
            "ticks": 189360,
            "time": 98.625,
            "velocity": 0.3937007874015748
          },
          {
            "duration": 0.0625,
            "durationTicks": 120,
            "midi": 48,
            "name": "C3",
            "ticks": 189480,
            "time": 98.6875,
            "velocity": 0.3937007874015748
          },
          {
            "duration": 0.0625,
            "durationTicks": 120,
            "midi": 60,
            "name": "C4",
            "ticks": 189600,
            "time": 98.75,
            "velocity": 0.7874015748031497
          },
          {
            "duration": 0.0625,
            "durationTicks": 120,
            "midi": 48,
            "name": "C3",
            "ticks": 190320,
            "time": 99.125,
            "velocity": 0.3937007874015748
          },
          {
            "duration": 0.0625,
            "durationTicks": 120,
            "midi": 60,
            "name": "C4",
            "ticks": 190800,
            "time": 99.375,
            "velocity": 0.3937007874015748
          },
          {
            "duration": 0.0625,
            "durationTicks": 120,
            "midi": 48,
            "name": "C3",
            "ticks": 191040,
            "time": 99.5,
            "velocity": 0.3937007874015748
          },
          {
            "duration": 0.0625,
            "durationTicks": 120,
            "midi": 48,
            "name": "C3",
            "ticks": 191520,
            "time": 99.75,
            "velocity": 0.3937007874015748
          },
          {
            "duration": 0.0625,
            "durationTicks": 120,
            "midi": 48,
            "name": "C3",
            "ticks": 192000,
            "time": 100,
            "velocity": 0.7874015748031497
          },
          {
            "duration": 0.0625,
            "durationTicks": 120,
            "midi": 60,
            "name": "C4",
            "ticks": 192240,
            "time": 100.125,
            "velocity": 0.7874015748031497
          },
          {
            "duration": 0.0625,
            "durationTicks": 120,
            "midi": 48,
            "name": "C3",
            "ticks": 192480,
            "time": 100.25,
            "velocity": 0.7874015748031497
          },
          {
            "duration": 0.0625,
            "durationTicks": 120,
            "midi": 48,
            "name": "C3",
            "ticks": 192960,
            "time": 100.5,
            "velocity": 0.3937007874015748
          },
          {
            "duration": 0.0625,
            "durationTicks": 120,
            "midi": 60,
            "name": "C4",
            "ticks": 193440,
            "time": 100.75,
            "velocity": 0.7874015748031497
          },
          {
            "duration": 0.0625,
            "durationTicks": 120,
            "midi": 48,
            "name": "C3",
            "ticks": 193680,
            "time": 100.875,
            "velocity": 0.7874015748031497
          },
          {
            "duration": 0.0625,
            "durationTicks": 120,
            "midi": 60,
            "name": "C4",
            "ticks": 193920,
            "time": 101,
            "velocity": 0.3937007874015748
          },
          {
            "duration": 0.0625,
            "durationTicks": 120,
            "midi": 48,
            "name": "C3",
            "ticks": 194400,
            "time": 101.25,
            "velocity": 0.3937007874015748
          },
          {
            "duration": 0.0625,
            "durationTicks": 120,
            "midi": 48,
            "name": "C3",
            "ticks": 195360,
            "time": 101.75,
            "velocity": 0.7874015748031497
          },
          {
            "duration": 0.0625,
            "durationTicks": 120,
            "midi": 60,
            "name": "C4",
            "ticks": 195840,
            "time": 102,
            "velocity": 0.7874015748031497
          },
          {
            "duration": 0.0625,
            "durationTicks": 120,
            "midi": 60,
            "name": "C4",
            "ticks": 196320,
            "time": 102.25,
            "velocity": 0.7874015748031497
          },
          {
            "duration": 0.0625,
            "durationTicks": 120,
            "midi": 48,
            "name": "C3",
            "ticks": 196800,
            "time": 102.5,
            "velocity": 0.3937007874015748
          },
          {
            "duration": 0.0625,
            "durationTicks": 120,
            "midi": 60,
            "name": "C4",
            "ticks": 197280,
            "time": 102.75,
            "velocity": 0.7874015748031497
          },
          {
            "duration": 0.0625,
            "durationTicks": 120,
            "midi": 48,
            "name": "C3",
            "ticks": 197520,
            "time": 102.875,
            "velocity": 0.7874015748031497
          },
          {
            "duration": 0.0625,
            "durationTicks": 120,
            "midi": 60,
            "name": "C4",
            "ticks": 197760,
            "time": 103,
            "velocity": 0.7874015748031497
          },
          {
            "duration": 0.0625,
            "durationTicks": 120,
            "midi": 48,
            "name": "C3",
            "ticks": 198000,
            "time": 103.125,
            "velocity": 0.7874015748031497
          },
          {
            "duration": 0.0625,
            "durationTicks": 120,
            "midi": 60,
            "name": "C4",
            "ticks": 198240,
            "time": 103.25,
            "velocity": 0.7874015748031497
          },
          {
            "duration": 0.0625,
            "durationTicks": 120,
            "midi": 48,
            "name": "C3",
            "ticks": 198720,
            "time": 103.5,
            "velocity": 0.3937007874015748
          },
          {
            "duration": 0.0625,
            "durationTicks": 120,
            "midi": 48,
            "name": "C3",
            "ticks": 200160,
            "time": 104.25,
            "velocity": 0.7874015748031497
          },
          {
            "duration": 0.0625,
            "durationTicks": 120,
            "midi": 48,
            "name": "C3",
            "ticks": 200640,
            "time": 104.5,
            "velocity": 0.3937007874015748
          },
          {
            "duration": 0.0625,
            "durationTicks": 120,
            "midi": 60,
            "name": "C4",
            "ticks": 201120,
            "time": 104.75,
            "velocity": 0.7874015748031497
          },
          {
            "duration": 0.0625,
            "durationTicks": 120,
            "midi": 48,
            "name": "C3",
            "ticks": 201600,
            "time": 105,
            "velocity": 0.7874015748031497
          },
          {
            "duration": 0.0625,
            "durationTicks": 120,
            "midi": 60,
            "name": "C4",
            "ticks": 201840,
            "time": 105.125,
            "velocity": 0.3937007874015748
          },
          {
            "duration": 0.0625,
            "durationTicks": 120,
            "midi": 48,
            "name": "C3",
            "ticks": 202080,
            "time": 105.25,
            "velocity": 0.3937007874015748
          },
          {
            "duration": 0.0625,
            "durationTicks": 120,
            "midi": 60,
            "name": "C4",
            "ticks": 202560,
            "time": 105.5,
            "velocity": 0.7874015748031497
          },
          {
            "duration": 0.0625,
            "durationTicks": 120,
            "midi": 48,
            "name": "C3",
            "ticks": 203040,
            "time": 105.75,
            "velocity": 0.7874015748031497
          },
          {
            "duration": 0.0625,
            "durationTicks": 120,
            "midi": 48,
            "name": "C3",
            "ticks": 203520,
            "time": 106,
            "velocity": 0.3937007874015748
          },
          {
            "duration": 0.0625,
            "durationTicks": 120,
            "midi": 60,
            "name": "C4",
            "ticks": 204000,
            "time": 106.25,
            "velocity": 0.7874015748031497
          },
          {
            "duration": 0.0625,
            "durationTicks": 120,
            "midi": 48,
            "name": "C3",
            "ticks": 204480,
            "time": 106.5,
            "velocity": 0.7874015748031497
          },
          {
            "duration": 0.0625,
            "durationTicks": 120,
            "midi": 48,
            "name": "C3",
            "ticks": 204960,
            "time": 106.75,
            "velocity": 0.7874015748031497
          },
          {
            "duration": 0.0625,
            "durationTicks": 120,
            "midi": 60,
            "name": "C4",
            "ticks": 205440,
            "time": 107,
            "velocity": 0.7874015748031497
          },
          {
            "duration": 0.0625,
            "durationTicks": 120,
            "midi": 48,
            "name": "C3",
            "ticks": 205560,
            "time": 107.0625,
            "velocity": 0.7874015748031497
          },
          {
            "duration": 0.0625,
            "durationTicks": 120,
            "midi": 60,
            "name": "C4",
            "ticks": 205680,
            "time": 107.125,
            "velocity": 0.7874015748031497
          },
          {
            "duration": 0.0625,
            "durationTicks": 120,
            "midi": 48,
            "name": "C3",
            "ticks": 205800,
            "time": 107.1875,
            "velocity": 0.7874015748031497
          },
          {
            "duration": 0.0625,
            "durationTicks": 120,
            "midi": 48,
            "name": "C3",
            "ticks": 206400,
            "time": 107.5,
            "velocity": 0.3937007874015748
          },
          {
            "duration": 0.0625,
            "durationTicks": 120,
            "midi": 60,
            "name": "C4",
            "ticks": 207360,
            "time": 108,
            "velocity": 0.7874015748031497
          },
          {
            "duration": 0.0625,
            "durationTicks": 120,
            "midi": 48,
            "name": "C3",
            "ticks": 207840,
            "time": 108.25,
            "velocity": 0.3937007874015748
          },
          {
            "duration": 0.0625,
            "durationTicks": 120,
            "midi": 60,
            "name": "C4",
            "ticks": 208320,
            "time": 108.5,
            "velocity": 0.7874015748031497
          },
          {
            "duration": 0.0625,
            "durationTicks": 120,
            "midi": 48,
            "name": "C3",
            "ticks": 208560,
            "time": 108.625,
            "velocity": 0.3937007874015748
          },
          {
            "duration": 0.0625,
            "durationTicks": 120,
            "midi": 60,
            "name": "C4",
            "ticks": 208920,
            "time": 108.8125,
            "velocity": 0.7874015748031497
          },
          {
            "duration": 0.0625,
            "durationTicks": 120,
            "midi": 48,
            "name": "C3",
            "ticks": 209160,
            "time": 108.9375,
            "velocity": 0.7874015748031497
          },
          {
            "duration": 0.0625,
            "durationTicks": 120,
            "midi": 60,
            "name": "C4",
            "ticks": 209760,
            "time": 109.25,
            "velocity": 0.7874015748031497
          },
          {
            "duration": 0.0625,
            "durationTicks": 120,
            "midi": 48,
            "name": "C3",
            "ticks": 210000,
            "time": 109.375,
            "velocity": 0.3937007874015748
          },
          {
            "duration": 0.0625,
            "durationTicks": 120,
            "midi": 48,
            "name": "C3",
            "ticks": 210240,
            "time": 109.5,
            "velocity": 0.3937007874015748
          },
          {
            "duration": 0.0625,
            "durationTicks": 120,
            "midi": 60,
            "name": "C4",
            "ticks": 210480,
            "time": 109.625,
            "velocity": 0.3937007874015748
          },
          {
            "duration": 0.0625,
            "durationTicks": 120,
            "midi": 48,
            "name": "C3",
            "ticks": 210720,
            "time": 109.75,
            "velocity": 0.3937007874015748
          },
          {
            "duration": 0.0625,
            "durationTicks": 120,
            "midi": 48,
            "name": "C3",
            "ticks": 211200,
            "time": 110,
            "velocity": 0.7874015748031497
          },
          {
            "duration": 0.0625,
            "durationTicks": 120,
            "midi": 60,
            "name": "C4",
            "ticks": 211680,
            "time": 110.25,
            "velocity": 0.7874015748031497
          },
          {
            "duration": 0.0625,
            "durationTicks": 120,
            "midi": 48,
            "name": "C3",
            "ticks": 212160,
            "time": 110.5,
            "velocity": 0.7874015748031497
          },
          {
            "duration": 0.0625,
            "durationTicks": 120,
            "midi": 60,
            "name": "C4",
            "ticks": 212640,
            "time": 110.75,
            "velocity": 0.7874015748031497
          },
          {
            "duration": 0.0625,
            "durationTicks": 120,
            "midi": 48,
            "name": "C3",
            "ticks": 213120,
            "time": 111,
            "velocity": 0.3937007874015748
          },
          {
            "duration": 0.0625,
            "durationTicks": 120,
            "midi": 60,
            "name": "C4",
            "ticks": 213360,
            "time": 111.125,
            "velocity": 0.3937007874015748
          },
          {
            "duration": 0.0625,
            "durationTicks": 120,
            "midi": 48,
            "name": "C3",
            "ticks": 213600,
            "time": 111.25,
            "velocity": 0.3937007874015748
          },
          {
            "duration": 0.0625,
            "durationTicks": 120,
            "midi": 48,
            "name": "C3",
            "ticks": 214080,
            "time": 111.5,
            "velocity": 0.3937007874015748
          },
          {
            "duration": 0.0625,
            "durationTicks": 120,
            "midi": 60,
            "name": "C4",
            "ticks": 338880,
            "time": 176.5,
            "velocity": 0.7874015748031497
          },
          {
            "duration": 0.0625,
            "durationTicks": 120,
            "midi": 48,
            "name": "C3",
            "ticks": 339120,
            "time": 176.625,
            "velocity": 0.3937007874015748
          },
          {
            "duration": 0.0625,
            "durationTicks": 120,
            "midi": 60,
            "name": "C4",
            "ticks": 339600,
            "time": 176.875,
            "velocity": 0.7874015748031497
          },
          {
            "duration": 0.0625,
            "durationTicks": 120,
            "midi": 48,
            "name": "C3",
            "ticks": 340320,
            "time": 177.25,
            "velocity": 0.7874015748031497
          },
          {
            "duration": 0.0625,
            "durationTicks": 120,
            "midi": 48,
            "name": "C3",
            "ticks": 341280,
            "time": 177.75,
            "velocity": 0.7874015748031497
          },
          {
            "duration": 0.0625,
            "durationTicks": 120,
            "midi": 48,
            "name": "C3",
            "ticks": 341760,
            "time": 178,
            "velocity": 0.7874015748031497
          },
          {
            "duration": 0.0625,
            "durationTicks": 120,
            "midi": 60,
            "name": "C4",
            "ticks": 342000,
            "time": 178.125,
            "velocity": 0.3937007874015748
          },
          {
            "duration": 0.0625,
            "durationTicks": 120,
            "midi": 48,
            "name": "C3",
            "ticks": 342240,
            "time": 178.25,
            "velocity": 0.3937007874015748
          },
          {
            "duration": 0.0625,
            "durationTicks": 120,
            "midi": 60,
            "name": "C4",
            "ticks": 342480,
            "time": 178.375,
            "velocity": 0.3937007874015748
          },
          {
            "duration": 0.0625,
            "durationTicks": 120,
            "midi": 48,
            "name": "C3",
            "ticks": 342720,
            "time": 178.5,
            "velocity": 0.3937007874015748
          },
          {
            "duration": 0.0625,
            "durationTicks": 120,
            "midi": 48,
            "name": "C3",
            "ticks": 343200,
            "time": 178.75,
            "velocity": 0.7874015748031497
          },
          {
            "duration": 0.0625,
            "durationTicks": 120,
            "midi": 60,
            "name": "C4",
            "ticks": 343440,
            "time": 178.875,
            "velocity": 0.7874015748031497
          },
          {
            "duration": 0.0625,
            "durationTicks": 120,
            "midi": 48,
            "name": "C3",
            "ticks": 343680,
            "time": 179,
            "velocity": 0.7874015748031497
          },
          {
            "duration": 0.0625,
            "durationTicks": 120,
            "midi": 60,
            "name": "C4",
            "ticks": 343920,
            "time": 179.125,
            "velocity": 0.7874015748031497
          },
          {
            "duration": 0.0625,
            "durationTicks": 120,
            "midi": 48,
            "name": "C3",
            "ticks": 344160,
            "time": 179.25,
            "velocity": 0.3937007874015748
          },
          {
            "duration": 0.0625,
            "durationTicks": 120,
            "midi": 60,
            "name": "C4",
            "ticks": 345120,
            "time": 179.75,
            "velocity": 0.7874015748031497
          },
          {
            "duration": 0.0625,
            "durationTicks": 120,
            "midi": 48,
            "name": "C3",
            "ticks": 345360,
            "time": 179.875,
            "velocity": 0.3937007874015748
          },
          {
            "duration": 0.0625,
            "durationTicks": 120,
            "midi": 60,
            "name": "C4",
            "ticks": 345600,
            "time": 180,
            "velocity": 0.3937007874015748
          },
          {
            "duration": 0.0625,
            "durationTicks": 120,
            "midi": 48,
            "name": "C3",
            "ticks": 346560,
            "time": 180.5,
            "velocity": 0.3937007874015748
          },
          {
            "duration": 0.0625,
            "durationTicks": 120,
            "midi": 60,
            "name": "C4",
            "ticks": 347520,
            "time": 181,
            "velocity": 0.7874015748031497
          },
          {
            "duration": 0.0625,
            "durationTicks": 120,
            "midi": 48,
            "name": "C3",
            "ticks": 348000,
            "time": 181.25,
            "velocity": 0.3937007874015748
          },
          {
            "duration": 0.0625,
            "durationTicks": 120,
            "midi": 60,
            "name": "C4",
            "ticks": 348480,
            "time": 181.5,
            "velocity": 0.7874015748031497
          },
          {
            "duration": 0.0625,
            "durationTicks": 120,
            "midi": 48,
            "name": "C3",
            "ticks": 348720,
            "time": 181.625,
            "velocity": 0.3937007874015748
          },
          {
            "duration": 0.0625,
            "durationTicks": 120,
            "midi": 60,
            "name": "C4",
            "ticks": 349200,
            "time": 181.875,
            "velocity": 0.3937007874015748
          },
          {
            "duration": 0.0625,
            "durationTicks": 120,
            "midi": 48,
            "name": "C3",
            "ticks": 349440,
            "time": 182,
            "velocity": 0.3937007874015748
          },
          {
            "duration": 0.0625,
            "durationTicks": 120,
            "midi": 60,
            "name": "C4",
            "ticks": 349680,
            "time": 182.125,
            "velocity": 0.3937007874015748
          },
          {
            "duration": 0.0625,
            "durationTicks": 120,
            "midi": 48,
            "name": "C3",
            "ticks": 349920,
            "time": 182.25,
            "velocity": 0.7874015748031497
          },
          {
            "duration": 0.0625,
            "durationTicks": 120,
            "midi": 60,
            "name": "C4",
            "ticks": 350160,
            "time": 182.375,
            "velocity": 0.7874015748031497
          },
          {
            "duration": 0.0625,
            "durationTicks": 120,
            "midi": 48,
            "name": "C3",
            "ticks": 350400,
            "time": 182.5,
            "velocity": 0.3937007874015748
          },
          {
            "duration": 0.0625,
            "durationTicks": 120,
            "midi": 60,
            "name": "C4",
            "ticks": 350640,
            "time": 182.625,
            "velocity": 0.3937007874015748
          },
          {
            "duration": 0.0625,
            "durationTicks": 120,
            "midi": 48,
            "name": "C3",
            "ticks": 350880,
            "time": 182.75,
            "velocity": 0.7874015748031497
          },
          {
            "duration": 0.0625,
            "durationTicks": 120,
            "midi": 60,
            "name": "C4",
            "ticks": 351360,
            "time": 183,
            "velocity": 0.7874015748031497
          },
          {
            "duration": 0.0625,
            "durationTicks": 120,
            "midi": 48,
            "name": "C3",
            "ticks": 351600,
            "time": 183.125,
            "velocity": 0.7874015748031497
          },
          {
            "duration": 0.0625,
            "durationTicks": 120,
            "midi": 60,
            "name": "C4",
            "ticks": 351840,
            "time": 183.25,
            "velocity": 0.7874015748031497
          },
          {
            "duration": 0.0625,
            "durationTicks": 120,
            "midi": 60,
            "name": "C4",
            "ticks": 352080,
            "time": 183.375,
            "velocity": 0.7874015748031497
          },
          {
            "duration": 0.0625,
            "durationTicks": 120,
            "midi": 48,
            "name": "C3",
            "ticks": 352320,
            "time": 183.5,
            "velocity": 0.3937007874015748
          },
          {
            "duration": 0.0625,
            "durationTicks": 120,
            "midi": 48,
            "name": "C3",
            "ticks": 354240,
            "time": 184.5,
            "velocity": 0.3937007874015748
          },
          {
            "duration": 0.0625,
            "durationTicks": 120,
            "midi": 48,
            "name": "C3",
            "ticks": 354960,
            "time": 184.875,
            "velocity": 0.3937007874015748
          },
          {
            "duration": 0.0625,
            "durationTicks": 120,
            "midi": 60,
            "name": "C4",
            "ticks": 355200,
            "time": 185,
            "velocity": 0.3937007874015748
          },
          {
            "duration": 0.0625,
            "durationTicks": 120,
            "midi": 48,
            "name": "C3",
            "ticks": 355440,
            "time": 185.125,
            "velocity": 0.3937007874015748
          },
          {
            "duration": 0.0625,
            "durationTicks": 120,
            "midi": 60,
            "name": "C4",
            "ticks": 355920,
            "time": 185.375,
            "velocity": 0.7874015748031497
          },
          {
            "duration": 0.0625,
            "durationTicks": 120,
            "midi": 48,
            "name": "C3",
            "ticks": 356160,
            "time": 185.5,
            "velocity": 0.3937007874015748
          },
          {
            "duration": 0.0625,
            "durationTicks": 120,
            "midi": 48,
            "name": "C3",
            "ticks": 357120,
            "time": 186,
            "velocity": 0.3937007874015748
          },
          {
            "duration": 0.0625,
            "durationTicks": 120,
            "midi": 60,
            "name": "C4",
            "ticks": 357600,
            "time": 186.25,
            "velocity": 0.7874015748031497
          },
          {
            "duration": 0.0625,
            "durationTicks": 120,
            "midi": 60,
            "name": "C4",
            "ticks": 357840,
            "time": 186.375,
            "velocity": 0.7874015748031497
          },
          {
            "duration": 0.0625,
            "durationTicks": 120,
            "midi": 48,
            "name": "C3",
            "ticks": 358080,
            "time": 186.5,
            "velocity": 0.3937007874015748
          },
          {
            "duration": 0.0625,
            "durationTicks": 120,
            "midi": 48,
            "name": "C3",
            "ticks": 358560,
            "time": 186.75,
            "velocity": 0.7874015748031497
          },
          {
            "duration": 0.0625,
            "durationTicks": 120,
            "midi": 60,
            "name": "C4",
            "ticks": 358680,
            "time": 186.8125,
            "velocity": 0.7874015748031497
          },
          {
            "duration": 0.0625,
            "durationTicks": 120,
            "midi": 48,
            "name": "C3",
            "ticks": 358800,
            "time": 186.875,
            "velocity": 0.7874015748031497
          },
          {
            "duration": 0.0625,
            "durationTicks": 120,
            "midi": 60,
            "name": "C4",
            "ticks": 358920,
            "time": 186.9375,
            "velocity": 0.7874015748031497
          },
          {
            "duration": 0.0625,
            "durationTicks": 120,
            "midi": 48,
            "name": "C3",
            "ticks": 359040,
            "time": 187,
            "velocity": 0.3937007874015748
          },
          {
            "duration": 0.0625,
            "durationTicks": 120,
            "midi": 60,
            "name": "C4",
            "ticks": 359520,
            "time": 187.25,
            "velocity": 0.7874015748031497
          },
          {
            "duration": 0.0625,
            "durationTicks": 120,
            "midi": 48,
            "name": "C3",
            "ticks": 360000,
            "time": 187.5,
            "velocity": 0.3937007874015748
          },
          {
            "duration": 0.0625,
            "durationTicks": 120,
            "midi": 48,
            "name": "C3",
            "ticks": 360960,
            "time": 188,
            "velocity": 0.3937007874015748
          },
          {
            "duration": 0.0625,
            "durationTicks": 120,
            "midi": 60,
            "name": "C4",
            "ticks": 361440,
            "time": 188.25,
            "velocity": 0.7874015748031497
          },
          {
            "duration": 0.0625,
            "durationTicks": 120,
            "midi": 48,
            "name": "C3",
            "ticks": 361680,
            "time": 188.375,
            "velocity": 0.3937007874015748
          },
          {
            "duration": 0.0625,
            "durationTicks": 120,
            "midi": 48,
            "name": "C3",
            "ticks": 361920,
            "time": 188.5,
            "velocity": 0.3937007874015748
          },
          {
            "duration": 0.0625,
            "durationTicks": 120,
            "midi": 48,
            "name": "C3",
            "ticks": 362160,
            "time": 188.625,
            "velocity": 0.3937007874015748
          },
          {
            "duration": 0.0625,
            "durationTicks": 120,
            "midi": 48,
            "name": "C3",
            "ticks": 362400,
            "time": 188.75,
            "velocity": 0.3937007874015748
          },
          {
            "duration": 0.0625,
            "durationTicks": 120,
            "midi": 48,
            "name": "C3",
            "ticks": 363240,
            "time": 189.1875,
            "velocity": 0.3937007874015748
          },
          {
            "duration": 0.0625,
            "durationTicks": 120,
            "midi": 60,
            "name": "C4",
            "ticks": 363840,
            "time": 189.5,
            "velocity": 0.3937007874015748
          },
          {
            "duration": 0.0625,
            "durationTicks": 120,
            "midi": 48,
            "name": "C3",
            "ticks": 364080,
            "time": 189.625,
            "velocity": 0.3937007874015748
          },
          {
            "duration": 0.0625,
            "durationTicks": 120,
            "midi": 60,
            "name": "C4",
            "ticks": 364320,
            "time": 189.75,
            "velocity": 0.7874015748031497
          },
          {
            "duration": 0.0625,
            "durationTicks": 120,
            "midi": 48,
            "name": "C3",
            "ticks": 364800,
            "time": 190,
            "velocity": 0.7874015748031497
          },
          {
            "duration": 0.0625,
            "durationTicks": 120,
            "midi": 60,
            "name": "C4",
            "ticks": 365280,
            "time": 190.25,
            "velocity": 0.3937007874015748
          },
          {
            "duration": 0.0625,
            "durationTicks": 120,
            "midi": 48,
            "name": "C3",
            "ticks": 366000,
            "time": 190.625,
            "velocity": 0.3937007874015748
          },
          {
            "duration": 0.0625,
            "durationTicks": 120,
            "midi": 48,
            "name": "C3",
            "ticks": 366480,
            "time": 190.875,
            "velocity": 0.3937007874015748
          },
          {
            "duration": 0.0625,
            "durationTicks": 120,
            "midi": 60,
            "name": "C4",
            "ticks": 366720,
            "time": 191,
            "velocity": 0.3937007874015748
          },
          {
            "duration": 0.0625,
            "durationTicks": 120,
            "midi": 48,
            "name": "C3",
            "ticks": 367200,
            "time": 191.25,
            "velocity": 0.7874015748031497
          },
          {
            "duration": 0.0625,
            "durationTicks": 120,
            "midi": 60,
            "name": "C4",
            "ticks": 367440,
            "time": 191.375,
            "velocity": 0.7874015748031497
          },
          {
            "duration": 0.0625,
            "durationTicks": 120,
            "midi": 48,
            "name": "C3",
            "ticks": 367680,
            "time": 191.5,
            "velocity": 0.3937007874015748
          },
          {
            "duration": 0.0625,
            "durationTicks": 120,
            "midi": 48,
            "name": "C3",
            "ticks": 369600,
            "time": 192.5,
            "velocity": 0.7874015748031497
          },
          {
            "duration": 0.0625,
            "durationTicks": 120,
            "midi": 60,
            "name": "C4",
            "ticks": 369840,
            "time": 192.625,
            "velocity": 0.7874015748031497
          },
          {
            "duration": 0.0625,
            "durationTicks": 120,
            "midi": 48,
            "name": "C3",
            "ticks": 370080,
            "time": 192.75,
            "velocity": 0.7874015748031497
          },
          {
            "duration": 0.0625,
            "durationTicks": 120,
            "midi": 60,
            "name": "C4",
            "ticks": 370320,
            "time": 192.875,
            "velocity": 0.7874015748031497
          },
          {
            "duration": 0.0625,
            "durationTicks": 120,
            "midi": 48,
            "name": "C3",
            "ticks": 370560,
            "time": 193,
            "velocity": 0.3937007874015748
          },
          {
            "duration": 0.0625,
            "durationTicks": 120,
            "midi": 60,
            "name": "C4",
            "ticks": 371040,
            "time": 193.25,
            "velocity": 0.7874015748031497
          },
          {
            "duration": 0.0625,
            "durationTicks": 120,
            "midi": 48,
            "name": "C3",
            "ticks": 371280,
            "time": 193.375,
            "velocity": 0.3937007874015748
          },
          {
            "duration": 0.0625,
            "durationTicks": 120,
            "midi": 60,
            "name": "C4",
            "ticks": 371520,
            "time": 193.5,
            "velocity": 0.3937007874015748
          },
          {
            "duration": 0.0625,
            "durationTicks": 120,
            "midi": 48,
            "name": "C3",
            "ticks": 372000,
            "time": 193.75,
            "velocity": 0.7874015748031497
          },
          {
            "duration": 0.0625,
            "durationTicks": 120,
            "midi": 48,
            "name": "C3",
            "ticks": 372960,
            "time": 194.25,
            "velocity": 0.7874015748031497
          },
          {
            "duration": 0.0625,
            "durationTicks": 120,
            "midi": 60,
            "name": "C4",
            "ticks": 373200,
            "time": 194.375,
            "velocity": 0.7874015748031497
          },
          {
            "duration": 0.0625,
            "durationTicks": 120,
            "midi": 48,
            "name": "C3",
            "ticks": 373440,
            "time": 194.5,
            "velocity": 0.3937007874015748
          },
          {
            "duration": 0.0625,
            "durationTicks": 120,
            "midi": 60,
            "name": "C4",
            "ticks": 373680,
            "time": 194.625,
            "velocity": 0.7874015748031497
          },
          {
            "duration": 0.0625,
            "durationTicks": 120,
            "midi": 48,
            "name": "C3",
            "ticks": 373920,
            "time": 194.75,
            "velocity": 0.7874015748031497
          },
          {
            "duration": 0.0625,
            "durationTicks": 120,
            "midi": 60,
            "name": "C4",
            "ticks": 374160,
            "time": 194.875,
            "velocity": 0.7874015748031497
          },
          {
            "duration": 0.0625,
            "durationTicks": 120,
            "midi": 48,
            "name": "C3",
            "ticks": 374520,
            "time": 195.0625,
            "velocity": 0.3937007874015748
          },
          {
            "duration": 0.0625,
            "durationTicks": 120,
            "midi": 60,
            "name": "C4",
            "ticks": 375120,
            "time": 195.375,
            "velocity": 0.7874015748031497
          },
          {
            "duration": 0.0625,
            "durationTicks": 120,
            "midi": 48,
            "name": "C3",
            "ticks": 375360,
            "time": 195.5,
            "velocity": 0.3937007874015748
          },
          {
            "duration": 0.0625,
            "durationTicks": 120,
            "midi": 60,
            "name": "C4",
            "ticks": 375840,
            "time": 195.75,
            "velocity": 0.3937007874015748
          },
          {
            "duration": 0.0625,
            "durationTicks": 120,
            "midi": 48,
            "name": "C3",
            "ticks": 376080,
            "time": 195.875,
            "velocity": 0.3937007874015748
          },
          {
            "duration": 0.0625,
            "durationTicks": 120,
            "midi": 60,
            "name": "C4",
            "ticks": 376320,
            "time": 196,
            "velocity": 0.3937007874015748
          },
          {
            "duration": 0.0625,
            "durationTicks": 120,
            "midi": 48,
            "name": "C3",
            "ticks": 376560,
            "time": 196.125,
            "velocity": 0.3937007874015748
          },
          {
            "duration": 0.0625,
            "durationTicks": 120,
            "midi": 60,
            "name": "C4",
            "ticks": 376800,
            "time": 196.25,
            "velocity": 0.7874015748031497
          },
          {
            "duration": 0.0625,
            "durationTicks": 120,
            "midi": 48,
            "name": "C3",
            "ticks": 377040,
            "time": 196.375,
            "velocity": 0.7874015748031497
          },
          {
            "duration": 0.0625,
            "durationTicks": 120,
            "midi": 60,
            "name": "C4",
            "ticks": 377280,
            "time": 196.5,
            "velocity": 0.7874015748031497
          },
          {
            "duration": 0.0625,
            "durationTicks": 120,
            "midi": 48,
            "name": "C3",
            "ticks": 377520,
            "time": 196.625,
            "velocity": 0.7874015748031497
          },
          {
            "duration": 0.0625,
            "durationTicks": 120,
            "midi": 60,
            "name": "C4",
            "ticks": 377760,
            "time": 196.75,
            "velocity": 0.7874015748031497
          },
          {
            "duration": 0.0625,
            "durationTicks": 120,
            "midi": 48,
            "name": "C3",
            "ticks": 378000,
            "time": 196.875,
            "velocity": 0.3937007874015748
          },
          {
            "duration": 0.0625,
            "durationTicks": 120,
            "midi": 48,
            "name": "C3",
            "ticks": 378240,
            "time": 197,
            "velocity": 0.3937007874015748
          },
          {
            "duration": 0.0625,
            "durationTicks": 120,
            "midi": 60,
            "name": "C4",
            "ticks": 378480,
            "time": 197.125,
            "velocity": 0.3937007874015748
          },
          {
            "duration": 0.0625,
            "durationTicks": 120,
            "midi": 48,
            "name": "C3",
            "ticks": 378720,
            "time": 197.25,
            "velocity": 0.7874015748031497
          },
          {
            "duration": 0.0625,
            "durationTicks": 120,
            "midi": 48,
            "name": "C3",
            "ticks": 379680,
            "time": 197.75,
            "velocity": 0.7874015748031497
          },
          {
            "duration": 0.0625,
            "durationTicks": 120,
            "midi": 48,
            "name": "C3",
            "ticks": 380160,
            "time": 198,
            "velocity": 0.3937007874015748
          },
          {
            "duration": 0.0625,
            "durationTicks": 120,
            "midi": 60,
            "name": "C4",
            "ticks": 380400,
            "time": 198.125,
            "velocity": 0.3937007874015748
          },
          {
            "duration": 0.0625,
            "durationTicks": 120,
            "midi": 48,
            "name": "C3",
            "ticks": 380640,
            "time": 198.25,
            "velocity": 0.7874015748031497
          },
          {
            "duration": 0.0625,
            "durationTicks": 120,
            "midi": 60,
            "name": "C4",
            "ticks": 380880,
            "time": 198.375,
            "velocity": 0.3937007874015748
          },
          {
            "duration": 0.0625,
            "durationTicks": 120,
            "midi": 48,
            "name": "C3",
            "ticks": 381120,
            "time": 198.5,
            "velocity": 0.3937007874015748
          },
          {
            "duration": 0.0625,
            "durationTicks": 120,
            "midi": 60,
            "name": "C4",
            "ticks": 381360,
            "time": 198.625,
            "velocity": 0.3937007874015748
          },
          {
            "duration": 0.0625,
            "durationTicks": 120,
            "midi": 48,
            "name": "C3",
            "ticks": 381600,
            "time": 198.75,
            "velocity": 0.7874015748031497
          },
          {
            "duration": 0.0625,
            "durationTicks": 120,
            "midi": 48,
            "name": "C3",
            "ticks": 382080,
            "time": 199,
            "velocity": 0.7874015748031497
          },
          {
            "duration": 0.0625,
            "durationTicks": 120,
            "midi": 60,
            "name": "C4",
            "ticks": 382320,
            "time": 199.125,
            "velocity": 0.7874015748031497
          },
          {
            "duration": 0.0625,
            "durationTicks": 120,
            "midi": 48,
            "name": "C3",
            "ticks": 382560,
            "time": 199.25,
            "velocity": 0.7874015748031497
          },
          {
            "duration": 0.0625,
            "durationTicks": 120,
            "midi": 60,
            "name": "C4",
            "ticks": 382800,
            "time": 199.375,
            "velocity": 0.7874015748031497
          },
          {
            "duration": 0.0625,
            "durationTicks": 120,
            "midi": 48,
            "name": "C3",
            "ticks": 383040,
            "time": 199.5,
            "velocity": 0.3937007874015748
          },
          {
            "duration": 0.0625,
            "durationTicks": 120,
            "midi": 48,
            "name": "C3",
            "ticks": 384960,
            "time": 200.5,
            "velocity": 0.7874015748031497
          },
          {
            "duration": 0.0625,
            "durationTicks": 120,
            "midi": 60,
            "name": "C4",
            "ticks": 385200,
            "time": 200.625,
            "velocity": 0.7874015748031497
          },
          {
            "duration": 0.0625,
            "durationTicks": 120,
            "midi": 48,
            "name": "C3",
            "ticks": 385440,
            "time": 200.75,
            "velocity": 0.7874015748031497
          },
          {
            "duration": 0.0625,
            "durationTicks": 120,
            "midi": 48,
            "name": "C3",
            "ticks": 385920,
            "time": 201,
            "velocity": 0.7874015748031497
          },
          {
            "duration": 0.0625,
            "durationTicks": 120,
            "midi": 60,
            "name": "C4",
            "ticks": 386400,
            "time": 201.25,
            "velocity": 0.7874015748031497
          },
          {
            "duration": 0.0625,
            "durationTicks": 120,
            "midi": 48,
            "name": "C3",
            "ticks": 386880,
            "time": 201.5,
            "velocity": 0.3937007874015748
          },
          {
            "duration": 0.0625,
            "durationTicks": 120,
            "midi": 48,
            "name": "C3",
            "ticks": 387840,
            "time": 202,
            "velocity": 0.3937007874015748
          },
          {
            "duration": 0.0625,
            "durationTicks": 120,
            "midi": 48,
            "name": "C3",
            "ticks": 388560,
            "time": 202.375,
            "velocity": 0.3937007874015748
          },
          {
            "duration": 0.0625,
            "durationTicks": 120,
            "midi": 60,
            "name": "C4",
            "ticks": 388800,
            "time": 202.5,
            "velocity": 0.3937007874015748
          },
          {
            "duration": 0.0625,
            "durationTicks": 120,
            "midi": 48,
            "name": "C3",
            "ticks": 389040,
            "time": 202.625,
            "velocity": 0.3937007874015748
          },
          {
            "duration": 0.0625,
            "durationTicks": 120,
            "midi": 60,
            "name": "C4",
            "ticks": 389280,
            "time": 202.75,
            "velocity": 0.3937007874015748
          },
          {
            "duration": 0.0625,
            "durationTicks": 120,
            "midi": 48,
            "name": "C3",
            "ticks": 389760,
            "time": 203,
            "velocity": 0.7874015748031497
          },
          {
            "duration": 0.0625,
            "durationTicks": 120,
            "midi": 60,
            "name": "C4",
            "ticks": 390000,
            "time": 203.125,
            "velocity": 0.3937007874015748
          },
          {
            "duration": 0.0625,
            "durationTicks": 120,
            "midi": 48,
            "name": "C3",
            "ticks": 390240,
            "time": 203.25,
            "velocity": 0.3937007874015748
          },
          {
            "duration": 0.0625,
            "durationTicks": 120,
            "midi": 48,
            "name": "C3",
            "ticks": 391200,
            "time": 203.75,
            "velocity": 0.3937007874015748
          },
          {
            "duration": 0.0625,
            "durationTicks": 120,
            "midi": 60,
            "name": "C4",
            "ticks": 391680,
            "time": 204,
            "velocity": 0.7874015748031497
          },
          {
            "duration": 0.0625,
            "durationTicks": 120,
            "midi": 48,
            "name": "C3",
            "ticks": 391920,
            "time": 204.125,
            "velocity": 0.3937007874015748
          },
          {
            "duration": 0.0625,
            "durationTicks": 120,
            "midi": 48,
            "name": "C3",
            "ticks": 392160,
            "time": 204.25,
            "velocity": 0.7874015748031497
          },
          {
            "duration": 0.0625,
            "durationTicks": 120,
            "midi": 60,
            "name": "C4",
            "ticks": 392280,
            "time": 204.3125,
            "velocity": 0.7874015748031497
          },
          {
            "duration": 0.0625,
            "durationTicks": 120,
            "midi": 48,
            "name": "C3",
            "ticks": 392400,
            "time": 204.375,
            "velocity": 0.7874015748031497
          },
          {
            "duration": 0.0625,
            "durationTicks": 120,
            "midi": 60,
            "name": "C4",
            "ticks": 392520,
            "time": 204.4375,
            "velocity": 0.7874015748031497
          },
          {
            "duration": 0.0625,
            "durationTicks": 120,
            "midi": 48,
            "name": "C3",
            "ticks": 392640,
            "time": 204.5,
            "velocity": 0.3937007874015748
          },
          {
            "duration": 0.0625,
            "durationTicks": 120,
            "midi": 48,
            "name": "C3",
            "ticks": 393120,
            "time": 204.75,
            "velocity": 0.7874015748031497
          },
          {
            "duration": 0.0625,
            "durationTicks": 120,
            "midi": 60,
            "name": "C4",
            "ticks": 393360,
            "time": 204.875,
            "velocity": 0.7874015748031497
          },
          {
            "duration": 0.0625,
            "durationTicks": 120,
            "midi": 48,
            "name": "C3",
            "ticks": 393600,
            "time": 205,
            "velocity": 0.3937007874015748
          },
          {
            "duration": 0.0625,
            "durationTicks": 120,
            "midi": 48,
            "name": "C3",
            "ticks": 395040,
            "time": 205.75,
            "velocity": 0.3937007874015748
          },
          {
            "duration": 0.0625,
            "durationTicks": 120,
            "midi": 48,
            "name": "C3",
            "ticks": 395640,
            "time": 206.0625,
            "velocity": 0.3937007874015748
          },
          {
            "duration": 0.0625,
            "durationTicks": 120,
            "midi": 60,
            "name": "C4",
            "ticks": 396480,
            "time": 206.5,
            "velocity": 0.3937007874015748
          },
          {
            "duration": 0.0625,
            "durationTicks": 120,
            "midi": 48,
            "name": "C3",
            "ticks": 396720,
            "time": 206.625,
            "velocity": 0.3937007874015748
          },
          {
            "duration": 0.0625,
            "durationTicks": 120,
            "midi": 60,
            "name": "C4",
            "ticks": 396960,
            "time": 206.75,
            "velocity": 0.3937007874015748
          },
          {
            "duration": 0.0625,
            "durationTicks": 120,
            "midi": 48,
            "name": "C3",
            "ticks": 397440,
            "time": 207,
            "velocity": 0.3937007874015748
          }
        ],
        "endOfTrackTicks": 397560
      },
      {
        "channel": 5,
        "controlChanges": {},
        "pitchBends": [],
        "instrument": {
          "family": "piano",
          "number": 0,
          "name": "acoustic grand piano"
        },
        "name": "Synth Bass - MIDI\u0000",
        "notes": [
          {
            "duration": 0.25,
            "durationTicks": 480,
            "midi": 64,
            "name": "E4",
            "ticks": 95520,
            "time": 49.75,
            "velocity": 0.8346456692913385
          },
          {
            "duration": 0.125,
            "durationTicks": 240,
            "midi": 65,
            "name": "F4",
            "ticks": 96000,
            "time": 50,
            "velocity": 0.8740157480314961
          },
          {
            "duration": 0.1875,
            "durationTicks": 360,
            "midi": 67,
            "name": "G4",
            "ticks": 96480,
            "time": 50.25,
            "velocity": 0.8110236220472441
          },
          {
            "duration": 0.125,
            "durationTicks": 240,
            "midi": 64,
            "name": "E4",
            "ticks": 96720,
            "time": 50.375,
            "velocity": 0.7637795275590551
          },
          {
            "duration": 0.1875,
            "durationTicks": 360,
            "midi": 76,
            "name": "E5",
            "ticks": 96960,
            "time": 50.5,
            "velocity": 0.8582677165354331
          },
          {
            "duration": 0.3125,
            "durationTicks": 600,
            "midi": 74,
            "name": "D5",
            "ticks": 97200,
            "time": 50.625,
            "velocity": 0.8188976377952756
          },
          {
            "duration": 0.125,
            "durationTicks": 240,
            "midi": 71,
            "name": "B4",
            "ticks": 98160,
            "time": 51.125,
            "velocity": 0.8267716535433071
          },
          {
            "duration": 0.125,
            "durationTicks": 240,
            "midi": 60,
            "name": "C4",
            "ticks": 98400,
            "time": 51.25,
            "velocity": 0.889763779527559
          },
          {
            "duration": 0.4375,
            "durationTicks": 840,
            "midi": 62,
            "name": "D4",
            "ticks": 98640,
            "time": 51.375,
            "velocity": 0.6377952755905512
          },
          {
            "duration": 0.125,
            "durationTicks": 240,
            "midi": 57,
            "name": "A3",
            "ticks": 111120,
            "time": 57.875,
            "velocity": 0.7795275590551181
          },
          {
            "duration": 0.1875,
            "durationTicks": 360,
            "midi": 69,
            "name": "A4",
            "ticks": 111360,
            "time": 58,
            "velocity": 0.889763779527559
          },
          {
            "duration": 0.125,
            "durationTicks": 240,
            "midi": 67,
            "name": "G4",
            "ticks": 111600,
            "time": 58.125,
            "velocity": 0.7480314960629921
          },
          {
            "duration": 0.3125,
            "durationTicks": 600,
            "midi": 57,
            "name": "A3",
            "ticks": 111840,
            "time": 58.25,
            "velocity": 0.8031496062992126
          },
          {
            "duration": 0.1875,
            "durationTicks": 360,
            "midi": 64,
            "name": "E4",
            "ticks": 112320,
            "time": 58.5,
            "velocity": 0.7952755905511811
          },
          {
            "duration": 0.1875,
            "durationTicks": 360,
            "midi": 58,
            "name": "A#3",
            "ticks": 112800,
            "time": 58.75,
            "velocity": 0.8661417322834646
          },
          {
            "duration": 0.125,
            "durationTicks": 240,
            "midi": 67,
            "name": "G4",
            "ticks": 113520,
            "time": 59.125,
            "velocity": 0.7716535433070866
          },
          {
            "duration": 0.4375,
            "durationTicks": 840,
            "midi": 55,
            "name": "G3",
            "ticks": 114000,
            "time": 59.375,
            "velocity": 0.6535433070866141
          },
          {
            "duration": 0.25,
            "durationTicks": 480,
            "midi": 64,
            "name": "E4",
            "ticks": 126240,
            "time": 65.75,
            "velocity": 0.8346456692913385
          },
          {
            "duration": 0.125,
            "durationTicks": 240,
            "midi": 65,
            "name": "F4",
            "ticks": 126720,
            "time": 66,
            "velocity": 0.8740157480314961
          },
          {
            "duration": 0.1875,
            "durationTicks": 360,
            "midi": 67,
            "name": "G4",
            "ticks": 127200,
            "time": 66.25,
            "velocity": 0.8110236220472441
          },
          {
            "duration": 0.125,
            "durationTicks": 240,
            "midi": 64,
            "name": "E4",
            "ticks": 127440,
            "time": 66.375,
            "velocity": 0.7637795275590551
          },
          {
            "duration": 0.1875,
            "durationTicks": 360,
            "midi": 76,
            "name": "E5",
            "ticks": 127680,
            "time": 66.5,
            "velocity": 0.8582677165354331
          },
          {
            "duration": 0.3125,
            "durationTicks": 600,
            "midi": 74,
            "name": "D5",
            "ticks": 127920,
            "time": 66.625,
            "velocity": 0.8188976377952756
          },
          {
            "duration": 0.125,
            "durationTicks": 240,
            "midi": 71,
            "name": "B4",
            "ticks": 128880,
            "time": 67.125,
            "velocity": 0.8267716535433071
          },
          {
            "duration": 0.125,
            "durationTicks": 240,
            "midi": 60,
            "name": "C4",
            "ticks": 129120,
            "time": 67.25,
            "velocity": 0.889763779527559
          },
          {
            "duration": 0.4375,
            "durationTicks": 840,
            "midi": 62,
            "name": "D4",
            "ticks": 129360,
            "time": 67.375,
            "velocity": 0.6377952755905512
          },
          {
            "duration": 0.125,
            "durationTicks": 240,
            "midi": 57,
            "name": "A3",
            "ticks": 141840,
            "time": 73.875,
            "velocity": 0.7795275590551181
          },
          {
            "duration": 0.1875,
            "durationTicks": 360,
            "midi": 69,
            "name": "A4",
            "ticks": 142080,
            "time": 74,
            "velocity": 0.889763779527559
          },
          {
            "duration": 0.125,
            "durationTicks": 240,
            "midi": 67,
            "name": "G4",
            "ticks": 142320,
            "time": 74.125,
            "velocity": 0.7480314960629921
          },
          {
            "duration": 0.3125,
            "durationTicks": 600,
            "midi": 57,
            "name": "A3",
            "ticks": 142560,
            "time": 74.25,
            "velocity": 0.8031496062992126
          },
          {
            "duration": 0.1875,
            "durationTicks": 360,
            "midi": 64,
            "name": "E4",
            "ticks": 143040,
            "time": 74.5,
            "velocity": 0.7952755905511811
          },
          {
            "duration": 0.1875,
            "durationTicks": 360,
            "midi": 58,
            "name": "A#3",
            "ticks": 143520,
            "time": 74.75,
            "velocity": 0.8661417322834646
          },
          {
            "duration": 0.125,
            "durationTicks": 240,
            "midi": 67,
            "name": "G4",
            "ticks": 144240,
            "time": 75.125,
            "velocity": 0.7716535433070866
          },
          {
            "duration": 0.4375,
            "durationTicks": 840,
            "midi": 55,
            "name": "G3",
            "ticks": 144720,
            "time": 75.375,
            "velocity": 0.6535433070866141
          },
          {
            "duration": 0.0625,
            "durationTicks": 120,
            "midi": 55,
            "name": "G3",
            "ticks": 218400,
            "time": 113.75,
            "velocity": 0.7874015748031497
          },
          {
            "duration": 0.0625,
            "durationTicks": 120,
            "midi": 55,
            "name": "G3",
            "ticks": 218640,
            "time": 113.875,
            "velocity": 0.3937007874015748
          },
          {
            "duration": 0.0625,
            "durationTicks": 120,
            "midi": 57,
            "name": "A3",
            "ticks": 218880,
            "time": 114,
            "velocity": 0.7874015748031497
          },
          {
            "duration": 0.0625,
            "durationTicks": 120,
            "midi": 57,
            "name": "A3",
            "ticks": 219120,
            "time": 114.125,
            "velocity": 0.3937007874015748
          },
          {
            "duration": 0.0625,
            "durationTicks": 120,
            "midi": 57,
            "name": "A3",
            "ticks": 219360,
            "time": 114.25,
            "velocity": 0.3937007874015748
          },
          {
            "duration": 0.0625,
            "durationTicks": 120,
            "midi": 57,
            "name": "A3",
            "ticks": 219600,
            "time": 114.375,
            "velocity": 0.7874015748031497
          },
          {
            "duration": 0.0625,
            "durationTicks": 120,
            "midi": 57,
            "name": "A3",
            "ticks": 219840,
            "time": 114.5,
            "velocity": 0.3937007874015748
          },
          {
            "duration": 0.0625,
            "durationTicks": 120,
            "midi": 57,
            "name": "A3",
            "ticks": 220080,
            "time": 114.625,
            "velocity": 0.3937007874015748
          },
          {
            "duration": 0.0625,
            "durationTicks": 120,
            "midi": 58,
            "name": "A#3",
            "ticks": 220320,
            "time": 114.75,
            "velocity": 0.7874015748031497
          },
          {
            "duration": 0.0625,
            "durationTicks": 120,
            "midi": 58,
            "name": "A#3",
            "ticks": 220560,
            "time": 114.875,
            "velocity": 0.3937007874015748
          },
          {
            "duration": 0.0625,
            "durationTicks": 120,
            "midi": 55,
            "name": "G3",
            "ticks": 220800,
            "time": 115,
            "velocity": 0.7874015748031497
          },
          {
            "duration": 0.0625,
            "durationTicks": 120,
            "midi": 55,
            "name": "G3",
            "ticks": 221040,
            "time": 115.125,
            "velocity": 0.7874015748031497
          },
          {
            "duration": 0.0625,
            "durationTicks": 120,
            "midi": 55,
            "name": "G3",
            "ticks": 221280,
            "time": 115.25,
            "velocity": 0.3937007874015748
          },
          {
            "duration": 0.0625,
            "durationTicks": 120,
            "midi": 55,
            "name": "G3",
            "ticks": 221520,
            "time": 115.375,
            "velocity": 0.3937007874015748
          },
          {
            "duration": 0.5,
            "durationTicks": 960,
            "midi": 45,
            "name": "A2",
            "ticks": 226080,
            "time": 117.75,
            "velocity": 0.8110236220472441
          },
          {
            "duration": 0.5,
            "durationTicks": 960,
            "midi": 58,
            "name": "A#3",
            "ticks": 227040,
            "time": 118.25,
            "velocity": 0.8346456692913385
          },
          {
            "duration": 0.75,
            "durationTicks": 1440,
            "midi": 43,
            "name": "G2",
            "ticks": 228000,
            "time": 118.75,
            "velocity": 0.9133858267716536
          },
          {
            "duration": 0.25,
            "durationTicks": 480,
            "midi": 50,
            "name": "D3",
            "ticks": 229440,
            "time": 119.5,
            "velocity": 0.9448818897637795
          },
          {
            "duration": 0.25,
            "durationTicks": 480,
            "midi": 58,
            "name": "A#3",
            "ticks": 229920,
            "time": 119.75,
            "velocity": 1
          },
          {
            "duration": 0.0625,
            "durationTicks": 120,
            "midi": 55,
            "name": "G3",
            "ticks": 233760,
            "time": 121.75,
            "velocity": 0.7874015748031497
          },
          {
            "duration": 0.0625,
            "durationTicks": 120,
            "midi": 55,
            "name": "G3",
            "ticks": 234000,
            "time": 121.875,
            "velocity": 0.3937007874015748
          },
          {
            "duration": 0.0625,
            "durationTicks": 120,
            "midi": 57,
            "name": "A3",
            "ticks": 234240,
            "time": 122,
            "velocity": 0.7874015748031497
          },
          {
            "duration": 0.0625,
            "durationTicks": 120,
            "midi": 57,
            "name": "A3",
            "ticks": 234480,
            "time": 122.125,
            "velocity": 0.3937007874015748
          },
          {
            "duration": 0.0625,
            "durationTicks": 120,
            "midi": 57,
            "name": "A3",
            "ticks": 234720,
            "time": 122.25,
            "velocity": 0.3937007874015748
          },
          {
            "duration": 0.0625,
            "durationTicks": 120,
            "midi": 57,
            "name": "A3",
            "ticks": 234960,
            "time": 122.375,
            "velocity": 0.7874015748031497
          },
          {
            "duration": 0.0625,
            "durationTicks": 120,
            "midi": 57,
            "name": "A3",
            "ticks": 235200,
            "time": 122.5,
            "velocity": 0.3937007874015748
          },
          {
            "duration": 0.0625,
            "durationTicks": 120,
            "midi": 57,
            "name": "A3",
            "ticks": 235440,
            "time": 122.625,
            "velocity": 0.3937007874015748
          },
          {
            "duration": 0.0625,
            "durationTicks": 120,
            "midi": 58,
            "name": "A#3",
            "ticks": 235680,
            "time": 122.75,
            "velocity": 0.7874015748031497
          },
          {
            "duration": 0.0625,
            "durationTicks": 120,
            "midi": 58,
            "name": "A#3",
            "ticks": 235920,
            "time": 122.875,
            "velocity": 0.3937007874015748
          },
          {
            "duration": 0.0625,
            "durationTicks": 120,
            "midi": 52,
            "name": "E3",
            "ticks": 236160,
            "time": 123,
            "velocity": 0.7874015748031497
          },
          {
            "duration": 0.0625,
            "durationTicks": 120,
            "midi": 55,
            "name": "G3",
            "ticks": 236400,
            "time": 123.125,
            "velocity": 0.7874015748031497
          },
          {
            "duration": 0.0625,
            "durationTicks": 120,
            "midi": 64,
            "name": "E4",
            "ticks": 236640,
            "time": 123.25,
            "velocity": 0.3937007874015748
          },
          {
            "duration": 0.0625,
            "durationTicks": 120,
            "midi": 58,
            "name": "A#3",
            "ticks": 236880,
            "time": 123.375,
            "velocity": 0.3937007874015748
          },
          {
            "duration": 0.0625,
            "durationTicks": 120,
            "midi": 55,
            "name": "G3",
            "ticks": 249120,
            "time": 129.75,
            "velocity": 0.7874015748031497
          },
          {
            "duration": 0.0625,
            "durationTicks": 120,
            "midi": 55,
            "name": "G3",
            "ticks": 249360,
            "time": 129.875,
            "velocity": 0.3937007874015748
          },
          {
            "duration": 0.0625,
            "durationTicks": 120,
            "midi": 57,
            "name": "A3",
            "ticks": 249600,
            "time": 130,
            "velocity": 0.7874015748031497
          },
          {
            "duration": 0.0625,
            "durationTicks": 120,
            "midi": 57,
            "name": "A3",
            "ticks": 249840,
            "time": 130.125,
            "velocity": 0.3937007874015748
          },
          {
            "duration": 0.0625,
            "durationTicks": 120,
            "midi": 57,
            "name": "A3",
            "ticks": 250080,
            "time": 130.25,
            "velocity": 0.3937007874015748
          },
          {
            "duration": 0.0625,
            "durationTicks": 120,
            "midi": 57,
            "name": "A3",
            "ticks": 250320,
            "time": 130.375,
            "velocity": 0.7874015748031497
          },
          {
            "duration": 0.0625,
            "durationTicks": 120,
            "midi": 57,
            "name": "A3",
            "ticks": 250560,
            "time": 130.5,
            "velocity": 0.3937007874015748
          },
          {
            "duration": 0.0625,
            "durationTicks": 120,
            "midi": 57,
            "name": "A3",
            "ticks": 250800,
            "time": 130.625,
            "velocity": 0.3937007874015748
          },
          {
            "duration": 0.0625,
            "durationTicks": 120,
            "midi": 58,
            "name": "A#3",
            "ticks": 251040,
            "time": 130.75,
            "velocity": 0.7874015748031497
          },
          {
            "duration": 0.0625,
            "durationTicks": 120,
            "midi": 58,
            "name": "A#3",
            "ticks": 251280,
            "time": 130.875,
            "velocity": 0.3937007874015748
          },
          {
            "duration": 0.0625,
            "durationTicks": 120,
            "midi": 55,
            "name": "G3",
            "ticks": 251520,
            "time": 131,
            "velocity": 0.7874015748031497
          },
          {
            "duration": 0.0625,
            "durationTicks": 120,
            "midi": 55,
            "name": "G3",
            "ticks": 251760,
            "time": 131.125,
            "velocity": 0.7874015748031497
          },
          {
            "duration": 0.0625,
            "durationTicks": 120,
            "midi": 55,
            "name": "G3",
            "ticks": 252000,
            "time": 131.25,
            "velocity": 0.3937007874015748
          },
          {
            "duration": 0.0625,
            "durationTicks": 120,
            "midi": 55,
            "name": "G3",
            "ticks": 252240,
            "time": 131.375,
            "velocity": 0.3937007874015748
          },
          {
            "duration": 0.0625,
            "durationTicks": 120,
            "midi": 45,
            "name": "A2",
            "ticks": 257040,
            "time": 133.875,
            "velocity": 0.9291338582677166
          },
          {
            "duration": 0.0625,
            "durationTicks": 120,
            "midi": 57,
            "name": "A3",
            "ticks": 257280,
            "time": 134,
            "velocity": 0.9448818897637795
          },
          {
            "duration": 0.0625,
            "durationTicks": 120,
            "midi": 45,
            "name": "A2",
            "ticks": 257520,
            "time": 134.125,
            "velocity": 0.7874015748031497
          },
          {
            "duration": 0.0625,
            "durationTicks": 120,
            "midi": 43,
            "name": "G2",
            "ticks": 257760,
            "time": 134.25,
            "velocity": 0.7165354330708661
          },
          {
            "duration": 0.0625,
            "durationTicks": 120,
            "midi": 45,
            "name": "A2",
            "ticks": 258000,
            "time": 134.375,
            "velocity": 0.8582677165354331
          },
          {
            "duration": 0.0625,
            "durationTicks": 120,
            "midi": 45,
            "name": "A2",
            "ticks": 258720,
            "time": 134.75,
            "velocity": 0.889763779527559
          },
          {
            "duration": 0.0625,
            "durationTicks": 120,
            "midi": 43,
            "name": "G2",
            "ticks": 258960,
            "time": 134.875,
            "velocity": 0.7874015748031497
          },
          {
            "duration": 0.0625,
            "durationTicks": 120,
            "midi": 57,
            "name": "A3",
            "ticks": 259200,
            "time": 135,
            "velocity": 0.7874015748031497
          },
          {
            "duration": 0.0625,
            "durationTicks": 120,
            "midi": 48,
            "name": "C3",
            "ticks": 259440,
            "time": 135.125,
            "velocity": 0.7874015748031497
          },
          {
            "duration": 0.0625,
            "durationTicks": 120,
            "midi": 43,
            "name": "G2",
            "ticks": 259680,
            "time": 135.25,
            "velocity": 0.937007874015748
          },
          {
            "duration": 0.0625,
            "durationTicks": 120,
            "midi": 52,
            "name": "E3",
            "ticks": 259920,
            "time": 135.375,
            "velocity": 0.7874015748031497
          },
          {
            "duration": 0.0625,
            "durationTicks": 120,
            "midi": 43,
            "name": "G2",
            "ticks": 260160,
            "time": 135.5,
            "velocity": 0.7874015748031497
          },
          {
            "duration": 0.0625,
            "durationTicks": 120,
            "midi": 43,
            "name": "G2",
            "ticks": 260400,
            "time": 135.625,
            "velocity": 0.8188976377952756
          },
          {
            "duration": 0.0625,
            "durationTicks": 120,
            "midi": 58,
            "name": "A#3",
            "ticks": 260640,
            "time": 135.75,
            "velocity": 0.7874015748031497
          },
          {
            "duration": 0.0625,
            "durationTicks": 120,
            "midi": 46,
            "name": "A#2",
            "ticks": 260880,
            "time": 135.875,
            "velocity": 0.7874015748031497
          },
          {
            "duration": 0.0625,
            "durationTicks": 120,
            "midi": 55,
            "name": "G3",
            "ticks": 264480,
            "time": 137.75,
            "velocity": 0.7874015748031497
          },
          {
            "duration": 0.0625,
            "durationTicks": 120,
            "midi": 55,
            "name": "G3",
            "ticks": 264720,
            "time": 137.875,
            "velocity": 0.3937007874015748
          },
          {
            "duration": 0.0625,
            "durationTicks": 120,
            "midi": 57,
            "name": "A3",
            "ticks": 264960,
            "time": 138,
            "velocity": 0.7874015748031497
          },
          {
            "duration": 0.0625,
            "durationTicks": 120,
            "midi": 57,
            "name": "A3",
            "ticks": 265200,
            "time": 138.125,
            "velocity": 0.3937007874015748
          },
          {
            "duration": 0.0625,
            "durationTicks": 120,
            "midi": 57,
            "name": "A3",
            "ticks": 265440,
            "time": 138.25,
            "velocity": 0.3937007874015748
          },
          {
            "duration": 0.0625,
            "durationTicks": 120,
            "midi": 57,
            "name": "A3",
            "ticks": 265680,
            "time": 138.375,
            "velocity": 0.7874015748031497
          },
          {
            "duration": 0.0625,
            "durationTicks": 120,
            "midi": 57,
            "name": "A3",
            "ticks": 265920,
            "time": 138.5,
            "velocity": 0.3937007874015748
          },
          {
            "duration": 0.0625,
            "durationTicks": 120,
            "midi": 57,
            "name": "A3",
            "ticks": 266160,
            "time": 138.625,
            "velocity": 0.3937007874015748
          },
          {
            "duration": 0.0625,
            "durationTicks": 120,
            "midi": 58,
            "name": "A#3",
            "ticks": 266400,
            "time": 138.75,
            "velocity": 0.7874015748031497
          },
          {
            "duration": 0.0625,
            "durationTicks": 120,
            "midi": 58,
            "name": "A#3",
            "ticks": 266640,
            "time": 138.875,
            "velocity": 0.3937007874015748
          },
          {
            "duration": 0.0625,
            "durationTicks": 120,
            "midi": 52,
            "name": "E3",
            "ticks": 266880,
            "time": 139,
            "velocity": 0.7874015748031497
          },
          {
            "duration": 0.0625,
            "durationTicks": 120,
            "midi": 55,
            "name": "G3",
            "ticks": 267120,
            "time": 139.125,
            "velocity": 0.7874015748031497
          },
          {
            "duration": 0.0625,
            "durationTicks": 120,
            "midi": 64,
            "name": "E4",
            "ticks": 267360,
            "time": 139.25,
            "velocity": 0.3937007874015748
          },
          {
            "duration": 0.0625,
            "durationTicks": 120,
            "midi": 58,
            "name": "A#3",
            "ticks": 267600,
            "time": 139.375,
            "velocity": 0.3937007874015748
          },
          {
            "duration": 0.0625,
            "durationTicks": 120,
            "midi": 43,
            "name": "G2",
            "ticks": 279840,
            "time": 145.75,
            "velocity": 0.7874015748031497
          },
          {
            "duration": 0.0625,
            "durationTicks": 120,
            "midi": 43,
            "name": "G2",
            "ticks": 280080,
            "time": 145.875,
            "velocity": 0.7874015748031497
          },
          {
            "duration": 0.1875,
            "durationTicks": 360,
            "midi": 46,
            "name": "A#2",
            "ticks": 280320,
            "time": 146,
            "velocity": 0.7874015748031497
          },
          {
            "duration": 0.125,
            "durationTicks": 240,
            "midi": 45,
            "name": "A2",
            "ticks": 280560,
            "time": 146.125,
            "velocity": 0.7874015748031497
          },
          {
            "duration": 0.0625,
            "durationTicks": 120,
            "midi": 40,
            "name": "E2",
            "ticks": 280800,
            "time": 146.25,
            "velocity": 0.7874015748031497
          },
          {
            "duration": 0.0625,
            "durationTicks": 120,
            "midi": 40,
            "name": "E2",
            "ticks": 281040,
            "time": 146.375,
            "velocity": 0.7874015748031497
          },
          {
            "duration": 0.0625,
            "durationTicks": 120,
            "midi": 46,
            "name": "A#2",
            "ticks": 281280,
            "time": 146.5,
            "velocity": 0.7874015748031497
          },
          {
            "duration": 0.0625,
            "durationTicks": 120,
            "midi": 46,
            "name": "A#2",
            "ticks": 281520,
            "time": 146.625,
            "velocity": 0.7874015748031497
          },
          {
            "duration": 0.1875,
            "durationTicks": 360,
            "midi": 43,
            "name": "G2",
            "ticks": 281760,
            "time": 146.75,
            "velocity": 0.7874015748031497
          },
          {
            "duration": 0.1875,
            "durationTicks": 360,
            "midi": 45,
            "name": "A2",
            "ticks": 282000,
            "time": 146.875,
            "velocity": 0.7795275590551181
          },
          {
            "duration": 0.0625,
            "durationTicks": 120,
            "midi": 40,
            "name": "E2",
            "ticks": 282480,
            "time": 147.125,
            "velocity": 0.7874015748031497
          },
          {
            "duration": 0.0625,
            "durationTicks": 120,
            "midi": 43,
            "name": "G2",
            "ticks": 282720,
            "time": 147.25,
            "velocity": 0.7874015748031497
          },
          {
            "duration": 0.0625,
            "durationTicks": 120,
            "midi": 40,
            "name": "E2",
            "ticks": 282960,
            "time": 147.375,
            "velocity": 0.7874015748031497
          },
          {
            "duration": 0.0625,
            "durationTicks": 120,
            "midi": 46,
            "name": "A#2",
            "ticks": 283200,
            "time": 147.5,
            "velocity": 0.7716535433070866
          },
          {
            "duration": 0.0625,
            "durationTicks": 120,
            "midi": 46,
            "name": "A#2",
            "ticks": 283440,
            "time": 147.625,
            "velocity": 0.7874015748031497
          },
          {
            "duration": 0.1875,
            "durationTicks": 360,
            "midi": 45,
            "name": "A2",
            "ticks": 283680,
            "time": 147.75,
            "velocity": 0.7480314960629921
          },
          {
            "duration": 0.5,
            "durationTicks": 960,
            "midi": 45,
            "name": "A2",
            "ticks": 287520,
            "time": 149.75,
            "velocity": 0.8110236220472441
          },
          {
            "duration": 0.5,
            "durationTicks": 960,
            "midi": 58,
            "name": "A#3",
            "ticks": 288480,
            "time": 150.25,
            "velocity": 0.8346456692913385
          },
          {
            "duration": 0.75,
            "durationTicks": 1440,
            "midi": 43,
            "name": "G2",
            "ticks": 289440,
            "time": 150.75,
            "velocity": 0.9133858267716536
          },
          {
            "duration": 0.25,
            "durationTicks": 480,
            "midi": 50,
            "name": "D3",
            "ticks": 290880,
            "time": 151.5,
            "velocity": 0.9448818897637795
          },
          {
            "duration": 0.25,
            "durationTicks": 480,
            "midi": 58,
            "name": "A#3",
            "ticks": 291360,
            "time": 151.75,
            "velocity": 1
          },
          {
            "duration": 0.125,
            "durationTicks": 240,
            "midi": 46,
            "name": "A#2",
            "ticks": 295200,
            "time": 153.75,
            "velocity": 0.7874015748031497
          },
          {
            "duration": 0.125,
            "durationTicks": 240,
            "midi": 43,
            "name": "G2",
            "ticks": 295320,
            "time": 153.8125,
            "velocity": 0.7874015748031497
          },
          {
            "duration": 0.0625,
            "durationTicks": 120,
            "midi": 46,
            "name": "A#2",
            "ticks": 295680,
            "time": 154,
            "velocity": 0.7874015748031497
          },
          {
            "duration": 0.125,
            "durationTicks": 240,
            "midi": 45,
            "name": "A2",
            "ticks": 295920,
            "time": 154.125,
            "velocity": 0.7874015748031497
          },
          {
            "duration": 0.0625,
            "durationTicks": 120,
            "midi": 40,
            "name": "E2",
            "ticks": 296160,
            "time": 154.25,
            "velocity": 0.7874015748031497
          },
          {
            "duration": 0.0625,
            "durationTicks": 120,
            "midi": 40,
            "name": "E2",
            "ticks": 296400,
            "time": 154.375,
            "velocity": 0.7874015748031497
          },
          {
            "duration": 0.0625,
            "durationTicks": 120,
            "midi": 46,
            "name": "A#2",
            "ticks": 296640,
            "time": 154.5,
            "velocity": 0.7874015748031497
          },
          {
            "duration": 0.0625,
            "durationTicks": 120,
            "midi": 46,
            "name": "A#2",
            "ticks": 296880,
            "time": 154.625,
            "velocity": 0.7874015748031497
          },
          {
            "duration": 0.1875,
            "durationTicks": 360,
            "midi": 43,
            "name": "G2",
            "ticks": 297120,
            "time": 154.75,
            "velocity": 0.7874015748031497
          },
          {
            "duration": 0.1875,
            "durationTicks": 360,
            "midi": 45,
            "name": "A2",
            "ticks": 297360,
            "time": 154.875,
            "velocity": 0.7795275590551181
          },
          {
            "duration": 0.0625,
            "durationTicks": 120,
            "midi": 40,
            "name": "E2",
            "ticks": 297840,
            "time": 155.125,
            "velocity": 0.7874015748031497
          },
          {
            "duration": 0.125,
            "durationTicks": 240,
            "midi": 43,
            "name": "G2",
            "ticks": 298080,
            "time": 155.25,
            "velocity": 0.7874015748031497
          },
          {
            "duration": 0.125,
            "durationTicks": 240,
            "midi": 46,
            "name": "A#2",
            "ticks": 298200,
            "time": 155.3125,
            "velocity": 0.7874015748031497
          },
          {
            "duration": 0.0625,
            "durationTicks": 120,
            "midi": 46,
            "name": "A#2",
            "ticks": 298560,
            "time": 155.5,
            "velocity": 0.7716535433070866
          },
          {
            "duration": 0.0625,
            "durationTicks": 120,
            "midi": 40,
            "name": "E2",
            "ticks": 298800,
            "time": 155.625,
            "velocity": 0.7874015748031497
          },
          {
            "duration": 0.1875,
            "durationTicks": 360,
            "midi": 43,
            "name": "G2",
            "ticks": 299040,
            "time": 155.75,
            "velocity": 0.7480314960629921
          },
          {
            "duration": 0.0625,
            "durationTicks": 120,
            "midi": 43,
            "name": "G2",
            "ticks": 310560,
            "time": 161.75,
            "velocity": 0.7874015748031497
          },
          {
            "duration": 0.0625,
            "durationTicks": 120,
            "midi": 43,
            "name": "G2",
            "ticks": 310800,
            "time": 161.875,
            "velocity": 0.7874015748031497
          },
          {
            "duration": 0.1875,
            "durationTicks": 360,
            "midi": 46,
            "name": "A#2",
            "ticks": 311040,
            "time": 162,
            "velocity": 0.7874015748031497
          },
          {
            "duration": 0.125,
            "durationTicks": 240,
            "midi": 45,
            "name": "A2",
            "ticks": 311280,
            "time": 162.125,
            "velocity": 0.7874015748031497
          },
          {
            "duration": 0.0625,
            "durationTicks": 120,
            "midi": 40,
            "name": "E2",
            "ticks": 311520,
            "time": 162.25,
            "velocity": 0.7874015748031497
          },
          {
            "duration": 0.0625,
            "durationTicks": 120,
            "midi": 40,
            "name": "E2",
            "ticks": 311760,
            "time": 162.375,
            "velocity": 0.7874015748031497
          },
          {
            "duration": 0.0625,
            "durationTicks": 120,
            "midi": 46,
            "name": "A#2",
            "ticks": 312000,
            "time": 162.5,
            "velocity": 0.7874015748031497
          },
          {
            "duration": 0.0625,
            "durationTicks": 120,
            "midi": 46,
            "name": "A#2",
            "ticks": 312240,
            "time": 162.625,
            "velocity": 0.7874015748031497
          },
          {
            "duration": 0.1875,
            "durationTicks": 360,
            "midi": 43,
            "name": "G2",
            "ticks": 312480,
            "time": 162.75,
            "velocity": 0.7874015748031497
          },
          {
            "duration": 0.1875,
            "durationTicks": 360,
            "midi": 45,
            "name": "A2",
            "ticks": 312720,
            "time": 162.875,
            "velocity": 0.7795275590551181
          },
          {
            "duration": 0.0625,
            "durationTicks": 120,
            "midi": 40,
            "name": "E2",
            "ticks": 313200,
            "time": 163.125,
            "velocity": 0.7874015748031497
          },
          {
            "duration": 0.0625,
            "durationTicks": 120,
            "midi": 43,
            "name": "G2",
            "ticks": 313440,
            "time": 163.25,
            "velocity": 0.7874015748031497
          },
          {
            "duration": 0.0625,
            "durationTicks": 120,
            "midi": 40,
            "name": "E2",
            "ticks": 313680,
            "time": 163.375,
            "velocity": 0.7874015748031497
          },
          {
            "duration": 0.0625,
            "durationTicks": 120,
            "midi": 46,
            "name": "A#2",
            "ticks": 313920,
            "time": 163.5,
            "velocity": 0.7716535433070866
          },
          {
            "duration": 0.0625,
            "durationTicks": 120,
            "midi": 46,
            "name": "A#2",
            "ticks": 314160,
            "time": 163.625,
            "velocity": 0.7874015748031497
          },
          {
            "duration": 0.1875,
            "durationTicks": 360,
            "midi": 45,
            "name": "A2",
            "ticks": 314400,
            "time": 163.75,
            "velocity": 0.7480314960629921
          },
          {
            "duration": 0.0625,
            "durationTicks": 120,
            "midi": 45,
            "name": "A2",
            "ticks": 318480,
            "time": 165.875,
            "velocity": 0.9291338582677166
          },
          {
            "duration": 0.0625,
            "durationTicks": 120,
            "midi": 57,
            "name": "A3",
            "ticks": 318720,
            "time": 166,
            "velocity": 0.9448818897637795
          },
          {
            "duration": 0.0625,
            "durationTicks": 120,
            "midi": 45,
            "name": "A2",
            "ticks": 318960,
            "time": 166.125,
            "velocity": 0.7874015748031497
          },
          {
            "duration": 0.0625,
            "durationTicks": 120,
            "midi": 43,
            "name": "G2",
            "ticks": 319200,
            "time": 166.25,
            "velocity": 0.7165354330708661
          },
          {
            "duration": 0.0625,
            "durationTicks": 120,
            "midi": 45,
            "name": "A2",
            "ticks": 319440,
            "time": 166.375,
            "velocity": 0.8582677165354331
          },
          {
            "duration": 0.0625,
            "durationTicks": 120,
            "midi": 45,
            "name": "A2",
            "ticks": 320160,
            "time": 166.75,
            "velocity": 0.889763779527559
          },
          {
            "duration": 0.0625,
            "durationTicks": 120,
            "midi": 43,
            "name": "G2",
            "ticks": 320400,
            "time": 166.875,
            "velocity": 0.7874015748031497
          },
          {
            "duration": 0.0625,
            "durationTicks": 120,
            "midi": 57,
            "name": "A3",
            "ticks": 320640,
            "time": 167,
            "velocity": 0.7874015748031497
          },
          {
            "duration": 0.0625,
            "durationTicks": 120,
            "midi": 48,
            "name": "C3",
            "ticks": 320880,
            "time": 167.125,
            "velocity": 0.7874015748031497
          },
          {
            "duration": 0.0625,
            "durationTicks": 120,
            "midi": 43,
            "name": "G2",
            "ticks": 321120,
            "time": 167.25,
            "velocity": 0.937007874015748
          },
          {
            "duration": 0.0625,
            "durationTicks": 120,
            "midi": 52,
            "name": "E3",
            "ticks": 321360,
            "time": 167.375,
            "velocity": 0.7874015748031497
          },
          {
            "duration": 0.0625,
            "durationTicks": 120,
            "midi": 43,
            "name": "G2",
            "ticks": 321600,
            "time": 167.5,
            "velocity": 0.7874015748031497
          },
          {
            "duration": 0.0625,
            "durationTicks": 120,
            "midi": 43,
            "name": "G2",
            "ticks": 321840,
            "time": 167.625,
            "velocity": 0.8188976377952756
          },
          {
            "duration": 0.0625,
            "durationTicks": 120,
            "midi": 58,
            "name": "A#3",
            "ticks": 322080,
            "time": 167.75,
            "velocity": 0.7874015748031497
          },
          {
            "duration": 0.0625,
            "durationTicks": 120,
            "midi": 46,
            "name": "A#2",
            "ticks": 322320,
            "time": 167.875,
            "velocity": 0.7874015748031497
          },
          {
            "duration": 0.125,
            "durationTicks": 240,
            "midi": 46,
            "name": "A#2",
            "ticks": 325920,
            "time": 169.75,
            "velocity": 0.7874015748031497
          },
          {
            "duration": 0.125,
            "durationTicks": 240,
            "midi": 43,
            "name": "G2",
            "ticks": 326040,
            "time": 169.8125,
            "velocity": 0.7874015748031497
          },
          {
            "duration": 0.0625,
            "durationTicks": 120,
            "midi": 46,
            "name": "A#2",
            "ticks": 326400,
            "time": 170,
            "velocity": 0.7874015748031497
          },
          {
            "duration": 0.125,
            "durationTicks": 240,
            "midi": 45,
            "name": "A2",
            "ticks": 326640,
            "time": 170.125,
            "velocity": 0.7874015748031497
          },
          {
            "duration": 0.0625,
            "durationTicks": 120,
            "midi": 40,
            "name": "E2",
            "ticks": 326880,
            "time": 170.25,
            "velocity": 0.7874015748031497
          },
          {
            "duration": 0.0625,
            "durationTicks": 120,
            "midi": 40,
            "name": "E2",
            "ticks": 327120,
            "time": 170.375,
            "velocity": 0.7874015748031497
          },
          {
            "duration": 0.0625,
            "durationTicks": 120,
            "midi": 46,
            "name": "A#2",
            "ticks": 327360,
            "time": 170.5,
            "velocity": 0.7874015748031497
          },
          {
            "duration": 0.0625,
            "durationTicks": 120,
            "midi": 46,
            "name": "A#2",
            "ticks": 327600,
            "time": 170.625,
            "velocity": 0.7874015748031497
          },
          {
            "duration": 0.1875,
            "durationTicks": 360,
            "midi": 43,
            "name": "G2",
            "ticks": 327840,
            "time": 170.75,
            "velocity": 0.7874015748031497
          },
          {
            "duration": 0.1875,
            "durationTicks": 360,
            "midi": 45,
            "name": "A2",
            "ticks": 328080,
            "time": 170.875,
            "velocity": 0.7795275590551181
          },
          {
            "duration": 0.0625,
            "durationTicks": 120,
            "midi": 40,
            "name": "E2",
            "ticks": 328560,
            "time": 171.125,
            "velocity": 0.7874015748031497
          },
          {
            "duration": 0.125,
            "durationTicks": 240,
            "midi": 43,
            "name": "G2",
            "ticks": 328800,
            "time": 171.25,
            "velocity": 0.7874015748031497
          },
          {
            "duration": 0.125,
            "durationTicks": 240,
            "midi": 46,
            "name": "A#2",
            "ticks": 328920,
            "time": 171.3125,
            "velocity": 0.7874015748031497
          },
          {
            "duration": 0.0625,
            "durationTicks": 120,
            "midi": 46,
            "name": "A#2",
            "ticks": 329280,
            "time": 171.5,
            "velocity": 0.7716535433070866
          },
          {
            "duration": 0.0625,
            "durationTicks": 120,
            "midi": 40,
            "name": "E2",
            "ticks": 329520,
            "time": 171.625,
            "velocity": 0.7874015748031497
          },
          {
            "duration": 0.1875,
            "durationTicks": 360,
            "midi": 43,
            "name": "G2",
            "ticks": 329760,
            "time": 171.75,
            "velocity": 0.7480314960629921
          },
          {
            "duration": 0.25,
            "durationTicks": 480,
            "midi": 55,
            "name": "G3",
            "ticks": 402720,
            "time": 209.75,
            "velocity": 0.8661417322834646
          },
          {
            "duration": 0.125,
            "durationTicks": 240,
            "midi": 69,
            "name": "A4",
            "ticks": 403200,
            "time": 210,
            "velocity": 0.937007874015748
          },
          {
            "duration": 0.1875,
            "durationTicks": 360,
            "midi": 57,
            "name": "A3",
            "ticks": 403680,
            "time": 210.25,
            "velocity": 0.7086614173228346
          },
          {
            "duration": 0.125,
            "durationTicks": 240,
            "midi": 58,
            "name": "A#3",
            "ticks": 403920,
            "time": 210.375,
            "velocity": 0.9291338582677166
          },
          {
            "duration": 0.125,
            "durationTicks": 240,
            "midi": 64,
            "name": "E4",
            "ticks": 404640,
            "time": 210.75,
            "velocity": 0.7874015748031497
          },
          {
            "duration": 0.1875,
            "durationTicks": 360,
            "midi": 57,
            "name": "A3",
            "ticks": 405120,
            "time": 211,
            "velocity": 0.7086614173228346
          },
          {
            "duration": 0.125,
            "durationTicks": 240,
            "midi": 60,
            "name": "C4",
            "ticks": 405360,
            "time": 211.125,
            "velocity": 0.8031496062992126
          },
          {
            "duration": 0.125,
            "durationTicks": 240,
            "midi": 58,
            "name": "A#3",
            "ticks": 405600,
            "time": 211.25,
            "velocity": 0.7874015748031497
          },
          {
            "duration": 0.125,
            "durationTicks": 240,
            "midi": 70,
            "name": "A#4",
            "ticks": 406080,
            "time": 211.5,
            "velocity": 0.984251968503937
          },
          {
            "duration": 0.1875,
            "durationTicks": 360,
            "midi": 55,
            "name": "G3",
            "ticks": 406320,
            "time": 211.625,
            "velocity": 0.5905511811023622
          },
          {
            "duration": 1,
            "durationTicks": 1920,
            "midi": 45,
            "name": "A2",
            "ticks": 410400,
            "time": 213.75,
            "velocity": 0.9212598425196851
          },
          {
            "duration": 0.75,
            "durationTicks": 1440,
            "midi": 46,
            "name": "A#2",
            "ticks": 412320,
            "time": 214.75,
            "velocity": 0.9921259842519685
          },
          {
            "duration": 0.5,
            "durationTicks": 960,
            "midi": 40,
            "name": "E2",
            "ticks": 413760,
            "time": 215.5,
            "velocity": 0.6771653543307087
          },
          {
            "duration": 0.25,
            "durationTicks": 480,
            "midi": 55,
            "name": "G3",
            "ticks": 418080,
            "time": 217.75,
            "velocity": 0.8661417322834646
          },
          {
            "duration": 0.125,
            "durationTicks": 240,
            "midi": 69,
            "name": "A4",
            "ticks": 418560,
            "time": 218,
            "velocity": 0.937007874015748
          },
          {
            "duration": 0.1875,
            "durationTicks": 360,
            "midi": 57,
            "name": "A3",
            "ticks": 419040,
            "time": 218.25,
            "velocity": 0.7086614173228346
          },
          {
            "duration": 0.125,
            "durationTicks": 240,
            "midi": 58,
            "name": "A#3",
            "ticks": 419280,
            "time": 218.375,
            "velocity": 0.9291338582677166
          },
          {
            "duration": 0.125,
            "durationTicks": 240,
            "midi": 64,
            "name": "E4",
            "ticks": 420000,
            "time": 218.75,
            "velocity": 0.7874015748031497
          },
          {
            "duration": 0.1875,
            "durationTicks": 360,
            "midi": 55,
            "name": "G3",
            "ticks": 420240,
            "time": 218.875,
            "velocity": 0.937007874015748
          },
          {
            "duration": 0.125,
            "durationTicks": 240,
            "midi": 58,
            "name": "A#3",
            "ticks": 420960,
            "time": 219.25,
            "velocity": 0.7874015748031497
          },
          {
            "duration": 0.125,
            "durationTicks": 240,
            "midi": 67,
            "name": "G4",
            "ticks": 421440,
            "time": 219.5,
            "velocity": 0.984251968503937
          },
          {
            "duration": 0.1875,
            "durationTicks": 360,
            "midi": 55,
            "name": "G3",
            "ticks": 421680,
            "time": 219.625,
            "velocity": 0.5905511811023622
          },
          {
            "duration": 0.25,
            "durationTicks": 480,
            "midi": 55,
            "name": "G3",
            "ticks": 433440,
            "time": 225.75,
            "velocity": 0.8661417322834646
          },
          {
            "duration": 0.125,
            "durationTicks": 240,
            "midi": 69,
            "name": "A4",
            "ticks": 433920,
            "time": 226,
            "velocity": 0.937007874015748
          },
          {
            "duration": 0.1875,
            "durationTicks": 360,
            "midi": 57,
            "name": "A3",
            "ticks": 434400,
            "time": 226.25,
            "velocity": 0.7086614173228346
          },
          {
            "duration": 0.125,
            "durationTicks": 240,
            "midi": 58,
            "name": "A#3",
            "ticks": 434640,
            "time": 226.375,
            "velocity": 0.9291338582677166
          },
          {
            "duration": 0.125,
            "durationTicks": 240,
            "midi": 64,
            "name": "E4",
            "ticks": 435360,
            "time": 226.75,
            "velocity": 0.7874015748031497
          },
          {
            "duration": 0.1875,
            "durationTicks": 360,
            "midi": 57,
            "name": "A3",
            "ticks": 435840,
            "time": 227,
            "velocity": 0.7086614173228346
          },
          {
            "duration": 0.125,
            "durationTicks": 240,
            "midi": 60,
            "name": "C4",
            "ticks": 436080,
            "time": 227.125,
            "velocity": 0.8031496062992126
          },
          {
            "duration": 0.125,
            "durationTicks": 240,
            "midi": 58,
            "name": "A#3",
            "ticks": 436320,
            "time": 227.25,
            "velocity": 0.7874015748031497
          },
          {
            "duration": 0.125,
            "durationTicks": 240,
            "midi": 70,
            "name": "A#4",
            "ticks": 436800,
            "time": 227.5,
            "velocity": 0.984251968503937
          },
          {
            "duration": 0.1875,
            "durationTicks": 360,
            "midi": 55,
            "name": "G3",
            "ticks": 437040,
            "time": 227.625,
            "velocity": 0.5905511811023622
          },
          {
            "duration": 1,
            "durationTicks": 1920,
            "midi": 45,
            "name": "A2",
            "ticks": 441120,
            "time": 229.75,
            "velocity": 0.9212598425196851
          },
          {
            "duration": 0.75,
            "durationTicks": 1440,
            "midi": 46,
            "name": "A#2",
            "ticks": 443040,
            "time": 230.75,
            "velocity": 0.9921259842519685
          },
          {
            "duration": 0.5,
            "durationTicks": 960,
            "midi": 40,
            "name": "E2",
            "ticks": 444480,
            "time": 231.5,
            "velocity": 0.6771653543307087
          },
          {
            "duration": 0.25,
            "durationTicks": 480,
            "midi": 55,
            "name": "G3",
            "ticks": 448800,
            "time": 233.75,
            "velocity": 0.8661417322834646
          },
          {
            "duration": 0.125,
            "durationTicks": 240,
            "midi": 69,
            "name": "A4",
            "ticks": 449280,
            "time": 234,
            "velocity": 0.937007874015748
          },
          {
            "duration": 0.1875,
            "durationTicks": 360,
            "midi": 57,
            "name": "A3",
            "ticks": 449760,
            "time": 234.25,
            "velocity": 0.7086614173228346
          },
          {
            "duration": 0.125,
            "durationTicks": 240,
            "midi": 58,
            "name": "A#3",
            "ticks": 450000,
            "time": 234.375,
            "velocity": 0.9291338582677166
          },
          {
            "duration": 0.125,
            "durationTicks": 240,
            "midi": 64,
            "name": "E4",
            "ticks": 450720,
            "time": 234.75,
            "velocity": 0.7874015748031497
          },
          {
            "duration": 0.1875,
            "durationTicks": 360,
            "midi": 55,
            "name": "G3",
            "ticks": 450960,
            "time": 234.875,
            "velocity": 0.937007874015748
          },
          {
            "duration": 0.125,
            "durationTicks": 240,
            "midi": 58,
            "name": "A#3",
            "ticks": 451680,
            "time": 235.25,
            "velocity": 0.7874015748031497
          },
          {
            "duration": 0.125,
            "durationTicks": 240,
            "midi": 67,
            "name": "G4",
            "ticks": 452160,
            "time": 235.5,
            "velocity": 0.984251968503937
          },
          {
            "duration": 0.1875,
            "durationTicks": 360,
            "midi": 55,
            "name": "G3",
            "ticks": 452400,
            "time": 235.625,
            "velocity": 0.5905511811023622
          }
        ],
        "endOfTrackTicks": 452760
      },
      {
        "channel": 6,
        "controlChanges": {},
        "pitchBends": [],
        "instrument": {
          "family": "piano",
          "number": 0,
          "name": "acoustic grand piano"
        },
        "name": "Synth Other - MIDI\u0000",
        "notes": [
          {
            "duration": 0.125,
            "durationTicks": 240,
            "midi": 76,
            "name": "E5",
            "ticks": 34560,
            "time": 18,
            "velocity": 0.7874015748031497
          },
          {
            "duration": 0.125,
            "durationTicks": 240,
            "midi": 69,
            "name": "A4",
            "ticks": 35280,
            "time": 18.375,
            "velocity": 0.7874015748031497
          },
          {
            "duration": 0.09843749999999929,
            "durationTicks": 189,
            "midi": 70,
            "name": "A#4",
            "ticks": 36000,
            "time": 18.75,
            "velocity": 0.7874015748031497
          },
          {
            "duration": 0.0625,
            "durationTicks": 120,
            "midi": 64,
            "name": "E4",
            "ticks": 41760,
            "time": 21.75,
            "velocity": 0.7874015748031497
          },
          {
            "duration": 0.0625,
            "durationTicks": 120,
            "midi": 59,
            "name": "B3",
            "ticks": 42000,
            "time": 21.875,
            "velocity": 0.7874015748031497
          },
          {
            "duration": 0.0625,
            "durationTicks": 120,
            "midi": 68,
            "name": "G#4",
            "ticks": 42240,
            "time": 22,
            "velocity": 0.7874015748031497
          },
          {
            "duration": 0.0625,
            "durationTicks": 120,
            "midi": 61,
            "name": "C#4",
            "ticks": 42480,
            "time": 22.125,
            "velocity": 0.7874015748031497
          },
          {
            "duration": 0.0625,
            "durationTicks": 120,
            "midi": 71,
            "name": "B4",
            "ticks": 42720,
            "time": 22.25,
            "velocity": 0.7874015748031497
          },
          {
            "duration": 0.0625,
            "durationTicks": 120,
            "midi": 62,
            "name": "D4",
            "ticks": 42960,
            "time": 22.375,
            "velocity": 0.7874015748031497
          },
          {
            "duration": 0.0625,
            "durationTicks": 120,
            "midi": 69,
            "name": "A4",
            "ticks": 43200,
            "time": 22.5,
            "velocity": 0.7874015748031497
          },
          {
            "duration": 0.0625,
            "durationTicks": 120,
            "midi": 59,
            "name": "B3",
            "ticks": 43440,
            "time": 22.625,
            "velocity": 0.7874015748031497
          },
          {
            "duration": 0.0625,
            "durationTicks": 120,
            "midi": 68,
            "name": "G#4",
            "ticks": 43680,
            "time": 22.75,
            "velocity": 0.7874015748031497
          },
          {
            "duration": 0.125,
            "durationTicks": 240,
            "midi": 74,
            "name": "D5",
            "ticks": 49440,
            "time": 25.75,
            "velocity": 0.8110236220472441
          },
          {
            "duration": 0.125,
            "durationTicks": 240,
            "midi": 76,
            "name": "E5",
            "ticks": 49920,
            "time": 26,
            "velocity": 0.7874015748031497
          },
          {
            "duration": 0.125,
            "durationTicks": 240,
            "midi": 69,
            "name": "A4",
            "ticks": 50880,
            "time": 26.5,
            "velocity": 0.7874015748031497
          },
          {
            "duration": 0.09843749999999929,
            "durationTicks": 189,
            "midi": 70,
            "name": "A#4",
            "ticks": 51360,
            "time": 26.75,
            "velocity": 0.7874015748031497
          },
          {
            "duration": 0.125,
            "durationTicks": 240,
            "midi": 71,
            "name": "B4",
            "ticks": 65280,
            "time": 34,
            "velocity": 0.7874015748031497
          },
          {
            "duration": 0.125,
            "durationTicks": 240,
            "midi": 64,
            "name": "E4",
            "ticks": 66000,
            "time": 34.375,
            "velocity": 0.7874015748031497
          },
          {
            "duration": 0.09843750000000284,
            "durationTicks": 189,
            "midi": 65,
            "name": "F4",
            "ticks": 66720,
            "time": 34.75,
            "velocity": 0.7874015748031497
          },
          {
            "duration": 0.0625,
            "durationTicks": 120,
            "midi": 68,
            "name": "G#4",
            "ticks": 72960,
            "time": 38,
            "velocity": 1
          },
          {
            "duration": 0.125,
            "durationTicks": 240,
            "midi": 68,
            "name": "G#4",
            "ticks": 73200,
            "time": 38.125,
            "velocity": 0.8503937007874016
          },
          {
            "duration": 0.1875,
            "durationTicks": 360,
            "midi": 68,
            "name": "G#4",
            "ticks": 73920,
            "time": 38.5,
            "velocity": 1
          },
          {
            "duration": 0.25,
            "durationTicks": 480,
            "midi": 68,
            "name": "G#4",
            "ticks": 74640,
            "time": 38.875,
            "velocity": 1
          },
          {
            "duration": 0.7609374999999972,
            "durationTicks": 1461,
            "midi": 68,
            "name": "G#4",
            "ticks": 75360,
            "time": 39.25,
            "velocity": 1
          },
          {
            "duration": 0.125,
            "durationTicks": 240,
            "midi": 70,
            "name": "A#4",
            "ticks": 80160,
            "time": 41.75,
            "velocity": 0.8110236220472441
          },
          {
            "duration": 0.125,
            "durationTicks": 240,
            "midi": 72,
            "name": "C5",
            "ticks": 80640,
            "time": 42,
            "velocity": 0.7874015748031497
          },
          {
            "duration": 0.125,
            "durationTicks": 240,
            "midi": 65,
            "name": "F4",
            "ticks": 81600,
            "time": 42.5,
            "velocity": 0.7874015748031497
          },
          {
            "duration": 0.09843750000000284,
            "durationTicks": 189,
            "midi": 66,
            "name": "F#4",
            "ticks": 82080,
            "time": 42.75,
            "velocity": 0.7874015748031497
          },
          {
            "duration": 0.375,
            "durationTicks": 720,
            "midi": 58,
            "name": "A#3",
            "ticks": 103200,
            "time": 53.75,
            "velocity": 0.7952755905511811
          },
          {
            "duration": 0.5,
            "durationTicks": 960,
            "midi": 61,
            "name": "C#4",
            "ticks": 103680,
            "time": 54,
            "velocity": 0.7874015748031497
          },
          {
            "duration": 0.4375,
            "durationTicks": 840,
            "midi": 58,
            "name": "A#3",
            "ticks": 104400,
            "time": 54.375,
            "velocity": 0.6850393700787402
          },
          {
            "duration": 0.625,
            "durationTicks": 1200,
            "midi": 64,
            "name": "E4",
            "ticks": 105120,
            "time": 54.75,
            "velocity": 0.7401574803149606
          },
          {
            "duration": 0.75,
            "durationTicks": 1440,
            "midi": 63,
            "name": "D#4",
            "ticks": 106080,
            "time": 55.25,
            "velocity": 0.6220472440944882
          },
          {
            "duration": 1.75,
            "durationTicks": 3360,
            "midi": 63,
            "name": "D#4",
            "ticks": 134400,
            "time": 70,
            "velocity": 0.7874015748031497
          },
          {
            "duration": 0.125,
            "durationTicks": 240,
            "midi": 76,
            "name": "E5",
            "ticks": 464640,
            "time": 242,
            "velocity": 0.7874015748031497
          },
          {
            "duration": 0.125,
            "durationTicks": 240,
            "midi": 69,
            "name": "A4",
            "ticks": 465360,
            "time": 242.375,
            "velocity": 0.7874015748031497
          },
          {
            "duration": 0.09843749999998863,
            "durationTicks": 189,
            "midi": 70,
            "name": "A#4",
            "ticks": 466080,
            "time": 242.75,
            "velocity": 0.7874015748031497
          },
          {
            "duration": 0.0625,
            "durationTicks": 120,
            "midi": 72,
            "name": "C5",
            "ticks": 471840,
            "time": 245.75,
            "velocity": 0.7874015748031497
          },
          {
            "duration": 0.0625,
            "durationTicks": 120,
            "midi": 67,
            "name": "G4",
            "ticks": 472080,
            "time": 245.875,
            "velocity": 0.7874015748031497
          },
          {
            "duration": 0.0625,
            "durationTicks": 120,
            "midi": 76,
            "name": "E5",
            "ticks": 472320,
            "time": 246,
            "velocity": 0.7874015748031497
          },
          {
            "duration": 0.0625,
            "durationTicks": 120,
            "midi": 69,
            "name": "A4",
            "ticks": 472560,
            "time": 246.125,
            "velocity": 0.7874015748031497
          },
          {
            "duration": 0.0625,
            "durationTicks": 120,
            "midi": 79,
            "name": "G5",
            "ticks": 472800,
            "time": 246.25,
            "velocity": 0.7874015748031497
          },
          {
            "duration": 0.0625,
            "durationTicks": 120,
            "midi": 70,
            "name": "A#4",
            "ticks": 473040,
            "time": 246.375,
            "velocity": 0.7874015748031497
          },
          {
            "duration": 0.0625,
            "durationTicks": 120,
            "midi": 77,
            "name": "F5",
            "ticks": 473280,
            "time": 246.5,
            "velocity": 0.7874015748031497
          },
          {
            "duration": 0.0625,
            "durationTicks": 120,
            "midi": 67,
            "name": "G4",
            "ticks": 473520,
            "time": 246.625,
            "velocity": 0.7874015748031497
          },
          {
            "duration": 0.0625,
            "durationTicks": 120,
            "midi": 76,
            "name": "E5",
            "ticks": 473760,
            "time": 246.75,
            "velocity": 0.7874015748031497
          },
          {
            "duration": 0.125,
            "durationTicks": 240,
            "midi": 74,
            "name": "D5",
            "ticks": 479520,
            "time": 249.75,
            "velocity": 0.8110236220472441
          },
          {
            "duration": 0.125,
            "durationTicks": 240,
            "midi": 76,
            "name": "E5",
            "ticks": 480000,
            "time": 250,
            "velocity": 0.7874015748031497
          },
          {
            "duration": 0.125,
            "durationTicks": 240,
            "midi": 69,
            "name": "A4",
            "ticks": 480960,
            "time": 250.5,
            "velocity": 0.7874015748031497
          },
          {
            "duration": 0.09843749999998863,
            "durationTicks": 189,
            "midi": 70,
            "name": "A#4",
            "ticks": 481440,
            "time": 250.75,
            "velocity": 0.7874015748031497
          },
          {
            "duration": 0.0625,
            "durationTicks": 120,
            "midi": 81,
            "name": "A5",
            "ticks": 487680,
            "time": 254,
            "velocity": 1
          },
          {
            "duration": 0.125,
            "durationTicks": 240,
            "midi": 81,
            "name": "A5",
            "ticks": 487920,
            "time": 254.125,
            "velocity": 0.8503937007874016
          },
          {
            "duration": 0.1875,
            "durationTicks": 360,
            "midi": 81,
            "name": "A5",
            "ticks": 488640,
            "time": 254.5,
            "velocity": 1
          },
          {
            "duration": 0.25,
            "durationTicks": 480,
            "midi": 81,
            "name": "A5",
            "ticks": 489360,
            "time": 254.875,
            "velocity": 1
          },
          {
            "duration": 0.7609375000000114,
            "durationTicks": 1461,
            "midi": 81,
            "name": "A5",
            "ticks": 490080,
            "time": 255.25,
            "velocity": 1
          },
          {
            "duration": 0.375,
            "durationTicks": 720,
            "midi": 64,
            "name": "E4",
            "ticks": 494880,
            "time": 257.75,
            "velocity": 0.7952755905511811
          },
          {
            "duration": 0.5,
            "durationTicks": 960,
            "midi": 67,
            "name": "G4",
            "ticks": 495360,
            "time": 258,
            "velocity": 0.7874015748031497
          },
          {
            "duration": 0.4375,
            "durationTicks": 840,
            "midi": 64,
            "name": "E4",
            "ticks": 496080,
            "time": 258.375,
            "velocity": 0.6850393700787402
          },
          {
            "duration": 0.625,
            "durationTicks": 1200,
            "midi": 70,
            "name": "A#4",
            "ticks": 496800,
            "time": 258.75,
            "velocity": 0.7401574803149606
          },
          {
            "duration": 0.75,
            "durationTicks": 1440,
            "midi": 69,
            "name": "A4",
            "ticks": 497760,
            "time": 259.25,
            "velocity": 0.6220472440944882
          },
          {
            "duration": 0.375,
            "durationTicks": 720,
            "midi": 64,
            "name": "E4",
            "ticks": 510240,
            "time": 265.75,
            "velocity": 0.7952755905511811
          },
          {
            "duration": 0.5,
            "durationTicks": 960,
            "midi": 67,
            "name": "G4",
            "ticks": 510720,
            "time": 266,
            "velocity": 0.7874015748031497
          },
          {
            "duration": 0.5625,
            "durationTicks": 1080,
            "midi": 70,
            "name": "A#4",
            "ticks": 511440,
            "time": 266.375,
            "velocity": 0.6850393700787402
          },
          {
            "duration": 1,
            "durationTicks": 1920,
            "midi": 69,
            "name": "A4",
            "ticks": 512160,
            "time": 266.75,
            "velocity": 0.6220472440944882
          }
        ],
        "endOfTrackTicks": 514080
      },
      {
        "channel": 7,
        "controlChanges": {},
        "pitchBends": [],
        "instrument": {
          "family": "piano",
          "number": 0,
          "name": "acoustic grand piano"
        },
        "name": "RapHit - MIDI\u0000",
        "notes": [
          {
            "duration": 0.0625,
            "durationTicks": 120,
            "midi": 61,
            "name": "C#4",
            "ticks": 153600,
            "time": 80,
            "velocity": 0.7874015748031497
          },
          {
            "duration": 0.0625,
            "durationTicks": 120,
            "midi": 61,
            "name": "C#4",
            "ticks": 160560,
            "time": 83.625,
            "velocity": 0.7874015748031497
          },
          {
            "duration": 0.0625,
            "durationTicks": 120,
            "midi": 61,
            "name": "C#4",
            "ticks": 161280,
            "time": 84,
            "velocity": 0.7874015748031497
          },
          {
            "duration": 0.0625,
            "durationTicks": 120,
            "midi": 61,
            "name": "C#4",
            "ticks": 168960,
            "time": 88,
            "velocity": 0.7874015748031497
          },
          {
            "duration": 0.0625,
            "durationTicks": 120,
            "midi": 61,
            "name": "C#4",
            "ticks": 175920,
            "time": 91.625,
            "velocity": 0.7874015748031497
          },
          {
            "duration": 0.0625,
            "durationTicks": 120,
            "midi": 61,
            "name": "C#4",
            "ticks": 176640,
            "time": 92,
            "velocity": 0.7874015748031497
          },
          {
            "duration": 0.0625,
            "durationTicks": 120,
            "midi": 61,
            "name": "C#4",
            "ticks": 184320,
            "time": 96,
            "velocity": 0.7874015748031497
          },
          {
            "duration": 0.0625,
            "durationTicks": 120,
            "midi": 61,
            "name": "C#4",
            "ticks": 191280,
            "time": 99.625,
            "velocity": 0.7874015748031497
          },
          {
            "duration": 0.0625,
            "durationTicks": 120,
            "midi": 61,
            "name": "C#4",
            "ticks": 192000,
            "time": 100,
            "velocity": 0.7874015748031497
          },
          {
            "duration": 0.0625,
            "durationTicks": 120,
            "midi": 61,
            "name": "C#4",
            "ticks": 199680,
            "time": 104,
            "velocity": 0.7874015748031497
          },
          {
            "duration": 0.0625,
            "durationTicks": 120,
            "midi": 61,
            "name": "C#4",
            "ticks": 205920,
            "time": 107.25,
            "velocity": 0.7874015748031497
          },
          {
            "duration": 0.0625,
            "durationTicks": 120,
            "midi": 61,
            "name": "C#4",
            "ticks": 206640,
            "time": 107.625,
            "velocity": 0.7874015748031497
          },
          {
            "duration": 0.0625,
            "durationTicks": 120,
            "midi": 61,
            "name": "C#4",
            "ticks": 207360,
            "time": 108,
            "velocity": 0.7874015748031497
          },
          {
            "duration": 0.0625,
            "durationTicks": 120,
            "midi": 61,
            "name": "C#4",
            "ticks": 337920,
            "time": 176,
            "velocity": 0.7874015748031497
          },
          {
            "duration": 0.0625,
            "durationTicks": 120,
            "midi": 61,
            "name": "C#4",
            "ticks": 344880,
            "time": 179.625,
            "velocity": 0.7874015748031497
          },
          {
            "duration": 0.0625,
            "durationTicks": 120,
            "midi": 61,
            "name": "C#4",
            "ticks": 345600,
            "time": 180,
            "velocity": 0.7874015748031497
          },
          {
            "duration": 0.0625,
            "durationTicks": 120,
            "midi": 61,
            "name": "C#4",
            "ticks": 353280,
            "time": 184,
            "velocity": 0.7874015748031497
          },
          {
            "duration": 0.0625,
            "durationTicks": 120,
            "midi": 61,
            "name": "C#4",
            "ticks": 360240,
            "time": 187.625,
            "velocity": 0.7874015748031497
          },
          {
            "duration": 0.0625,
            "durationTicks": 120,
            "midi": 61,
            "name": "C#4",
            "ticks": 360960,
            "time": 188,
            "velocity": 0.7874015748031497
          },
          {
            "duration": 0.0625,
            "durationTicks": 120,
            "midi": 61,
            "name": "C#4",
            "ticks": 368640,
            "time": 192,
            "velocity": 0.7874015748031497
          },
          {
            "duration": 0.0625,
            "durationTicks": 120,
            "midi": 61,
            "name": "C#4",
            "ticks": 375600,
            "time": 195.625,
            "velocity": 0.7874015748031497
          },
          {
            "duration": 0.0625,
            "durationTicks": 120,
            "midi": 61,
            "name": "C#4",
            "ticks": 376320,
            "time": 196,
            "velocity": 0.7874015748031497
          },
          {
            "duration": 0.0625,
            "durationTicks": 120,
            "midi": 61,
            "name": "C#4",
            "ticks": 384000,
            "time": 200,
            "velocity": 0.7874015748031497
          },
          {
            "duration": 0.0625,
            "durationTicks": 120,
            "midi": 61,
            "name": "C#4",
            "ticks": 390240,
            "time": 203.25,
            "velocity": 0.7874015748031497
          },
          {
            "duration": 0.0625,
            "durationTicks": 120,
            "midi": 61,
            "name": "C#4",
            "ticks": 390960,
            "time": 203.625,
            "velocity": 0.7874015748031497
          },
          {
            "duration": 0.0625,
            "durationTicks": 120,
            "midi": 61,
            "name": "C#4",
            "ticks": 391680,
            "time": 204,
            "velocity": 0.7874015748031497
          }
        ],
        "endOfTrackTicks": 391800
      },
      {
        "channel": 8,
        "controlChanges": {},
        "pitchBends": [],
        "instrument": {
          "family": "piano",
          "number": 0,
          "name": "acoustic grand piano"
        },
        "name": "Bomfunk - MIDI\u0000",
        "notes": [
          {
            "duration": 0.0625,
            "durationTicks": 120,
            "midi": 88,
            "name": "E6",
            "ticks": 460800,
            "time": 240,
            "velocity": 0.7874015748031497
          },
          {
            "duration": 0.0625,
            "durationTicks": 120,
            "midi": 81,
            "name": "A5",
            "ticks": 461040,
            "time": 240.125,
            "velocity": 0.7874015748031497
          },
          {
            "duration": 0.0625,
            "durationTicks": 120,
            "midi": 89,
            "name": "F6",
            "ticks": 461280,
            "time": 240.25,
            "velocity": 0.7874015748031497
          },
          {
            "duration": 0.0625,
            "durationTicks": 120,
            "midi": 88,
            "name": "E6",
            "ticks": 461520,
            "time": 240.375,
            "velocity": 0.7874015748031497
          },
          {
            "duration": 0.0625,
            "durationTicks": 120,
            "midi": 81,
            "name": "A5",
            "ticks": 461760,
            "time": 240.5,
            "velocity": 0.7874015748031497
          },
          {
            "duration": 0.0625,
            "durationTicks": 120,
            "midi": 88,
            "name": "E6",
            "ticks": 462000,
            "time": 240.625,
            "velocity": 0.7874015748031497
          },
          {
            "duration": 0.0625,
            "durationTicks": 120,
            "midi": 81,
            "name": "A5",
            "ticks": 462240,
            "time": 240.75,
            "velocity": 0.7874015748031497
          },
          {
            "duration": 0.0625,
            "durationTicks": 120,
            "midi": 86,
            "name": "D6",
            "ticks": 462480,
            "time": 240.875,
            "velocity": 0.7874015748031497
          },
          {
            "duration": 0.0625,
            "durationTicks": 120,
            "midi": 88,
            "name": "E6",
            "ticks": 462720,
            "time": 241,
            "velocity": 0.7874015748031497
          },
          {
            "duration": 0.0625,
            "durationTicks": 120,
            "midi": 81,
            "name": "A5",
            "ticks": 462960,
            "time": 241.125,
            "velocity": 0.7874015748031497
          },
          {
            "duration": 0.0625,
            "durationTicks": 120,
            "midi": 89,
            "name": "F6",
            "ticks": 463200,
            "time": 241.25,
            "velocity": 0.7874015748031497
          },
          {
            "duration": 0.0625,
            "durationTicks": 120,
            "midi": 88,
            "name": "E6",
            "ticks": 463440,
            "time": 241.375,
            "velocity": 0.7874015748031497
          },
          {
            "duration": 0.0625,
            "durationTicks": 120,
            "midi": 81,
            "name": "A5",
            "ticks": 463680,
            "time": 241.5,
            "velocity": 0.7874015748031497
          },
          {
            "duration": 0.0625,
            "durationTicks": 120,
            "midi": 88,
            "name": "E6",
            "ticks": 463920,
            "time": 241.625,
            "velocity": 0.7874015748031497
          },
          {
            "duration": 0.0625,
            "durationTicks": 120,
            "midi": 81,
            "name": "A5",
            "ticks": 464160,
            "time": 241.75,
            "velocity": 0.7874015748031497
          },
          {
            "duration": 0.0625,
            "durationTicks": 120,
            "midi": 86,
            "name": "D6",
            "ticks": 464400,
            "time": 241.875,
            "velocity": 0.7874015748031497
          },
          {
            "duration": 0.0625,
            "durationTicks": 120,
            "midi": 88,
            "name": "E6",
            "ticks": 464640,
            "time": 242,
            "velocity": 0.7874015748031497
          },
          {
            "duration": 0.0625,
            "durationTicks": 120,
            "midi": 81,
            "name": "A5",
            "ticks": 464880,
            "time": 242.125,
            "velocity": 0.7874015748031497
          },
          {
            "duration": 0.0625,
            "durationTicks": 120,
            "midi": 89,
            "name": "F6",
            "ticks": 465120,
            "time": 242.25,
            "velocity": 0.7874015748031497
          },
          {
            "duration": 0.0625,
            "durationTicks": 120,
            "midi": 88,
            "name": "E6",
            "ticks": 465360,
            "time": 242.375,
            "velocity": 0.7874015748031497
          },
          {
            "duration": 0.0625,
            "durationTicks": 120,
            "midi": 81,
            "name": "A5",
            "ticks": 465600,
            "time": 242.5,
            "velocity": 0.7874015748031497
          },
          {
            "duration": 0.0625,
            "durationTicks": 120,
            "midi": 88,
            "name": "E6",
            "ticks": 465840,
            "time": 242.625,
            "velocity": 0.7874015748031497
          },
          {
            "duration": 0.0625,
            "durationTicks": 120,
            "midi": 81,
            "name": "A5",
            "ticks": 466080,
            "time": 242.75,
            "velocity": 0.7874015748031497
          },
          {
            "duration": 0.0625,
            "durationTicks": 120,
            "midi": 86,
            "name": "D6",
            "ticks": 466320,
            "time": 242.875,
            "velocity": 0.7874015748031497
          },
          {
            "duration": 0.0625,
            "durationTicks": 120,
            "midi": 88,
            "name": "E6",
            "ticks": 466560,
            "time": 243,
            "velocity": 0.7874015748031497
          },
          {
            "duration": 0.0625,
            "durationTicks": 120,
            "midi": 81,
            "name": "A5",
            "ticks": 466800,
            "time": 243.125,
            "velocity": 0.7874015748031497
          },
          {
            "duration": 0.0625,
            "durationTicks": 120,
            "midi": 89,
            "name": "F6",
            "ticks": 467040,
            "time": 243.25,
            "velocity": 0.7874015748031497
          },
          {
            "duration": 0.0625,
            "durationTicks": 120,
            "midi": 88,
            "name": "E6",
            "ticks": 467280,
            "time": 243.375,
            "velocity": 0.7874015748031497
          },
          {
            "duration": 0.0625,
            "durationTicks": 120,
            "midi": 81,
            "name": "A5",
            "ticks": 467520,
            "time": 243.5,
            "velocity": 0.7874015748031497
          },
          {
            "duration": 0.0625,
            "durationTicks": 120,
            "midi": 88,
            "name": "E6",
            "ticks": 467760,
            "time": 243.625,
            "velocity": 0.7874015748031497
          },
          {
            "duration": 0.0625,
            "durationTicks": 120,
            "midi": 81,
            "name": "A5",
            "ticks": 468000,
            "time": 243.75,
            "velocity": 0.7874015748031497
          },
          {
            "duration": 0.0625,
            "durationTicks": 120,
            "midi": 86,
            "name": "D6",
            "ticks": 468240,
            "time": 243.875,
            "velocity": 0.7874015748031497
          },
          {
            "duration": 0.0625,
            "durationTicks": 120,
            "midi": 88,
            "name": "E6",
            "ticks": 468480,
            "time": 244,
            "velocity": 0.7874015748031497
          },
          {
            "duration": 0.0625,
            "durationTicks": 120,
            "midi": 81,
            "name": "A5",
            "ticks": 468720,
            "time": 244.125,
            "velocity": 0.7874015748031497
          },
          {
            "duration": 0.0625,
            "durationTicks": 120,
            "midi": 89,
            "name": "F6",
            "ticks": 468960,
            "time": 244.25,
            "velocity": 0.7874015748031497
          },
          {
            "duration": 0.0625,
            "durationTicks": 120,
            "midi": 88,
            "name": "E6",
            "ticks": 469200,
            "time": 244.375,
            "velocity": 0.7874015748031497
          },
          {
            "duration": 0.0625,
            "durationTicks": 120,
            "midi": 81,
            "name": "A5",
            "ticks": 469440,
            "time": 244.5,
            "velocity": 0.7874015748031497
          },
          {
            "duration": 0.0625,
            "durationTicks": 120,
            "midi": 88,
            "name": "E6",
            "ticks": 469680,
            "time": 244.625,
            "velocity": 0.7874015748031497
          },
          {
            "duration": 0.0625,
            "durationTicks": 120,
            "midi": 81,
            "name": "A5",
            "ticks": 469920,
            "time": 244.75,
            "velocity": 0.7874015748031497
          },
          {
            "duration": 0.0625,
            "durationTicks": 120,
            "midi": 86,
            "name": "D6",
            "ticks": 470160,
            "time": 244.875,
            "velocity": 0.7874015748031497
          },
          {
            "duration": 0.0625,
            "durationTicks": 120,
            "midi": 88,
            "name": "E6",
            "ticks": 470400,
            "time": 245,
            "velocity": 0.7874015748031497
          },
          {
            "duration": 0.0625,
            "durationTicks": 120,
            "midi": 81,
            "name": "A5",
            "ticks": 470640,
            "time": 245.125,
            "velocity": 0.7874015748031497
          },
          {
            "duration": 0.0625,
            "durationTicks": 120,
            "midi": 89,
            "name": "F6",
            "ticks": 470880,
            "time": 245.25,
            "velocity": 0.7874015748031497
          },
          {
            "duration": 0.0625,
            "durationTicks": 120,
            "midi": 88,
            "name": "E6",
            "ticks": 471120,
            "time": 245.375,
            "velocity": 0.7874015748031497
          },
          {
            "duration": 0.0625,
            "durationTicks": 120,
            "midi": 81,
            "name": "A5",
            "ticks": 471360,
            "time": 245.5,
            "velocity": 0.7874015748031497
          },
          {
            "duration": 0.0625,
            "durationTicks": 120,
            "midi": 88,
            "name": "E6",
            "ticks": 471600,
            "time": 245.625,
            "velocity": 0.7874015748031497
          },
          {
            "duration": 0.0625,
            "durationTicks": 120,
            "midi": 81,
            "name": "A5",
            "ticks": 471840,
            "time": 245.75,
            "velocity": 0.7874015748031497
          },
          {
            "duration": 0.0625,
            "durationTicks": 120,
            "midi": 86,
            "name": "D6",
            "ticks": 472080,
            "time": 245.875,
            "velocity": 0.7874015748031497
          },
          {
            "duration": 0.0625,
            "durationTicks": 120,
            "midi": 88,
            "name": "E6",
            "ticks": 472320,
            "time": 246,
            "velocity": 0.7874015748031497
          },
          {
            "duration": 0.0625,
            "durationTicks": 120,
            "midi": 81,
            "name": "A5",
            "ticks": 472560,
            "time": 246.125,
            "velocity": 0.7874015748031497
          },
          {
            "duration": 0.0625,
            "durationTicks": 120,
            "midi": 89,
            "name": "F6",
            "ticks": 472800,
            "time": 246.25,
            "velocity": 0.7874015748031497
          },
          {
            "duration": 0.0625,
            "durationTicks": 120,
            "midi": 88,
            "name": "E6",
            "ticks": 473040,
            "time": 246.375,
            "velocity": 0.7874015748031497
          },
          {
            "duration": 0.0625,
            "durationTicks": 120,
            "midi": 81,
            "name": "A5",
            "ticks": 473280,
            "time": 246.5,
            "velocity": 0.7874015748031497
          },
          {
            "duration": 0.0625,
            "durationTicks": 120,
            "midi": 88,
            "name": "E6",
            "ticks": 473520,
            "time": 246.625,
            "velocity": 0.7874015748031497
          },
          {
            "duration": 0.0625,
            "durationTicks": 120,
            "midi": 81,
            "name": "A5",
            "ticks": 473760,
            "time": 246.75,
            "velocity": 0.7874015748031497
          },
          {
            "duration": 0.0625,
            "durationTicks": 120,
            "midi": 86,
            "name": "D6",
            "ticks": 474000,
            "time": 246.875,
            "velocity": 0.7874015748031497
          },
          {
            "duration": 0.0625,
            "durationTicks": 120,
            "midi": 88,
            "name": "E6",
            "ticks": 474240,
            "time": 247,
            "velocity": 0.7874015748031497
          },
          {
            "duration": 0.0625,
            "durationTicks": 120,
            "midi": 81,
            "name": "A5",
            "ticks": 474480,
            "time": 247.125,
            "velocity": 0.7874015748031497
          },
          {
            "duration": 0.0625,
            "durationTicks": 120,
            "midi": 89,
            "name": "F6",
            "ticks": 474720,
            "time": 247.25,
            "velocity": 0.7874015748031497
          },
          {
            "duration": 0.0625,
            "durationTicks": 120,
            "midi": 88,
            "name": "E6",
            "ticks": 474960,
            "time": 247.375,
            "velocity": 0.7874015748031497
          },
          {
            "duration": 0.0625,
            "durationTicks": 120,
            "midi": 81,
            "name": "A5",
            "ticks": 475200,
            "time": 247.5,
            "velocity": 0.7874015748031497
          },
          {
            "duration": 0.0625,
            "durationTicks": 120,
            "midi": 88,
            "name": "E6",
            "ticks": 475440,
            "time": 247.625,
            "velocity": 0.7874015748031497
          },
          {
            "duration": 0.0625,
            "durationTicks": 120,
            "midi": 81,
            "name": "A5",
            "ticks": 475680,
            "time": 247.75,
            "velocity": 0.7874015748031497
          },
          {
            "duration": 0.0625,
            "durationTicks": 120,
            "midi": 86,
            "name": "D6",
            "ticks": 475920,
            "time": 247.875,
            "velocity": 0.7874015748031497
          },
          {
            "duration": 0.0625,
            "durationTicks": 120,
            "midi": 88,
            "name": "E6",
            "ticks": 476160,
            "time": 248,
            "velocity": 0.7874015748031497
          },
          {
            "duration": 0.0625,
            "durationTicks": 120,
            "midi": 81,
            "name": "A5",
            "ticks": 476400,
            "time": 248.125,
            "velocity": 0.7874015748031497
          },
          {
            "duration": 0.0625,
            "durationTicks": 120,
            "midi": 89,
            "name": "F6",
            "ticks": 476640,
            "time": 248.25,
            "velocity": 0.7874015748031497
          },
          {
            "duration": 0.0625,
            "durationTicks": 120,
            "midi": 88,
            "name": "E6",
            "ticks": 476880,
            "time": 248.375,
            "velocity": 0.7874015748031497
          },
          {
            "duration": 0.0625,
            "durationTicks": 120,
            "midi": 81,
            "name": "A5",
            "ticks": 477120,
            "time": 248.5,
            "velocity": 0.7874015748031497
          },
          {
            "duration": 0.0625,
            "durationTicks": 120,
            "midi": 88,
            "name": "E6",
            "ticks": 477360,
            "time": 248.625,
            "velocity": 0.7874015748031497
          },
          {
            "duration": 0.0625,
            "durationTicks": 120,
            "midi": 81,
            "name": "A5",
            "ticks": 477600,
            "time": 248.75,
            "velocity": 0.7874015748031497
          },
          {
            "duration": 0.0625,
            "durationTicks": 120,
            "midi": 86,
            "name": "D6",
            "ticks": 477840,
            "time": 248.875,
            "velocity": 0.7874015748031497
          },
          {
            "duration": 0.0625,
            "durationTicks": 120,
            "midi": 88,
            "name": "E6",
            "ticks": 478080,
            "time": 249,
            "velocity": 0.7874015748031497
          },
          {
            "duration": 0.0625,
            "durationTicks": 120,
            "midi": 81,
            "name": "A5",
            "ticks": 478320,
            "time": 249.125,
            "velocity": 0.7874015748031497
          },
          {
            "duration": 0.0625,
            "durationTicks": 120,
            "midi": 89,
            "name": "F6",
            "ticks": 478560,
            "time": 249.25,
            "velocity": 0.7874015748031497
          },
          {
            "duration": 0.0625,
            "durationTicks": 120,
            "midi": 88,
            "name": "E6",
            "ticks": 478800,
            "time": 249.375,
            "velocity": 0.7874015748031497
          },
          {
            "duration": 0.0625,
            "durationTicks": 120,
            "midi": 81,
            "name": "A5",
            "ticks": 479040,
            "time": 249.5,
            "velocity": 0.7874015748031497
          },
          {
            "duration": 0.0625,
            "durationTicks": 120,
            "midi": 88,
            "name": "E6",
            "ticks": 479280,
            "time": 249.625,
            "velocity": 0.7874015748031497
          },
          {
            "duration": 0.0625,
            "durationTicks": 120,
            "midi": 81,
            "name": "A5",
            "ticks": 479520,
            "time": 249.75,
            "velocity": 0.7874015748031497
          },
          {
            "duration": 0.0625,
            "durationTicks": 120,
            "midi": 86,
            "name": "D6",
            "ticks": 479760,
            "time": 249.875,
            "velocity": 0.7874015748031497
          },
          {
            "duration": 0.0625,
            "durationTicks": 120,
            "midi": 88,
            "name": "E6",
            "ticks": 480000,
            "time": 250,
            "velocity": 0.7874015748031497
          },
          {
            "duration": 0.0625,
            "durationTicks": 120,
            "midi": 81,
            "name": "A5",
            "ticks": 480240,
            "time": 250.125,
            "velocity": 0.7874015748031497
          },
          {
            "duration": 0.0625,
            "durationTicks": 120,
            "midi": 89,
            "name": "F6",
            "ticks": 480480,
            "time": 250.25,
            "velocity": 0.7874015748031497
          },
          {
            "duration": 0.0625,
            "durationTicks": 120,
            "midi": 88,
            "name": "E6",
            "ticks": 480720,
            "time": 250.375,
            "velocity": 0.7874015748031497
          },
          {
            "duration": 0.0625,
            "durationTicks": 120,
            "midi": 81,
            "name": "A5",
            "ticks": 480960,
            "time": 250.5,
            "velocity": 0.7874015748031497
          },
          {
            "duration": 0.0625,
            "durationTicks": 120,
            "midi": 88,
            "name": "E6",
            "ticks": 481200,
            "time": 250.625,
            "velocity": 0.7874015748031497
          },
          {
            "duration": 0.0625,
            "durationTicks": 120,
            "midi": 81,
            "name": "A5",
            "ticks": 481440,
            "time": 250.75,
            "velocity": 0.7874015748031497
          },
          {
            "duration": 0.0625,
            "durationTicks": 120,
            "midi": 86,
            "name": "D6",
            "ticks": 481680,
            "time": 250.875,
            "velocity": 0.7874015748031497
          },
          {
            "duration": 0.0625,
            "durationTicks": 120,
            "midi": 88,
            "name": "E6",
            "ticks": 481920,
            "time": 251,
            "velocity": 0.7874015748031497
          },
          {
            "duration": 0.0625,
            "durationTicks": 120,
            "midi": 81,
            "name": "A5",
            "ticks": 482160,
            "time": 251.125,
            "velocity": 0.7874015748031497
          },
          {
            "duration": 0.0625,
            "durationTicks": 120,
            "midi": 89,
            "name": "F6",
            "ticks": 482400,
            "time": 251.25,
            "velocity": 0.7874015748031497
          },
          {
            "duration": 0.0625,
            "durationTicks": 120,
            "midi": 88,
            "name": "E6",
            "ticks": 482640,
            "time": 251.375,
            "velocity": 0.7874015748031497
          },
          {
            "duration": 0.0625,
            "durationTicks": 120,
            "midi": 81,
            "name": "A5",
            "ticks": 482880,
            "time": 251.5,
            "velocity": 0.7874015748031497
          },
          {
            "duration": 0.0625,
            "durationTicks": 120,
            "midi": 88,
            "name": "E6",
            "ticks": 483120,
            "time": 251.625,
            "velocity": 0.7874015748031497
          },
          {
            "duration": 0.0625,
            "durationTicks": 120,
            "midi": 81,
            "name": "A5",
            "ticks": 483360,
            "time": 251.75,
            "velocity": 0.7874015748031497
          },
          {
            "duration": 0.0625,
            "durationTicks": 120,
            "midi": 86,
            "name": "D6",
            "ticks": 483600,
            "time": 251.875,
            "velocity": 0.7874015748031497
          },
          {
            "duration": 0.0625,
            "durationTicks": 120,
            "midi": 88,
            "name": "E6",
            "ticks": 483840,
            "time": 252,
            "velocity": 0.7874015748031497
          },
          {
            "duration": 0.0625,
            "durationTicks": 120,
            "midi": 81,
            "name": "A5",
            "ticks": 484080,
            "time": 252.125,
            "velocity": 0.7874015748031497
          },
          {
            "duration": 0.0625,
            "durationTicks": 120,
            "midi": 89,
            "name": "F6",
            "ticks": 484320,
            "time": 252.25,
            "velocity": 0.7874015748031497
          },
          {
            "duration": 0.0625,
            "durationTicks": 120,
            "midi": 88,
            "name": "E6",
            "ticks": 484560,
            "time": 252.375,
            "velocity": 0.7874015748031497
          },
          {
            "duration": 0.0625,
            "durationTicks": 120,
            "midi": 81,
            "name": "A5",
            "ticks": 484800,
            "time": 252.5,
            "velocity": 0.7874015748031497
          },
          {
            "duration": 0.0625,
            "durationTicks": 120,
            "midi": 88,
            "name": "E6",
            "ticks": 485040,
            "time": 252.625,
            "velocity": 0.7874015748031497
          },
          {
            "duration": 0.0625,
            "durationTicks": 120,
            "midi": 81,
            "name": "A5",
            "ticks": 485280,
            "time": 252.75,
            "velocity": 0.7874015748031497
          },
          {
            "duration": 0.0625,
            "durationTicks": 120,
            "midi": 86,
            "name": "D6",
            "ticks": 485520,
            "time": 252.875,
            "velocity": 0.7874015748031497
          },
          {
            "duration": 0.0625,
            "durationTicks": 120,
            "midi": 88,
            "name": "E6",
            "ticks": 485760,
            "time": 253,
            "velocity": 0.7874015748031497
          },
          {
            "duration": 0.0625,
            "durationTicks": 120,
            "midi": 81,
            "name": "A5",
            "ticks": 486000,
            "time": 253.125,
            "velocity": 0.7874015748031497
          },
          {
            "duration": 0.0625,
            "durationTicks": 120,
            "midi": 89,
            "name": "F6",
            "ticks": 486240,
            "time": 253.25,
            "velocity": 0.7874015748031497
          },
          {
            "duration": 0.0625,
            "durationTicks": 120,
            "midi": 88,
            "name": "E6",
            "ticks": 486480,
            "time": 253.375,
            "velocity": 0.7874015748031497
          },
          {
            "duration": 0.0625,
            "durationTicks": 120,
            "midi": 81,
            "name": "A5",
            "ticks": 486720,
            "time": 253.5,
            "velocity": 0.7874015748031497
          },
          {
            "duration": 0.0625,
            "durationTicks": 120,
            "midi": 88,
            "name": "E6",
            "ticks": 486960,
            "time": 253.625,
            "velocity": 0.7874015748031497
          },
          {
            "duration": 0.0625,
            "durationTicks": 120,
            "midi": 81,
            "name": "A5",
            "ticks": 487200,
            "time": 253.75,
            "velocity": 0.7874015748031497
          },
          {
            "duration": 0.0625,
            "durationTicks": 120,
            "midi": 86,
            "name": "D6",
            "ticks": 487440,
            "time": 253.875,
            "velocity": 0.7874015748031497
          },
          {
            "duration": 0.0625,
            "durationTicks": 120,
            "midi": 88,
            "name": "E6",
            "ticks": 487680,
            "time": 254,
            "velocity": 0.7874015748031497
          },
          {
            "duration": 0.0625,
            "durationTicks": 120,
            "midi": 81,
            "name": "A5",
            "ticks": 487920,
            "time": 254.125,
            "velocity": 0.7874015748031497
          },
          {
            "duration": 0.0625,
            "durationTicks": 120,
            "midi": 89,
            "name": "F6",
            "ticks": 488160,
            "time": 254.25,
            "velocity": 0.7874015748031497
          },
          {
            "duration": 0.0625,
            "durationTicks": 120,
            "midi": 88,
            "name": "E6",
            "ticks": 488400,
            "time": 254.375,
            "velocity": 0.7874015748031497
          },
          {
            "duration": 0.0625,
            "durationTicks": 120,
            "midi": 81,
            "name": "A5",
            "ticks": 488640,
            "time": 254.5,
            "velocity": 0.7874015748031497
          },
          {
            "duration": 0.0625,
            "durationTicks": 120,
            "midi": 88,
            "name": "E6",
            "ticks": 488880,
            "time": 254.625,
            "velocity": 0.7874015748031497
          },
          {
            "duration": 0.0625,
            "durationTicks": 120,
            "midi": 81,
            "name": "A5",
            "ticks": 489120,
            "time": 254.75,
            "velocity": 0.7874015748031497
          },
          {
            "duration": 0.0625,
            "durationTicks": 120,
            "midi": 86,
            "name": "D6",
            "ticks": 489360,
            "time": 254.875,
            "velocity": 0.7874015748031497
          },
          {
            "duration": 0.0625,
            "durationTicks": 120,
            "midi": 88,
            "name": "E6",
            "ticks": 489600,
            "time": 255,
            "velocity": 0.7874015748031497
          },
          {
            "duration": 0.0625,
            "durationTicks": 120,
            "midi": 81,
            "name": "A5",
            "ticks": 489840,
            "time": 255.125,
            "velocity": 0.7874015748031497
          },
          {
            "duration": 0.0625,
            "durationTicks": 120,
            "midi": 89,
            "name": "F6",
            "ticks": 490080,
            "time": 255.25,
            "velocity": 0.7874015748031497
          },
          {
            "duration": 0.0625,
            "durationTicks": 120,
            "midi": 88,
            "name": "E6",
            "ticks": 490320,
            "time": 255.375,
            "velocity": 0.7874015748031497
          },
          {
            "duration": 0.0625,
            "durationTicks": 120,
            "midi": 81,
            "name": "A5",
            "ticks": 490560,
            "time": 255.5,
            "velocity": 0.7874015748031497
          },
          {
            "duration": 0.0625,
            "durationTicks": 120,
            "midi": 88,
            "name": "E6",
            "ticks": 490800,
            "time": 255.625,
            "velocity": 0.7874015748031497
          },
          {
            "duration": 0.0625,
            "durationTicks": 120,
            "midi": 81,
            "name": "A5",
            "ticks": 491040,
            "time": 255.75,
            "velocity": 0.7874015748031497
          },
          {
            "duration": 0.0625,
            "durationTicks": 120,
            "midi": 86,
            "name": "D6",
            "ticks": 491280,
            "time": 255.875,
            "velocity": 0.7874015748031497
          },
          {
            "duration": 0.0625,
            "durationTicks": 120,
            "midi": 88,
            "name": "E6",
            "ticks": 491520,
            "time": 256,
            "velocity": 0.7874015748031497
          },
          {
            "duration": 0.0625,
            "durationTicks": 120,
            "midi": 81,
            "name": "A5",
            "ticks": 491760,
            "time": 256.125,
            "velocity": 0.7874015748031497
          },
          {
            "duration": 0.0625,
            "durationTicks": 120,
            "midi": 89,
            "name": "F6",
            "ticks": 492000,
            "time": 256.25,
            "velocity": 0.7874015748031497
          },
          {
            "duration": 0.0625,
            "durationTicks": 120,
            "midi": 88,
            "name": "E6",
            "ticks": 492240,
            "time": 256.375,
            "velocity": 0.7874015748031497
          },
          {
            "duration": 0.0625,
            "durationTicks": 120,
            "midi": 81,
            "name": "A5",
            "ticks": 492480,
            "time": 256.5,
            "velocity": 0.7874015748031497
          },
          {
            "duration": 0.0625,
            "durationTicks": 120,
            "midi": 88,
            "name": "E6",
            "ticks": 492720,
            "time": 256.625,
            "velocity": 0.7874015748031497
          },
          {
            "duration": 0.0625,
            "durationTicks": 120,
            "midi": 81,
            "name": "A5",
            "ticks": 492960,
            "time": 256.75,
            "velocity": 0.7874015748031497
          },
          {
            "duration": 0.0625,
            "durationTicks": 120,
            "midi": 86,
            "name": "D6",
            "ticks": 493200,
            "time": 256.875,
            "velocity": 0.7874015748031497
          },
          {
            "duration": 0.0625,
            "durationTicks": 120,
            "midi": 88,
            "name": "E6",
            "ticks": 493440,
            "time": 257,
            "velocity": 0.7874015748031497
          },
          {
            "duration": 0.0625,
            "durationTicks": 120,
            "midi": 81,
            "name": "A5",
            "ticks": 493680,
            "time": 257.125,
            "velocity": 0.7874015748031497
          },
          {
            "duration": 0.0625,
            "durationTicks": 120,
            "midi": 89,
            "name": "F6",
            "ticks": 493920,
            "time": 257.25,
            "velocity": 0.7874015748031497
          },
          {
            "duration": 0.0625,
            "durationTicks": 120,
            "midi": 88,
            "name": "E6",
            "ticks": 494160,
            "time": 257.375,
            "velocity": 0.7874015748031497
          },
          {
            "duration": 0.0625,
            "durationTicks": 120,
            "midi": 81,
            "name": "A5",
            "ticks": 494400,
            "time": 257.5,
            "velocity": 0.7874015748031497
          },
          {
            "duration": 0.0625,
            "durationTicks": 120,
            "midi": 88,
            "name": "E6",
            "ticks": 494640,
            "time": 257.625,
            "velocity": 0.7874015748031497
          },
          {
            "duration": 0.0625,
            "durationTicks": 120,
            "midi": 81,
            "name": "A5",
            "ticks": 494880,
            "time": 257.75,
            "velocity": 0.7874015748031497
          },
          {
            "duration": 0.0625,
            "durationTicks": 120,
            "midi": 86,
            "name": "D6",
            "ticks": 495120,
            "time": 257.875,
            "velocity": 0.7874015748031497
          },
          {
            "duration": 0.0625,
            "durationTicks": 120,
            "midi": 88,
            "name": "E6",
            "ticks": 495360,
            "time": 258,
            "velocity": 0.7874015748031497
          },
          {
            "duration": 0.0625,
            "durationTicks": 120,
            "midi": 81,
            "name": "A5",
            "ticks": 495600,
            "time": 258.125,
            "velocity": 0.7874015748031497
          },
          {
            "duration": 0.0625,
            "durationTicks": 120,
            "midi": 89,
            "name": "F6",
            "ticks": 495840,
            "time": 258.25,
            "velocity": 0.7874015748031497
          },
          {
            "duration": 0.0625,
            "durationTicks": 120,
            "midi": 88,
            "name": "E6",
            "ticks": 496080,
            "time": 258.375,
            "velocity": 0.7874015748031497
          },
          {
            "duration": 0.0625,
            "durationTicks": 120,
            "midi": 81,
            "name": "A5",
            "ticks": 496320,
            "time": 258.5,
            "velocity": 0.7874015748031497
          },
          {
            "duration": 0.0625,
            "durationTicks": 120,
            "midi": 88,
            "name": "E6",
            "ticks": 496560,
            "time": 258.625,
            "velocity": 0.7874015748031497
          },
          {
            "duration": 0.0625,
            "durationTicks": 120,
            "midi": 81,
            "name": "A5",
            "ticks": 496800,
            "time": 258.75,
            "velocity": 0.7874015748031497
          },
          {
            "duration": 0.0625,
            "durationTicks": 120,
            "midi": 86,
            "name": "D6",
            "ticks": 497040,
            "time": 258.875,
            "velocity": 0.7874015748031497
          },
          {
            "duration": 0.0625,
            "durationTicks": 120,
            "midi": 88,
            "name": "E6",
            "ticks": 497280,
            "time": 259,
            "velocity": 0.7874015748031497
          },
          {
            "duration": 0.0625,
            "durationTicks": 120,
            "midi": 81,
            "name": "A5",
            "ticks": 497520,
            "time": 259.125,
            "velocity": 0.7874015748031497
          },
          {
            "duration": 0.0625,
            "durationTicks": 120,
            "midi": 89,
            "name": "F6",
            "ticks": 497760,
            "time": 259.25,
            "velocity": 0.7874015748031497
          },
          {
            "duration": 0.0625,
            "durationTicks": 120,
            "midi": 88,
            "name": "E6",
            "ticks": 498000,
            "time": 259.375,
            "velocity": 0.7874015748031497
          },
          {
            "duration": 0.0625,
            "durationTicks": 120,
            "midi": 81,
            "name": "A5",
            "ticks": 498240,
            "time": 259.5,
            "velocity": 0.7874015748031497
          },
          {
            "duration": 0.0625,
            "durationTicks": 120,
            "midi": 88,
            "name": "E6",
            "ticks": 498480,
            "time": 259.625,
            "velocity": 0.7874015748031497
          },
          {
            "duration": 0.0625,
            "durationTicks": 120,
            "midi": 81,
            "name": "A5",
            "ticks": 498720,
            "time": 259.75,
            "velocity": 0.7874015748031497
          },
          {
            "duration": 0.0625,
            "durationTicks": 120,
            "midi": 86,
            "name": "D6",
            "ticks": 498960,
            "time": 259.875,
            "velocity": 0.7874015748031497
          },
          {
            "duration": 0.0625,
            "durationTicks": 120,
            "midi": 88,
            "name": "E6",
            "ticks": 499200,
            "time": 260,
            "velocity": 0.7874015748031497
          },
          {
            "duration": 0.0625,
            "durationTicks": 120,
            "midi": 81,
            "name": "A5",
            "ticks": 499440,
            "time": 260.125,
            "velocity": 0.7874015748031497
          },
          {
            "duration": 0.0625,
            "durationTicks": 120,
            "midi": 89,
            "name": "F6",
            "ticks": 499680,
            "time": 260.25,
            "velocity": 0.7874015748031497
          },
          {
            "duration": 0.0625,
            "durationTicks": 120,
            "midi": 88,
            "name": "E6",
            "ticks": 499920,
            "time": 260.375,
            "velocity": 0.7874015748031497
          },
          {
            "duration": 0.0625,
            "durationTicks": 120,
            "midi": 81,
            "name": "A5",
            "ticks": 500160,
            "time": 260.5,
            "velocity": 0.7874015748031497
          },
          {
            "duration": 0.0625,
            "durationTicks": 120,
            "midi": 88,
            "name": "E6",
            "ticks": 500400,
            "time": 260.625,
            "velocity": 0.7874015748031497
          },
          {
            "duration": 0.0625,
            "durationTicks": 120,
            "midi": 81,
            "name": "A5",
            "ticks": 500640,
            "time": 260.75,
            "velocity": 0.7874015748031497
          },
          {
            "duration": 0.0625,
            "durationTicks": 120,
            "midi": 86,
            "name": "D6",
            "ticks": 500880,
            "time": 260.875,
            "velocity": 0.7874015748031497
          },
          {
            "duration": 0.0625,
            "durationTicks": 120,
            "midi": 88,
            "name": "E6",
            "ticks": 501120,
            "time": 261,
            "velocity": 0.7874015748031497
          },
          {
            "duration": 0.0625,
            "durationTicks": 120,
            "midi": 81,
            "name": "A5",
            "ticks": 501360,
            "time": 261.125,
            "velocity": 0.7874015748031497
          },
          {
            "duration": 0.0625,
            "durationTicks": 120,
            "midi": 89,
            "name": "F6",
            "ticks": 501600,
            "time": 261.25,
            "velocity": 0.7874015748031497
          },
          {
            "duration": 0.0625,
            "durationTicks": 120,
            "midi": 88,
            "name": "E6",
            "ticks": 501840,
            "time": 261.375,
            "velocity": 0.7874015748031497
          },
          {
            "duration": 0.0625,
            "durationTicks": 120,
            "midi": 81,
            "name": "A5",
            "ticks": 502080,
            "time": 261.5,
            "velocity": 0.7874015748031497
          },
          {
            "duration": 0.0625,
            "durationTicks": 120,
            "midi": 88,
            "name": "E6",
            "ticks": 502320,
            "time": 261.625,
            "velocity": 0.7874015748031497
          },
          {
            "duration": 0.0625,
            "durationTicks": 120,
            "midi": 81,
            "name": "A5",
            "ticks": 502560,
            "time": 261.75,
            "velocity": 0.7874015748031497
          },
          {
            "duration": 0.0625,
            "durationTicks": 120,
            "midi": 86,
            "name": "D6",
            "ticks": 502800,
            "time": 261.875,
            "velocity": 0.7874015748031497
          },
          {
            "duration": 0.0625,
            "durationTicks": 120,
            "midi": 88,
            "name": "E6",
            "ticks": 503040,
            "time": 262,
            "velocity": 0.7874015748031497
          },
          {
            "duration": 0.0625,
            "durationTicks": 120,
            "midi": 81,
            "name": "A5",
            "ticks": 503280,
            "time": 262.125,
            "velocity": 0.7874015748031497
          },
          {
            "duration": 0.0625,
            "durationTicks": 120,
            "midi": 89,
            "name": "F6",
            "ticks": 503520,
            "time": 262.25,
            "velocity": 0.7874015748031497
          },
          {
            "duration": 0.0625,
            "durationTicks": 120,
            "midi": 88,
            "name": "E6",
            "ticks": 503760,
            "time": 262.375,
            "velocity": 0.7874015748031497
          },
          {
            "duration": 0.0625,
            "durationTicks": 120,
            "midi": 81,
            "name": "A5",
            "ticks": 504000,
            "time": 262.5,
            "velocity": 0.7874015748031497
          },
          {
            "duration": 0.0625,
            "durationTicks": 120,
            "midi": 88,
            "name": "E6",
            "ticks": 504240,
            "time": 262.625,
            "velocity": 0.7874015748031497
          },
          {
            "duration": 0.0625,
            "durationTicks": 120,
            "midi": 81,
            "name": "A5",
            "ticks": 504480,
            "time": 262.75,
            "velocity": 0.7874015748031497
          },
          {
            "duration": 0.0625,
            "durationTicks": 120,
            "midi": 86,
            "name": "D6",
            "ticks": 504720,
            "time": 262.875,
            "velocity": 0.7874015748031497
          },
          {
            "duration": 0.0625,
            "durationTicks": 120,
            "midi": 88,
            "name": "E6",
            "ticks": 504960,
            "time": 263,
            "velocity": 0.7874015748031497
          },
          {
            "duration": 0.0625,
            "durationTicks": 120,
            "midi": 81,
            "name": "A5",
            "ticks": 505200,
            "time": 263.125,
            "velocity": 0.7874015748031497
          },
          {
            "duration": 0.0625,
            "durationTicks": 120,
            "midi": 89,
            "name": "F6",
            "ticks": 505440,
            "time": 263.25,
            "velocity": 0.7874015748031497
          },
          {
            "duration": 0.0625,
            "durationTicks": 120,
            "midi": 88,
            "name": "E6",
            "ticks": 505680,
            "time": 263.375,
            "velocity": 0.7874015748031497
          },
          {
            "duration": 0.0625,
            "durationTicks": 120,
            "midi": 81,
            "name": "A5",
            "ticks": 505920,
            "time": 263.5,
            "velocity": 0.7874015748031497
          },
          {
            "duration": 0.0625,
            "durationTicks": 120,
            "midi": 88,
            "name": "E6",
            "ticks": 506160,
            "time": 263.625,
            "velocity": 0.7874015748031497
          },
          {
            "duration": 0.0625,
            "durationTicks": 120,
            "midi": 81,
            "name": "A5",
            "ticks": 506400,
            "time": 263.75,
            "velocity": 0.7874015748031497
          },
          {
            "duration": 0.0625,
            "durationTicks": 120,
            "midi": 86,
            "name": "D6",
            "ticks": 506640,
            "time": 263.875,
            "velocity": 0.7874015748031497
          },
          {
            "duration": 0.0625,
            "durationTicks": 120,
            "midi": 88,
            "name": "E6",
            "ticks": 506880,
            "time": 264,
            "velocity": 0.7874015748031497
          },
          {
            "duration": 0.0625,
            "durationTicks": 120,
            "midi": 81,
            "name": "A5",
            "ticks": 507120,
            "time": 264.125,
            "velocity": 0.7874015748031497
          },
          {
            "duration": 0.0625,
            "durationTicks": 120,
            "midi": 89,
            "name": "F6",
            "ticks": 507360,
            "time": 264.25,
            "velocity": 0.7874015748031497
          },
          {
            "duration": 0.0625,
            "durationTicks": 120,
            "midi": 88,
            "name": "E6",
            "ticks": 507600,
            "time": 264.375,
            "velocity": 0.7874015748031497
          },
          {
            "duration": 0.0625,
            "durationTicks": 120,
            "midi": 81,
            "name": "A5",
            "ticks": 507840,
            "time": 264.5,
            "velocity": 0.7874015748031497
          },
          {
            "duration": 0.0625,
            "durationTicks": 120,
            "midi": 88,
            "name": "E6",
            "ticks": 508080,
            "time": 264.625,
            "velocity": 0.7874015748031497
          },
          {
            "duration": 0.0625,
            "durationTicks": 120,
            "midi": 81,
            "name": "A5",
            "ticks": 508320,
            "time": 264.75,
            "velocity": 0.7874015748031497
          },
          {
            "duration": 0.0625,
            "durationTicks": 120,
            "midi": 86,
            "name": "D6",
            "ticks": 508560,
            "time": 264.875,
            "velocity": 0.7874015748031497
          },
          {
            "duration": 0.0625,
            "durationTicks": 120,
            "midi": 88,
            "name": "E6",
            "ticks": 508800,
            "time": 265,
            "velocity": 0.7874015748031497
          },
          {
            "duration": 0.0625,
            "durationTicks": 120,
            "midi": 81,
            "name": "A5",
            "ticks": 509040,
            "time": 265.125,
            "velocity": 0.7874015748031497
          },
          {
            "duration": 0.0625,
            "durationTicks": 120,
            "midi": 89,
            "name": "F6",
            "ticks": 509280,
            "time": 265.25,
            "velocity": 0.7874015748031497
          },
          {
            "duration": 0.0625,
            "durationTicks": 120,
            "midi": 88,
            "name": "E6",
            "ticks": 509520,
            "time": 265.375,
            "velocity": 0.7874015748031497
          },
          {
            "duration": 0.0625,
            "durationTicks": 120,
            "midi": 81,
            "name": "A5",
            "ticks": 509760,
            "time": 265.5,
            "velocity": 0.7874015748031497
          },
          {
            "duration": 0.0625,
            "durationTicks": 120,
            "midi": 88,
            "name": "E6",
            "ticks": 510000,
            "time": 265.625,
            "velocity": 0.7874015748031497
          },
          {
            "duration": 0.0625,
            "durationTicks": 120,
            "midi": 81,
            "name": "A5",
            "ticks": 510240,
            "time": 265.75,
            "velocity": 0.7874015748031497
          },
          {
            "duration": 0.0625,
            "durationTicks": 120,
            "midi": 86,
            "name": "D6",
            "ticks": 510480,
            "time": 265.875,
            "velocity": 0.7874015748031497
          },
          {
            "duration": 0.0625,
            "durationTicks": 120,
            "midi": 88,
            "name": "E6",
            "ticks": 510720,
            "time": 266,
            "velocity": 0.7874015748031497
          },
          {
            "duration": 0.0625,
            "durationTicks": 120,
            "midi": 81,
            "name": "A5",
            "ticks": 510960,
            "time": 266.125,
            "velocity": 0.7874015748031497
          },
          {
            "duration": 0.0625,
            "durationTicks": 120,
            "midi": 89,
            "name": "F6",
            "ticks": 511200,
            "time": 266.25,
            "velocity": 0.7874015748031497
          },
          {
            "duration": 0.0625,
            "durationTicks": 120,
            "midi": 88,
            "name": "E6",
            "ticks": 511440,
            "time": 266.375,
            "velocity": 0.7874015748031497
          },
          {
            "duration": 0.0625,
            "durationTicks": 120,
            "midi": 81,
            "name": "A5",
            "ticks": 511680,
            "time": 266.5,
            "velocity": 0.7874015748031497
          },
          {
            "duration": 0.0625,
            "durationTicks": 120,
            "midi": 88,
            "name": "E6",
            "ticks": 511920,
            "time": 266.625,
            "velocity": 0.7874015748031497
          },
          {
            "duration": 0.0625,
            "durationTicks": 120,
            "midi": 81,
            "name": "A5",
            "ticks": 512160,
            "time": 266.75,
            "velocity": 0.7874015748031497
          },
          {
            "duration": 0.0625,
            "durationTicks": 120,
            "midi": 86,
            "name": "D6",
            "ticks": 512400,
            "time": 266.875,
            "velocity": 0.7874015748031497
          },
          {
            "duration": 0.0625,
            "durationTicks": 120,
            "midi": 88,
            "name": "E6",
            "ticks": 512640,
            "time": 267,
            "velocity": 0.7874015748031497
          },
          {
            "duration": 0.0625,
            "durationTicks": 120,
            "midi": 81,
            "name": "A5",
            "ticks": 512880,
            "time": 267.125,
            "velocity": 0.7874015748031497
          },
          {
            "duration": 0.0625,
            "durationTicks": 120,
            "midi": 89,
            "name": "F6",
            "ticks": 513120,
            "time": 267.25,
            "velocity": 0.7874015748031497
          },
          {
            "duration": 0.0625,
            "durationTicks": 120,
            "midi": 88,
            "name": "E6",
            "ticks": 513360,
            "time": 267.375,
            "velocity": 0.7874015748031497
          },
          {
            "duration": 0.0625,
            "durationTicks": 120,
            "midi": 81,
            "name": "A5",
            "ticks": 513600,
            "time": 267.5,
            "velocity": 0.7874015748031497
          },
          {
            "duration": 0.0625,
            "durationTicks": 120,
            "midi": 88,
            "name": "E6",
            "ticks": 513840,
            "time": 267.625,
            "velocity": 0.7874015748031497
          },
          {
            "duration": 0.0625,
            "durationTicks": 120,
            "midi": 81,
            "name": "A5",
            "ticks": 514080,
            "time": 267.75,
            "velocity": 0.7874015748031497
          },
          {
            "duration": 0.0625,
            "durationTicks": 120,
            "midi": 86,
            "name": "D6",
            "ticks": 514320,
            "time": 267.875,
            "velocity": 0.7874015748031497
          },
          {
            "duration": 0.0625,
            "durationTicks": 120,
            "midi": 88,
            "name": "E6",
            "ticks": 514560,
            "time": 268,
            "velocity": 0.7874015748031497
          },
          {
            "duration": 0.0625,
            "durationTicks": 120,
            "midi": 81,
            "name": "A5",
            "ticks": 514800,
            "time": 268.125,
            "velocity": 0.7874015748031497
          },
          {
            "duration": 0.0625,
            "durationTicks": 120,
            "midi": 89,
            "name": "F6",
            "ticks": 515040,
            "time": 268.25,
            "velocity": 0.7874015748031497
          },
          {
            "duration": 0.0625,
            "durationTicks": 120,
            "midi": 88,
            "name": "E6",
            "ticks": 515280,
            "time": 268.375,
            "velocity": 0.7874015748031497
          },
          {
            "duration": 0.0625,
            "durationTicks": 120,
            "midi": 81,
            "name": "A5",
            "ticks": 515520,
            "time": 268.5,
            "velocity": 0.7874015748031497
          },
          {
            "duration": 0.0625,
            "durationTicks": 120,
            "midi": 88,
            "name": "E6",
            "ticks": 515760,
            "time": 268.625,
            "velocity": 0.7874015748031497
          },
          {
            "duration": 0.0625,
            "durationTicks": 120,
            "midi": 81,
            "name": "A5",
            "ticks": 516000,
            "time": 268.75,
            "velocity": 0.7874015748031497
          },
          {
            "duration": 0.0625,
            "durationTicks": 120,
            "midi": 86,
            "name": "D6",
            "ticks": 516240,
            "time": 268.875,
            "velocity": 0.7874015748031497
          },
          {
            "duration": 0.0625,
            "durationTicks": 120,
            "midi": 88,
            "name": "E6",
            "ticks": 516480,
            "time": 269,
            "velocity": 0.7874015748031497
          },
          {
            "duration": 0.0625,
            "durationTicks": 120,
            "midi": 81,
            "name": "A5",
            "ticks": 516720,
            "time": 269.125,
            "velocity": 0.7874015748031497
          },
          {
            "duration": 0.0625,
            "durationTicks": 120,
            "midi": 89,
            "name": "F6",
            "ticks": 516960,
            "time": 269.25,
            "velocity": 0.7874015748031497
          },
          {
            "duration": 0.0625,
            "durationTicks": 120,
            "midi": 88,
            "name": "E6",
            "ticks": 517200,
            "time": 269.375,
            "velocity": 0.7874015748031497
          },
          {
            "duration": 0.0625,
            "durationTicks": 120,
            "midi": 81,
            "name": "A5",
            "ticks": 517440,
            "time": 269.5,
            "velocity": 0.7874015748031497
          },
          {
            "duration": 0.0625,
            "durationTicks": 120,
            "midi": 88,
            "name": "E6",
            "ticks": 517680,
            "time": 269.625,
            "velocity": 0.7874015748031497
          },
          {
            "duration": 0.0625,
            "durationTicks": 120,
            "midi": 81,
            "name": "A5",
            "ticks": 517920,
            "time": 269.75,
            "velocity": 0.7874015748031497
          },
          {
            "duration": 0.0625,
            "durationTicks": 120,
            "midi": 86,
            "name": "D6",
            "ticks": 518160,
            "time": 269.875,
            "velocity": 0.7874015748031497
          },
          {
            "duration": 0.0625,
            "durationTicks": 120,
            "midi": 88,
            "name": "E6",
            "ticks": 518400,
            "time": 270,
            "velocity": 0.7874015748031497
          },
          {
            "duration": 0.0625,
            "durationTicks": 120,
            "midi": 81,
            "name": "A5",
            "ticks": 518640,
            "time": 270.125,
            "velocity": 0.7874015748031497
          },
          {
            "duration": 0.0625,
            "durationTicks": 120,
            "midi": 89,
            "name": "F6",
            "ticks": 518880,
            "time": 270.25,
            "velocity": 0.7874015748031497
          },
          {
            "duration": 0.0625,
            "durationTicks": 120,
            "midi": 88,
            "name": "E6",
            "ticks": 519120,
            "time": 270.375,
            "velocity": 0.7874015748031497
          },
          {
            "duration": 0.0625,
            "durationTicks": 120,
            "midi": 81,
            "name": "A5",
            "ticks": 519360,
            "time": 270.5,
            "velocity": 0.7874015748031497
          },
          {
            "duration": 0.0625,
            "durationTicks": 120,
            "midi": 88,
            "name": "E6",
            "ticks": 519600,
            "time": 270.625,
            "velocity": 0.7874015748031497
          },
          {
            "duration": 0.0625,
            "durationTicks": 120,
            "midi": 81,
            "name": "A5",
            "ticks": 519840,
            "time": 270.75,
            "velocity": 0.7874015748031497
          },
          {
            "duration": 0.0625,
            "durationTicks": 120,
            "midi": 86,
            "name": "D6",
            "ticks": 520080,
            "time": 270.875,
            "velocity": 0.7874015748031497
          },
          {
            "duration": 0.0625,
            "durationTicks": 120,
            "midi": 88,
            "name": "E6",
            "ticks": 520320,
            "time": 271,
            "velocity": 0.7874015748031497
          },
          {
            "duration": 0.0625,
            "durationTicks": 120,
            "midi": 81,
            "name": "A5",
            "ticks": 520560,
            "time": 271.125,
            "velocity": 0.7874015748031497
          },
          {
            "duration": 0.0625,
            "durationTicks": 120,
            "midi": 89,
            "name": "F6",
            "ticks": 520800,
            "time": 271.25,
            "velocity": 0.7874015748031497
          },
          {
            "duration": 0.0625,
            "durationTicks": 120,
            "midi": 88,
            "name": "E6",
            "ticks": 521040,
            "time": 271.375,
            "velocity": 0.7874015748031497
          },
          {
            "duration": 0.0625,
            "durationTicks": 120,
            "midi": 81,
            "name": "A5",
            "ticks": 521280,
            "time": 271.5,
            "velocity": 0.7874015748031497
          },
          {
            "duration": 0.0625,
            "durationTicks": 120,
            "midi": 88,
            "name": "E6",
            "ticks": 521520,
            "time": 271.625,
            "velocity": 0.7874015748031497
          },
          {
            "duration": 0.0625,
            "durationTicks": 120,
            "midi": 81,
            "name": "A5",
            "ticks": 521760,
            "time": 271.75,
            "velocity": 0.7874015748031497
          },
          {
            "duration": 0.0625,
            "durationTicks": 120,
            "midi": 86,
            "name": "D6",
            "ticks": 522000,
            "time": 271.875,
            "velocity": 0.7874015748031497
          },
          {
            "duration": 0.0625,
            "durationTicks": 120,
            "midi": 88,
            "name": "E6",
            "ticks": 522240,
            "time": 272,
            "velocity": 0.7874015748031497
          },
          {
            "duration": 0.0625,
            "durationTicks": 120,
            "midi": 81,
            "name": "A5",
            "ticks": 522480,
            "time": 272.125,
            "velocity": 0.7874015748031497
          },
          {
            "duration": 0.0625,
            "durationTicks": 120,
            "midi": 89,
            "name": "F6",
            "ticks": 522720,
            "time": 272.25,
            "velocity": 0.7874015748031497
          },
          {
            "duration": 0.0625,
            "durationTicks": 120,
            "midi": 88,
            "name": "E6",
            "ticks": 522960,
            "time": 272.375,
            "velocity": 0.7874015748031497
          },
          {
            "duration": 0.0625,
            "durationTicks": 120,
            "midi": 81,
            "name": "A5",
            "ticks": 523200,
            "time": 272.5,
            "velocity": 0.7874015748031497
          },
          {
            "duration": 0.0625,
            "durationTicks": 120,
            "midi": 88,
            "name": "E6",
            "ticks": 523440,
            "time": 272.625,
            "velocity": 0.7874015748031497
          },
          {
            "duration": 0.0625,
            "durationTicks": 120,
            "midi": 81,
            "name": "A5",
            "ticks": 523680,
            "time": 272.75,
            "velocity": 0.7874015748031497
          },
          {
            "duration": 0.0625,
            "durationTicks": 120,
            "midi": 86,
            "name": "D6",
            "ticks": 523920,
            "time": 272.875,
            "velocity": 0.7874015748031497
          },
          {
            "duration": 0.0625,
            "durationTicks": 120,
            "midi": 88,
            "name": "E6",
            "ticks": 524160,
            "time": 273,
            "velocity": 0.7874015748031497
          },
          {
            "duration": 0.0625,
            "durationTicks": 120,
            "midi": 81,
            "name": "A5",
            "ticks": 524400,
            "time": 273.125,
            "velocity": 0.7874015748031497
          }
        ],
        "endOfTrackTicks": 524520
      },
      {
        "channel": 9,
        "controlChanges": {},
        "pitchBends": [],
        "instrument": {
          "family": "drums",
          "number": 0,
          "name": "standard kit"
        },
        "name": "Noise - MIDI\u0000",
        "notes": [
          {
            "duration": 0.0625,
            "durationTicks": 120,
            "midi": 60,
            "name": "C4",
            "ticks": 5280,
            "time": 2.75,
            "velocity": 0.7874015748031497
          },
          {
            "duration": 0.0625,
            "durationTicks": 120,
            "midi": 60,
            "name": "C4",
            "ticks": 5520,
            "time": 2.875,
            "velocity": 0.5905511811023622
          },
          {
            "duration": 0.0625,
            "durationTicks": 120,
            "midi": 60,
            "name": "C4",
            "ticks": 5760,
            "time": 3,
            "velocity": 0.7874015748031497
          },
          {
            "duration": 0.0625,
            "durationTicks": 120,
            "midi": 60,
            "name": "C4",
            "ticks": 6000,
            "time": 3.125,
            "velocity": 0.7874015748031497
          },
          {
            "duration": 0.0625,
            "durationTicks": 120,
            "midi": 60,
            "name": "C4",
            "ticks": 6480,
            "time": 3.375,
            "velocity": 0.7874015748031497
          },
          {
            "duration": 0.0625,
            "durationTicks": 120,
            "midi": 60,
            "name": "C4",
            "ticks": 6720,
            "time": 3.5,
            "velocity": 0.7874015748031497
          },
          {
            "duration": 0.0625,
            "durationTicks": 120,
            "midi": 60,
            "name": "C4",
            "ticks": 7200,
            "time": 3.75,
            "velocity": 0.6299212598425197
          },
          {
            "duration": 0.0625,
            "durationTicks": 120,
            "midi": 60,
            "name": "C4",
            "ticks": 7440,
            "time": 3.875,
            "velocity": 0.47244094488188976
          },
          {
            "duration": 0.0625,
            "durationTicks": 120,
            "midi": 60,
            "name": "C4",
            "ticks": 12960,
            "time": 6.75,
            "velocity": 0.7874015748031497
          },
          {
            "duration": 0.0625,
            "durationTicks": 120,
            "midi": 60,
            "name": "C4",
            "ticks": 13200,
            "time": 6.875,
            "velocity": 0.5905511811023622
          },
          {
            "duration": 0.0625,
            "durationTicks": 120,
            "midi": 60,
            "name": "C4",
            "ticks": 13440,
            "time": 7,
            "velocity": 0.7874015748031497
          },
          {
            "duration": 0.0625,
            "durationTicks": 120,
            "midi": 60,
            "name": "C4",
            "ticks": 13680,
            "time": 7.125,
            "velocity": 0.7874015748031497
          },
          {
            "duration": 0.0625,
            "durationTicks": 120,
            "midi": 60,
            "name": "C4",
            "ticks": 13920,
            "time": 7.25,
            "velocity": 0.7874015748031497
          },
          {
            "duration": 0.0625,
            "durationTicks": 120,
            "midi": 60,
            "name": "C4",
            "ticks": 14160,
            "time": 7.375,
            "velocity": 0.7874015748031497
          },
          {
            "duration": 0.0625,
            "durationTicks": 120,
            "midi": 72,
            "name": "C5",
            "ticks": 14400,
            "time": 7.5,
            "velocity": 0.7874015748031497
          },
          {
            "duration": 0.0625,
            "durationTicks": 120,
            "midi": 60,
            "name": "C4",
            "ticks": 14880,
            "time": 7.75,
            "velocity": 0.5905511811023622
          },
          {
            "duration": 0.0625,
            "durationTicks": 120,
            "midi": 60,
            "name": "C4",
            "ticks": 15120,
            "time": 7.875,
            "velocity": 0.6299212598425197
          },
          {
            "duration": 0.0625,
            "durationTicks": 120,
            "midi": 60,
            "name": "C4",
            "ticks": 20640,
            "time": 10.75,
            "velocity": 0.7874015748031497
          },
          {
            "duration": 0.0625,
            "durationTicks": 120,
            "midi": 60,
            "name": "C4",
            "ticks": 20880,
            "time": 10.875,
            "velocity": 0.5905511811023622
          },
          {
            "duration": 0.0625,
            "durationTicks": 120,
            "midi": 60,
            "name": "C4",
            "ticks": 21120,
            "time": 11,
            "velocity": 0.7874015748031497
          },
          {
            "duration": 0.0625,
            "durationTicks": 120,
            "midi": 60,
            "name": "C4",
            "ticks": 21360,
            "time": 11.125,
            "velocity": 0.7874015748031497
          },
          {
            "duration": 0.0625,
            "durationTicks": 120,
            "midi": 60,
            "name": "C4",
            "ticks": 21840,
            "time": 11.375,
            "velocity": 0.7874015748031497
          },
          {
            "duration": 0.0625,
            "durationTicks": 120,
            "midi": 60,
            "name": "C4",
            "ticks": 22080,
            "time": 11.5,
            "velocity": 0.7874015748031497
          },
          {
            "duration": 0.0625,
            "durationTicks": 120,
            "midi": 60,
            "name": "C4",
            "ticks": 22560,
            "time": 11.75,
            "velocity": 0.6299212598425197
          },
          {
            "duration": 0.0625,
            "durationTicks": 120,
            "midi": 60,
            "name": "C4",
            "ticks": 22800,
            "time": 11.875,
            "velocity": 0.47244094488188976
          },
          {
            "duration": 0.0625,
            "durationTicks": 120,
            "midi": 60,
            "name": "C4",
            "ticks": 28320,
            "time": 14.75,
            "velocity": 0.7874015748031497
          },
          {
            "duration": 0.0625,
            "durationTicks": 120,
            "midi": 60,
            "name": "C4",
            "ticks": 28560,
            "time": 14.875,
            "velocity": 0.5905511811023622
          },
          {
            "duration": 0.0625,
            "durationTicks": 120,
            "midi": 60,
            "name": "C4",
            "ticks": 28800,
            "time": 15,
            "velocity": 0.7874015748031497
          },
          {
            "duration": 0.0625,
            "durationTicks": 120,
            "midi": 60,
            "name": "C4",
            "ticks": 29040,
            "time": 15.125,
            "velocity": 0.7874015748031497
          },
          {
            "duration": 0.0625,
            "durationTicks": 120,
            "midi": 60,
            "name": "C4",
            "ticks": 29280,
            "time": 15.25,
            "velocity": 0.7874015748031497
          },
          {
            "duration": 0.0625,
            "durationTicks": 120,
            "midi": 60,
            "name": "C4",
            "ticks": 29520,
            "time": 15.375,
            "velocity": 0.7874015748031497
          },
          {
            "duration": 0.0625,
            "durationTicks": 120,
            "midi": 60,
            "name": "C4",
            "ticks": 30720,
            "time": 16,
            "velocity": 0.7874015748031497
          },
          {
            "duration": 0.0625,
            "durationTicks": 120,
            "midi": 60,
            "name": "C4",
            "ticks": 31200,
            "time": 16.25,
            "velocity": 0.7874015748031497
          },
          {
            "duration": 0.0625,
            "durationTicks": 120,
            "midi": 60,
            "name": "C4",
            "ticks": 31920,
            "time": 16.625,
            "velocity": 0.6299212598425197
          },
          {
            "duration": 0.0625,
            "durationTicks": 120,
            "midi": 60,
            "name": "C4",
            "ticks": 32160,
            "time": 16.75,
            "velocity": 0.7874015748031497
          },
          {
            "duration": 0.0625,
            "durationTicks": 120,
            "midi": 60,
            "name": "C4",
            "ticks": 32400,
            "time": 16.875,
            "velocity": 0.5905511811023622
          },
          {
            "duration": 0.0625,
            "durationTicks": 120,
            "midi": 60,
            "name": "C4",
            "ticks": 32640,
            "time": 17,
            "velocity": 0.7874015748031497
          },
          {
            "duration": 0.0625,
            "durationTicks": 120,
            "midi": 60,
            "name": "C4",
            "ticks": 32880,
            "time": 17.125,
            "velocity": 0.7874015748031497
          },
          {
            "duration": 0.0625,
            "durationTicks": 120,
            "midi": 60,
            "name": "C4",
            "ticks": 33360,
            "time": 17.375,
            "velocity": 0.7874015748031497
          },
          {
            "duration": 0.0625,
            "durationTicks": 120,
            "midi": 60,
            "name": "C4",
            "ticks": 33600,
            "time": 17.5,
            "velocity": 0.7874015748031497
          },
          {
            "duration": 0.0625,
            "durationTicks": 120,
            "midi": 60,
            "name": "C4",
            "ticks": 34080,
            "time": 17.75,
            "velocity": 0.6299212598425197
          },
          {
            "duration": 0.0625,
            "durationTicks": 120,
            "midi": 60,
            "name": "C4",
            "ticks": 34320,
            "time": 17.875,
            "velocity": 0.47244094488188976
          },
          {
            "duration": 0.0625,
            "durationTicks": 120,
            "midi": 60,
            "name": "C4",
            "ticks": 34560,
            "time": 18,
            "velocity": 0.7874015748031497
          },
          {
            "duration": 0.0625,
            "durationTicks": 120,
            "midi": 60,
            "name": "C4",
            "ticks": 35040,
            "time": 18.25,
            "velocity": 0.7874015748031497
          },
          {
            "duration": 0.0625,
            "durationTicks": 120,
            "midi": 60,
            "name": "C4",
            "ticks": 35760,
            "time": 18.625,
            "velocity": 0.6299212598425197
          },
          {
            "duration": 0.0625,
            "durationTicks": 120,
            "midi": 60,
            "name": "C4",
            "ticks": 36000,
            "time": 18.75,
            "velocity": 0.7874015748031497
          },
          {
            "duration": 0.0625,
            "durationTicks": 120,
            "midi": 60,
            "name": "C4",
            "ticks": 36240,
            "time": 18.875,
            "velocity": 0.5905511811023622
          },
          {
            "duration": 0.0625,
            "durationTicks": 120,
            "midi": 60,
            "name": "C4",
            "ticks": 36480,
            "time": 19,
            "velocity": 0.7874015748031497
          },
          {
            "duration": 0.0625,
            "durationTicks": 120,
            "midi": 60,
            "name": "C4",
            "ticks": 36720,
            "time": 19.125,
            "velocity": 0.7874015748031497
          },
          {
            "duration": 0.0625,
            "durationTicks": 120,
            "midi": 60,
            "name": "C4",
            "ticks": 37200,
            "time": 19.375,
            "velocity": 0.7874015748031497
          },
          {
            "duration": 0.0625,
            "durationTicks": 120,
            "midi": 60,
            "name": "C4",
            "ticks": 37440,
            "time": 19.5,
            "velocity": 0.7874015748031497
          },
          {
            "duration": 0.0625,
            "durationTicks": 120,
            "midi": 60,
            "name": "C4",
            "ticks": 37920,
            "time": 19.75,
            "velocity": 0.6299212598425197
          },
          {
            "duration": 0.0625,
            "durationTicks": 120,
            "midi": 60,
            "name": "C4",
            "ticks": 38160,
            "time": 19.875,
            "velocity": 0.47244094488188976
          },
          {
            "duration": 0.0625,
            "durationTicks": 120,
            "midi": 60,
            "name": "C4",
            "ticks": 38400,
            "time": 20,
            "velocity": 0.7874015748031497
          },
          {
            "duration": 0.0625,
            "durationTicks": 120,
            "midi": 60,
            "name": "C4",
            "ticks": 38880,
            "time": 20.25,
            "velocity": 0.7874015748031497
          },
          {
            "duration": 0.0625,
            "durationTicks": 120,
            "midi": 60,
            "name": "C4",
            "ticks": 39600,
            "time": 20.625,
            "velocity": 0.6299212598425197
          },
          {
            "duration": 0.0625,
            "durationTicks": 120,
            "midi": 60,
            "name": "C4",
            "ticks": 39840,
            "time": 20.75,
            "velocity": 0.7874015748031497
          },
          {
            "duration": 0.0625,
            "durationTicks": 120,
            "midi": 60,
            "name": "C4",
            "ticks": 40080,
            "time": 20.875,
            "velocity": 0.5905511811023622
          },
          {
            "duration": 0.0625,
            "durationTicks": 120,
            "midi": 60,
            "name": "C4",
            "ticks": 40320,
            "time": 21,
            "velocity": 0.7874015748031497
          },
          {
            "duration": 0.0625,
            "durationTicks": 120,
            "midi": 60,
            "name": "C4",
            "ticks": 40560,
            "time": 21.125,
            "velocity": 0.7874015748031497
          },
          {
            "duration": 0.0625,
            "durationTicks": 120,
            "midi": 60,
            "name": "C4",
            "ticks": 41040,
            "time": 21.375,
            "velocity": 0.7874015748031497
          },
          {
            "duration": 0.0625,
            "durationTicks": 120,
            "midi": 60,
            "name": "C4",
            "ticks": 41280,
            "time": 21.5,
            "velocity": 0.7874015748031497
          },
          {
            "duration": 0.0625,
            "durationTicks": 120,
            "midi": 60,
            "name": "C4",
            "ticks": 41760,
            "time": 21.75,
            "velocity": 0.6299212598425197
          },
          {
            "duration": 0.0625,
            "durationTicks": 120,
            "midi": 60,
            "name": "C4",
            "ticks": 42000,
            "time": 21.875,
            "velocity": 0.47244094488188976
          },
          {
            "duration": 0.0625,
            "durationTicks": 120,
            "midi": 60,
            "name": "C4",
            "ticks": 42240,
            "time": 22,
            "velocity": 0.7874015748031497
          },
          {
            "duration": 0.0625,
            "durationTicks": 120,
            "midi": 60,
            "name": "C4",
            "ticks": 42720,
            "time": 22.25,
            "velocity": 0.7874015748031497
          },
          {
            "duration": 0.0625,
            "durationTicks": 120,
            "midi": 60,
            "name": "C4",
            "ticks": 43440,
            "time": 22.625,
            "velocity": 0.6299212598425197
          },
          {
            "duration": 0.0625,
            "durationTicks": 120,
            "midi": 60,
            "name": "C4",
            "ticks": 43680,
            "time": 22.75,
            "velocity": 0.7874015748031497
          },
          {
            "duration": 0.0625,
            "durationTicks": 120,
            "midi": 60,
            "name": "C4",
            "ticks": 43920,
            "time": 22.875,
            "velocity": 0.5905511811023622
          },
          {
            "duration": 0.0625,
            "durationTicks": 120,
            "midi": 60,
            "name": "C4",
            "ticks": 44160,
            "time": 23,
            "velocity": 0.7874015748031497
          },
          {
            "duration": 0.0625,
            "durationTicks": 120,
            "midi": 60,
            "name": "C4",
            "ticks": 44400,
            "time": 23.125,
            "velocity": 0.7874015748031497
          },
          {
            "duration": 0.0625,
            "durationTicks": 120,
            "midi": 60,
            "name": "C4",
            "ticks": 44640,
            "time": 23.25,
            "velocity": 0.7874015748031497
          },
          {
            "duration": 0.0625,
            "durationTicks": 120,
            "midi": 60,
            "name": "C4",
            "ticks": 44880,
            "time": 23.375,
            "velocity": 0.7874015748031497
          },
          {
            "duration": 0.0625,
            "durationTicks": 120,
            "midi": 72,
            "name": "C5",
            "ticks": 45120,
            "time": 23.5,
            "velocity": 0.7874015748031497
          },
          {
            "duration": 0.0625,
            "durationTicks": 120,
            "midi": 60,
            "name": "C4",
            "ticks": 45600,
            "time": 23.75,
            "velocity": 0.5905511811023622
          },
          {
            "duration": 0.0625,
            "durationTicks": 120,
            "midi": 60,
            "name": "C4",
            "ticks": 45840,
            "time": 23.875,
            "velocity": 0.6299212598425197
          },
          {
            "duration": 0.0625,
            "durationTicks": 120,
            "midi": 60,
            "name": "C4",
            "ticks": 46080,
            "time": 24,
            "velocity": 0.7874015748031497
          },
          {
            "duration": 0.0625,
            "durationTicks": 120,
            "midi": 60,
            "name": "C4",
            "ticks": 46560,
            "time": 24.25,
            "velocity": 0.7874015748031497
          },
          {
            "duration": 0.0625,
            "durationTicks": 120,
            "midi": 60,
            "name": "C4",
            "ticks": 47280,
            "time": 24.625,
            "velocity": 0.6299212598425197
          },
          {
            "duration": 0.0625,
            "durationTicks": 120,
            "midi": 60,
            "name": "C4",
            "ticks": 47520,
            "time": 24.75,
            "velocity": 0.7874015748031497
          },
          {
            "duration": 0.0625,
            "durationTicks": 120,
            "midi": 60,
            "name": "C4",
            "ticks": 47760,
            "time": 24.875,
            "velocity": 0.5905511811023622
          },
          {
            "duration": 0.0625,
            "durationTicks": 120,
            "midi": 60,
            "name": "C4",
            "ticks": 48000,
            "time": 25,
            "velocity": 0.7874015748031497
          },
          {
            "duration": 0.0625,
            "durationTicks": 120,
            "midi": 60,
            "name": "C4",
            "ticks": 48240,
            "time": 25.125,
            "velocity": 0.7874015748031497
          },
          {
            "duration": 0.0625,
            "durationTicks": 120,
            "midi": 60,
            "name": "C4",
            "ticks": 48720,
            "time": 25.375,
            "velocity": 0.7874015748031497
          },
          {
            "duration": 0.0625,
            "durationTicks": 120,
            "midi": 60,
            "name": "C4",
            "ticks": 48960,
            "time": 25.5,
            "velocity": 0.7874015748031497
          },
          {
            "duration": 0.0625,
            "durationTicks": 120,
            "midi": 60,
            "name": "C4",
            "ticks": 49440,
            "time": 25.75,
            "velocity": 0.6299212598425197
          },
          {
            "duration": 0.0625,
            "durationTicks": 120,
            "midi": 60,
            "name": "C4",
            "ticks": 49680,
            "time": 25.875,
            "velocity": 0.47244094488188976
          },
          {
            "duration": 0.0625,
            "durationTicks": 120,
            "midi": 60,
            "name": "C4",
            "ticks": 49920,
            "time": 26,
            "velocity": 0.7874015748031497
          },
          {
            "duration": 0.0625,
            "durationTicks": 120,
            "midi": 60,
            "name": "C4",
            "ticks": 50400,
            "time": 26.25,
            "velocity": 0.7874015748031497
          },
          {
            "duration": 0.0625,
            "durationTicks": 120,
            "midi": 60,
            "name": "C4",
            "ticks": 51120,
            "time": 26.625,
            "velocity": 0.6299212598425197
          },
          {
            "duration": 0.0625,
            "durationTicks": 120,
            "midi": 60,
            "name": "C4",
            "ticks": 51360,
            "time": 26.75,
            "velocity": 0.7874015748031497
          },
          {
            "duration": 0.0625,
            "durationTicks": 120,
            "midi": 60,
            "name": "C4",
            "ticks": 51600,
            "time": 26.875,
            "velocity": 0.5905511811023622
          },
          {
            "duration": 0.0625,
            "durationTicks": 120,
            "midi": 60,
            "name": "C4",
            "ticks": 51840,
            "time": 27,
            "velocity": 0.7874015748031497
          },
          {
            "duration": 0.0625,
            "durationTicks": 120,
            "midi": 60,
            "name": "C4",
            "ticks": 52080,
            "time": 27.125,
            "velocity": 0.7874015748031497
          },
          {
            "duration": 0.0625,
            "durationTicks": 120,
            "midi": 60,
            "name": "C4",
            "ticks": 52560,
            "time": 27.375,
            "velocity": 0.7874015748031497
          },
          {
            "duration": 0.0625,
            "durationTicks": 120,
            "midi": 60,
            "name": "C4",
            "ticks": 52800,
            "time": 27.5,
            "velocity": 0.7874015748031497
          },
          {
            "duration": 0.0625,
            "durationTicks": 120,
            "midi": 60,
            "name": "C4",
            "ticks": 53280,
            "time": 27.75,
            "velocity": 0.6299212598425197
          },
          {
            "duration": 0.0625,
            "durationTicks": 120,
            "midi": 60,
            "name": "C4",
            "ticks": 53520,
            "time": 27.875,
            "velocity": 0.47244094488188976
          },
          {
            "duration": 0.0625,
            "durationTicks": 120,
            "midi": 60,
            "name": "C4",
            "ticks": 53760,
            "time": 28,
            "velocity": 0.7874015748031497
          },
          {
            "duration": 0.0625,
            "durationTicks": 120,
            "midi": 60,
            "name": "C4",
            "ticks": 54240,
            "time": 28.25,
            "velocity": 0.7874015748031497
          },
          {
            "duration": 0.0625,
            "durationTicks": 120,
            "midi": 60,
            "name": "C4",
            "ticks": 54960,
            "time": 28.625,
            "velocity": 0.6299212598425197
          },
          {
            "duration": 0.0625,
            "durationTicks": 120,
            "midi": 60,
            "name": "C4",
            "ticks": 55200,
            "time": 28.75,
            "velocity": 0.7874015748031497
          },
          {
            "duration": 0.0625,
            "durationTicks": 120,
            "midi": 60,
            "name": "C4",
            "ticks": 55440,
            "time": 28.875,
            "velocity": 0.5905511811023622
          },
          {
            "duration": 0.0625,
            "durationTicks": 120,
            "midi": 60,
            "name": "C4",
            "ticks": 55680,
            "time": 29,
            "velocity": 0.7874015748031497
          },
          {
            "duration": 0.0625,
            "durationTicks": 120,
            "midi": 60,
            "name": "C4",
            "ticks": 55920,
            "time": 29.125,
            "velocity": 0.7874015748031497
          },
          {
            "duration": 0.0625,
            "durationTicks": 120,
            "midi": 60,
            "name": "C4",
            "ticks": 56400,
            "time": 29.375,
            "velocity": 0.7874015748031497
          },
          {
            "duration": 0.0625,
            "durationTicks": 120,
            "midi": 60,
            "name": "C4",
            "ticks": 56640,
            "time": 29.5,
            "velocity": 0.7874015748031497
          },
          {
            "duration": 0.0625,
            "durationTicks": 120,
            "midi": 60,
            "name": "C4",
            "ticks": 57120,
            "time": 29.75,
            "velocity": 0.6299212598425197
          },
          {
            "duration": 0.0625,
            "durationTicks": 120,
            "midi": 60,
            "name": "C4",
            "ticks": 57360,
            "time": 29.875,
            "velocity": 0.47244094488188976
          },
          {
            "duration": 0.0625,
            "durationTicks": 120,
            "midi": 60,
            "name": "C4",
            "ticks": 57600,
            "time": 30,
            "velocity": 0.7874015748031497
          },
          {
            "duration": 0.0625,
            "durationTicks": 120,
            "midi": 60,
            "name": "C4",
            "ticks": 58080,
            "time": 30.25,
            "velocity": 0.7874015748031497
          },
          {
            "duration": 0.0625,
            "durationTicks": 120,
            "midi": 60,
            "name": "C4",
            "ticks": 58800,
            "time": 30.625,
            "velocity": 0.6299212598425197
          },
          {
            "duration": 0.0625,
            "durationTicks": 120,
            "midi": 60,
            "name": "C4",
            "ticks": 59040,
            "time": 30.75,
            "velocity": 0.7874015748031497
          },
          {
            "duration": 0.0625,
            "durationTicks": 120,
            "midi": 60,
            "name": "C4",
            "ticks": 59280,
            "time": 30.875,
            "velocity": 0.5905511811023622
          },
          {
            "duration": 0.0625,
            "durationTicks": 120,
            "midi": 60,
            "name": "C4",
            "ticks": 59520,
            "time": 31,
            "velocity": 0.7874015748031497
          },
          {
            "duration": 0.0625,
            "durationTicks": 120,
            "midi": 60,
            "name": "C4",
            "ticks": 59760,
            "time": 31.125,
            "velocity": 0.7874015748031497
          },
          {
            "duration": 0.0625,
            "durationTicks": 120,
            "midi": 60,
            "name": "C4",
            "ticks": 60000,
            "time": 31.25,
            "velocity": 0.7874015748031497
          },
          {
            "duration": 0.0625,
            "durationTicks": 120,
            "midi": 60,
            "name": "C4",
            "ticks": 60240,
            "time": 31.375,
            "velocity": 0.7874015748031497
          },
          {
            "duration": 0.0625,
            "durationTicks": 120,
            "midi": 60,
            "name": "C4",
            "ticks": 60480,
            "time": 31.5,
            "velocity": 0.7874015748031497
          },
          {
            "duration": 0.0625,
            "durationTicks": 120,
            "midi": 60,
            "name": "C4",
            "ticks": 60960,
            "time": 31.75,
            "velocity": 0.5905511811023622
          },
          {
            "duration": 0.0625,
            "durationTicks": 120,
            "midi": 60,
            "name": "C4",
            "ticks": 61200,
            "time": 31.875,
            "velocity": 0.6299212598425197
          },
          {
            "duration": 0.0625,
            "durationTicks": 120,
            "midi": 60,
            "name": "C4",
            "ticks": 61440,
            "time": 32,
            "velocity": 0.7874015748031497
          },
          {
            "duration": 0.0625,
            "durationTicks": 120,
            "midi": 60,
            "name": "C4",
            "ticks": 61920,
            "time": 32.25,
            "velocity": 0.7874015748031497
          },
          {
            "duration": 0.0625,
            "durationTicks": 120,
            "midi": 60,
            "name": "C4",
            "ticks": 62640,
            "time": 32.625,
            "velocity": 0.6299212598425197
          },
          {
            "duration": 0.0625,
            "durationTicks": 120,
            "midi": 60,
            "name": "C4",
            "ticks": 62880,
            "time": 32.75,
            "velocity": 0.7874015748031497
          },
          {
            "duration": 0.0625,
            "durationTicks": 120,
            "midi": 60,
            "name": "C4",
            "ticks": 63120,
            "time": 32.875,
            "velocity": 0.5905511811023622
          },
          {
            "duration": 0.0625,
            "durationTicks": 120,
            "midi": 60,
            "name": "C4",
            "ticks": 63360,
            "time": 33,
            "velocity": 0.7874015748031497
          },
          {
            "duration": 0.0625,
            "durationTicks": 120,
            "midi": 60,
            "name": "C4",
            "ticks": 63600,
            "time": 33.125,
            "velocity": 0.7874015748031497
          },
          {
            "duration": 0.0625,
            "durationTicks": 120,
            "midi": 60,
            "name": "C4",
            "ticks": 64080,
            "time": 33.375,
            "velocity": 0.7874015748031497
          },
          {
            "duration": 0.0625,
            "durationTicks": 120,
            "midi": 60,
            "name": "C4",
            "ticks": 64320,
            "time": 33.5,
            "velocity": 0.7874015748031497
          },
          {
            "duration": 0.0625,
            "durationTicks": 120,
            "midi": 60,
            "name": "C4",
            "ticks": 64800,
            "time": 33.75,
            "velocity": 0.6299212598425197
          },
          {
            "duration": 0.0625,
            "durationTicks": 120,
            "midi": 60,
            "name": "C4",
            "ticks": 65040,
            "time": 33.875,
            "velocity": 0.47244094488188976
          },
          {
            "duration": 0.0625,
            "durationTicks": 120,
            "midi": 60,
            "name": "C4",
            "ticks": 65280,
            "time": 34,
            "velocity": 0.7874015748031497
          },
          {
            "duration": 0.0625,
            "durationTicks": 120,
            "midi": 60,
            "name": "C4",
            "ticks": 65760,
            "time": 34.25,
            "velocity": 0.7874015748031497
          },
          {
            "duration": 0.0625,
            "durationTicks": 120,
            "midi": 60,
            "name": "C4",
            "ticks": 66480,
            "time": 34.625,
            "velocity": 0.6299212598425197
          },
          {
            "duration": 0.0625,
            "durationTicks": 120,
            "midi": 60,
            "name": "C4",
            "ticks": 66720,
            "time": 34.75,
            "velocity": 0.7874015748031497
          },
          {
            "duration": 0.0625,
            "durationTicks": 120,
            "midi": 60,
            "name": "C4",
            "ticks": 66960,
            "time": 34.875,
            "velocity": 0.5905511811023622
          },
          {
            "duration": 0.0625,
            "durationTicks": 120,
            "midi": 60,
            "name": "C4",
            "ticks": 67200,
            "time": 35,
            "velocity": 0.7874015748031497
          },
          {
            "duration": 0.0625,
            "durationTicks": 120,
            "midi": 60,
            "name": "C4",
            "ticks": 67440,
            "time": 35.125,
            "velocity": 0.7874015748031497
          },
          {
            "duration": 0.0625,
            "durationTicks": 120,
            "midi": 60,
            "name": "C4",
            "ticks": 67920,
            "time": 35.375,
            "velocity": 0.7874015748031497
          },
          {
            "duration": 0.0625,
            "durationTicks": 120,
            "midi": 60,
            "name": "C4",
            "ticks": 68160,
            "time": 35.5,
            "velocity": 0.7874015748031497
          },
          {
            "duration": 0.0625,
            "durationTicks": 120,
            "midi": 60,
            "name": "C4",
            "ticks": 68640,
            "time": 35.75,
            "velocity": 0.6299212598425197
          },
          {
            "duration": 0.0625,
            "durationTicks": 120,
            "midi": 60,
            "name": "C4",
            "ticks": 68880,
            "time": 35.875,
            "velocity": 0.47244094488188976
          },
          {
            "duration": 0.0625,
            "durationTicks": 120,
            "midi": 60,
            "name": "C4",
            "ticks": 69120,
            "time": 36,
            "velocity": 0.7874015748031497
          },
          {
            "duration": 0.0625,
            "durationTicks": 120,
            "midi": 60,
            "name": "C4",
            "ticks": 69600,
            "time": 36.25,
            "velocity": 0.7874015748031497
          },
          {
            "duration": 0.0625,
            "durationTicks": 120,
            "midi": 60,
            "name": "C4",
            "ticks": 70320,
            "time": 36.625,
            "velocity": 0.6299212598425197
          },
          {
            "duration": 0.0625,
            "durationTicks": 120,
            "midi": 60,
            "name": "C4",
            "ticks": 70560,
            "time": 36.75,
            "velocity": 0.7874015748031497
          },
          {
            "duration": 0.0625,
            "durationTicks": 120,
            "midi": 60,
            "name": "C4",
            "ticks": 70800,
            "time": 36.875,
            "velocity": 0.5905511811023622
          },
          {
            "duration": 0.0625,
            "durationTicks": 120,
            "midi": 60,
            "name": "C4",
            "ticks": 71040,
            "time": 37,
            "velocity": 0.7874015748031497
          },
          {
            "duration": 0.0625,
            "durationTicks": 120,
            "midi": 60,
            "name": "C4",
            "ticks": 71280,
            "time": 37.125,
            "velocity": 0.7874015748031497
          },
          {
            "duration": 0.0625,
            "durationTicks": 120,
            "midi": 60,
            "name": "C4",
            "ticks": 71760,
            "time": 37.375,
            "velocity": 0.7874015748031497
          },
          {
            "duration": 0.0625,
            "durationTicks": 120,
            "midi": 60,
            "name": "C4",
            "ticks": 72000,
            "time": 37.5,
            "velocity": 0.7874015748031497
          },
          {
            "duration": 0.0625,
            "durationTicks": 120,
            "midi": 60,
            "name": "C4",
            "ticks": 72480,
            "time": 37.75,
            "velocity": 0.6299212598425197
          },
          {
            "duration": 0.0625,
            "durationTicks": 120,
            "midi": 60,
            "name": "C4",
            "ticks": 72720,
            "time": 37.875,
            "velocity": 0.47244094488188976
          },
          {
            "duration": 0.0625,
            "durationTicks": 120,
            "midi": 60,
            "name": "C4",
            "ticks": 72960,
            "time": 38,
            "velocity": 0.7874015748031497
          },
          {
            "duration": 0.0625,
            "durationTicks": 120,
            "midi": 60,
            "name": "C4",
            "ticks": 73440,
            "time": 38.25,
            "velocity": 0.7874015748031497
          },
          {
            "duration": 0.0625,
            "durationTicks": 120,
            "midi": 60,
            "name": "C4",
            "ticks": 74160,
            "time": 38.625,
            "velocity": 0.6299212598425197
          },
          {
            "duration": 0.0625,
            "durationTicks": 120,
            "midi": 60,
            "name": "C4",
            "ticks": 74400,
            "time": 38.75,
            "velocity": 0.7874015748031497
          },
          {
            "duration": 0.0625,
            "durationTicks": 120,
            "midi": 60,
            "name": "C4",
            "ticks": 74640,
            "time": 38.875,
            "velocity": 0.5905511811023622
          },
          {
            "duration": 0.0625,
            "durationTicks": 120,
            "midi": 60,
            "name": "C4",
            "ticks": 74880,
            "time": 39,
            "velocity": 0.7874015748031497
          },
          {
            "duration": 0.0625,
            "durationTicks": 120,
            "midi": 60,
            "name": "C4",
            "ticks": 75120,
            "time": 39.125,
            "velocity": 0.7874015748031497
          },
          {
            "duration": 0.0625,
            "durationTicks": 120,
            "midi": 60,
            "name": "C4",
            "ticks": 75360,
            "time": 39.25,
            "velocity": 0.7874015748031497
          },
          {
            "duration": 0.0625,
            "durationTicks": 120,
            "midi": 60,
            "name": "C4",
            "ticks": 75600,
            "time": 39.375,
            "velocity": 0.7874015748031497
          },
          {
            "duration": 0.0625,
            "durationTicks": 120,
            "midi": 72,
            "name": "C5",
            "ticks": 75840,
            "time": 39.5,
            "velocity": 0.7874015748031497
          },
          {
            "duration": 0.0625,
            "durationTicks": 120,
            "midi": 60,
            "name": "C4",
            "ticks": 76320,
            "time": 39.75,
            "velocity": 0.5905511811023622
          },
          {
            "duration": 0.0625,
            "durationTicks": 120,
            "midi": 60,
            "name": "C4",
            "ticks": 76560,
            "time": 39.875,
            "velocity": 0.6299212598425197
          },
          {
            "duration": 0.0625,
            "durationTicks": 120,
            "midi": 60,
            "name": "C4",
            "ticks": 76800,
            "time": 40,
            "velocity": 0.7874015748031497
          },
          {
            "duration": 0.0625,
            "durationTicks": 120,
            "midi": 60,
            "name": "C4",
            "ticks": 77280,
            "time": 40.25,
            "velocity": 0.7874015748031497
          },
          {
            "duration": 0.0625,
            "durationTicks": 120,
            "midi": 60,
            "name": "C4",
            "ticks": 78000,
            "time": 40.625,
            "velocity": 0.6299212598425197
          },
          {
            "duration": 0.0625,
            "durationTicks": 120,
            "midi": 60,
            "name": "C4",
            "ticks": 78240,
            "time": 40.75,
            "velocity": 0.7874015748031497
          },
          {
            "duration": 0.0625,
            "durationTicks": 120,
            "midi": 60,
            "name": "C4",
            "ticks": 78480,
            "time": 40.875,
            "velocity": 0.5905511811023622
          },
          {
            "duration": 0.0625,
            "durationTicks": 120,
            "midi": 60,
            "name": "C4",
            "ticks": 78720,
            "time": 41,
            "velocity": 0.7874015748031497
          },
          {
            "duration": 0.0625,
            "durationTicks": 120,
            "midi": 60,
            "name": "C4",
            "ticks": 78960,
            "time": 41.125,
            "velocity": 0.7874015748031497
          },
          {
            "duration": 0.0625,
            "durationTicks": 120,
            "midi": 60,
            "name": "C4",
            "ticks": 79440,
            "time": 41.375,
            "velocity": 0.7874015748031497
          },
          {
            "duration": 0.0625,
            "durationTicks": 120,
            "midi": 60,
            "name": "C4",
            "ticks": 79680,
            "time": 41.5,
            "velocity": 0.7874015748031497
          },
          {
            "duration": 0.0625,
            "durationTicks": 120,
            "midi": 60,
            "name": "C4",
            "ticks": 80160,
            "time": 41.75,
            "velocity": 0.6299212598425197
          },
          {
            "duration": 0.0625,
            "durationTicks": 120,
            "midi": 60,
            "name": "C4",
            "ticks": 80400,
            "time": 41.875,
            "velocity": 0.47244094488188976
          },
          {
            "duration": 0.0625,
            "durationTicks": 120,
            "midi": 60,
            "name": "C4",
            "ticks": 80640,
            "time": 42,
            "velocity": 0.7874015748031497
          },
          {
            "duration": 0.0625,
            "durationTicks": 120,
            "midi": 60,
            "name": "C4",
            "ticks": 81120,
            "time": 42.25,
            "velocity": 0.7874015748031497
          },
          {
            "duration": 0.0625,
            "durationTicks": 120,
            "midi": 60,
            "name": "C4",
            "ticks": 81840,
            "time": 42.625,
            "velocity": 0.6299212598425197
          },
          {
            "duration": 0.0625,
            "durationTicks": 120,
            "midi": 60,
            "name": "C4",
            "ticks": 82080,
            "time": 42.75,
            "velocity": 0.7874015748031497
          },
          {
            "duration": 0.0625,
            "durationTicks": 120,
            "midi": 60,
            "name": "C4",
            "ticks": 82320,
            "time": 42.875,
            "velocity": 0.5905511811023622
          },
          {
            "duration": 0.0625,
            "durationTicks": 120,
            "midi": 60,
            "name": "C4",
            "ticks": 82560,
            "time": 43,
            "velocity": 0.7874015748031497
          },
          {
            "duration": 0.0625,
            "durationTicks": 120,
            "midi": 60,
            "name": "C4",
            "ticks": 82800,
            "time": 43.125,
            "velocity": 0.7874015748031497
          },
          {
            "duration": 0.0625,
            "durationTicks": 120,
            "midi": 60,
            "name": "C4",
            "ticks": 83280,
            "time": 43.375,
            "velocity": 0.7874015748031497
          },
          {
            "duration": 0.0625,
            "durationTicks": 120,
            "midi": 60,
            "name": "C4",
            "ticks": 83520,
            "time": 43.5,
            "velocity": 0.7874015748031497
          },
          {
            "duration": 0.0625,
            "durationTicks": 120,
            "midi": 60,
            "name": "C4",
            "ticks": 84000,
            "time": 43.75,
            "velocity": 0.6299212598425197
          },
          {
            "duration": 0.0625,
            "durationTicks": 120,
            "midi": 60,
            "name": "C4",
            "ticks": 84240,
            "time": 43.875,
            "velocity": 0.47244094488188976
          },
          {
            "duration": 0.0625,
            "durationTicks": 120,
            "midi": 60,
            "name": "C4",
            "ticks": 84480,
            "time": 44,
            "velocity": 0.7874015748031497
          },
          {
            "duration": 0.0625,
            "durationTicks": 120,
            "midi": 60,
            "name": "C4",
            "ticks": 84960,
            "time": 44.25,
            "velocity": 0.7874015748031497
          },
          {
            "duration": 0.0625,
            "durationTicks": 120,
            "midi": 60,
            "name": "C4",
            "ticks": 85680,
            "time": 44.625,
            "velocity": 0.6299212598425197
          },
          {
            "duration": 0.0625,
            "durationTicks": 120,
            "midi": 60,
            "name": "C4",
            "ticks": 85920,
            "time": 44.75,
            "velocity": 0.7874015748031497
          },
          {
            "duration": 0.0625,
            "durationTicks": 120,
            "midi": 60,
            "name": "C4",
            "ticks": 86160,
            "time": 44.875,
            "velocity": 0.5905511811023622
          },
          {
            "duration": 0.0625,
            "durationTicks": 120,
            "midi": 60,
            "name": "C4",
            "ticks": 86400,
            "time": 45,
            "velocity": 0.7874015748031497
          },
          {
            "duration": 0.0625,
            "durationTicks": 120,
            "midi": 60,
            "name": "C4",
            "ticks": 86640,
            "time": 45.125,
            "velocity": 0.7874015748031497
          },
          {
            "duration": 0.0625,
            "durationTicks": 120,
            "midi": 60,
            "name": "C4",
            "ticks": 87120,
            "time": 45.375,
            "velocity": 0.7874015748031497
          },
          {
            "duration": 0.0625,
            "durationTicks": 120,
            "midi": 60,
            "name": "C4",
            "ticks": 87360,
            "time": 45.5,
            "velocity": 0.7874015748031497
          },
          {
            "duration": 0.0625,
            "durationTicks": 120,
            "midi": 60,
            "name": "C4",
            "ticks": 87840,
            "time": 45.75,
            "velocity": 0.6299212598425197
          },
          {
            "duration": 0.0625,
            "durationTicks": 120,
            "midi": 60,
            "name": "C4",
            "ticks": 88080,
            "time": 45.875,
            "velocity": 0.47244094488188976
          },
          {
            "duration": 0.0625,
            "durationTicks": 120,
            "midi": 60,
            "name": "C4",
            "ticks": 88320,
            "time": 46,
            "velocity": 0.7874015748031497
          },
          {
            "duration": 0.0625,
            "durationTicks": 120,
            "midi": 60,
            "name": "C4",
            "ticks": 88800,
            "time": 46.25,
            "velocity": 0.7874015748031497
          },
          {
            "duration": 0.0625,
            "durationTicks": 120,
            "midi": 60,
            "name": "C4",
            "ticks": 89520,
            "time": 46.625,
            "velocity": 0.6299212598425197
          },
          {
            "duration": 0.0625,
            "durationTicks": 120,
            "midi": 60,
            "name": "C4",
            "ticks": 89760,
            "time": 46.75,
            "velocity": 0.7874015748031497
          },
          {
            "duration": 0.0625,
            "durationTicks": 120,
            "midi": 60,
            "name": "C4",
            "ticks": 90000,
            "time": 46.875,
            "velocity": 0.5905511811023622
          },
          {
            "duration": 0.0625,
            "durationTicks": 120,
            "midi": 60,
            "name": "C4",
            "ticks": 90240,
            "time": 47,
            "velocity": 0.7874015748031497
          },
          {
            "duration": 0.0625,
            "durationTicks": 120,
            "midi": 60,
            "name": "C4",
            "ticks": 90480,
            "time": 47.125,
            "velocity": 0.7874015748031497
          },
          {
            "duration": 0.0625,
            "durationTicks": 120,
            "midi": 60,
            "name": "C4",
            "ticks": 90720,
            "time": 47.25,
            "velocity": 0.7874015748031497
          },
          {
            "duration": 0.0625,
            "durationTicks": 120,
            "midi": 60,
            "name": "C4",
            "ticks": 90960,
            "time": 47.375,
            "velocity": 0.7874015748031497
          },
          {
            "duration": 0.0625,
            "durationTicks": 120,
            "midi": 60,
            "name": "C4",
            "ticks": 91200,
            "time": 47.5,
            "velocity": 0.7874015748031497
          },
          {
            "duration": 0.0625,
            "durationTicks": 120,
            "midi": 60,
            "name": "C4",
            "ticks": 91680,
            "time": 47.75,
            "velocity": 0.5905511811023622
          },
          {
            "duration": 0.0625,
            "durationTicks": 120,
            "midi": 60,
            "name": "C4",
            "ticks": 91920,
            "time": 47.875,
            "velocity": 0.6299212598425197
          },
          {
            "duration": 0.0625,
            "durationTicks": 120,
            "midi": 60,
            "name": "C4",
            "ticks": 92160,
            "time": 48,
            "velocity": 0.7874015748031497
          },
          {
            "duration": 0.0625,
            "durationTicks": 120,
            "midi": 60,
            "name": "C4",
            "ticks": 92640,
            "time": 48.25,
            "velocity": 0.7874015748031497
          },
          {
            "duration": 0.0625,
            "durationTicks": 120,
            "midi": 60,
            "name": "C4",
            "ticks": 93360,
            "time": 48.625,
            "velocity": 0.6299212598425197
          },
          {
            "duration": 0.0625,
            "durationTicks": 120,
            "midi": 60,
            "name": "C4",
            "ticks": 93600,
            "time": 48.75,
            "velocity": 0.7874015748031497
          },
          {
            "duration": 0.0625,
            "durationTicks": 120,
            "midi": 60,
            "name": "C4",
            "ticks": 93840,
            "time": 48.875,
            "velocity": 0.5905511811023622
          },
          {
            "duration": 0.0625,
            "durationTicks": 120,
            "midi": 60,
            "name": "C4",
            "ticks": 94080,
            "time": 49,
            "velocity": 0.7874015748031497
          },
          {
            "duration": 0.0625,
            "durationTicks": 120,
            "midi": 60,
            "name": "C4",
            "ticks": 94320,
            "time": 49.125,
            "velocity": 0.7874015748031497
          },
          {
            "duration": 0.0625,
            "durationTicks": 120,
            "midi": 60,
            "name": "C4",
            "ticks": 94800,
            "time": 49.375,
            "velocity": 0.7874015748031497
          },
          {
            "duration": 0.0625,
            "durationTicks": 120,
            "midi": 60,
            "name": "C4",
            "ticks": 95040,
            "time": 49.5,
            "velocity": 0.7874015748031497
          },
          {
            "duration": 0.0625,
            "durationTicks": 120,
            "midi": 60,
            "name": "C4",
            "ticks": 95520,
            "time": 49.75,
            "velocity": 0.6299212598425197
          },
          {
            "duration": 0.0625,
            "durationTicks": 120,
            "midi": 60,
            "name": "C4",
            "ticks": 95760,
            "time": 49.875,
            "velocity": 0.47244094488188976
          },
          {
            "duration": 0.0625,
            "durationTicks": 120,
            "midi": 60,
            "name": "C4",
            "ticks": 96000,
            "time": 50,
            "velocity": 0.7874015748031497
          },
          {
            "duration": 0.0625,
            "durationTicks": 120,
            "midi": 60,
            "name": "C4",
            "ticks": 96480,
            "time": 50.25,
            "velocity": 0.7874015748031497
          },
          {
            "duration": 0.0625,
            "durationTicks": 120,
            "midi": 60,
            "name": "C4",
            "ticks": 97200,
            "time": 50.625,
            "velocity": 0.6299212598425197
          },
          {
            "duration": 0.0625,
            "durationTicks": 120,
            "midi": 60,
            "name": "C4",
            "ticks": 97440,
            "time": 50.75,
            "velocity": 0.7874015748031497
          },
          {
            "duration": 0.0625,
            "durationTicks": 120,
            "midi": 60,
            "name": "C4",
            "ticks": 97680,
            "time": 50.875,
            "velocity": 0.5905511811023622
          },
          {
            "duration": 0.0625,
            "durationTicks": 120,
            "midi": 60,
            "name": "C4",
            "ticks": 97920,
            "time": 51,
            "velocity": 0.7874015748031497
          },
          {
            "duration": 0.0625,
            "durationTicks": 120,
            "midi": 60,
            "name": "C4",
            "ticks": 98160,
            "time": 51.125,
            "velocity": 0.7874015748031497
          },
          {
            "duration": 0.0625,
            "durationTicks": 120,
            "midi": 60,
            "name": "C4",
            "ticks": 98640,
            "time": 51.375,
            "velocity": 0.7874015748031497
          },
          {
            "duration": 0.0625,
            "durationTicks": 120,
            "midi": 60,
            "name": "C4",
            "ticks": 98880,
            "time": 51.5,
            "velocity": 0.7874015748031497
          },
          {
            "duration": 0.0625,
            "durationTicks": 120,
            "midi": 60,
            "name": "C4",
            "ticks": 99360,
            "time": 51.75,
            "velocity": 0.6299212598425197
          },
          {
            "duration": 0.0625,
            "durationTicks": 120,
            "midi": 60,
            "name": "C4",
            "ticks": 99600,
            "time": 51.875,
            "velocity": 0.47244094488188976
          },
          {
            "duration": 0.0625,
            "durationTicks": 120,
            "midi": 60,
            "name": "C4",
            "ticks": 99840,
            "time": 52,
            "velocity": 0.7874015748031497
          },
          {
            "duration": 0.0625,
            "durationTicks": 120,
            "midi": 60,
            "name": "C4",
            "ticks": 100320,
            "time": 52.25,
            "velocity": 0.7874015748031497
          },
          {
            "duration": 0.0625,
            "durationTicks": 120,
            "midi": 60,
            "name": "C4",
            "ticks": 101040,
            "time": 52.625,
            "velocity": 0.6299212598425197
          },
          {
            "duration": 0.0625,
            "durationTicks": 120,
            "midi": 60,
            "name": "C4",
            "ticks": 101280,
            "time": 52.75,
            "velocity": 0.7874015748031497
          },
          {
            "duration": 0.0625,
            "durationTicks": 120,
            "midi": 60,
            "name": "C4",
            "ticks": 101520,
            "time": 52.875,
            "velocity": 0.5905511811023622
          },
          {
            "duration": 0.0625,
            "durationTicks": 120,
            "midi": 60,
            "name": "C4",
            "ticks": 101760,
            "time": 53,
            "velocity": 0.7874015748031497
          },
          {
            "duration": 0.0625,
            "durationTicks": 120,
            "midi": 60,
            "name": "C4",
            "ticks": 102000,
            "time": 53.125,
            "velocity": 0.7874015748031497
          },
          {
            "duration": 0.0625,
            "durationTicks": 120,
            "midi": 60,
            "name": "C4",
            "ticks": 102480,
            "time": 53.375,
            "velocity": 0.7874015748031497
          },
          {
            "duration": 0.0625,
            "durationTicks": 120,
            "midi": 60,
            "name": "C4",
            "ticks": 102720,
            "time": 53.5,
            "velocity": 0.7874015748031497
          },
          {
            "duration": 0.0625,
            "durationTicks": 120,
            "midi": 60,
            "name": "C4",
            "ticks": 103200,
            "time": 53.75,
            "velocity": 0.6299212598425197
          },
          {
            "duration": 0.0625,
            "durationTicks": 120,
            "midi": 60,
            "name": "C4",
            "ticks": 103440,
            "time": 53.875,
            "velocity": 0.47244094488188976
          },
          {
            "duration": 0.0625,
            "durationTicks": 120,
            "midi": 60,
            "name": "C4",
            "ticks": 103680,
            "time": 54,
            "velocity": 0.7874015748031497
          },
          {
            "duration": 0.0625,
            "durationTicks": 120,
            "midi": 60,
            "name": "C4",
            "ticks": 104160,
            "time": 54.25,
            "velocity": 0.7874015748031497
          },
          {
            "duration": 0.0625,
            "durationTicks": 120,
            "midi": 60,
            "name": "C4",
            "ticks": 104880,
            "time": 54.625,
            "velocity": 0.6299212598425197
          },
          {
            "duration": 0.0625,
            "durationTicks": 120,
            "midi": 60,
            "name": "C4",
            "ticks": 105120,
            "time": 54.75,
            "velocity": 0.7874015748031497
          },
          {
            "duration": 0.0625,
            "durationTicks": 120,
            "midi": 60,
            "name": "C4",
            "ticks": 105360,
            "time": 54.875,
            "velocity": 0.5905511811023622
          },
          {
            "duration": 0.0625,
            "durationTicks": 120,
            "midi": 60,
            "name": "C4",
            "ticks": 105600,
            "time": 55,
            "velocity": 0.7874015748031497
          },
          {
            "duration": 0.0625,
            "durationTicks": 120,
            "midi": 60,
            "name": "C4",
            "ticks": 105840,
            "time": 55.125,
            "velocity": 0.7874015748031497
          },
          {
            "duration": 0.0625,
            "durationTicks": 120,
            "midi": 60,
            "name": "C4",
            "ticks": 106080,
            "time": 55.25,
            "velocity": 0.7874015748031497
          },
          {
            "duration": 0.0625,
            "durationTicks": 120,
            "midi": 60,
            "name": "C4",
            "ticks": 106320,
            "time": 55.375,
            "velocity": 0.7874015748031497
          },
          {
            "duration": 0.0625,
            "durationTicks": 120,
            "midi": 72,
            "name": "C5",
            "ticks": 106560,
            "time": 55.5,
            "velocity": 0.7874015748031497
          },
          {
            "duration": 0.0625,
            "durationTicks": 120,
            "midi": 60,
            "name": "C4",
            "ticks": 107040,
            "time": 55.75,
            "velocity": 0.5905511811023622
          },
          {
            "duration": 0.0625,
            "durationTicks": 120,
            "midi": 60,
            "name": "C4",
            "ticks": 107280,
            "time": 55.875,
            "velocity": 0.6299212598425197
          },
          {
            "duration": 0.0625,
            "durationTicks": 120,
            "midi": 60,
            "name": "C4",
            "ticks": 107520,
            "time": 56,
            "velocity": 0.7874015748031497
          },
          {
            "duration": 0.0625,
            "durationTicks": 120,
            "midi": 60,
            "name": "C4",
            "ticks": 108000,
            "time": 56.25,
            "velocity": 0.7874015748031497
          },
          {
            "duration": 0.0625,
            "durationTicks": 120,
            "midi": 60,
            "name": "C4",
            "ticks": 108720,
            "time": 56.625,
            "velocity": 0.6299212598425197
          },
          {
            "duration": 0.0625,
            "durationTicks": 120,
            "midi": 60,
            "name": "C4",
            "ticks": 108960,
            "time": 56.75,
            "velocity": 0.7874015748031497
          },
          {
            "duration": 0.0625,
            "durationTicks": 120,
            "midi": 60,
            "name": "C4",
            "ticks": 109200,
            "time": 56.875,
            "velocity": 0.5905511811023622
          },
          {
            "duration": 0.0625,
            "durationTicks": 120,
            "midi": 60,
            "name": "C4",
            "ticks": 109440,
            "time": 57,
            "velocity": 0.7874015748031497
          },
          {
            "duration": 0.0625,
            "durationTicks": 120,
            "midi": 60,
            "name": "C4",
            "ticks": 109680,
            "time": 57.125,
            "velocity": 0.7874015748031497
          },
          {
            "duration": 0.0625,
            "durationTicks": 120,
            "midi": 60,
            "name": "C4",
            "ticks": 110160,
            "time": 57.375,
            "velocity": 0.7874015748031497
          },
          {
            "duration": 0.0625,
            "durationTicks": 120,
            "midi": 60,
            "name": "C4",
            "ticks": 110400,
            "time": 57.5,
            "velocity": 0.7874015748031497
          },
          {
            "duration": 0.0625,
            "durationTicks": 120,
            "midi": 60,
            "name": "C4",
            "ticks": 110880,
            "time": 57.75,
            "velocity": 0.6299212598425197
          },
          {
            "duration": 0.0625,
            "durationTicks": 120,
            "midi": 60,
            "name": "C4",
            "ticks": 111120,
            "time": 57.875,
            "velocity": 0.47244094488188976
          },
          {
            "duration": 0.0625,
            "durationTicks": 120,
            "midi": 60,
            "name": "C4",
            "ticks": 111360,
            "time": 58,
            "velocity": 0.7874015748031497
          },
          {
            "duration": 0.0625,
            "durationTicks": 120,
            "midi": 60,
            "name": "C4",
            "ticks": 111840,
            "time": 58.25,
            "velocity": 0.7874015748031497
          },
          {
            "duration": 0.0625,
            "durationTicks": 120,
            "midi": 60,
            "name": "C4",
            "ticks": 112560,
            "time": 58.625,
            "velocity": 0.6299212598425197
          },
          {
            "duration": 0.0625,
            "durationTicks": 120,
            "midi": 60,
            "name": "C4",
            "ticks": 112800,
            "time": 58.75,
            "velocity": 0.7874015748031497
          },
          {
            "duration": 0.0625,
            "durationTicks": 120,
            "midi": 60,
            "name": "C4",
            "ticks": 113040,
            "time": 58.875,
            "velocity": 0.5905511811023622
          },
          {
            "duration": 0.0625,
            "durationTicks": 120,
            "midi": 60,
            "name": "C4",
            "ticks": 113280,
            "time": 59,
            "velocity": 0.7874015748031497
          },
          {
            "duration": 0.0625,
            "durationTicks": 120,
            "midi": 60,
            "name": "C4",
            "ticks": 113520,
            "time": 59.125,
            "velocity": 0.7874015748031497
          },
          {
            "duration": 0.0625,
            "durationTicks": 120,
            "midi": 60,
            "name": "C4",
            "ticks": 114000,
            "time": 59.375,
            "velocity": 0.7874015748031497
          },
          {
            "duration": 0.0625,
            "durationTicks": 120,
            "midi": 60,
            "name": "C4",
            "ticks": 114240,
            "time": 59.5,
            "velocity": 0.7874015748031497
          },
          {
            "duration": 0.0625,
            "durationTicks": 120,
            "midi": 60,
            "name": "C4",
            "ticks": 114720,
            "time": 59.75,
            "velocity": 0.6299212598425197
          },
          {
            "duration": 0.0625,
            "durationTicks": 120,
            "midi": 60,
            "name": "C4",
            "ticks": 114960,
            "time": 59.875,
            "velocity": 0.47244094488188976
          },
          {
            "duration": 0.0625,
            "durationTicks": 120,
            "midi": 60,
            "name": "C4",
            "ticks": 115200,
            "time": 60,
            "velocity": 0.7874015748031497
          },
          {
            "duration": 0.0625,
            "durationTicks": 120,
            "midi": 60,
            "name": "C4",
            "ticks": 115680,
            "time": 60.25,
            "velocity": 0.7874015748031497
          },
          {
            "duration": 0.0625,
            "durationTicks": 120,
            "midi": 60,
            "name": "C4",
            "ticks": 116400,
            "time": 60.625,
            "velocity": 0.6299212598425197
          },
          {
            "duration": 0.0625,
            "durationTicks": 120,
            "midi": 60,
            "name": "C4",
            "ticks": 116640,
            "time": 60.75,
            "velocity": 0.7874015748031497
          },
          {
            "duration": 0.0625,
            "durationTicks": 120,
            "midi": 60,
            "name": "C4",
            "ticks": 116880,
            "time": 60.875,
            "velocity": 0.5905511811023622
          },
          {
            "duration": 0.0625,
            "durationTicks": 120,
            "midi": 60,
            "name": "C4",
            "ticks": 117120,
            "time": 61,
            "velocity": 0.7874015748031497
          },
          {
            "duration": 0.0625,
            "durationTicks": 120,
            "midi": 60,
            "name": "C4",
            "ticks": 117360,
            "time": 61.125,
            "velocity": 0.7874015748031497
          },
          {
            "duration": 0.0625,
            "durationTicks": 120,
            "midi": 60,
            "name": "C4",
            "ticks": 117840,
            "time": 61.375,
            "velocity": 0.7874015748031497
          },
          {
            "duration": 0.0625,
            "durationTicks": 120,
            "midi": 60,
            "name": "C4",
            "ticks": 118080,
            "time": 61.5,
            "velocity": 0.7874015748031497
          },
          {
            "duration": 0.0625,
            "durationTicks": 120,
            "midi": 60,
            "name": "C4",
            "ticks": 118560,
            "time": 61.75,
            "velocity": 0.6299212598425197
          },
          {
            "duration": 0.0625,
            "durationTicks": 120,
            "midi": 60,
            "name": "C4",
            "ticks": 118800,
            "time": 61.875,
            "velocity": 0.47244094488188976
          },
          {
            "duration": 0.0625,
            "durationTicks": 120,
            "midi": 60,
            "name": "C4",
            "ticks": 119040,
            "time": 62,
            "velocity": 0.7874015748031497
          },
          {
            "duration": 0.0625,
            "durationTicks": 120,
            "midi": 60,
            "name": "C4",
            "ticks": 119520,
            "time": 62.25,
            "velocity": 0.7874015748031497
          },
          {
            "duration": 0.0625,
            "durationTicks": 120,
            "midi": 60,
            "name": "C4",
            "ticks": 120240,
            "time": 62.625,
            "velocity": 0.6299212598425197
          },
          {
            "duration": 0.0625,
            "durationTicks": 120,
            "midi": 60,
            "name": "C4",
            "ticks": 120480,
            "time": 62.75,
            "velocity": 0.7874015748031497
          },
          {
            "duration": 0.0625,
            "durationTicks": 120,
            "midi": 60,
            "name": "C4",
            "ticks": 120720,
            "time": 62.875,
            "velocity": 0.5905511811023622
          },
          {
            "duration": 0.0625,
            "durationTicks": 120,
            "midi": 60,
            "name": "C4",
            "ticks": 120960,
            "time": 63,
            "velocity": 0.7874015748031497
          },
          {
            "duration": 0.0625,
            "durationTicks": 120,
            "midi": 60,
            "name": "C4",
            "ticks": 121200,
            "time": 63.125,
            "velocity": 0.7874015748031497
          },
          {
            "duration": 0.0625,
            "durationTicks": 120,
            "midi": 60,
            "name": "C4",
            "ticks": 121440,
            "time": 63.25,
            "velocity": 0.7874015748031497
          },
          {
            "duration": 0.0625,
            "durationTicks": 120,
            "midi": 60,
            "name": "C4",
            "ticks": 121680,
            "time": 63.375,
            "velocity": 0.7874015748031497
          },
          {
            "duration": 0.0625,
            "durationTicks": 120,
            "midi": 60,
            "name": "C4",
            "ticks": 121920,
            "time": 63.5,
            "velocity": 0.7874015748031497
          },
          {
            "duration": 0.0625,
            "durationTicks": 120,
            "midi": 60,
            "name": "C4",
            "ticks": 122400,
            "time": 63.75,
            "velocity": 0.5905511811023622
          },
          {
            "duration": 0.0625,
            "durationTicks": 120,
            "midi": 60,
            "name": "C4",
            "ticks": 122640,
            "time": 63.875,
            "velocity": 0.6299212598425197
          },
          {
            "duration": 0.0625,
            "durationTicks": 120,
            "midi": 60,
            "name": "C4",
            "ticks": 122880,
            "time": 64,
            "velocity": 0.7874015748031497
          },
          {
            "duration": 0.0625,
            "durationTicks": 120,
            "midi": 60,
            "name": "C4",
            "ticks": 123360,
            "time": 64.25,
            "velocity": 0.7874015748031497
          },
          {
            "duration": 0.0625,
            "durationTicks": 120,
            "midi": 60,
            "name": "C4",
            "ticks": 124080,
            "time": 64.625,
            "velocity": 0.6299212598425197
          },
          {
            "duration": 0.0625,
            "durationTicks": 120,
            "midi": 60,
            "name": "C4",
            "ticks": 124320,
            "time": 64.75,
            "velocity": 0.7874015748031497
          },
          {
            "duration": 0.0625,
            "durationTicks": 120,
            "midi": 60,
            "name": "C4",
            "ticks": 124560,
            "time": 64.875,
            "velocity": 0.5905511811023622
          },
          {
            "duration": 0.0625,
            "durationTicks": 120,
            "midi": 60,
            "name": "C4",
            "ticks": 124800,
            "time": 65,
            "velocity": 0.7874015748031497
          },
          {
            "duration": 0.0625,
            "durationTicks": 120,
            "midi": 60,
            "name": "C4",
            "ticks": 125040,
            "time": 65.125,
            "velocity": 0.7874015748031497
          },
          {
            "duration": 0.0625,
            "durationTicks": 120,
            "midi": 60,
            "name": "C4",
            "ticks": 125520,
            "time": 65.375,
            "velocity": 0.7874015748031497
          },
          {
            "duration": 0.0625,
            "durationTicks": 120,
            "midi": 60,
            "name": "C4",
            "ticks": 125760,
            "time": 65.5,
            "velocity": 0.7874015748031497
          },
          {
            "duration": 0.0625,
            "durationTicks": 120,
            "midi": 60,
            "name": "C4",
            "ticks": 126240,
            "time": 65.75,
            "velocity": 0.6299212598425197
          },
          {
            "duration": 0.0625,
            "durationTicks": 120,
            "midi": 60,
            "name": "C4",
            "ticks": 126480,
            "time": 65.875,
            "velocity": 0.47244094488188976
          },
          {
            "duration": 0.0625,
            "durationTicks": 120,
            "midi": 60,
            "name": "C4",
            "ticks": 126720,
            "time": 66,
            "velocity": 0.7874015748031497
          },
          {
            "duration": 0.0625,
            "durationTicks": 120,
            "midi": 60,
            "name": "C4",
            "ticks": 127200,
            "time": 66.25,
            "velocity": 0.7874015748031497
          },
          {
            "duration": 0.0625,
            "durationTicks": 120,
            "midi": 60,
            "name": "C4",
            "ticks": 127920,
            "time": 66.625,
            "velocity": 0.6299212598425197
          },
          {
            "duration": 0.0625,
            "durationTicks": 120,
            "midi": 60,
            "name": "C4",
            "ticks": 128160,
            "time": 66.75,
            "velocity": 0.7874015748031497
          },
          {
            "duration": 0.0625,
            "durationTicks": 120,
            "midi": 60,
            "name": "C4",
            "ticks": 128400,
            "time": 66.875,
            "velocity": 0.5905511811023622
          },
          {
            "duration": 0.0625,
            "durationTicks": 120,
            "midi": 60,
            "name": "C4",
            "ticks": 128640,
            "time": 67,
            "velocity": 0.7874015748031497
          },
          {
            "duration": 0.0625,
            "durationTicks": 120,
            "midi": 60,
            "name": "C4",
            "ticks": 128880,
            "time": 67.125,
            "velocity": 0.7874015748031497
          },
          {
            "duration": 0.0625,
            "durationTicks": 120,
            "midi": 60,
            "name": "C4",
            "ticks": 129360,
            "time": 67.375,
            "velocity": 0.7874015748031497
          },
          {
            "duration": 0.0625,
            "durationTicks": 120,
            "midi": 60,
            "name": "C4",
            "ticks": 129600,
            "time": 67.5,
            "velocity": 0.7874015748031497
          },
          {
            "duration": 0.0625,
            "durationTicks": 120,
            "midi": 60,
            "name": "C4",
            "ticks": 130080,
            "time": 67.75,
            "velocity": 0.6299212598425197
          },
          {
            "duration": 0.0625,
            "durationTicks": 120,
            "midi": 60,
            "name": "C4",
            "ticks": 130320,
            "time": 67.875,
            "velocity": 0.47244094488188976
          },
          {
            "duration": 0.0625,
            "durationTicks": 120,
            "midi": 60,
            "name": "C4",
            "ticks": 130560,
            "time": 68,
            "velocity": 0.7874015748031497
          },
          {
            "duration": 0.0625,
            "durationTicks": 120,
            "midi": 60,
            "name": "C4",
            "ticks": 131040,
            "time": 68.25,
            "velocity": 0.7874015748031497
          },
          {
            "duration": 0.0625,
            "durationTicks": 120,
            "midi": 60,
            "name": "C4",
            "ticks": 131760,
            "time": 68.625,
            "velocity": 0.6299212598425197
          },
          {
            "duration": 0.0625,
            "durationTicks": 120,
            "midi": 60,
            "name": "C4",
            "ticks": 132000,
            "time": 68.75,
            "velocity": 0.7874015748031497
          },
          {
            "duration": 0.0625,
            "durationTicks": 120,
            "midi": 60,
            "name": "C4",
            "ticks": 132240,
            "time": 68.875,
            "velocity": 0.5905511811023622
          },
          {
            "duration": 0.0625,
            "durationTicks": 120,
            "midi": 60,
            "name": "C4",
            "ticks": 132480,
            "time": 69,
            "velocity": 0.7874015748031497
          },
          {
            "duration": 0.0625,
            "durationTicks": 120,
            "midi": 60,
            "name": "C4",
            "ticks": 132720,
            "time": 69.125,
            "velocity": 0.7874015748031497
          },
          {
            "duration": 0.0625,
            "durationTicks": 120,
            "midi": 60,
            "name": "C4",
            "ticks": 133200,
            "time": 69.375,
            "velocity": 0.7874015748031497
          },
          {
            "duration": 0.0625,
            "durationTicks": 120,
            "midi": 60,
            "name": "C4",
            "ticks": 133440,
            "time": 69.5,
            "velocity": 0.7874015748031497
          },
          {
            "duration": 0.0625,
            "durationTicks": 120,
            "midi": 60,
            "name": "C4",
            "ticks": 133920,
            "time": 69.75,
            "velocity": 0.6299212598425197
          },
          {
            "duration": 0.0625,
            "durationTicks": 120,
            "midi": 60,
            "name": "C4",
            "ticks": 134160,
            "time": 69.875,
            "velocity": 0.47244094488188976
          },
          {
            "duration": 0.0625,
            "durationTicks": 120,
            "midi": 60,
            "name": "C4",
            "ticks": 134400,
            "time": 70,
            "velocity": 0.7874015748031497
          },
          {
            "duration": 0.0625,
            "durationTicks": 120,
            "midi": 60,
            "name": "C4",
            "ticks": 134880,
            "time": 70.25,
            "velocity": 0.7874015748031497
          },
          {
            "duration": 0.0625,
            "durationTicks": 120,
            "midi": 60,
            "name": "C4",
            "ticks": 135600,
            "time": 70.625,
            "velocity": 0.6299212598425197
          },
          {
            "duration": 0.0625,
            "durationTicks": 120,
            "midi": 60,
            "name": "C4",
            "ticks": 135840,
            "time": 70.75,
            "velocity": 0.7874015748031497
          },
          {
            "duration": 0.0625,
            "durationTicks": 120,
            "midi": 60,
            "name": "C4",
            "ticks": 136080,
            "time": 70.875,
            "velocity": 0.5905511811023622
          },
          {
            "duration": 0.0625,
            "durationTicks": 120,
            "midi": 60,
            "name": "C4",
            "ticks": 136320,
            "time": 71,
            "velocity": 0.7874015748031497
          },
          {
            "duration": 0.0625,
            "durationTicks": 120,
            "midi": 60,
            "name": "C4",
            "ticks": 136560,
            "time": 71.125,
            "velocity": 0.7874015748031497
          },
          {
            "duration": 0.0625,
            "durationTicks": 120,
            "midi": 60,
            "name": "C4",
            "ticks": 136800,
            "time": 71.25,
            "velocity": 0.7874015748031497
          },
          {
            "duration": 0.0625,
            "durationTicks": 120,
            "midi": 60,
            "name": "C4",
            "ticks": 137040,
            "time": 71.375,
            "velocity": 0.7874015748031497
          },
          {
            "duration": 0.0625,
            "durationTicks": 120,
            "midi": 72,
            "name": "C5",
            "ticks": 137280,
            "time": 71.5,
            "velocity": 0.7874015748031497
          },
          {
            "duration": 0.0625,
            "durationTicks": 120,
            "midi": 60,
            "name": "C4",
            "ticks": 137760,
            "time": 71.75,
            "velocity": 0.5905511811023622
          },
          {
            "duration": 0.0625,
            "durationTicks": 120,
            "midi": 60,
            "name": "C4",
            "ticks": 138000,
            "time": 71.875,
            "velocity": 0.6299212598425197
          },
          {
            "duration": 0.0625,
            "durationTicks": 120,
            "midi": 60,
            "name": "C4",
            "ticks": 138240,
            "time": 72,
            "velocity": 0.7874015748031497
          },
          {
            "duration": 0.0625,
            "durationTicks": 120,
            "midi": 60,
            "name": "C4",
            "ticks": 138720,
            "time": 72.25,
            "velocity": 0.7874015748031497
          },
          {
            "duration": 0.0625,
            "durationTicks": 120,
            "midi": 60,
            "name": "C4",
            "ticks": 139440,
            "time": 72.625,
            "velocity": 0.6299212598425197
          },
          {
            "duration": 0.0625,
            "durationTicks": 120,
            "midi": 60,
            "name": "C4",
            "ticks": 139680,
            "time": 72.75,
            "velocity": 0.7874015748031497
          },
          {
            "duration": 0.0625,
            "durationTicks": 120,
            "midi": 60,
            "name": "C4",
            "ticks": 139920,
            "time": 72.875,
            "velocity": 0.5905511811023622
          },
          {
            "duration": 0.0625,
            "durationTicks": 120,
            "midi": 60,
            "name": "C4",
            "ticks": 140160,
            "time": 73,
            "velocity": 0.7874015748031497
          },
          {
            "duration": 0.0625,
            "durationTicks": 120,
            "midi": 60,
            "name": "C4",
            "ticks": 140400,
            "time": 73.125,
            "velocity": 0.7874015748031497
          },
          {
            "duration": 0.0625,
            "durationTicks": 120,
            "midi": 60,
            "name": "C4",
            "ticks": 140880,
            "time": 73.375,
            "velocity": 0.7874015748031497
          },
          {
            "duration": 0.0625,
            "durationTicks": 120,
            "midi": 60,
            "name": "C4",
            "ticks": 141120,
            "time": 73.5,
            "velocity": 0.7874015748031497
          },
          {
            "duration": 0.0625,
            "durationTicks": 120,
            "midi": 60,
            "name": "C4",
            "ticks": 141600,
            "time": 73.75,
            "velocity": 0.6299212598425197
          },
          {
            "duration": 0.0625,
            "durationTicks": 120,
            "midi": 60,
            "name": "C4",
            "ticks": 141840,
            "time": 73.875,
            "velocity": 0.47244094488188976
          },
          {
            "duration": 0.0625,
            "durationTicks": 120,
            "midi": 60,
            "name": "C4",
            "ticks": 142080,
            "time": 74,
            "velocity": 0.7874015748031497
          },
          {
            "duration": 0.0625,
            "durationTicks": 120,
            "midi": 60,
            "name": "C4",
            "ticks": 142560,
            "time": 74.25,
            "velocity": 0.7874015748031497
          },
          {
            "duration": 0.0625,
            "durationTicks": 120,
            "midi": 60,
            "name": "C4",
            "ticks": 143280,
            "time": 74.625,
            "velocity": 0.6299212598425197
          },
          {
            "duration": 0.0625,
            "durationTicks": 120,
            "midi": 60,
            "name": "C4",
            "ticks": 143520,
            "time": 74.75,
            "velocity": 0.7874015748031497
          },
          {
            "duration": 0.0625,
            "durationTicks": 120,
            "midi": 60,
            "name": "C4",
            "ticks": 143760,
            "time": 74.875,
            "velocity": 0.5905511811023622
          },
          {
            "duration": 0.0625,
            "durationTicks": 120,
            "midi": 60,
            "name": "C4",
            "ticks": 144000,
            "time": 75,
            "velocity": 0.7874015748031497
          },
          {
            "duration": 0.0625,
            "durationTicks": 120,
            "midi": 60,
            "name": "C4",
            "ticks": 144240,
            "time": 75.125,
            "velocity": 0.7874015748031497
          },
          {
            "duration": 0.0625,
            "durationTicks": 120,
            "midi": 60,
            "name": "C4",
            "ticks": 144720,
            "time": 75.375,
            "velocity": 0.7874015748031497
          },
          {
            "duration": 0.0625,
            "durationTicks": 120,
            "midi": 60,
            "name": "C4",
            "ticks": 144960,
            "time": 75.5,
            "velocity": 0.7874015748031497
          },
          {
            "duration": 0.0625,
            "durationTicks": 120,
            "midi": 60,
            "name": "C4",
            "ticks": 145440,
            "time": 75.75,
            "velocity": 0.6299212598425197
          },
          {
            "duration": 0.0625,
            "durationTicks": 120,
            "midi": 60,
            "name": "C4",
            "ticks": 145680,
            "time": 75.875,
            "velocity": 0.47244094488188976
          },
          {
            "duration": 0.0625,
            "durationTicks": 120,
            "midi": 60,
            "name": "C4",
            "ticks": 145920,
            "time": 76,
            "velocity": 0.7874015748031497
          },
          {
            "duration": 0.0625,
            "durationTicks": 120,
            "midi": 60,
            "name": "C4",
            "ticks": 146400,
            "time": 76.25,
            "velocity": 0.7874015748031497
          },
          {
            "duration": 0.0625,
            "durationTicks": 120,
            "midi": 60,
            "name": "C4",
            "ticks": 147120,
            "time": 76.625,
            "velocity": 0.6299212598425197
          },
          {
            "duration": 0.0625,
            "durationTicks": 120,
            "midi": 60,
            "name": "C4",
            "ticks": 147360,
            "time": 76.75,
            "velocity": 0.7874015748031497
          },
          {
            "duration": 0.0625,
            "durationTicks": 120,
            "midi": 60,
            "name": "C4",
            "ticks": 147600,
            "time": 76.875,
            "velocity": 0.5905511811023622
          },
          {
            "duration": 0.0625,
            "durationTicks": 120,
            "midi": 60,
            "name": "C4",
            "ticks": 147840,
            "time": 77,
            "velocity": 0.7874015748031497
          },
          {
            "duration": 0.0625,
            "durationTicks": 120,
            "midi": 60,
            "name": "C4",
            "ticks": 148080,
            "time": 77.125,
            "velocity": 0.7874015748031497
          },
          {
            "duration": 0.0625,
            "durationTicks": 120,
            "midi": 60,
            "name": "C4",
            "ticks": 148560,
            "time": 77.375,
            "velocity": 0.7874015748031497
          },
          {
            "duration": 0.0625,
            "durationTicks": 120,
            "midi": 60,
            "name": "C4",
            "ticks": 148800,
            "time": 77.5,
            "velocity": 0.7874015748031497
          },
          {
            "duration": 0.0625,
            "durationTicks": 120,
            "midi": 60,
            "name": "C4",
            "ticks": 149280,
            "time": 77.75,
            "velocity": 0.6299212598425197
          },
          {
            "duration": 0.0625,
            "durationTicks": 120,
            "midi": 60,
            "name": "C4",
            "ticks": 149520,
            "time": 77.875,
            "velocity": 0.47244094488188976
          },
          {
            "duration": 0.0625,
            "durationTicks": 120,
            "midi": 60,
            "name": "C4",
            "ticks": 149760,
            "time": 78,
            "velocity": 0.7874015748031497
          },
          {
            "duration": 0.0625,
            "durationTicks": 120,
            "midi": 60,
            "name": "C4",
            "ticks": 150240,
            "time": 78.25,
            "velocity": 0.7874015748031497
          },
          {
            "duration": 0.0625,
            "durationTicks": 120,
            "midi": 60,
            "name": "C4",
            "ticks": 150960,
            "time": 78.625,
            "velocity": 0.6299212598425197
          },
          {
            "duration": 0.0625,
            "durationTicks": 120,
            "midi": 60,
            "name": "C4",
            "ticks": 151200,
            "time": 78.75,
            "velocity": 0.7874015748031497
          },
          {
            "duration": 0.0625,
            "durationTicks": 120,
            "midi": 60,
            "name": "C4",
            "ticks": 151440,
            "time": 78.875,
            "velocity": 0.5905511811023622
          },
          {
            "duration": 0.0625,
            "durationTicks": 120,
            "midi": 60,
            "name": "C4",
            "ticks": 151680,
            "time": 79,
            "velocity": 0.7874015748031497
          },
          {
            "duration": 0.0625,
            "durationTicks": 120,
            "midi": 60,
            "name": "C4",
            "ticks": 151920,
            "time": 79.125,
            "velocity": 0.7874015748031497
          },
          {
            "duration": 0.0625,
            "durationTicks": 120,
            "midi": 60,
            "name": "C4",
            "ticks": 152160,
            "time": 79.25,
            "velocity": 0.7874015748031497
          },
          {
            "duration": 0.0625,
            "durationTicks": 120,
            "midi": 60,
            "name": "C4",
            "ticks": 152400,
            "time": 79.375,
            "velocity": 0.7874015748031497
          },
          {
            "duration": 0.0625,
            "durationTicks": 120,
            "midi": 60,
            "name": "C4",
            "ticks": 152640,
            "time": 79.5,
            "velocity": 0.7874015748031497
          },
          {
            "duration": 0.0625,
            "durationTicks": 120,
            "midi": 60,
            "name": "C4",
            "ticks": 153120,
            "time": 79.75,
            "velocity": 0.5905511811023622
          },
          {
            "duration": 0.0625,
            "durationTicks": 120,
            "midi": 60,
            "name": "C4",
            "ticks": 153360,
            "time": 79.875,
            "velocity": 0.6299212598425197
          },
          {
            "duration": 0.0625,
            "durationTicks": 120,
            "midi": 60,
            "name": "C4",
            "ticks": 153600,
            "time": 80,
            "velocity": 0.7874015748031497
          },
          {
            "duration": 0.0625,
            "durationTicks": 120,
            "midi": 60,
            "name": "C4",
            "ticks": 154080,
            "time": 80.25,
            "velocity": 0.7874015748031497
          },
          {
            "duration": 0.0625,
            "durationTicks": 120,
            "midi": 60,
            "name": "C4",
            "ticks": 154800,
            "time": 80.625,
            "velocity": 0.6299212598425197
          },
          {
            "duration": 0.0625,
            "durationTicks": 120,
            "midi": 60,
            "name": "C4",
            "ticks": 155040,
            "time": 80.75,
            "velocity": 0.7874015748031497
          },
          {
            "duration": 0.0625,
            "durationTicks": 120,
            "midi": 60,
            "name": "C4",
            "ticks": 155280,
            "time": 80.875,
            "velocity": 0.5905511811023622
          },
          {
            "duration": 0.0625,
            "durationTicks": 120,
            "midi": 60,
            "name": "C4",
            "ticks": 155520,
            "time": 81,
            "velocity": 0.7874015748031497
          },
          {
            "duration": 0.0625,
            "durationTicks": 120,
            "midi": 60,
            "name": "C4",
            "ticks": 155760,
            "time": 81.125,
            "velocity": 0.7874015748031497
          },
          {
            "duration": 0.0625,
            "durationTicks": 120,
            "midi": 60,
            "name": "C4",
            "ticks": 156240,
            "time": 81.375,
            "velocity": 0.7874015748031497
          },
          {
            "duration": 0.0625,
            "durationTicks": 120,
            "midi": 60,
            "name": "C4",
            "ticks": 156480,
            "time": 81.5,
            "velocity": 0.7874015748031497
          },
          {
            "duration": 0.0625,
            "durationTicks": 120,
            "midi": 60,
            "name": "C4",
            "ticks": 156960,
            "time": 81.75,
            "velocity": 0.6299212598425197
          },
          {
            "duration": 0.0625,
            "durationTicks": 120,
            "midi": 60,
            "name": "C4",
            "ticks": 157200,
            "time": 81.875,
            "velocity": 0.47244094488188976
          },
          {
            "duration": 0.0625,
            "durationTicks": 120,
            "midi": 60,
            "name": "C4",
            "ticks": 157440,
            "time": 82,
            "velocity": 0.7874015748031497
          },
          {
            "duration": 0.0625,
            "durationTicks": 120,
            "midi": 60,
            "name": "C4",
            "ticks": 157920,
            "time": 82.25,
            "velocity": 0.7874015748031497
          },
          {
            "duration": 0.0625,
            "durationTicks": 120,
            "midi": 60,
            "name": "C4",
            "ticks": 158640,
            "time": 82.625,
            "velocity": 0.6299212598425197
          },
          {
            "duration": 0.0625,
            "durationTicks": 120,
            "midi": 60,
            "name": "C4",
            "ticks": 158880,
            "time": 82.75,
            "velocity": 0.7874015748031497
          },
          {
            "duration": 0.0625,
            "durationTicks": 120,
            "midi": 60,
            "name": "C4",
            "ticks": 159120,
            "time": 82.875,
            "velocity": 0.5905511811023622
          },
          {
            "duration": 0.0625,
            "durationTicks": 120,
            "midi": 60,
            "name": "C4",
            "ticks": 159360,
            "time": 83,
            "velocity": 0.7874015748031497
          },
          {
            "duration": 0.0625,
            "durationTicks": 120,
            "midi": 60,
            "name": "C4",
            "ticks": 159600,
            "time": 83.125,
            "velocity": 0.7874015748031497
          },
          {
            "duration": 0.0625,
            "durationTicks": 120,
            "midi": 60,
            "name": "C4",
            "ticks": 160080,
            "time": 83.375,
            "velocity": 0.7874015748031497
          },
          {
            "duration": 0.0625,
            "durationTicks": 120,
            "midi": 60,
            "name": "C4",
            "ticks": 160320,
            "time": 83.5,
            "velocity": 0.7874015748031497
          },
          {
            "duration": 0.0625,
            "durationTicks": 120,
            "midi": 60,
            "name": "C4",
            "ticks": 160800,
            "time": 83.75,
            "velocity": 0.6299212598425197
          },
          {
            "duration": 0.0625,
            "durationTicks": 120,
            "midi": 60,
            "name": "C4",
            "ticks": 161040,
            "time": 83.875,
            "velocity": 0.47244094488188976
          },
          {
            "duration": 0.0625,
            "durationTicks": 120,
            "midi": 60,
            "name": "C4",
            "ticks": 161280,
            "time": 84,
            "velocity": 0.7874015748031497
          },
          {
            "duration": 0.0625,
            "durationTicks": 120,
            "midi": 60,
            "name": "C4",
            "ticks": 161760,
            "time": 84.25,
            "velocity": 0.7874015748031497
          },
          {
            "duration": 0.0625,
            "durationTicks": 120,
            "midi": 60,
            "name": "C4",
            "ticks": 162480,
            "time": 84.625,
            "velocity": 0.6299212598425197
          },
          {
            "duration": 0.0625,
            "durationTicks": 120,
            "midi": 60,
            "name": "C4",
            "ticks": 162720,
            "time": 84.75,
            "velocity": 0.7874015748031497
          },
          {
            "duration": 0.0625,
            "durationTicks": 120,
            "midi": 60,
            "name": "C4",
            "ticks": 162960,
            "time": 84.875,
            "velocity": 0.5905511811023622
          },
          {
            "duration": 0.0625,
            "durationTicks": 120,
            "midi": 60,
            "name": "C4",
            "ticks": 163200,
            "time": 85,
            "velocity": 0.7874015748031497
          },
          {
            "duration": 0.0625,
            "durationTicks": 120,
            "midi": 60,
            "name": "C4",
            "ticks": 163440,
            "time": 85.125,
            "velocity": 0.7874015748031497
          },
          {
            "duration": 0.0625,
            "durationTicks": 120,
            "midi": 60,
            "name": "C4",
            "ticks": 163920,
            "time": 85.375,
            "velocity": 0.7874015748031497
          },
          {
            "duration": 0.0625,
            "durationTicks": 120,
            "midi": 60,
            "name": "C4",
            "ticks": 164160,
            "time": 85.5,
            "velocity": 0.7874015748031497
          },
          {
            "duration": 0.0625,
            "durationTicks": 120,
            "midi": 60,
            "name": "C4",
            "ticks": 164640,
            "time": 85.75,
            "velocity": 0.6299212598425197
          },
          {
            "duration": 0.0625,
            "durationTicks": 120,
            "midi": 60,
            "name": "C4",
            "ticks": 164880,
            "time": 85.875,
            "velocity": 0.47244094488188976
          },
          {
            "duration": 0.0625,
            "durationTicks": 120,
            "midi": 60,
            "name": "C4",
            "ticks": 165120,
            "time": 86,
            "velocity": 0.7874015748031497
          },
          {
            "duration": 0.0625,
            "durationTicks": 120,
            "midi": 60,
            "name": "C4",
            "ticks": 165600,
            "time": 86.25,
            "velocity": 0.7874015748031497
          },
          {
            "duration": 0.0625,
            "durationTicks": 120,
            "midi": 60,
            "name": "C4",
            "ticks": 166320,
            "time": 86.625,
            "velocity": 0.6299212598425197
          },
          {
            "duration": 0.0625,
            "durationTicks": 120,
            "midi": 60,
            "name": "C4",
            "ticks": 166560,
            "time": 86.75,
            "velocity": 0.7874015748031497
          },
          {
            "duration": 0.0625,
            "durationTicks": 120,
            "midi": 60,
            "name": "C4",
            "ticks": 166800,
            "time": 86.875,
            "velocity": 0.5905511811023622
          },
          {
            "duration": 0.0625,
            "durationTicks": 120,
            "midi": 60,
            "name": "C4",
            "ticks": 167040,
            "time": 87,
            "velocity": 0.7874015748031497
          },
          {
            "duration": 0.0625,
            "durationTicks": 120,
            "midi": 60,
            "name": "C4",
            "ticks": 167280,
            "time": 87.125,
            "velocity": 0.7874015748031497
          },
          {
            "duration": 0.0625,
            "durationTicks": 120,
            "midi": 60,
            "name": "C4",
            "ticks": 167520,
            "time": 87.25,
            "velocity": 0.7874015748031497
          },
          {
            "duration": 0.0625,
            "durationTicks": 120,
            "midi": 60,
            "name": "C4",
            "ticks": 167760,
            "time": 87.375,
            "velocity": 0.7874015748031497
          },
          {
            "duration": 0.0625,
            "durationTicks": 120,
            "midi": 72,
            "name": "C5",
            "ticks": 168000,
            "time": 87.5,
            "velocity": 0.7874015748031497
          },
          {
            "duration": 0.0625,
            "durationTicks": 120,
            "midi": 60,
            "name": "C4",
            "ticks": 168480,
            "time": 87.75,
            "velocity": 0.5905511811023622
          },
          {
            "duration": 0.0625,
            "durationTicks": 120,
            "midi": 60,
            "name": "C4",
            "ticks": 168720,
            "time": 87.875,
            "velocity": 0.6299212598425197
          },
          {
            "duration": 0.0625,
            "durationTicks": 120,
            "midi": 60,
            "name": "C4",
            "ticks": 168960,
            "time": 88,
            "velocity": 0.7874015748031497
          },
          {
            "duration": 0.0625,
            "durationTicks": 120,
            "midi": 60,
            "name": "C4",
            "ticks": 169440,
            "time": 88.25,
            "velocity": 0.7874015748031497
          },
          {
            "duration": 0.0625,
            "durationTicks": 120,
            "midi": 60,
            "name": "C4",
            "ticks": 170160,
            "time": 88.625,
            "velocity": 0.6299212598425197
          },
          {
            "duration": 0.0625,
            "durationTicks": 120,
            "midi": 60,
            "name": "C4",
            "ticks": 170400,
            "time": 88.75,
            "velocity": 0.7874015748031497
          },
          {
            "duration": 0.0625,
            "durationTicks": 120,
            "midi": 60,
            "name": "C4",
            "ticks": 170640,
            "time": 88.875,
            "velocity": 0.5905511811023622
          },
          {
            "duration": 0.0625,
            "durationTicks": 120,
            "midi": 60,
            "name": "C4",
            "ticks": 170880,
            "time": 89,
            "velocity": 0.7874015748031497
          },
          {
            "duration": 0.0625,
            "durationTicks": 120,
            "midi": 60,
            "name": "C4",
            "ticks": 171120,
            "time": 89.125,
            "velocity": 0.7874015748031497
          },
          {
            "duration": 0.0625,
            "durationTicks": 120,
            "midi": 60,
            "name": "C4",
            "ticks": 171600,
            "time": 89.375,
            "velocity": 0.7874015748031497
          },
          {
            "duration": 0.0625,
            "durationTicks": 120,
            "midi": 60,
            "name": "C4",
            "ticks": 171840,
            "time": 89.5,
            "velocity": 0.7874015748031497
          },
          {
            "duration": 0.0625,
            "durationTicks": 120,
            "midi": 60,
            "name": "C4",
            "ticks": 172320,
            "time": 89.75,
            "velocity": 0.6299212598425197
          },
          {
            "duration": 0.0625,
            "durationTicks": 120,
            "midi": 60,
            "name": "C4",
            "ticks": 172560,
            "time": 89.875,
            "velocity": 0.47244094488188976
          },
          {
            "duration": 0.0625,
            "durationTicks": 120,
            "midi": 60,
            "name": "C4",
            "ticks": 172800,
            "time": 90,
            "velocity": 0.7874015748031497
          },
          {
            "duration": 0.0625,
            "durationTicks": 120,
            "midi": 60,
            "name": "C4",
            "ticks": 173280,
            "time": 90.25,
            "velocity": 0.7874015748031497
          },
          {
            "duration": 0.0625,
            "durationTicks": 120,
            "midi": 60,
            "name": "C4",
            "ticks": 174000,
            "time": 90.625,
            "velocity": 0.6299212598425197
          },
          {
            "duration": 0.0625,
            "durationTicks": 120,
            "midi": 60,
            "name": "C4",
            "ticks": 174240,
            "time": 90.75,
            "velocity": 0.7874015748031497
          },
          {
            "duration": 0.0625,
            "durationTicks": 120,
            "midi": 60,
            "name": "C4",
            "ticks": 174480,
            "time": 90.875,
            "velocity": 0.5905511811023622
          },
          {
            "duration": 0.0625,
            "durationTicks": 120,
            "midi": 60,
            "name": "C4",
            "ticks": 174720,
            "time": 91,
            "velocity": 0.7874015748031497
          },
          {
            "duration": 0.0625,
            "durationTicks": 120,
            "midi": 60,
            "name": "C4",
            "ticks": 174960,
            "time": 91.125,
            "velocity": 0.7874015748031497
          },
          {
            "duration": 0.0625,
            "durationTicks": 120,
            "midi": 60,
            "name": "C4",
            "ticks": 175440,
            "time": 91.375,
            "velocity": 0.7874015748031497
          },
          {
            "duration": 0.0625,
            "durationTicks": 120,
            "midi": 60,
            "name": "C4",
            "ticks": 175680,
            "time": 91.5,
            "velocity": 0.7874015748031497
          },
          {
            "duration": 0.0625,
            "durationTicks": 120,
            "midi": 60,
            "name": "C4",
            "ticks": 176160,
            "time": 91.75,
            "velocity": 0.6299212598425197
          },
          {
            "duration": 0.0625,
            "durationTicks": 120,
            "midi": 60,
            "name": "C4",
            "ticks": 176400,
            "time": 91.875,
            "velocity": 0.47244094488188976
          },
          {
            "duration": 0.0625,
            "durationTicks": 120,
            "midi": 60,
            "name": "C4",
            "ticks": 176640,
            "time": 92,
            "velocity": 0.7874015748031497
          },
          {
            "duration": 0.0625,
            "durationTicks": 120,
            "midi": 60,
            "name": "C4",
            "ticks": 177120,
            "time": 92.25,
            "velocity": 0.7874015748031497
          },
          {
            "duration": 0.0625,
            "durationTicks": 120,
            "midi": 60,
            "name": "C4",
            "ticks": 177840,
            "time": 92.625,
            "velocity": 0.6299212598425197
          },
          {
            "duration": 0.0625,
            "durationTicks": 120,
            "midi": 60,
            "name": "C4",
            "ticks": 178080,
            "time": 92.75,
            "velocity": 0.7874015748031497
          },
          {
            "duration": 0.0625,
            "durationTicks": 120,
            "midi": 60,
            "name": "C4",
            "ticks": 178320,
            "time": 92.875,
            "velocity": 0.5905511811023622
          },
          {
            "duration": 0.0625,
            "durationTicks": 120,
            "midi": 60,
            "name": "C4",
            "ticks": 178560,
            "time": 93,
            "velocity": 0.7874015748031497
          },
          {
            "duration": 0.0625,
            "durationTicks": 120,
            "midi": 60,
            "name": "C4",
            "ticks": 178800,
            "time": 93.125,
            "velocity": 0.7874015748031497
          },
          {
            "duration": 0.0625,
            "durationTicks": 120,
            "midi": 60,
            "name": "C4",
            "ticks": 179280,
            "time": 93.375,
            "velocity": 0.7874015748031497
          },
          {
            "duration": 0.0625,
            "durationTicks": 120,
            "midi": 60,
            "name": "C4",
            "ticks": 179520,
            "time": 93.5,
            "velocity": 0.7874015748031497
          },
          {
            "duration": 0.0625,
            "durationTicks": 120,
            "midi": 60,
            "name": "C4",
            "ticks": 180000,
            "time": 93.75,
            "velocity": 0.6299212598425197
          },
          {
            "duration": 0.0625,
            "durationTicks": 120,
            "midi": 60,
            "name": "C4",
            "ticks": 180240,
            "time": 93.875,
            "velocity": 0.47244094488188976
          },
          {
            "duration": 0.0625,
            "durationTicks": 120,
            "midi": 60,
            "name": "C4",
            "ticks": 180480,
            "time": 94,
            "velocity": 0.7874015748031497
          },
          {
            "duration": 0.0625,
            "durationTicks": 120,
            "midi": 60,
            "name": "C4",
            "ticks": 180960,
            "time": 94.25,
            "velocity": 0.7874015748031497
          },
          {
            "duration": 0.0625,
            "durationTicks": 120,
            "midi": 60,
            "name": "C4",
            "ticks": 181680,
            "time": 94.625,
            "velocity": 0.6299212598425197
          },
          {
            "duration": 0.0625,
            "durationTicks": 120,
            "midi": 60,
            "name": "C4",
            "ticks": 181920,
            "time": 94.75,
            "velocity": 0.7874015748031497
          },
          {
            "duration": 0.0625,
            "durationTicks": 120,
            "midi": 60,
            "name": "C4",
            "ticks": 182160,
            "time": 94.875,
            "velocity": 0.5905511811023622
          },
          {
            "duration": 0.0625,
            "durationTicks": 120,
            "midi": 60,
            "name": "C4",
            "ticks": 182400,
            "time": 95,
            "velocity": 0.7874015748031497
          },
          {
            "duration": 0.0625,
            "durationTicks": 120,
            "midi": 60,
            "name": "C4",
            "ticks": 182640,
            "time": 95.125,
            "velocity": 0.7874015748031497
          },
          {
            "duration": 0.0625,
            "durationTicks": 120,
            "midi": 60,
            "name": "C4",
            "ticks": 182880,
            "time": 95.25,
            "velocity": 0.7874015748031497
          },
          {
            "duration": 0.0625,
            "durationTicks": 120,
            "midi": 60,
            "name": "C4",
            "ticks": 183120,
            "time": 95.375,
            "velocity": 0.7874015748031497
          },
          {
            "duration": 0.0625,
            "durationTicks": 120,
            "midi": 60,
            "name": "C4",
            "ticks": 183360,
            "time": 95.5,
            "velocity": 0.7874015748031497
          },
          {
            "duration": 0.0625,
            "durationTicks": 120,
            "midi": 60,
            "name": "C4",
            "ticks": 183840,
            "time": 95.75,
            "velocity": 0.5905511811023622
          },
          {
            "duration": 0.0625,
            "durationTicks": 120,
            "midi": 60,
            "name": "C4",
            "ticks": 184080,
            "time": 95.875,
            "velocity": 0.6299212598425197
          },
          {
            "duration": 0.0625,
            "durationTicks": 120,
            "midi": 60,
            "name": "C4",
            "ticks": 184320,
            "time": 96,
            "velocity": 0.7874015748031497
          },
          {
            "duration": 0.0625,
            "durationTicks": 120,
            "midi": 60,
            "name": "C4",
            "ticks": 184800,
            "time": 96.25,
            "velocity": 0.7874015748031497
          },
          {
            "duration": 0.0625,
            "durationTicks": 120,
            "midi": 60,
            "name": "C4",
            "ticks": 185520,
            "time": 96.625,
            "velocity": 0.6299212598425197
          },
          {
            "duration": 0.0625,
            "durationTicks": 120,
            "midi": 60,
            "name": "C4",
            "ticks": 185760,
            "time": 96.75,
            "velocity": 0.7874015748031497
          },
          {
            "duration": 0.0625,
            "durationTicks": 120,
            "midi": 60,
            "name": "C4",
            "ticks": 186000,
            "time": 96.875,
            "velocity": 0.5905511811023622
          },
          {
            "duration": 0.0625,
            "durationTicks": 120,
            "midi": 60,
            "name": "C4",
            "ticks": 186240,
            "time": 97,
            "velocity": 0.7874015748031497
          },
          {
            "duration": 0.0625,
            "durationTicks": 120,
            "midi": 60,
            "name": "C4",
            "ticks": 186480,
            "time": 97.125,
            "velocity": 0.7874015748031497
          },
          {
            "duration": 0.0625,
            "durationTicks": 120,
            "midi": 60,
            "name": "C4",
            "ticks": 186960,
            "time": 97.375,
            "velocity": 0.7874015748031497
          },
          {
            "duration": 0.0625,
            "durationTicks": 120,
            "midi": 60,
            "name": "C4",
            "ticks": 187200,
            "time": 97.5,
            "velocity": 0.7874015748031497
          },
          {
            "duration": 0.0625,
            "durationTicks": 120,
            "midi": 60,
            "name": "C4",
            "ticks": 187680,
            "time": 97.75,
            "velocity": 0.6299212598425197
          },
          {
            "duration": 0.0625,
            "durationTicks": 120,
            "midi": 60,
            "name": "C4",
            "ticks": 187920,
            "time": 97.875,
            "velocity": 0.47244094488188976
          },
          {
            "duration": 0.0625,
            "durationTicks": 120,
            "midi": 60,
            "name": "C4",
            "ticks": 188160,
            "time": 98,
            "velocity": 0.7874015748031497
          },
          {
            "duration": 0.0625,
            "durationTicks": 120,
            "midi": 60,
            "name": "C4",
            "ticks": 188640,
            "time": 98.25,
            "velocity": 0.7874015748031497
          },
          {
            "duration": 0.0625,
            "durationTicks": 120,
            "midi": 60,
            "name": "C4",
            "ticks": 189360,
            "time": 98.625,
            "velocity": 0.6299212598425197
          },
          {
            "duration": 0.0625,
            "durationTicks": 120,
            "midi": 60,
            "name": "C4",
            "ticks": 189600,
            "time": 98.75,
            "velocity": 0.7874015748031497
          },
          {
            "duration": 0.0625,
            "durationTicks": 120,
            "midi": 60,
            "name": "C4",
            "ticks": 189840,
            "time": 98.875,
            "velocity": 0.5905511811023622
          },
          {
            "duration": 0.0625,
            "durationTicks": 120,
            "midi": 60,
            "name": "C4",
            "ticks": 190080,
            "time": 99,
            "velocity": 0.7874015748031497
          },
          {
            "duration": 0.0625,
            "durationTicks": 120,
            "midi": 60,
            "name": "C4",
            "ticks": 190320,
            "time": 99.125,
            "velocity": 0.7874015748031497
          },
          {
            "duration": 0.0625,
            "durationTicks": 120,
            "midi": 60,
            "name": "C4",
            "ticks": 190800,
            "time": 99.375,
            "velocity": 0.7874015748031497
          },
          {
            "duration": 0.0625,
            "durationTicks": 120,
            "midi": 60,
            "name": "C4",
            "ticks": 191040,
            "time": 99.5,
            "velocity": 0.7874015748031497
          },
          {
            "duration": 0.0625,
            "durationTicks": 120,
            "midi": 60,
            "name": "C4",
            "ticks": 191520,
            "time": 99.75,
            "velocity": 0.6299212598425197
          },
          {
            "duration": 0.0625,
            "durationTicks": 120,
            "midi": 60,
            "name": "C4",
            "ticks": 191760,
            "time": 99.875,
            "velocity": 0.47244094488188976
          },
          {
            "duration": 0.0625,
            "durationTicks": 120,
            "midi": 60,
            "name": "C4",
            "ticks": 192000,
            "time": 100,
            "velocity": 0.7874015748031497
          },
          {
            "duration": 0.0625,
            "durationTicks": 120,
            "midi": 60,
            "name": "C4",
            "ticks": 192480,
            "time": 100.25,
            "velocity": 0.7874015748031497
          },
          {
            "duration": 0.0625,
            "durationTicks": 120,
            "midi": 60,
            "name": "C4",
            "ticks": 193200,
            "time": 100.625,
            "velocity": 0.6299212598425197
          },
          {
            "duration": 0.0625,
            "durationTicks": 120,
            "midi": 60,
            "name": "C4",
            "ticks": 193440,
            "time": 100.75,
            "velocity": 0.7874015748031497
          },
          {
            "duration": 0.0625,
            "durationTicks": 120,
            "midi": 60,
            "name": "C4",
            "ticks": 193680,
            "time": 100.875,
            "velocity": 0.5905511811023622
          },
          {
            "duration": 0.0625,
            "durationTicks": 120,
            "midi": 60,
            "name": "C4",
            "ticks": 193920,
            "time": 101,
            "velocity": 0.7874015748031497
          },
          {
            "duration": 0.0625,
            "durationTicks": 120,
            "midi": 60,
            "name": "C4",
            "ticks": 194160,
            "time": 101.125,
            "velocity": 0.7874015748031497
          },
          {
            "duration": 0.0625,
            "durationTicks": 120,
            "midi": 60,
            "name": "C4",
            "ticks": 194640,
            "time": 101.375,
            "velocity": 0.7874015748031497
          },
          {
            "duration": 0.0625,
            "durationTicks": 120,
            "midi": 60,
            "name": "C4",
            "ticks": 194880,
            "time": 101.5,
            "velocity": 0.7874015748031497
          },
          {
            "duration": 0.0625,
            "durationTicks": 120,
            "midi": 60,
            "name": "C4",
            "ticks": 195360,
            "time": 101.75,
            "velocity": 0.6299212598425197
          },
          {
            "duration": 0.0625,
            "durationTicks": 120,
            "midi": 60,
            "name": "C4",
            "ticks": 195600,
            "time": 101.875,
            "velocity": 0.47244094488188976
          },
          {
            "duration": 0.0625,
            "durationTicks": 120,
            "midi": 60,
            "name": "C4",
            "ticks": 195840,
            "time": 102,
            "velocity": 0.7874015748031497
          },
          {
            "duration": 0.0625,
            "durationTicks": 120,
            "midi": 60,
            "name": "C4",
            "ticks": 196320,
            "time": 102.25,
            "velocity": 0.7874015748031497
          },
          {
            "duration": 0.0625,
            "durationTicks": 120,
            "midi": 60,
            "name": "C4",
            "ticks": 197040,
            "time": 102.625,
            "velocity": 0.6299212598425197
          },
          {
            "duration": 0.0625,
            "durationTicks": 120,
            "midi": 60,
            "name": "C4",
            "ticks": 197280,
            "time": 102.75,
            "velocity": 0.7874015748031497
          },
          {
            "duration": 0.0625,
            "durationTicks": 120,
            "midi": 60,
            "name": "C4",
            "ticks": 197520,
            "time": 102.875,
            "velocity": 0.5905511811023622
          },
          {
            "duration": 0.0625,
            "durationTicks": 120,
            "midi": 60,
            "name": "C4",
            "ticks": 197760,
            "time": 103,
            "velocity": 0.7874015748031497
          },
          {
            "duration": 0.0625,
            "durationTicks": 120,
            "midi": 60,
            "name": "C4",
            "ticks": 198000,
            "time": 103.125,
            "velocity": 0.7874015748031497
          },
          {
            "duration": 0.0625,
            "durationTicks": 120,
            "midi": 60,
            "name": "C4",
            "ticks": 198240,
            "time": 103.25,
            "velocity": 0.7874015748031497
          },
          {
            "duration": 0.0625,
            "durationTicks": 120,
            "midi": 60,
            "name": "C4",
            "ticks": 198480,
            "time": 103.375,
            "velocity": 0.7874015748031497
          },
          {
            "duration": 0.0625,
            "durationTicks": 120,
            "midi": 72,
            "name": "C5",
            "ticks": 198720,
            "time": 103.5,
            "velocity": 0.7874015748031497
          },
          {
            "duration": 0.0625,
            "durationTicks": 120,
            "midi": 60,
            "name": "C4",
            "ticks": 199200,
            "time": 103.75,
            "velocity": 0.5905511811023622
          },
          {
            "duration": 0.0625,
            "durationTicks": 120,
            "midi": 60,
            "name": "C4",
            "ticks": 199440,
            "time": 103.875,
            "velocity": 0.6299212598425197
          },
          {
            "duration": 0.0625,
            "durationTicks": 120,
            "midi": 60,
            "name": "C4",
            "ticks": 199680,
            "time": 104,
            "velocity": 0.7874015748031497
          },
          {
            "duration": 0.0625,
            "durationTicks": 120,
            "midi": 60,
            "name": "C4",
            "ticks": 200160,
            "time": 104.25,
            "velocity": 0.7874015748031497
          },
          {
            "duration": 0.0625,
            "durationTicks": 120,
            "midi": 60,
            "name": "C4",
            "ticks": 200880,
            "time": 104.625,
            "velocity": 0.6299212598425197
          },
          {
            "duration": 0.0625,
            "durationTicks": 120,
            "midi": 60,
            "name": "C4",
            "ticks": 201120,
            "time": 104.75,
            "velocity": 0.7874015748031497
          },
          {
            "duration": 0.0625,
            "durationTicks": 120,
            "midi": 60,
            "name": "C4",
            "ticks": 201360,
            "time": 104.875,
            "velocity": 0.5905511811023622
          },
          {
            "duration": 0.0625,
            "durationTicks": 120,
            "midi": 60,
            "name": "C4",
            "ticks": 201600,
            "time": 105,
            "velocity": 0.7874015748031497
          },
          {
            "duration": 0.0625,
            "durationTicks": 120,
            "midi": 60,
            "name": "C4",
            "ticks": 201840,
            "time": 105.125,
            "velocity": 0.7874015748031497
          },
          {
            "duration": 0.0625,
            "durationTicks": 120,
            "midi": 60,
            "name": "C4",
            "ticks": 202320,
            "time": 105.375,
            "velocity": 0.7874015748031497
          },
          {
            "duration": 0.0625,
            "durationTicks": 120,
            "midi": 60,
            "name": "C4",
            "ticks": 202560,
            "time": 105.5,
            "velocity": 0.7874015748031497
          },
          {
            "duration": 0.0625,
            "durationTicks": 120,
            "midi": 60,
            "name": "C4",
            "ticks": 203040,
            "time": 105.75,
            "velocity": 0.6299212598425197
          },
          {
            "duration": 0.0625,
            "durationTicks": 120,
            "midi": 60,
            "name": "C4",
            "ticks": 203280,
            "time": 105.875,
            "velocity": 0.47244094488188976
          },
          {
            "duration": 0.0625,
            "durationTicks": 120,
            "midi": 60,
            "name": "C4",
            "ticks": 203520,
            "time": 106,
            "velocity": 0.7874015748031497
          },
          {
            "duration": 0.0625,
            "durationTicks": 120,
            "midi": 60,
            "name": "C4",
            "ticks": 204000,
            "time": 106.25,
            "velocity": 0.7874015748031497
          },
          {
            "duration": 0.0625,
            "durationTicks": 120,
            "midi": 60,
            "name": "C4",
            "ticks": 204720,
            "time": 106.625,
            "velocity": 0.6299212598425197
          },
          {
            "duration": 0.0625,
            "durationTicks": 120,
            "midi": 60,
            "name": "C4",
            "ticks": 204960,
            "time": 106.75,
            "velocity": 0.7874015748031497
          },
          {
            "duration": 0.0625,
            "durationTicks": 120,
            "midi": 60,
            "name": "C4",
            "ticks": 205200,
            "time": 106.875,
            "velocity": 0.5905511811023622
          },
          {
            "duration": 0.0625,
            "durationTicks": 120,
            "midi": 60,
            "name": "C4",
            "ticks": 205440,
            "time": 107,
            "velocity": 0.7874015748031497
          },
          {
            "duration": 0.0625,
            "durationTicks": 120,
            "midi": 60,
            "name": "C4",
            "ticks": 205680,
            "time": 107.125,
            "velocity": 0.7874015748031497
          },
          {
            "duration": 0.0625,
            "durationTicks": 120,
            "midi": 60,
            "name": "C4",
            "ticks": 206160,
            "time": 107.375,
            "velocity": 0.7874015748031497
          },
          {
            "duration": 0.0625,
            "durationTicks": 120,
            "midi": 60,
            "name": "C4",
            "ticks": 206400,
            "time": 107.5,
            "velocity": 0.7874015748031497
          },
          {
            "duration": 0.0625,
            "durationTicks": 120,
            "midi": 60,
            "name": "C4",
            "ticks": 206880,
            "time": 107.75,
            "velocity": 0.6299212598425197
          },
          {
            "duration": 0.0625,
            "durationTicks": 120,
            "midi": 60,
            "name": "C4",
            "ticks": 207120,
            "time": 107.875,
            "velocity": 0.47244094488188976
          },
          {
            "duration": 0.0625,
            "durationTicks": 120,
            "midi": 60,
            "name": "C4",
            "ticks": 207360,
            "time": 108,
            "velocity": 0.7874015748031497
          },
          {
            "duration": 0.0625,
            "durationTicks": 120,
            "midi": 60,
            "name": "C4",
            "ticks": 207840,
            "time": 108.25,
            "velocity": 0.7874015748031497
          },
          {
            "duration": 0.0625,
            "durationTicks": 120,
            "midi": 60,
            "name": "C4",
            "ticks": 208560,
            "time": 108.625,
            "velocity": 0.6299212598425197
          },
          {
            "duration": 0.0625,
            "durationTicks": 120,
            "midi": 60,
            "name": "C4",
            "ticks": 208800,
            "time": 108.75,
            "velocity": 0.7874015748031497
          },
          {
            "duration": 0.0625,
            "durationTicks": 120,
            "midi": 60,
            "name": "C4",
            "ticks": 209040,
            "time": 108.875,
            "velocity": 0.5905511811023622
          },
          {
            "duration": 0.0625,
            "durationTicks": 120,
            "midi": 60,
            "name": "C4",
            "ticks": 209280,
            "time": 109,
            "velocity": 0.7874015748031497
          },
          {
            "duration": 0.0625,
            "durationTicks": 120,
            "midi": 60,
            "name": "C4",
            "ticks": 209520,
            "time": 109.125,
            "velocity": 0.7874015748031497
          },
          {
            "duration": 0.0625,
            "durationTicks": 120,
            "midi": 60,
            "name": "C4",
            "ticks": 210000,
            "time": 109.375,
            "velocity": 0.7874015748031497
          },
          {
            "duration": 0.0625,
            "durationTicks": 120,
            "midi": 60,
            "name": "C4",
            "ticks": 210240,
            "time": 109.5,
            "velocity": 0.7874015748031497
          },
          {
            "duration": 0.0625,
            "durationTicks": 120,
            "midi": 60,
            "name": "C4",
            "ticks": 210720,
            "time": 109.75,
            "velocity": 0.6299212598425197
          },
          {
            "duration": 0.0625,
            "durationTicks": 120,
            "midi": 60,
            "name": "C4",
            "ticks": 210960,
            "time": 109.875,
            "velocity": 0.47244094488188976
          },
          {
            "duration": 0.0625,
            "durationTicks": 120,
            "midi": 60,
            "name": "C4",
            "ticks": 211200,
            "time": 110,
            "velocity": 0.7874015748031497
          },
          {
            "duration": 0.0625,
            "durationTicks": 120,
            "midi": 60,
            "name": "C4",
            "ticks": 211680,
            "time": 110.25,
            "velocity": 0.7874015748031497
          },
          {
            "duration": 0.0625,
            "durationTicks": 120,
            "midi": 60,
            "name": "C4",
            "ticks": 212400,
            "time": 110.625,
            "velocity": 0.6299212598425197
          },
          {
            "duration": 0.0625,
            "durationTicks": 120,
            "midi": 60,
            "name": "C4",
            "ticks": 212640,
            "time": 110.75,
            "velocity": 0.7874015748031497
          },
          {
            "duration": 0.0625,
            "durationTicks": 120,
            "midi": 60,
            "name": "C4",
            "ticks": 212880,
            "time": 110.875,
            "velocity": 0.5905511811023622
          },
          {
            "duration": 0.0625,
            "durationTicks": 120,
            "midi": 60,
            "name": "C4",
            "ticks": 213120,
            "time": 111,
            "velocity": 0.7874015748031497
          },
          {
            "duration": 0.0625,
            "durationTicks": 120,
            "midi": 60,
            "name": "C4",
            "ticks": 213360,
            "time": 111.125,
            "velocity": 0.7874015748031497
          },
          {
            "duration": 0.0625,
            "durationTicks": 120,
            "midi": 60,
            "name": "C4",
            "ticks": 213600,
            "time": 111.25,
            "velocity": 0.7874015748031497
          },
          {
            "duration": 0.0625,
            "durationTicks": 120,
            "midi": 60,
            "name": "C4",
            "ticks": 213840,
            "time": 111.375,
            "velocity": 0.7874015748031497
          },
          {
            "duration": 0.0625,
            "durationTicks": 120,
            "midi": 60,
            "name": "C4",
            "ticks": 214080,
            "time": 111.5,
            "velocity": 0.7874015748031497
          },
          {
            "duration": 0.0625,
            "durationTicks": 120,
            "midi": 60,
            "name": "C4",
            "ticks": 214560,
            "time": 111.75,
            "velocity": 0.5905511811023622
          },
          {
            "duration": 0.0625,
            "durationTicks": 120,
            "midi": 60,
            "name": "C4",
            "ticks": 214800,
            "time": 111.875,
            "velocity": 0.6299212598425197
          },
          {
            "duration": 0.0625,
            "durationTicks": 120,
            "midi": 60,
            "name": "C4",
            "ticks": 215040,
            "time": 112,
            "velocity": 0.7874015748031497
          },
          {
            "duration": 0.0625,
            "durationTicks": 120,
            "midi": 60,
            "name": "C4",
            "ticks": 215520,
            "time": 112.25,
            "velocity": 0.7874015748031497
          },
          {
            "duration": 0.0625,
            "durationTicks": 120,
            "midi": 60,
            "name": "C4",
            "ticks": 216240,
            "time": 112.625,
            "velocity": 0.6299212598425197
          },
          {
            "duration": 0.0625,
            "durationTicks": 120,
            "midi": 60,
            "name": "C4",
            "ticks": 216480,
            "time": 112.75,
            "velocity": 0.7874015748031497
          },
          {
            "duration": 0.0625,
            "durationTicks": 120,
            "midi": 60,
            "name": "C4",
            "ticks": 216720,
            "time": 112.875,
            "velocity": 0.5905511811023622
          },
          {
            "duration": 0.0625,
            "durationTicks": 120,
            "midi": 60,
            "name": "C4",
            "ticks": 216960,
            "time": 113,
            "velocity": 0.7874015748031497
          },
          {
            "duration": 0.0625,
            "durationTicks": 120,
            "midi": 60,
            "name": "C4",
            "ticks": 217200,
            "time": 113.125,
            "velocity": 0.7874015748031497
          },
          {
            "duration": 0.0625,
            "durationTicks": 120,
            "midi": 60,
            "name": "C4",
            "ticks": 217680,
            "time": 113.375,
            "velocity": 0.7874015748031497
          },
          {
            "duration": 0.0625,
            "durationTicks": 120,
            "midi": 60,
            "name": "C4",
            "ticks": 217920,
            "time": 113.5,
            "velocity": 0.7874015748031497
          },
          {
            "duration": 0.0625,
            "durationTicks": 120,
            "midi": 60,
            "name": "C4",
            "ticks": 218400,
            "time": 113.75,
            "velocity": 0.6299212598425197
          },
          {
            "duration": 0.0625,
            "durationTicks": 120,
            "midi": 60,
            "name": "C4",
            "ticks": 218640,
            "time": 113.875,
            "velocity": 0.47244094488188976
          },
          {
            "duration": 0.0625,
            "durationTicks": 120,
            "midi": 60,
            "name": "C4",
            "ticks": 218880,
            "time": 114,
            "velocity": 0.7874015748031497
          },
          {
            "duration": 0.0625,
            "durationTicks": 120,
            "midi": 60,
            "name": "C4",
            "ticks": 219360,
            "time": 114.25,
            "velocity": 0.7874015748031497
          },
          {
            "duration": 0.0625,
            "durationTicks": 120,
            "midi": 60,
            "name": "C4",
            "ticks": 220080,
            "time": 114.625,
            "velocity": 0.6299212598425197
          },
          {
            "duration": 0.0625,
            "durationTicks": 120,
            "midi": 60,
            "name": "C4",
            "ticks": 220320,
            "time": 114.75,
            "velocity": 0.7874015748031497
          },
          {
            "duration": 0.0625,
            "durationTicks": 120,
            "midi": 60,
            "name": "C4",
            "ticks": 220560,
            "time": 114.875,
            "velocity": 0.5905511811023622
          },
          {
            "duration": 0.0625,
            "durationTicks": 120,
            "midi": 60,
            "name": "C4",
            "ticks": 220800,
            "time": 115,
            "velocity": 0.7874015748031497
          },
          {
            "duration": 0.0625,
            "durationTicks": 120,
            "midi": 60,
            "name": "C4",
            "ticks": 221040,
            "time": 115.125,
            "velocity": 0.7874015748031497
          },
          {
            "duration": 0.0625,
            "durationTicks": 120,
            "midi": 60,
            "name": "C4",
            "ticks": 221520,
            "time": 115.375,
            "velocity": 0.7874015748031497
          },
          {
            "duration": 0.0625,
            "durationTicks": 120,
            "midi": 60,
            "name": "C4",
            "ticks": 221760,
            "time": 115.5,
            "velocity": 0.7874015748031497
          },
          {
            "duration": 0.0625,
            "durationTicks": 120,
            "midi": 60,
            "name": "C4",
            "ticks": 222240,
            "time": 115.75,
            "velocity": 0.6299212598425197
          },
          {
            "duration": 0.0625,
            "durationTicks": 120,
            "midi": 60,
            "name": "C4",
            "ticks": 222480,
            "time": 115.875,
            "velocity": 0.47244094488188976
          },
          {
            "duration": 0.0625,
            "durationTicks": 120,
            "midi": 60,
            "name": "C4",
            "ticks": 222720,
            "time": 116,
            "velocity": 0.7874015748031497
          },
          {
            "duration": 0.0625,
            "durationTicks": 120,
            "midi": 60,
            "name": "C4",
            "ticks": 223200,
            "time": 116.25,
            "velocity": 0.7874015748031497
          },
          {
            "duration": 0.0625,
            "durationTicks": 120,
            "midi": 60,
            "name": "C4",
            "ticks": 223920,
            "time": 116.625,
            "velocity": 0.6299212598425197
          },
          {
            "duration": 0.0625,
            "durationTicks": 120,
            "midi": 60,
            "name": "C4",
            "ticks": 224160,
            "time": 116.75,
            "velocity": 0.7874015748031497
          },
          {
            "duration": 0.0625,
            "durationTicks": 120,
            "midi": 60,
            "name": "C4",
            "ticks": 224400,
            "time": 116.875,
            "velocity": 0.5905511811023622
          },
          {
            "duration": 0.0625,
            "durationTicks": 120,
            "midi": 60,
            "name": "C4",
            "ticks": 224640,
            "time": 117,
            "velocity": 0.7874015748031497
          },
          {
            "duration": 0.0625,
            "durationTicks": 120,
            "midi": 60,
            "name": "C4",
            "ticks": 224880,
            "time": 117.125,
            "velocity": 0.7874015748031497
          },
          {
            "duration": 0.0625,
            "durationTicks": 120,
            "midi": 60,
            "name": "C4",
            "ticks": 225360,
            "time": 117.375,
            "velocity": 0.7874015748031497
          },
          {
            "duration": 0.0625,
            "durationTicks": 120,
            "midi": 60,
            "name": "C4",
            "ticks": 225600,
            "time": 117.5,
            "velocity": 0.7874015748031497
          },
          {
            "duration": 0.0625,
            "durationTicks": 120,
            "midi": 60,
            "name": "C4",
            "ticks": 226080,
            "time": 117.75,
            "velocity": 0.6299212598425197
          },
          {
            "duration": 0.0625,
            "durationTicks": 120,
            "midi": 60,
            "name": "C4",
            "ticks": 226320,
            "time": 117.875,
            "velocity": 0.47244094488188976
          },
          {
            "duration": 0.0625,
            "durationTicks": 120,
            "midi": 60,
            "name": "C4",
            "ticks": 226560,
            "time": 118,
            "velocity": 0.7874015748031497
          },
          {
            "duration": 0.0625,
            "durationTicks": 120,
            "midi": 60,
            "name": "C4",
            "ticks": 227040,
            "time": 118.25,
            "velocity": 0.7874015748031497
          },
          {
            "duration": 0.0625,
            "durationTicks": 120,
            "midi": 60,
            "name": "C4",
            "ticks": 227760,
            "time": 118.625,
            "velocity": 0.6299212598425197
          },
          {
            "duration": 0.0625,
            "durationTicks": 120,
            "midi": 60,
            "name": "C4",
            "ticks": 228000,
            "time": 118.75,
            "velocity": 0.7874015748031497
          },
          {
            "duration": 0.0625,
            "durationTicks": 120,
            "midi": 60,
            "name": "C4",
            "ticks": 228240,
            "time": 118.875,
            "velocity": 0.5905511811023622
          },
          {
            "duration": 0.0625,
            "durationTicks": 120,
            "midi": 60,
            "name": "C4",
            "ticks": 228480,
            "time": 119,
            "velocity": 0.7874015748031497
          },
          {
            "duration": 0.0625,
            "durationTicks": 120,
            "midi": 60,
            "name": "C4",
            "ticks": 228720,
            "time": 119.125,
            "velocity": 0.7874015748031497
          },
          {
            "duration": 0.0625,
            "durationTicks": 120,
            "midi": 60,
            "name": "C4",
            "ticks": 228960,
            "time": 119.25,
            "velocity": 0.7874015748031497
          },
          {
            "duration": 0.0625,
            "durationTicks": 120,
            "midi": 60,
            "name": "C4",
            "ticks": 229200,
            "time": 119.375,
            "velocity": 0.7874015748031497
          },
          {
            "duration": 0.0625,
            "durationTicks": 120,
            "midi": 72,
            "name": "C5",
            "ticks": 229440,
            "time": 119.5,
            "velocity": 0.7874015748031497
          },
          {
            "duration": 0.0625,
            "durationTicks": 120,
            "midi": 60,
            "name": "C4",
            "ticks": 229920,
            "time": 119.75,
            "velocity": 0.5905511811023622
          },
          {
            "duration": 0.0625,
            "durationTicks": 120,
            "midi": 60,
            "name": "C4",
            "ticks": 230160,
            "time": 119.875,
            "velocity": 0.6299212598425197
          },
          {
            "duration": 0.0625,
            "durationTicks": 120,
            "midi": 60,
            "name": "C4",
            "ticks": 230400,
            "time": 120,
            "velocity": 0.7874015748031497
          },
          {
            "duration": 0.0625,
            "durationTicks": 120,
            "midi": 60,
            "name": "C4",
            "ticks": 230880,
            "time": 120.25,
            "velocity": 0.7874015748031497
          },
          {
            "duration": 0.0625,
            "durationTicks": 120,
            "midi": 60,
            "name": "C4",
            "ticks": 231600,
            "time": 120.625,
            "velocity": 0.6299212598425197
          },
          {
            "duration": 0.0625,
            "durationTicks": 120,
            "midi": 60,
            "name": "C4",
            "ticks": 231840,
            "time": 120.75,
            "velocity": 0.7874015748031497
          },
          {
            "duration": 0.0625,
            "durationTicks": 120,
            "midi": 60,
            "name": "C4",
            "ticks": 232080,
            "time": 120.875,
            "velocity": 0.5905511811023622
          },
          {
            "duration": 0.0625,
            "durationTicks": 120,
            "midi": 60,
            "name": "C4",
            "ticks": 232320,
            "time": 121,
            "velocity": 0.7874015748031497
          },
          {
            "duration": 0.0625,
            "durationTicks": 120,
            "midi": 60,
            "name": "C4",
            "ticks": 232560,
            "time": 121.125,
            "velocity": 0.7874015748031497
          },
          {
            "duration": 0.0625,
            "durationTicks": 120,
            "midi": 60,
            "name": "C4",
            "ticks": 233040,
            "time": 121.375,
            "velocity": 0.7874015748031497
          },
          {
            "duration": 0.0625,
            "durationTicks": 120,
            "midi": 60,
            "name": "C4",
            "ticks": 233280,
            "time": 121.5,
            "velocity": 0.7874015748031497
          },
          {
            "duration": 0.0625,
            "durationTicks": 120,
            "midi": 60,
            "name": "C4",
            "ticks": 233760,
            "time": 121.75,
            "velocity": 0.6299212598425197
          },
          {
            "duration": 0.0625,
            "durationTicks": 120,
            "midi": 60,
            "name": "C4",
            "ticks": 234000,
            "time": 121.875,
            "velocity": 0.47244094488188976
          },
          {
            "duration": 0.0625,
            "durationTicks": 120,
            "midi": 60,
            "name": "C4",
            "ticks": 234240,
            "time": 122,
            "velocity": 0.7874015748031497
          },
          {
            "duration": 0.0625,
            "durationTicks": 120,
            "midi": 60,
            "name": "C4",
            "ticks": 234720,
            "time": 122.25,
            "velocity": 0.7874015748031497
          },
          {
            "duration": 0.0625,
            "durationTicks": 120,
            "midi": 60,
            "name": "C4",
            "ticks": 235440,
            "time": 122.625,
            "velocity": 0.6299212598425197
          },
          {
            "duration": 0.0625,
            "durationTicks": 120,
            "midi": 60,
            "name": "C4",
            "ticks": 235680,
            "time": 122.75,
            "velocity": 0.7874015748031497
          },
          {
            "duration": 0.0625,
            "durationTicks": 120,
            "midi": 60,
            "name": "C4",
            "ticks": 235920,
            "time": 122.875,
            "velocity": 0.5905511811023622
          },
          {
            "duration": 0.0625,
            "durationTicks": 120,
            "midi": 60,
            "name": "C4",
            "ticks": 236160,
            "time": 123,
            "velocity": 0.7874015748031497
          },
          {
            "duration": 0.0625,
            "durationTicks": 120,
            "midi": 60,
            "name": "C4",
            "ticks": 236400,
            "time": 123.125,
            "velocity": 0.7874015748031497
          },
          {
            "duration": 0.0625,
            "durationTicks": 120,
            "midi": 60,
            "name": "C4",
            "ticks": 236880,
            "time": 123.375,
            "velocity": 0.7874015748031497
          },
          {
            "duration": 0.0625,
            "durationTicks": 120,
            "midi": 60,
            "name": "C4",
            "ticks": 237120,
            "time": 123.5,
            "velocity": 0.7874015748031497
          },
          {
            "duration": 0.0625,
            "durationTicks": 120,
            "midi": 60,
            "name": "C4",
            "ticks": 237600,
            "time": 123.75,
            "velocity": 0.6299212598425197
          },
          {
            "duration": 0.0625,
            "durationTicks": 120,
            "midi": 60,
            "name": "C4",
            "ticks": 237840,
            "time": 123.875,
            "velocity": 0.47244094488188976
          },
          {
            "duration": 0.0625,
            "durationTicks": 120,
            "midi": 60,
            "name": "C4",
            "ticks": 238080,
            "time": 124,
            "velocity": 0.7874015748031497
          },
          {
            "duration": 0.0625,
            "durationTicks": 120,
            "midi": 60,
            "name": "C4",
            "ticks": 238560,
            "time": 124.25,
            "velocity": 0.7874015748031497
          },
          {
            "duration": 0.0625,
            "durationTicks": 120,
            "midi": 60,
            "name": "C4",
            "ticks": 239280,
            "time": 124.625,
            "velocity": 0.6299212598425197
          },
          {
            "duration": 0.0625,
            "durationTicks": 120,
            "midi": 60,
            "name": "C4",
            "ticks": 239520,
            "time": 124.75,
            "velocity": 0.7874015748031497
          },
          {
            "duration": 0.0625,
            "durationTicks": 120,
            "midi": 60,
            "name": "C4",
            "ticks": 239760,
            "time": 124.875,
            "velocity": 0.5905511811023622
          },
          {
            "duration": 0.0625,
            "durationTicks": 120,
            "midi": 60,
            "name": "C4",
            "ticks": 240000,
            "time": 125,
            "velocity": 0.7874015748031497
          },
          {
            "duration": 0.0625,
            "durationTicks": 120,
            "midi": 60,
            "name": "C4",
            "ticks": 240240,
            "time": 125.125,
            "velocity": 0.7874015748031497
          },
          {
            "duration": 0.0625,
            "durationTicks": 120,
            "midi": 60,
            "name": "C4",
            "ticks": 240720,
            "time": 125.375,
            "velocity": 0.7874015748031497
          },
          {
            "duration": 0.0625,
            "durationTicks": 120,
            "midi": 60,
            "name": "C4",
            "ticks": 240960,
            "time": 125.5,
            "velocity": 0.7874015748031497
          },
          {
            "duration": 0.0625,
            "durationTicks": 120,
            "midi": 60,
            "name": "C4",
            "ticks": 241440,
            "time": 125.75,
            "velocity": 0.6299212598425197
          },
          {
            "duration": 0.0625,
            "durationTicks": 120,
            "midi": 60,
            "name": "C4",
            "ticks": 241680,
            "time": 125.875,
            "velocity": 0.47244094488188976
          },
          {
            "duration": 0.0625,
            "durationTicks": 120,
            "midi": 60,
            "name": "C4",
            "ticks": 241920,
            "time": 126,
            "velocity": 0.7874015748031497
          },
          {
            "duration": 0.0625,
            "durationTicks": 120,
            "midi": 60,
            "name": "C4",
            "ticks": 242400,
            "time": 126.25,
            "velocity": 0.7874015748031497
          },
          {
            "duration": 0.0625,
            "durationTicks": 120,
            "midi": 60,
            "name": "C4",
            "ticks": 243120,
            "time": 126.625,
            "velocity": 0.6299212598425197
          },
          {
            "duration": 0.0625,
            "durationTicks": 120,
            "midi": 60,
            "name": "C4",
            "ticks": 243360,
            "time": 126.75,
            "velocity": 0.7874015748031497
          },
          {
            "duration": 0.0625,
            "durationTicks": 120,
            "midi": 60,
            "name": "C4",
            "ticks": 243600,
            "time": 126.875,
            "velocity": 0.5905511811023622
          },
          {
            "duration": 0.0625,
            "durationTicks": 120,
            "midi": 60,
            "name": "C4",
            "ticks": 243840,
            "time": 127,
            "velocity": 0.7874015748031497
          },
          {
            "duration": 0.0625,
            "durationTicks": 120,
            "midi": 60,
            "name": "C4",
            "ticks": 244080,
            "time": 127.125,
            "velocity": 0.7874015748031497
          },
          {
            "duration": 0.0625,
            "durationTicks": 120,
            "midi": 60,
            "name": "C4",
            "ticks": 244320,
            "time": 127.25,
            "velocity": 0.7874015748031497
          },
          {
            "duration": 0.0625,
            "durationTicks": 120,
            "midi": 60,
            "name": "C4",
            "ticks": 244560,
            "time": 127.375,
            "velocity": 0.7874015748031497
          },
          {
            "duration": 0.0625,
            "durationTicks": 120,
            "midi": 60,
            "name": "C4",
            "ticks": 244800,
            "time": 127.5,
            "velocity": 0.7874015748031497
          },
          {
            "duration": 0.0625,
            "durationTicks": 120,
            "midi": 60,
            "name": "C4",
            "ticks": 245280,
            "time": 127.75,
            "velocity": 0.5905511811023622
          },
          {
            "duration": 0.0625,
            "durationTicks": 120,
            "midi": 60,
            "name": "C4",
            "ticks": 245520,
            "time": 127.875,
            "velocity": 0.6299212598425197
          },
          {
            "duration": 0.0625,
            "durationTicks": 120,
            "midi": 60,
            "name": "C4",
            "ticks": 245760,
            "time": 128,
            "velocity": 0.7874015748031497
          },
          {
            "duration": 0.0625,
            "durationTicks": 120,
            "midi": 60,
            "name": "C4",
            "ticks": 246240,
            "time": 128.25,
            "velocity": 0.7874015748031497
          },
          {
            "duration": 0.0625,
            "durationTicks": 120,
            "midi": 60,
            "name": "C4",
            "ticks": 246960,
            "time": 128.625,
            "velocity": 0.6299212598425197
          },
          {
            "duration": 0.0625,
            "durationTicks": 120,
            "midi": 60,
            "name": "C4",
            "ticks": 247200,
            "time": 128.75,
            "velocity": 0.7874015748031497
          },
          {
            "duration": 0.0625,
            "durationTicks": 120,
            "midi": 60,
            "name": "C4",
            "ticks": 247440,
            "time": 128.875,
            "velocity": 0.5905511811023622
          },
          {
            "duration": 0.0625,
            "durationTicks": 120,
            "midi": 60,
            "name": "C4",
            "ticks": 247680,
            "time": 129,
            "velocity": 0.7874015748031497
          },
          {
            "duration": 0.0625,
            "durationTicks": 120,
            "midi": 60,
            "name": "C4",
            "ticks": 247920,
            "time": 129.125,
            "velocity": 0.7874015748031497
          },
          {
            "duration": 0.0625,
            "durationTicks": 120,
            "midi": 60,
            "name": "C4",
            "ticks": 248400,
            "time": 129.375,
            "velocity": 0.7874015748031497
          },
          {
            "duration": 0.0625,
            "durationTicks": 120,
            "midi": 60,
            "name": "C4",
            "ticks": 248640,
            "time": 129.5,
            "velocity": 0.7874015748031497
          },
          {
            "duration": 0.0625,
            "durationTicks": 120,
            "midi": 60,
            "name": "C4",
            "ticks": 249120,
            "time": 129.75,
            "velocity": 0.6299212598425197
          },
          {
            "duration": 0.0625,
            "durationTicks": 120,
            "midi": 60,
            "name": "C4",
            "ticks": 249360,
            "time": 129.875,
            "velocity": 0.47244094488188976
          },
          {
            "duration": 0.0625,
            "durationTicks": 120,
            "midi": 60,
            "name": "C4",
            "ticks": 249600,
            "time": 130,
            "velocity": 0.7874015748031497
          },
          {
            "duration": 0.0625,
            "durationTicks": 120,
            "midi": 60,
            "name": "C4",
            "ticks": 250080,
            "time": 130.25,
            "velocity": 0.7874015748031497
          },
          {
            "duration": 0.0625,
            "durationTicks": 120,
            "midi": 60,
            "name": "C4",
            "ticks": 250800,
            "time": 130.625,
            "velocity": 0.6299212598425197
          },
          {
            "duration": 0.0625,
            "durationTicks": 120,
            "midi": 60,
            "name": "C4",
            "ticks": 251040,
            "time": 130.75,
            "velocity": 0.7874015748031497
          },
          {
            "duration": 0.0625,
            "durationTicks": 120,
            "midi": 60,
            "name": "C4",
            "ticks": 251280,
            "time": 130.875,
            "velocity": 0.5905511811023622
          },
          {
            "duration": 0.0625,
            "durationTicks": 120,
            "midi": 60,
            "name": "C4",
            "ticks": 251520,
            "time": 131,
            "velocity": 0.7874015748031497
          },
          {
            "duration": 0.0625,
            "durationTicks": 120,
            "midi": 60,
            "name": "C4",
            "ticks": 251760,
            "time": 131.125,
            "velocity": 0.7874015748031497
          },
          {
            "duration": 0.0625,
            "durationTicks": 120,
            "midi": 60,
            "name": "C4",
            "ticks": 252240,
            "time": 131.375,
            "velocity": 0.7874015748031497
          },
          {
            "duration": 0.0625,
            "durationTicks": 120,
            "midi": 60,
            "name": "C4",
            "ticks": 252480,
            "time": 131.5,
            "velocity": 0.7874015748031497
          },
          {
            "duration": 0.0625,
            "durationTicks": 120,
            "midi": 60,
            "name": "C4",
            "ticks": 252960,
            "time": 131.75,
            "velocity": 0.6299212598425197
          },
          {
            "duration": 0.0625,
            "durationTicks": 120,
            "midi": 60,
            "name": "C4",
            "ticks": 253200,
            "time": 131.875,
            "velocity": 0.47244094488188976
          },
          {
            "duration": 0.0625,
            "durationTicks": 120,
            "midi": 60,
            "name": "C4",
            "ticks": 253440,
            "time": 132,
            "velocity": 0.7874015748031497
          },
          {
            "duration": 0.0625,
            "durationTicks": 120,
            "midi": 60,
            "name": "C4",
            "ticks": 253920,
            "time": 132.25,
            "velocity": 0.7874015748031497
          },
          {
            "duration": 0.0625,
            "durationTicks": 120,
            "midi": 60,
            "name": "C4",
            "ticks": 254640,
            "time": 132.625,
            "velocity": 0.6299212598425197
          },
          {
            "duration": 0.0625,
            "durationTicks": 120,
            "midi": 60,
            "name": "C4",
            "ticks": 254880,
            "time": 132.75,
            "velocity": 0.7874015748031497
          },
          {
            "duration": 0.0625,
            "durationTicks": 120,
            "midi": 60,
            "name": "C4",
            "ticks": 255120,
            "time": 132.875,
            "velocity": 0.5905511811023622
          },
          {
            "duration": 0.0625,
            "durationTicks": 120,
            "midi": 60,
            "name": "C4",
            "ticks": 255360,
            "time": 133,
            "velocity": 0.7874015748031497
          },
          {
            "duration": 0.0625,
            "durationTicks": 120,
            "midi": 60,
            "name": "C4",
            "ticks": 255600,
            "time": 133.125,
            "velocity": 0.7874015748031497
          },
          {
            "duration": 0.0625,
            "durationTicks": 120,
            "midi": 60,
            "name": "C4",
            "ticks": 256080,
            "time": 133.375,
            "velocity": 0.7874015748031497
          },
          {
            "duration": 0.0625,
            "durationTicks": 120,
            "midi": 60,
            "name": "C4",
            "ticks": 256320,
            "time": 133.5,
            "velocity": 0.7874015748031497
          },
          {
            "duration": 0.0625,
            "durationTicks": 120,
            "midi": 60,
            "name": "C4",
            "ticks": 256800,
            "time": 133.75,
            "velocity": 0.6299212598425197
          },
          {
            "duration": 0.0625,
            "durationTicks": 120,
            "midi": 60,
            "name": "C4",
            "ticks": 257040,
            "time": 133.875,
            "velocity": 0.47244094488188976
          },
          {
            "duration": 0.0625,
            "durationTicks": 120,
            "midi": 60,
            "name": "C4",
            "ticks": 257280,
            "time": 134,
            "velocity": 0.7874015748031497
          },
          {
            "duration": 0.0625,
            "durationTicks": 120,
            "midi": 60,
            "name": "C4",
            "ticks": 257760,
            "time": 134.25,
            "velocity": 0.7874015748031497
          },
          {
            "duration": 0.0625,
            "durationTicks": 120,
            "midi": 60,
            "name": "C4",
            "ticks": 258480,
            "time": 134.625,
            "velocity": 0.6299212598425197
          },
          {
            "duration": 0.0625,
            "durationTicks": 120,
            "midi": 60,
            "name": "C4",
            "ticks": 258720,
            "time": 134.75,
            "velocity": 0.7874015748031497
          },
          {
            "duration": 0.0625,
            "durationTicks": 120,
            "midi": 60,
            "name": "C4",
            "ticks": 258960,
            "time": 134.875,
            "velocity": 0.5905511811023622
          },
          {
            "duration": 0.0625,
            "durationTicks": 120,
            "midi": 60,
            "name": "C4",
            "ticks": 259200,
            "time": 135,
            "velocity": 0.7874015748031497
          },
          {
            "duration": 0.0625,
            "durationTicks": 120,
            "midi": 60,
            "name": "C4",
            "ticks": 259440,
            "time": 135.125,
            "velocity": 0.7874015748031497
          },
          {
            "duration": 0.0625,
            "durationTicks": 120,
            "midi": 60,
            "name": "C4",
            "ticks": 259680,
            "time": 135.25,
            "velocity": 0.7874015748031497
          },
          {
            "duration": 0.0625,
            "durationTicks": 120,
            "midi": 60,
            "name": "C4",
            "ticks": 259920,
            "time": 135.375,
            "velocity": 0.7874015748031497
          },
          {
            "duration": 0.0625,
            "durationTicks": 120,
            "midi": 72,
            "name": "C5",
            "ticks": 260160,
            "time": 135.5,
            "velocity": 0.7874015748031497
          },
          {
            "duration": 0.0625,
            "durationTicks": 120,
            "midi": 60,
            "name": "C4",
            "ticks": 260640,
            "time": 135.75,
            "velocity": 0.5905511811023622
          },
          {
            "duration": 0.0625,
            "durationTicks": 120,
            "midi": 60,
            "name": "C4",
            "ticks": 260880,
            "time": 135.875,
            "velocity": 0.6299212598425197
          },
          {
            "duration": 0.0625,
            "durationTicks": 120,
            "midi": 60,
            "name": "C4",
            "ticks": 261120,
            "time": 136,
            "velocity": 0.7874015748031497
          },
          {
            "duration": 0.0625,
            "durationTicks": 120,
            "midi": 60,
            "name": "C4",
            "ticks": 261600,
            "time": 136.25,
            "velocity": 0.7874015748031497
          },
          {
            "duration": 0.0625,
            "durationTicks": 120,
            "midi": 60,
            "name": "C4",
            "ticks": 262320,
            "time": 136.625,
            "velocity": 0.6299212598425197
          },
          {
            "duration": 0.0625,
            "durationTicks": 120,
            "midi": 60,
            "name": "C4",
            "ticks": 262560,
            "time": 136.75,
            "velocity": 0.7874015748031497
          },
          {
            "duration": 0.0625,
            "durationTicks": 120,
            "midi": 60,
            "name": "C4",
            "ticks": 262800,
            "time": 136.875,
            "velocity": 0.5905511811023622
          },
          {
            "duration": 0.0625,
            "durationTicks": 120,
            "midi": 60,
            "name": "C4",
            "ticks": 263040,
            "time": 137,
            "velocity": 0.7874015748031497
          },
          {
            "duration": 0.0625,
            "durationTicks": 120,
            "midi": 60,
            "name": "C4",
            "ticks": 263280,
            "time": 137.125,
            "velocity": 0.7874015748031497
          },
          {
            "duration": 0.0625,
            "durationTicks": 120,
            "midi": 60,
            "name": "C4",
            "ticks": 263760,
            "time": 137.375,
            "velocity": 0.7874015748031497
          },
          {
            "duration": 0.0625,
            "durationTicks": 120,
            "midi": 60,
            "name": "C4",
            "ticks": 264000,
            "time": 137.5,
            "velocity": 0.7874015748031497
          },
          {
            "duration": 0.0625,
            "durationTicks": 120,
            "midi": 60,
            "name": "C4",
            "ticks": 264480,
            "time": 137.75,
            "velocity": 0.6299212598425197
          },
          {
            "duration": 0.0625,
            "durationTicks": 120,
            "midi": 60,
            "name": "C4",
            "ticks": 264720,
            "time": 137.875,
            "velocity": 0.47244094488188976
          },
          {
            "duration": 0.0625,
            "durationTicks": 120,
            "midi": 60,
            "name": "C4",
            "ticks": 264960,
            "time": 138,
            "velocity": 0.7874015748031497
          },
          {
            "duration": 0.0625,
            "durationTicks": 120,
            "midi": 60,
            "name": "C4",
            "ticks": 265440,
            "time": 138.25,
            "velocity": 0.7874015748031497
          },
          {
            "duration": 0.0625,
            "durationTicks": 120,
            "midi": 60,
            "name": "C4",
            "ticks": 266160,
            "time": 138.625,
            "velocity": 0.6299212598425197
          },
          {
            "duration": 0.0625,
            "durationTicks": 120,
            "midi": 60,
            "name": "C4",
            "ticks": 266400,
            "time": 138.75,
            "velocity": 0.7874015748031497
          },
          {
            "duration": 0.0625,
            "durationTicks": 120,
            "midi": 60,
            "name": "C4",
            "ticks": 266640,
            "time": 138.875,
            "velocity": 0.5905511811023622
          },
          {
            "duration": 0.0625,
            "durationTicks": 120,
            "midi": 60,
            "name": "C4",
            "ticks": 266880,
            "time": 139,
            "velocity": 0.7874015748031497
          },
          {
            "duration": 0.0625,
            "durationTicks": 120,
            "midi": 60,
            "name": "C4",
            "ticks": 267120,
            "time": 139.125,
            "velocity": 0.7874015748031497
          },
          {
            "duration": 0.0625,
            "durationTicks": 120,
            "midi": 60,
            "name": "C4",
            "ticks": 267600,
            "time": 139.375,
            "velocity": 0.7874015748031497
          },
          {
            "duration": 0.0625,
            "durationTicks": 120,
            "midi": 60,
            "name": "C4",
            "ticks": 267840,
            "time": 139.5,
            "velocity": 0.7874015748031497
          },
          {
            "duration": 0.0625,
            "durationTicks": 120,
            "midi": 60,
            "name": "C4",
            "ticks": 268320,
            "time": 139.75,
            "velocity": 0.6299212598425197
          },
          {
            "duration": 0.0625,
            "durationTicks": 120,
            "midi": 60,
            "name": "C4",
            "ticks": 268560,
            "time": 139.875,
            "velocity": 0.47244094488188976
          },
          {
            "duration": 0.0625,
            "durationTicks": 120,
            "midi": 60,
            "name": "C4",
            "ticks": 268800,
            "time": 140,
            "velocity": 0.7874015748031497
          },
          {
            "duration": 0.0625,
            "durationTicks": 120,
            "midi": 60,
            "name": "C4",
            "ticks": 269280,
            "time": 140.25,
            "velocity": 0.7874015748031497
          },
          {
            "duration": 0.0625,
            "durationTicks": 120,
            "midi": 60,
            "name": "C4",
            "ticks": 270000,
            "time": 140.625,
            "velocity": 0.6299212598425197
          },
          {
            "duration": 0.0625,
            "durationTicks": 120,
            "midi": 60,
            "name": "C4",
            "ticks": 270240,
            "time": 140.75,
            "velocity": 0.7874015748031497
          },
          {
            "duration": 0.0625,
            "durationTicks": 120,
            "midi": 60,
            "name": "C4",
            "ticks": 270480,
            "time": 140.875,
            "velocity": 0.5905511811023622
          },
          {
            "duration": 0.0625,
            "durationTicks": 120,
            "midi": 60,
            "name": "C4",
            "ticks": 270720,
            "time": 141,
            "velocity": 0.7874015748031497
          },
          {
            "duration": 0.0625,
            "durationTicks": 120,
            "midi": 60,
            "name": "C4",
            "ticks": 270960,
            "time": 141.125,
            "velocity": 0.7874015748031497
          },
          {
            "duration": 0.0625,
            "durationTicks": 120,
            "midi": 60,
            "name": "C4",
            "ticks": 271440,
            "time": 141.375,
            "velocity": 0.7874015748031497
          },
          {
            "duration": 0.0625,
            "durationTicks": 120,
            "midi": 60,
            "name": "C4",
            "ticks": 271680,
            "time": 141.5,
            "velocity": 0.7874015748031497
          },
          {
            "duration": 0.0625,
            "durationTicks": 120,
            "midi": 60,
            "name": "C4",
            "ticks": 272160,
            "time": 141.75,
            "velocity": 0.6299212598425197
          },
          {
            "duration": 0.0625,
            "durationTicks": 120,
            "midi": 60,
            "name": "C4",
            "ticks": 272400,
            "time": 141.875,
            "velocity": 0.47244094488188976
          },
          {
            "duration": 0.0625,
            "durationTicks": 120,
            "midi": 60,
            "name": "C4",
            "ticks": 272640,
            "time": 142,
            "velocity": 0.7874015748031497
          },
          {
            "duration": 0.0625,
            "durationTicks": 120,
            "midi": 60,
            "name": "C4",
            "ticks": 273120,
            "time": 142.25,
            "velocity": 0.7874015748031497
          },
          {
            "duration": 0.0625,
            "durationTicks": 120,
            "midi": 60,
            "name": "C4",
            "ticks": 273840,
            "time": 142.625,
            "velocity": 0.6299212598425197
          },
          {
            "duration": 0.0625,
            "durationTicks": 120,
            "midi": 60,
            "name": "C4",
            "ticks": 274080,
            "time": 142.75,
            "velocity": 0.7874015748031497
          },
          {
            "duration": 0.0625,
            "durationTicks": 120,
            "midi": 60,
            "name": "C4",
            "ticks": 274320,
            "time": 142.875,
            "velocity": 0.5905511811023622
          },
          {
            "duration": 0.0625,
            "durationTicks": 120,
            "midi": 60,
            "name": "C4",
            "ticks": 274560,
            "time": 143,
            "velocity": 0.7874015748031497
          },
          {
            "duration": 0.0625,
            "durationTicks": 120,
            "midi": 60,
            "name": "C4",
            "ticks": 274800,
            "time": 143.125,
            "velocity": 0.7874015748031497
          },
          {
            "duration": 0.0625,
            "durationTicks": 120,
            "midi": 60,
            "name": "C4",
            "ticks": 275040,
            "time": 143.25,
            "velocity": 0.7874015748031497
          },
          {
            "duration": 0.0625,
            "durationTicks": 120,
            "midi": 60,
            "name": "C4",
            "ticks": 275280,
            "time": 143.375,
            "velocity": 0.7874015748031497
          },
          {
            "duration": 0.0625,
            "durationTicks": 120,
            "midi": 60,
            "name": "C4",
            "ticks": 275520,
            "time": 143.5,
            "velocity": 0.7874015748031497
          },
          {
            "duration": 0.0625,
            "durationTicks": 120,
            "midi": 60,
            "name": "C4",
            "ticks": 276000,
            "time": 143.75,
            "velocity": 0.5905511811023622
          },
          {
            "duration": 0.0625,
            "durationTicks": 120,
            "midi": 60,
            "name": "C4",
            "ticks": 276240,
            "time": 143.875,
            "velocity": 0.6299212598425197
          },
          {
            "duration": 0.0625,
            "durationTicks": 120,
            "midi": 60,
            "name": "C4",
            "ticks": 276480,
            "time": 144,
            "velocity": 0.7874015748031497
          },
          {
            "duration": 0.0625,
            "durationTicks": 120,
            "midi": 60,
            "name": "C4",
            "ticks": 276960,
            "time": 144.25,
            "velocity": 0.7874015748031497
          },
          {
            "duration": 0.0625,
            "durationTicks": 120,
            "midi": 60,
            "name": "C4",
            "ticks": 277680,
            "time": 144.625,
            "velocity": 0.6299212598425197
          },
          {
            "duration": 0.0625,
            "durationTicks": 120,
            "midi": 60,
            "name": "C4",
            "ticks": 277920,
            "time": 144.75,
            "velocity": 0.7874015748031497
          },
          {
            "duration": 0.0625,
            "durationTicks": 120,
            "midi": 60,
            "name": "C4",
            "ticks": 278160,
            "time": 144.875,
            "velocity": 0.5905511811023622
          },
          {
            "duration": 0.0625,
            "durationTicks": 120,
            "midi": 60,
            "name": "C4",
            "ticks": 278400,
            "time": 145,
            "velocity": 0.7874015748031497
          },
          {
            "duration": 0.0625,
            "durationTicks": 120,
            "midi": 60,
            "name": "C4",
            "ticks": 278640,
            "time": 145.125,
            "velocity": 0.7874015748031497
          },
          {
            "duration": 0.0625,
            "durationTicks": 120,
            "midi": 60,
            "name": "C4",
            "ticks": 279120,
            "time": 145.375,
            "velocity": 0.7874015748031497
          },
          {
            "duration": 0.0625,
            "durationTicks": 120,
            "midi": 60,
            "name": "C4",
            "ticks": 279360,
            "time": 145.5,
            "velocity": 0.7874015748031497
          },
          {
            "duration": 0.0625,
            "durationTicks": 120,
            "midi": 60,
            "name": "C4",
            "ticks": 279840,
            "time": 145.75,
            "velocity": 0.6299212598425197
          },
          {
            "duration": 0.0625,
            "durationTicks": 120,
            "midi": 60,
            "name": "C4",
            "ticks": 280080,
            "time": 145.875,
            "velocity": 0.47244094488188976
          },
          {
            "duration": 0.0625,
            "durationTicks": 120,
            "midi": 60,
            "name": "C4",
            "ticks": 280320,
            "time": 146,
            "velocity": 0.7874015748031497
          },
          {
            "duration": 0.0625,
            "durationTicks": 120,
            "midi": 60,
            "name": "C4",
            "ticks": 280800,
            "time": 146.25,
            "velocity": 0.7874015748031497
          },
          {
            "duration": 0.0625,
            "durationTicks": 120,
            "midi": 60,
            "name": "C4",
            "ticks": 281520,
            "time": 146.625,
            "velocity": 0.6299212598425197
          },
          {
            "duration": 0.0625,
            "durationTicks": 120,
            "midi": 60,
            "name": "C4",
            "ticks": 281760,
            "time": 146.75,
            "velocity": 0.7874015748031497
          },
          {
            "duration": 0.0625,
            "durationTicks": 120,
            "midi": 60,
            "name": "C4",
            "ticks": 282000,
            "time": 146.875,
            "velocity": 0.5905511811023622
          },
          {
            "duration": 0.0625,
            "durationTicks": 120,
            "midi": 60,
            "name": "C4",
            "ticks": 282240,
            "time": 147,
            "velocity": 0.7874015748031497
          },
          {
            "duration": 0.0625,
            "durationTicks": 120,
            "midi": 60,
            "name": "C4",
            "ticks": 282480,
            "time": 147.125,
            "velocity": 0.7874015748031497
          },
          {
            "duration": 0.0625,
            "durationTicks": 120,
            "midi": 60,
            "name": "C4",
            "ticks": 282960,
            "time": 147.375,
            "velocity": 0.7874015748031497
          },
          {
            "duration": 0.0625,
            "durationTicks": 120,
            "midi": 60,
            "name": "C4",
            "ticks": 283200,
            "time": 147.5,
            "velocity": 0.7874015748031497
          },
          {
            "duration": 0.0625,
            "durationTicks": 120,
            "midi": 60,
            "name": "C4",
            "ticks": 283680,
            "time": 147.75,
            "velocity": 0.6299212598425197
          },
          {
            "duration": 0.0625,
            "durationTicks": 120,
            "midi": 60,
            "name": "C4",
            "ticks": 283920,
            "time": 147.875,
            "velocity": 0.47244094488188976
          },
          {
            "duration": 0.0625,
            "durationTicks": 120,
            "midi": 60,
            "name": "C4",
            "ticks": 284160,
            "time": 148,
            "velocity": 0.7874015748031497
          },
          {
            "duration": 0.0625,
            "durationTicks": 120,
            "midi": 60,
            "name": "C4",
            "ticks": 284640,
            "time": 148.25,
            "velocity": 0.7874015748031497
          },
          {
            "duration": 0.0625,
            "durationTicks": 120,
            "midi": 60,
            "name": "C4",
            "ticks": 285360,
            "time": 148.625,
            "velocity": 0.6299212598425197
          },
          {
            "duration": 0.0625,
            "durationTicks": 120,
            "midi": 60,
            "name": "C4",
            "ticks": 285600,
            "time": 148.75,
            "velocity": 0.7874015748031497
          },
          {
            "duration": 0.0625,
            "durationTicks": 120,
            "midi": 60,
            "name": "C4",
            "ticks": 285840,
            "time": 148.875,
            "velocity": 0.5905511811023622
          },
          {
            "duration": 0.0625,
            "durationTicks": 120,
            "midi": 60,
            "name": "C4",
            "ticks": 286080,
            "time": 149,
            "velocity": 0.7874015748031497
          },
          {
            "duration": 0.0625,
            "durationTicks": 120,
            "midi": 60,
            "name": "C4",
            "ticks": 286320,
            "time": 149.125,
            "velocity": 0.7874015748031497
          },
          {
            "duration": 0.0625,
            "durationTicks": 120,
            "midi": 60,
            "name": "C4",
            "ticks": 286800,
            "time": 149.375,
            "velocity": 0.7874015748031497
          },
          {
            "duration": 0.0625,
            "durationTicks": 120,
            "midi": 60,
            "name": "C4",
            "ticks": 287040,
            "time": 149.5,
            "velocity": 0.7874015748031497
          },
          {
            "duration": 0.0625,
            "durationTicks": 120,
            "midi": 60,
            "name": "C4",
            "ticks": 287520,
            "time": 149.75,
            "velocity": 0.6299212598425197
          },
          {
            "duration": 0.0625,
            "durationTicks": 120,
            "midi": 60,
            "name": "C4",
            "ticks": 287760,
            "time": 149.875,
            "velocity": 0.47244094488188976
          },
          {
            "duration": 0.0625,
            "durationTicks": 120,
            "midi": 60,
            "name": "C4",
            "ticks": 288000,
            "time": 150,
            "velocity": 0.7874015748031497
          },
          {
            "duration": 0.0625,
            "durationTicks": 120,
            "midi": 60,
            "name": "C4",
            "ticks": 288480,
            "time": 150.25,
            "velocity": 0.7874015748031497
          },
          {
            "duration": 0.0625,
            "durationTicks": 120,
            "midi": 60,
            "name": "C4",
            "ticks": 289200,
            "time": 150.625,
            "velocity": 0.6299212598425197
          },
          {
            "duration": 0.0625,
            "durationTicks": 120,
            "midi": 60,
            "name": "C4",
            "ticks": 289440,
            "time": 150.75,
            "velocity": 0.7874015748031497
          },
          {
            "duration": 0.0625,
            "durationTicks": 120,
            "midi": 60,
            "name": "C4",
            "ticks": 289680,
            "time": 150.875,
            "velocity": 0.5905511811023622
          },
          {
            "duration": 0.0625,
            "durationTicks": 120,
            "midi": 60,
            "name": "C4",
            "ticks": 289920,
            "time": 151,
            "velocity": 0.7874015748031497
          },
          {
            "duration": 0.0625,
            "durationTicks": 120,
            "midi": 60,
            "name": "C4",
            "ticks": 290160,
            "time": 151.125,
            "velocity": 0.7874015748031497
          },
          {
            "duration": 0.0625,
            "durationTicks": 120,
            "midi": 60,
            "name": "C4",
            "ticks": 290400,
            "time": 151.25,
            "velocity": 0.7874015748031497
          },
          {
            "duration": 0.0625,
            "durationTicks": 120,
            "midi": 60,
            "name": "C4",
            "ticks": 290640,
            "time": 151.375,
            "velocity": 0.7874015748031497
          },
          {
            "duration": 0.0625,
            "durationTicks": 120,
            "midi": 72,
            "name": "C5",
            "ticks": 290880,
            "time": 151.5,
            "velocity": 0.7874015748031497
          },
          {
            "duration": 0.0625,
            "durationTicks": 120,
            "midi": 60,
            "name": "C4",
            "ticks": 291360,
            "time": 151.75,
            "velocity": 0.5905511811023622
          },
          {
            "duration": 0.0625,
            "durationTicks": 120,
            "midi": 60,
            "name": "C4",
            "ticks": 291600,
            "time": 151.875,
            "velocity": 0.6299212598425197
          },
          {
            "duration": 0.0625,
            "durationTicks": 120,
            "midi": 60,
            "name": "C4",
            "ticks": 291840,
            "time": 152,
            "velocity": 0.7874015748031497
          },
          {
            "duration": 0.0625,
            "durationTicks": 120,
            "midi": 60,
            "name": "C4",
            "ticks": 292320,
            "time": 152.25,
            "velocity": 0.7874015748031497
          },
          {
            "duration": 0.0625,
            "durationTicks": 120,
            "midi": 60,
            "name": "C4",
            "ticks": 293040,
            "time": 152.625,
            "velocity": 0.6299212598425197
          },
          {
            "duration": 0.0625,
            "durationTicks": 120,
            "midi": 60,
            "name": "C4",
            "ticks": 293280,
            "time": 152.75,
            "velocity": 0.7874015748031497
          },
          {
            "duration": 0.0625,
            "durationTicks": 120,
            "midi": 60,
            "name": "C4",
            "ticks": 293520,
            "time": 152.875,
            "velocity": 0.5905511811023622
          },
          {
            "duration": 0.0625,
            "durationTicks": 120,
            "midi": 60,
            "name": "C4",
            "ticks": 293760,
            "time": 153,
            "velocity": 0.7874015748031497
          },
          {
            "duration": 0.0625,
            "durationTicks": 120,
            "midi": 60,
            "name": "C4",
            "ticks": 294000,
            "time": 153.125,
            "velocity": 0.7874015748031497
          },
          {
            "duration": 0.0625,
            "durationTicks": 120,
            "midi": 60,
            "name": "C4",
            "ticks": 294480,
            "time": 153.375,
            "velocity": 0.7874015748031497
          },
          {
            "duration": 0.0625,
            "durationTicks": 120,
            "midi": 60,
            "name": "C4",
            "ticks": 294720,
            "time": 153.5,
            "velocity": 0.7874015748031497
          },
          {
            "duration": 0.0625,
            "durationTicks": 120,
            "midi": 60,
            "name": "C4",
            "ticks": 295200,
            "time": 153.75,
            "velocity": 0.6299212598425197
          },
          {
            "duration": 0.0625,
            "durationTicks": 120,
            "midi": 60,
            "name": "C4",
            "ticks": 295440,
            "time": 153.875,
            "velocity": 0.47244094488188976
          },
          {
            "duration": 0.0625,
            "durationTicks": 120,
            "midi": 60,
            "name": "C4",
            "ticks": 295680,
            "time": 154,
            "velocity": 0.7874015748031497
          },
          {
            "duration": 0.0625,
            "durationTicks": 120,
            "midi": 60,
            "name": "C4",
            "ticks": 296160,
            "time": 154.25,
            "velocity": 0.7874015748031497
          },
          {
            "duration": 0.0625,
            "durationTicks": 120,
            "midi": 60,
            "name": "C4",
            "ticks": 296880,
            "time": 154.625,
            "velocity": 0.6299212598425197
          },
          {
            "duration": 0.0625,
            "durationTicks": 120,
            "midi": 60,
            "name": "C4",
            "ticks": 297120,
            "time": 154.75,
            "velocity": 0.7874015748031497
          },
          {
            "duration": 0.0625,
            "durationTicks": 120,
            "midi": 60,
            "name": "C4",
            "ticks": 297360,
            "time": 154.875,
            "velocity": 0.5905511811023622
          },
          {
            "duration": 0.0625,
            "durationTicks": 120,
            "midi": 60,
            "name": "C4",
            "ticks": 297600,
            "time": 155,
            "velocity": 0.7874015748031497
          },
          {
            "duration": 0.0625,
            "durationTicks": 120,
            "midi": 60,
            "name": "C4",
            "ticks": 297840,
            "time": 155.125,
            "velocity": 0.7874015748031497
          },
          {
            "duration": 0.0625,
            "durationTicks": 120,
            "midi": 60,
            "name": "C4",
            "ticks": 298320,
            "time": 155.375,
            "velocity": 0.7874015748031497
          },
          {
            "duration": 0.0625,
            "durationTicks": 120,
            "midi": 60,
            "name": "C4",
            "ticks": 298560,
            "time": 155.5,
            "velocity": 0.7874015748031497
          },
          {
            "duration": 0.0625,
            "durationTicks": 120,
            "midi": 60,
            "name": "C4",
            "ticks": 299040,
            "time": 155.75,
            "velocity": 0.6299212598425197
          },
          {
            "duration": 0.0625,
            "durationTicks": 120,
            "midi": 60,
            "name": "C4",
            "ticks": 299280,
            "time": 155.875,
            "velocity": 0.47244094488188976
          },
          {
            "duration": 0.0625,
            "durationTicks": 120,
            "midi": 60,
            "name": "C4",
            "ticks": 299520,
            "time": 156,
            "velocity": 0.7874015748031497
          },
          {
            "duration": 0.0625,
            "durationTicks": 120,
            "midi": 60,
            "name": "C4",
            "ticks": 300000,
            "time": 156.25,
            "velocity": 0.7874015748031497
          },
          {
            "duration": 0.0625,
            "durationTicks": 120,
            "midi": 60,
            "name": "C4",
            "ticks": 300720,
            "time": 156.625,
            "velocity": 0.6299212598425197
          },
          {
            "duration": 0.0625,
            "durationTicks": 120,
            "midi": 60,
            "name": "C4",
            "ticks": 300960,
            "time": 156.75,
            "velocity": 0.7874015748031497
          },
          {
            "duration": 0.0625,
            "durationTicks": 120,
            "midi": 60,
            "name": "C4",
            "ticks": 301200,
            "time": 156.875,
            "velocity": 0.5905511811023622
          },
          {
            "duration": 0.0625,
            "durationTicks": 120,
            "midi": 60,
            "name": "C4",
            "ticks": 301440,
            "time": 157,
            "velocity": 0.7874015748031497
          },
          {
            "duration": 0.0625,
            "durationTicks": 120,
            "midi": 60,
            "name": "C4",
            "ticks": 301680,
            "time": 157.125,
            "velocity": 0.7874015748031497
          },
          {
            "duration": 0.0625,
            "durationTicks": 120,
            "midi": 60,
            "name": "C4",
            "ticks": 302160,
            "time": 157.375,
            "velocity": 0.7874015748031497
          },
          {
            "duration": 0.0625,
            "durationTicks": 120,
            "midi": 60,
            "name": "C4",
            "ticks": 302400,
            "time": 157.5,
            "velocity": 0.7874015748031497
          },
          {
            "duration": 0.0625,
            "durationTicks": 120,
            "midi": 60,
            "name": "C4",
            "ticks": 302880,
            "time": 157.75,
            "velocity": 0.6299212598425197
          },
          {
            "duration": 0.0625,
            "durationTicks": 120,
            "midi": 60,
            "name": "C4",
            "ticks": 303120,
            "time": 157.875,
            "velocity": 0.47244094488188976
          },
          {
            "duration": 0.0625,
            "durationTicks": 120,
            "midi": 60,
            "name": "C4",
            "ticks": 303360,
            "time": 158,
            "velocity": 0.7874015748031497
          },
          {
            "duration": 0.0625,
            "durationTicks": 120,
            "midi": 60,
            "name": "C4",
            "ticks": 303840,
            "time": 158.25,
            "velocity": 0.7874015748031497
          },
          {
            "duration": 0.0625,
            "durationTicks": 120,
            "midi": 60,
            "name": "C4",
            "ticks": 304560,
            "time": 158.625,
            "velocity": 0.6299212598425197
          },
          {
            "duration": 0.0625,
            "durationTicks": 120,
            "midi": 60,
            "name": "C4",
            "ticks": 304800,
            "time": 158.75,
            "velocity": 0.7874015748031497
          },
          {
            "duration": 0.0625,
            "durationTicks": 120,
            "midi": 60,
            "name": "C4",
            "ticks": 305040,
            "time": 158.875,
            "velocity": 0.5905511811023622
          },
          {
            "duration": 0.0625,
            "durationTicks": 120,
            "midi": 60,
            "name": "C4",
            "ticks": 305280,
            "time": 159,
            "velocity": 0.7874015748031497
          },
          {
            "duration": 0.0625,
            "durationTicks": 120,
            "midi": 60,
            "name": "C4",
            "ticks": 305520,
            "time": 159.125,
            "velocity": 0.7874015748031497
          },
          {
            "duration": 0.0625,
            "durationTicks": 120,
            "midi": 60,
            "name": "C4",
            "ticks": 305760,
            "time": 159.25,
            "velocity": 0.7874015748031497
          },
          {
            "duration": 0.0625,
            "durationTicks": 120,
            "midi": 60,
            "name": "C4",
            "ticks": 306000,
            "time": 159.375,
            "velocity": 0.7874015748031497
          },
          {
            "duration": 0.0625,
            "durationTicks": 120,
            "midi": 60,
            "name": "C4",
            "ticks": 306240,
            "time": 159.5,
            "velocity": 0.7874015748031497
          },
          {
            "duration": 0.0625,
            "durationTicks": 120,
            "midi": 60,
            "name": "C4",
            "ticks": 306720,
            "time": 159.75,
            "velocity": 0.5905511811023622
          },
          {
            "duration": 0.0625,
            "durationTicks": 120,
            "midi": 60,
            "name": "C4",
            "ticks": 306960,
            "time": 159.875,
            "velocity": 0.6299212598425197
          },
          {
            "duration": 0.0625,
            "durationTicks": 120,
            "midi": 60,
            "name": "C4",
            "ticks": 307200,
            "time": 160,
            "velocity": 0.7874015748031497
          },
          {
            "duration": 0.0625,
            "durationTicks": 120,
            "midi": 60,
            "name": "C4",
            "ticks": 307680,
            "time": 160.25,
            "velocity": 0.7874015748031497
          },
          {
            "duration": 0.0625,
            "durationTicks": 120,
            "midi": 60,
            "name": "C4",
            "ticks": 308400,
            "time": 160.625,
            "velocity": 0.6299212598425197
          },
          {
            "duration": 0.0625,
            "durationTicks": 120,
            "midi": 60,
            "name": "C4",
            "ticks": 308640,
            "time": 160.75,
            "velocity": 0.7874015748031497
          },
          {
            "duration": 0.0625,
            "durationTicks": 120,
            "midi": 60,
            "name": "C4",
            "ticks": 308880,
            "time": 160.875,
            "velocity": 0.5905511811023622
          },
          {
            "duration": 0.0625,
            "durationTicks": 120,
            "midi": 60,
            "name": "C4",
            "ticks": 309120,
            "time": 161,
            "velocity": 0.7874015748031497
          },
          {
            "duration": 0.0625,
            "durationTicks": 120,
            "midi": 60,
            "name": "C4",
            "ticks": 309360,
            "time": 161.125,
            "velocity": 0.7874015748031497
          },
          {
            "duration": 0.0625,
            "durationTicks": 120,
            "midi": 60,
            "name": "C4",
            "ticks": 309840,
            "time": 161.375,
            "velocity": 0.7874015748031497
          },
          {
            "duration": 0.0625,
            "durationTicks": 120,
            "midi": 60,
            "name": "C4",
            "ticks": 310080,
            "time": 161.5,
            "velocity": 0.7874015748031497
          },
          {
            "duration": 0.0625,
            "durationTicks": 120,
            "midi": 60,
            "name": "C4",
            "ticks": 310560,
            "time": 161.75,
            "velocity": 0.6299212598425197
          },
          {
            "duration": 0.0625,
            "durationTicks": 120,
            "midi": 60,
            "name": "C4",
            "ticks": 310800,
            "time": 161.875,
            "velocity": 0.47244094488188976
          },
          {
            "duration": 0.0625,
            "durationTicks": 120,
            "midi": 60,
            "name": "C4",
            "ticks": 311040,
            "time": 162,
            "velocity": 0.7874015748031497
          },
          {
            "duration": 0.0625,
            "durationTicks": 120,
            "midi": 60,
            "name": "C4",
            "ticks": 311520,
            "time": 162.25,
            "velocity": 0.7874015748031497
          },
          {
            "duration": 0.0625,
            "durationTicks": 120,
            "midi": 60,
            "name": "C4",
            "ticks": 312240,
            "time": 162.625,
            "velocity": 0.6299212598425197
          },
          {
            "duration": 0.0625,
            "durationTicks": 120,
            "midi": 60,
            "name": "C4",
            "ticks": 312480,
            "time": 162.75,
            "velocity": 0.7874015748031497
          },
          {
            "duration": 0.0625,
            "durationTicks": 120,
            "midi": 60,
            "name": "C4",
            "ticks": 312720,
            "time": 162.875,
            "velocity": 0.5905511811023622
          },
          {
            "duration": 0.0625,
            "durationTicks": 120,
            "midi": 60,
            "name": "C4",
            "ticks": 312960,
            "time": 163,
            "velocity": 0.7874015748031497
          },
          {
            "duration": 0.0625,
            "durationTicks": 120,
            "midi": 60,
            "name": "C4",
            "ticks": 313200,
            "time": 163.125,
            "velocity": 0.7874015748031497
          },
          {
            "duration": 0.0625,
            "durationTicks": 120,
            "midi": 60,
            "name": "C4",
            "ticks": 313680,
            "time": 163.375,
            "velocity": 0.7874015748031497
          },
          {
            "duration": 0.0625,
            "durationTicks": 120,
            "midi": 60,
            "name": "C4",
            "ticks": 313920,
            "time": 163.5,
            "velocity": 0.7874015748031497
          },
          {
            "duration": 0.0625,
            "durationTicks": 120,
            "midi": 60,
            "name": "C4",
            "ticks": 314400,
            "time": 163.75,
            "velocity": 0.6299212598425197
          },
          {
            "duration": 0.0625,
            "durationTicks": 120,
            "midi": 60,
            "name": "C4",
            "ticks": 314640,
            "time": 163.875,
            "velocity": 0.47244094488188976
          },
          {
            "duration": 0.0625,
            "durationTicks": 120,
            "midi": 60,
            "name": "C4",
            "ticks": 314880,
            "time": 164,
            "velocity": 0.7874015748031497
          },
          {
            "duration": 0.0625,
            "durationTicks": 120,
            "midi": 60,
            "name": "C4",
            "ticks": 315360,
            "time": 164.25,
            "velocity": 0.7874015748031497
          },
          {
            "duration": 0.0625,
            "durationTicks": 120,
            "midi": 60,
            "name": "C4",
            "ticks": 316080,
            "time": 164.625,
            "velocity": 0.6299212598425197
          },
          {
            "duration": 0.0625,
            "durationTicks": 120,
            "midi": 60,
            "name": "C4",
            "ticks": 316320,
            "time": 164.75,
            "velocity": 0.7874015748031497
          },
          {
            "duration": 0.0625,
            "durationTicks": 120,
            "midi": 60,
            "name": "C4",
            "ticks": 316560,
            "time": 164.875,
            "velocity": 0.5905511811023622
          },
          {
            "duration": 0.0625,
            "durationTicks": 120,
            "midi": 60,
            "name": "C4",
            "ticks": 316800,
            "time": 165,
            "velocity": 0.7874015748031497
          },
          {
            "duration": 0.0625,
            "durationTicks": 120,
            "midi": 60,
            "name": "C4",
            "ticks": 317040,
            "time": 165.125,
            "velocity": 0.7874015748031497
          },
          {
            "duration": 0.0625,
            "durationTicks": 120,
            "midi": 60,
            "name": "C4",
            "ticks": 317520,
            "time": 165.375,
            "velocity": 0.7874015748031497
          },
          {
            "duration": 0.0625,
            "durationTicks": 120,
            "midi": 60,
            "name": "C4",
            "ticks": 317760,
            "time": 165.5,
            "velocity": 0.7874015748031497
          },
          {
            "duration": 0.0625,
            "durationTicks": 120,
            "midi": 60,
            "name": "C4",
            "ticks": 318240,
            "time": 165.75,
            "velocity": 0.6299212598425197
          },
          {
            "duration": 0.0625,
            "durationTicks": 120,
            "midi": 60,
            "name": "C4",
            "ticks": 318480,
            "time": 165.875,
            "velocity": 0.47244094488188976
          },
          {
            "duration": 0.0625,
            "durationTicks": 120,
            "midi": 60,
            "name": "C4",
            "ticks": 318720,
            "time": 166,
            "velocity": 0.7874015748031497
          },
          {
            "duration": 0.0625,
            "durationTicks": 120,
            "midi": 60,
            "name": "C4",
            "ticks": 319200,
            "time": 166.25,
            "velocity": 0.7874015748031497
          },
          {
            "duration": 0.0625,
            "durationTicks": 120,
            "midi": 60,
            "name": "C4",
            "ticks": 319920,
            "time": 166.625,
            "velocity": 0.6299212598425197
          },
          {
            "duration": 0.0625,
            "durationTicks": 120,
            "midi": 60,
            "name": "C4",
            "ticks": 320160,
            "time": 166.75,
            "velocity": 0.7874015748031497
          },
          {
            "duration": 0.0625,
            "durationTicks": 120,
            "midi": 60,
            "name": "C4",
            "ticks": 320400,
            "time": 166.875,
            "velocity": 0.5905511811023622
          },
          {
            "duration": 0.0625,
            "durationTicks": 120,
            "midi": 60,
            "name": "C4",
            "ticks": 320640,
            "time": 167,
            "velocity": 0.7874015748031497
          },
          {
            "duration": 0.0625,
            "durationTicks": 120,
            "midi": 60,
            "name": "C4",
            "ticks": 320880,
            "time": 167.125,
            "velocity": 0.7874015748031497
          },
          {
            "duration": 0.0625,
            "durationTicks": 120,
            "midi": 60,
            "name": "C4",
            "ticks": 321120,
            "time": 167.25,
            "velocity": 0.7874015748031497
          },
          {
            "duration": 0.0625,
            "durationTicks": 120,
            "midi": 60,
            "name": "C4",
            "ticks": 321360,
            "time": 167.375,
            "velocity": 0.7874015748031497
          },
          {
            "duration": 0.0625,
            "durationTicks": 120,
            "midi": 72,
            "name": "C5",
            "ticks": 321600,
            "time": 167.5,
            "velocity": 0.7874015748031497
          },
          {
            "duration": 0.0625,
            "durationTicks": 120,
            "midi": 60,
            "name": "C4",
            "ticks": 322080,
            "time": 167.75,
            "velocity": 0.5905511811023622
          },
          {
            "duration": 0.0625,
            "durationTicks": 120,
            "midi": 60,
            "name": "C4",
            "ticks": 322320,
            "time": 167.875,
            "velocity": 0.6299212598425197
          },
          {
            "duration": 0.0625,
            "durationTicks": 120,
            "midi": 60,
            "name": "C4",
            "ticks": 322560,
            "time": 168,
            "velocity": 0.7874015748031497
          },
          {
            "duration": 0.0625,
            "durationTicks": 120,
            "midi": 60,
            "name": "C4",
            "ticks": 323040,
            "time": 168.25,
            "velocity": 0.7874015748031497
          },
          {
            "duration": 0.0625,
            "durationTicks": 120,
            "midi": 60,
            "name": "C4",
            "ticks": 323760,
            "time": 168.625,
            "velocity": 0.6299212598425197
          },
          {
            "duration": 0.0625,
            "durationTicks": 120,
            "midi": 60,
            "name": "C4",
            "ticks": 324000,
            "time": 168.75,
            "velocity": 0.7874015748031497
          },
          {
            "duration": 0.0625,
            "durationTicks": 120,
            "midi": 60,
            "name": "C4",
            "ticks": 324240,
            "time": 168.875,
            "velocity": 0.5905511811023622
          },
          {
            "duration": 0.0625,
            "durationTicks": 120,
            "midi": 60,
            "name": "C4",
            "ticks": 324480,
            "time": 169,
            "velocity": 0.7874015748031497
          },
          {
            "duration": 0.0625,
            "durationTicks": 120,
            "midi": 60,
            "name": "C4",
            "ticks": 324720,
            "time": 169.125,
            "velocity": 0.7874015748031497
          },
          {
            "duration": 0.0625,
            "durationTicks": 120,
            "midi": 60,
            "name": "C4",
            "ticks": 325200,
            "time": 169.375,
            "velocity": 0.7874015748031497
          },
          {
            "duration": 0.0625,
            "durationTicks": 120,
            "midi": 60,
            "name": "C4",
            "ticks": 325440,
            "time": 169.5,
            "velocity": 0.7874015748031497
          },
          {
            "duration": 0.0625,
            "durationTicks": 120,
            "midi": 60,
            "name": "C4",
            "ticks": 325920,
            "time": 169.75,
            "velocity": 0.6299212598425197
          },
          {
            "duration": 0.0625,
            "durationTicks": 120,
            "midi": 60,
            "name": "C4",
            "ticks": 326160,
            "time": 169.875,
            "velocity": 0.47244094488188976
          },
          {
            "duration": 0.0625,
            "durationTicks": 120,
            "midi": 60,
            "name": "C4",
            "ticks": 326400,
            "time": 170,
            "velocity": 0.7874015748031497
          },
          {
            "duration": 0.0625,
            "durationTicks": 120,
            "midi": 60,
            "name": "C4",
            "ticks": 326880,
            "time": 170.25,
            "velocity": 0.7874015748031497
          },
          {
            "duration": 0.0625,
            "durationTicks": 120,
            "midi": 60,
            "name": "C4",
            "ticks": 327600,
            "time": 170.625,
            "velocity": 0.6299212598425197
          },
          {
            "duration": 0.0625,
            "durationTicks": 120,
            "midi": 60,
            "name": "C4",
            "ticks": 327840,
            "time": 170.75,
            "velocity": 0.7874015748031497
          },
          {
            "duration": 0.0625,
            "durationTicks": 120,
            "midi": 60,
            "name": "C4",
            "ticks": 328080,
            "time": 170.875,
            "velocity": 0.5905511811023622
          },
          {
            "duration": 0.0625,
            "durationTicks": 120,
            "midi": 60,
            "name": "C4",
            "ticks": 328320,
            "time": 171,
            "velocity": 0.7874015748031497
          },
          {
            "duration": 0.0625,
            "durationTicks": 120,
            "midi": 60,
            "name": "C4",
            "ticks": 328560,
            "time": 171.125,
            "velocity": 0.7874015748031497
          },
          {
            "duration": 0.0625,
            "durationTicks": 120,
            "midi": 60,
            "name": "C4",
            "ticks": 329040,
            "time": 171.375,
            "velocity": 0.7874015748031497
          },
          {
            "duration": 0.0625,
            "durationTicks": 120,
            "midi": 60,
            "name": "C4",
            "ticks": 329280,
            "time": 171.5,
            "velocity": 0.7874015748031497
          },
          {
            "duration": 0.0625,
            "durationTicks": 120,
            "midi": 60,
            "name": "C4",
            "ticks": 329760,
            "time": 171.75,
            "velocity": 0.6299212598425197
          },
          {
            "duration": 0.0625,
            "durationTicks": 120,
            "midi": 60,
            "name": "C4",
            "ticks": 330000,
            "time": 171.875,
            "velocity": 0.47244094488188976
          },
          {
            "duration": 0.0625,
            "durationTicks": 120,
            "midi": 60,
            "name": "C4",
            "ticks": 330240,
            "time": 172,
            "velocity": 0.7874015748031497
          },
          {
            "duration": 0.0625,
            "durationTicks": 120,
            "midi": 60,
            "name": "C4",
            "ticks": 330720,
            "time": 172.25,
            "velocity": 0.7874015748031497
          },
          {
            "duration": 0.0625,
            "durationTicks": 120,
            "midi": 60,
            "name": "C4",
            "ticks": 331440,
            "time": 172.625,
            "velocity": 0.6299212598425197
          },
          {
            "duration": 0.0625,
            "durationTicks": 120,
            "midi": 60,
            "name": "C4",
            "ticks": 331680,
            "time": 172.75,
            "velocity": 0.7874015748031497
          },
          {
            "duration": 0.0625,
            "durationTicks": 120,
            "midi": 60,
            "name": "C4",
            "ticks": 331920,
            "time": 172.875,
            "velocity": 0.5905511811023622
          },
          {
            "duration": 0.0625,
            "durationTicks": 120,
            "midi": 60,
            "name": "C4",
            "ticks": 332160,
            "time": 173,
            "velocity": 0.7874015748031497
          },
          {
            "duration": 0.0625,
            "durationTicks": 120,
            "midi": 60,
            "name": "C4",
            "ticks": 332400,
            "time": 173.125,
            "velocity": 0.7874015748031497
          },
          {
            "duration": 0.0625,
            "durationTicks": 120,
            "midi": 60,
            "name": "C4",
            "ticks": 332880,
            "time": 173.375,
            "velocity": 0.7874015748031497
          },
          {
            "duration": 0.0625,
            "durationTicks": 120,
            "midi": 60,
            "name": "C4",
            "ticks": 333120,
            "time": 173.5,
            "velocity": 0.7874015748031497
          },
          {
            "duration": 0.0625,
            "durationTicks": 120,
            "midi": 60,
            "name": "C4",
            "ticks": 333600,
            "time": 173.75,
            "velocity": 0.6299212598425197
          },
          {
            "duration": 0.0625,
            "durationTicks": 120,
            "midi": 60,
            "name": "C4",
            "ticks": 333840,
            "time": 173.875,
            "velocity": 0.47244094488188976
          },
          {
            "duration": 0.0625,
            "durationTicks": 120,
            "midi": 60,
            "name": "C4",
            "ticks": 334080,
            "time": 174,
            "velocity": 0.7874015748031497
          },
          {
            "duration": 0.0625,
            "durationTicks": 120,
            "midi": 60,
            "name": "C4",
            "ticks": 334560,
            "time": 174.25,
            "velocity": 0.7874015748031497
          },
          {
            "duration": 0.0625,
            "durationTicks": 120,
            "midi": 60,
            "name": "C4",
            "ticks": 335280,
            "time": 174.625,
            "velocity": 0.6299212598425197
          },
          {
            "duration": 0.0625,
            "durationTicks": 120,
            "midi": 60,
            "name": "C4",
            "ticks": 335520,
            "time": 174.75,
            "velocity": 0.7874015748031497
          },
          {
            "duration": 0.0625,
            "durationTicks": 120,
            "midi": 60,
            "name": "C4",
            "ticks": 335760,
            "time": 174.875,
            "velocity": 0.5905511811023622
          },
          {
            "duration": 0.0625,
            "durationTicks": 120,
            "midi": 60,
            "name": "C4",
            "ticks": 336000,
            "time": 175,
            "velocity": 0.7874015748031497
          },
          {
            "duration": 0.0625,
            "durationTicks": 120,
            "midi": 60,
            "name": "C4",
            "ticks": 336240,
            "time": 175.125,
            "velocity": 0.7874015748031497
          },
          {
            "duration": 0.0625,
            "durationTicks": 120,
            "midi": 60,
            "name": "C4",
            "ticks": 336480,
            "time": 175.25,
            "velocity": 0.7874015748031497
          },
          {
            "duration": 0.0625,
            "durationTicks": 120,
            "midi": 60,
            "name": "C4",
            "ticks": 336720,
            "time": 175.375,
            "velocity": 0.7874015748031497
          },
          {
            "duration": 0.0625,
            "durationTicks": 120,
            "midi": 60,
            "name": "C4",
            "ticks": 336960,
            "time": 175.5,
            "velocity": 0.7874015748031497
          },
          {
            "duration": 0.0625,
            "durationTicks": 120,
            "midi": 60,
            "name": "C4",
            "ticks": 337440,
            "time": 175.75,
            "velocity": 0.5905511811023622
          },
          {
            "duration": 0.0625,
            "durationTicks": 120,
            "midi": 60,
            "name": "C4",
            "ticks": 337680,
            "time": 175.875,
            "velocity": 0.6299212598425197
          },
          {
            "duration": 0.0625,
            "durationTicks": 120,
            "midi": 60,
            "name": "C4",
            "ticks": 339120,
            "time": 176.625,
            "velocity": 0.6299212598425197
          },
          {
            "duration": 0.0625,
            "durationTicks": 120,
            "midi": 60,
            "name": "C4",
            "ticks": 339360,
            "time": 176.75,
            "velocity": 0.7874015748031497
          },
          {
            "duration": 0.0625,
            "durationTicks": 120,
            "midi": 60,
            "name": "C4",
            "ticks": 339600,
            "time": 176.875,
            "velocity": 0.5905511811023622
          },
          {
            "duration": 0.0625,
            "durationTicks": 120,
            "midi": 60,
            "name": "C4",
            "ticks": 339840,
            "time": 177,
            "velocity": 0.7874015748031497
          },
          {
            "duration": 0.0625,
            "durationTicks": 120,
            "midi": 60,
            "name": "C4",
            "ticks": 340080,
            "time": 177.125,
            "velocity": 0.7874015748031497
          },
          {
            "duration": 0.0625,
            "durationTicks": 120,
            "midi": 60,
            "name": "C4",
            "ticks": 340560,
            "time": 177.375,
            "velocity": 0.7874015748031497
          },
          {
            "duration": 0.0625,
            "durationTicks": 120,
            "midi": 60,
            "name": "C4",
            "ticks": 340800,
            "time": 177.5,
            "velocity": 0.7874015748031497
          },
          {
            "duration": 0.0625,
            "durationTicks": 120,
            "midi": 60,
            "name": "C4",
            "ticks": 341280,
            "time": 177.75,
            "velocity": 0.6299212598425197
          },
          {
            "duration": 0.0625,
            "durationTicks": 120,
            "midi": 60,
            "name": "C4",
            "ticks": 341520,
            "time": 177.875,
            "velocity": 0.47244094488188976
          },
          {
            "duration": 0.0625,
            "durationTicks": 120,
            "midi": 60,
            "name": "C4",
            "ticks": 341760,
            "time": 178,
            "velocity": 0.7874015748031497
          },
          {
            "duration": 0.0625,
            "durationTicks": 120,
            "midi": 60,
            "name": "C4",
            "ticks": 342240,
            "time": 178.25,
            "velocity": 0.7874015748031497
          },
          {
            "duration": 0.0625,
            "durationTicks": 120,
            "midi": 60,
            "name": "C4",
            "ticks": 342960,
            "time": 178.625,
            "velocity": 0.6299212598425197
          },
          {
            "duration": 0.0625,
            "durationTicks": 120,
            "midi": 60,
            "name": "C4",
            "ticks": 343200,
            "time": 178.75,
            "velocity": 0.7874015748031497
          },
          {
            "duration": 0.0625,
            "durationTicks": 120,
            "midi": 60,
            "name": "C4",
            "ticks": 343440,
            "time": 178.875,
            "velocity": 0.5905511811023622
          },
          {
            "duration": 0.0625,
            "durationTicks": 120,
            "midi": 60,
            "name": "C4",
            "ticks": 343680,
            "time": 179,
            "velocity": 0.7874015748031497
          },
          {
            "duration": 0.0625,
            "durationTicks": 120,
            "midi": 60,
            "name": "C4",
            "ticks": 343920,
            "time": 179.125,
            "velocity": 0.7874015748031497
          },
          {
            "duration": 0.0625,
            "durationTicks": 120,
            "midi": 60,
            "name": "C4",
            "ticks": 344400,
            "time": 179.375,
            "velocity": 0.7874015748031497
          },
          {
            "duration": 0.0625,
            "durationTicks": 120,
            "midi": 60,
            "name": "C4",
            "ticks": 344640,
            "time": 179.5,
            "velocity": 0.7874015748031497
          },
          {
            "duration": 0.0625,
            "durationTicks": 120,
            "midi": 60,
            "name": "C4",
            "ticks": 345120,
            "time": 179.75,
            "velocity": 0.6299212598425197
          },
          {
            "duration": 0.0625,
            "durationTicks": 120,
            "midi": 60,
            "name": "C4",
            "ticks": 345360,
            "time": 179.875,
            "velocity": 0.47244094488188976
          },
          {
            "duration": 0.0625,
            "durationTicks": 120,
            "midi": 60,
            "name": "C4",
            "ticks": 345600,
            "time": 180,
            "velocity": 0.7874015748031497
          },
          {
            "duration": 0.0625,
            "durationTicks": 120,
            "midi": 60,
            "name": "C4",
            "ticks": 346080,
            "time": 180.25,
            "velocity": 0.7874015748031497
          },
          {
            "duration": 0.0625,
            "durationTicks": 120,
            "midi": 60,
            "name": "C4",
            "ticks": 346800,
            "time": 180.625,
            "velocity": 0.6299212598425197
          },
          {
            "duration": 0.0625,
            "durationTicks": 120,
            "midi": 60,
            "name": "C4",
            "ticks": 347040,
            "time": 180.75,
            "velocity": 0.7874015748031497
          },
          {
            "duration": 0.0625,
            "durationTicks": 120,
            "midi": 60,
            "name": "C4",
            "ticks": 347280,
            "time": 180.875,
            "velocity": 0.5905511811023622
          },
          {
            "duration": 0.0625,
            "durationTicks": 120,
            "midi": 60,
            "name": "C4",
            "ticks": 347520,
            "time": 181,
            "velocity": 0.7874015748031497
          },
          {
            "duration": 0.0625,
            "durationTicks": 120,
            "midi": 60,
            "name": "C4",
            "ticks": 347760,
            "time": 181.125,
            "velocity": 0.7874015748031497
          },
          {
            "duration": 0.0625,
            "durationTicks": 120,
            "midi": 60,
            "name": "C4",
            "ticks": 348240,
            "time": 181.375,
            "velocity": 0.7874015748031497
          },
          {
            "duration": 0.0625,
            "durationTicks": 120,
            "midi": 60,
            "name": "C4",
            "ticks": 348480,
            "time": 181.5,
            "velocity": 0.7874015748031497
          },
          {
            "duration": 0.0625,
            "durationTicks": 120,
            "midi": 60,
            "name": "C4",
            "ticks": 348960,
            "time": 181.75,
            "velocity": 0.6299212598425197
          },
          {
            "duration": 0.0625,
            "durationTicks": 120,
            "midi": 60,
            "name": "C4",
            "ticks": 349200,
            "time": 181.875,
            "velocity": 0.47244094488188976
          },
          {
            "duration": 0.0625,
            "durationTicks": 120,
            "midi": 60,
            "name": "C4",
            "ticks": 349440,
            "time": 182,
            "velocity": 0.7874015748031497
          },
          {
            "duration": 0.0625,
            "durationTicks": 120,
            "midi": 60,
            "name": "C4",
            "ticks": 349920,
            "time": 182.25,
            "velocity": 0.7874015748031497
          },
          {
            "duration": 0.0625,
            "durationTicks": 120,
            "midi": 60,
            "name": "C4",
            "ticks": 350640,
            "time": 182.625,
            "velocity": 0.6299212598425197
          },
          {
            "duration": 0.0625,
            "durationTicks": 120,
            "midi": 60,
            "name": "C4",
            "ticks": 350880,
            "time": 182.75,
            "velocity": 0.7874015748031497
          },
          {
            "duration": 0.0625,
            "durationTicks": 120,
            "midi": 60,
            "name": "C4",
            "ticks": 351120,
            "time": 182.875,
            "velocity": 0.5905511811023622
          },
          {
            "duration": 0.0625,
            "durationTicks": 120,
            "midi": 60,
            "name": "C4",
            "ticks": 351360,
            "time": 183,
            "velocity": 0.7874015748031497
          },
          {
            "duration": 0.0625,
            "durationTicks": 120,
            "midi": 60,
            "name": "C4",
            "ticks": 351600,
            "time": 183.125,
            "velocity": 0.7874015748031497
          },
          {
            "duration": 0.0625,
            "durationTicks": 120,
            "midi": 60,
            "name": "C4",
            "ticks": 351840,
            "time": 183.25,
            "velocity": 0.7874015748031497
          },
          {
            "duration": 0.0625,
            "durationTicks": 120,
            "midi": 60,
            "name": "C4",
            "ticks": 352080,
            "time": 183.375,
            "velocity": 0.7874015748031497
          },
          {
            "duration": 0.0625,
            "durationTicks": 120,
            "midi": 72,
            "name": "C5",
            "ticks": 352320,
            "time": 183.5,
            "velocity": 0.7874015748031497
          },
          {
            "duration": 0.0625,
            "durationTicks": 120,
            "midi": 60,
            "name": "C4",
            "ticks": 352800,
            "time": 183.75,
            "velocity": 0.5905511811023622
          },
          {
            "duration": 0.0625,
            "durationTicks": 120,
            "midi": 60,
            "name": "C4",
            "ticks": 353040,
            "time": 183.875,
            "velocity": 0.6299212598425197
          },
          {
            "duration": 0.0625,
            "durationTicks": 120,
            "midi": 60,
            "name": "C4",
            "ticks": 353280,
            "time": 184,
            "velocity": 0.7874015748031497
          },
          {
            "duration": 0.0625,
            "durationTicks": 120,
            "midi": 60,
            "name": "C4",
            "ticks": 353760,
            "time": 184.25,
            "velocity": 0.7874015748031497
          },
          {
            "duration": 0.0625,
            "durationTicks": 120,
            "midi": 60,
            "name": "C4",
            "ticks": 354480,
            "time": 184.625,
            "velocity": 0.6299212598425197
          },
          {
            "duration": 0.0625,
            "durationTicks": 120,
            "midi": 60,
            "name": "C4",
            "ticks": 354720,
            "time": 184.75,
            "velocity": 0.7874015748031497
          },
          {
            "duration": 0.0625,
            "durationTicks": 120,
            "midi": 60,
            "name": "C4",
            "ticks": 354960,
            "time": 184.875,
            "velocity": 0.5905511811023622
          },
          {
            "duration": 0.0625,
            "durationTicks": 120,
            "midi": 60,
            "name": "C4",
            "ticks": 355200,
            "time": 185,
            "velocity": 0.7874015748031497
          },
          {
            "duration": 0.0625,
            "durationTicks": 120,
            "midi": 60,
            "name": "C4",
            "ticks": 355440,
            "time": 185.125,
            "velocity": 0.7874015748031497
          },
          {
            "duration": 0.0625,
            "durationTicks": 120,
            "midi": 60,
            "name": "C4",
            "ticks": 355920,
            "time": 185.375,
            "velocity": 0.7874015748031497
          },
          {
            "duration": 0.0625,
            "durationTicks": 120,
            "midi": 60,
            "name": "C4",
            "ticks": 356160,
            "time": 185.5,
            "velocity": 0.7874015748031497
          },
          {
            "duration": 0.0625,
            "durationTicks": 120,
            "midi": 60,
            "name": "C4",
            "ticks": 356640,
            "time": 185.75,
            "velocity": 0.6299212598425197
          },
          {
            "duration": 0.0625,
            "durationTicks": 120,
            "midi": 60,
            "name": "C4",
            "ticks": 356880,
            "time": 185.875,
            "velocity": 0.47244094488188976
          },
          {
            "duration": 0.0625,
            "durationTicks": 120,
            "midi": 60,
            "name": "C4",
            "ticks": 357120,
            "time": 186,
            "velocity": 0.7874015748031497
          },
          {
            "duration": 0.0625,
            "durationTicks": 120,
            "midi": 60,
            "name": "C4",
            "ticks": 357600,
            "time": 186.25,
            "velocity": 0.7874015748031497
          },
          {
            "duration": 0.0625,
            "durationTicks": 120,
            "midi": 60,
            "name": "C4",
            "ticks": 358320,
            "time": 186.625,
            "velocity": 0.6299212598425197
          },
          {
            "duration": 0.0625,
            "durationTicks": 120,
            "midi": 60,
            "name": "C4",
            "ticks": 358560,
            "time": 186.75,
            "velocity": 0.7874015748031497
          },
          {
            "duration": 0.0625,
            "durationTicks": 120,
            "midi": 60,
            "name": "C4",
            "ticks": 358800,
            "time": 186.875,
            "velocity": 0.5905511811023622
          },
          {
            "duration": 0.0625,
            "durationTicks": 120,
            "midi": 60,
            "name": "C4",
            "ticks": 359040,
            "time": 187,
            "velocity": 0.7874015748031497
          },
          {
            "duration": 0.0625,
            "durationTicks": 120,
            "midi": 60,
            "name": "C4",
            "ticks": 359280,
            "time": 187.125,
            "velocity": 0.7874015748031497
          },
          {
            "duration": 0.0625,
            "durationTicks": 120,
            "midi": 60,
            "name": "C4",
            "ticks": 359760,
            "time": 187.375,
            "velocity": 0.7874015748031497
          },
          {
            "duration": 0.0625,
            "durationTicks": 120,
            "midi": 60,
            "name": "C4",
            "ticks": 360000,
            "time": 187.5,
            "velocity": 0.7874015748031497
          },
          {
            "duration": 0.0625,
            "durationTicks": 120,
            "midi": 60,
            "name": "C4",
            "ticks": 360480,
            "time": 187.75,
            "velocity": 0.6299212598425197
          },
          {
            "duration": 0.0625,
            "durationTicks": 120,
            "midi": 60,
            "name": "C4",
            "ticks": 360720,
            "time": 187.875,
            "velocity": 0.47244094488188976
          },
          {
            "duration": 0.0625,
            "durationTicks": 120,
            "midi": 60,
            "name": "C4",
            "ticks": 360960,
            "time": 188,
            "velocity": 0.7874015748031497
          },
          {
            "duration": 0.0625,
            "durationTicks": 120,
            "midi": 60,
            "name": "C4",
            "ticks": 361440,
            "time": 188.25,
            "velocity": 0.7874015748031497
          },
          {
            "duration": 0.0625,
            "durationTicks": 120,
            "midi": 60,
            "name": "C4",
            "ticks": 362160,
            "time": 188.625,
            "velocity": 0.6299212598425197
          },
          {
            "duration": 0.0625,
            "durationTicks": 120,
            "midi": 60,
            "name": "C4",
            "ticks": 362400,
            "time": 188.75,
            "velocity": 0.7874015748031497
          },
          {
            "duration": 0.0625,
            "durationTicks": 120,
            "midi": 60,
            "name": "C4",
            "ticks": 362640,
            "time": 188.875,
            "velocity": 0.5905511811023622
          },
          {
            "duration": 0.0625,
            "durationTicks": 120,
            "midi": 60,
            "name": "C4",
            "ticks": 362880,
            "time": 189,
            "velocity": 0.7874015748031497
          },
          {
            "duration": 0.0625,
            "durationTicks": 120,
            "midi": 60,
            "name": "C4",
            "ticks": 363120,
            "time": 189.125,
            "velocity": 0.7874015748031497
          },
          {
            "duration": 0.0625,
            "durationTicks": 120,
            "midi": 60,
            "name": "C4",
            "ticks": 363600,
            "time": 189.375,
            "velocity": 0.7874015748031497
          },
          {
            "duration": 0.0625,
            "durationTicks": 120,
            "midi": 60,
            "name": "C4",
            "ticks": 363840,
            "time": 189.5,
            "velocity": 0.7874015748031497
          },
          {
            "duration": 0.0625,
            "durationTicks": 120,
            "midi": 60,
            "name": "C4",
            "ticks": 364320,
            "time": 189.75,
            "velocity": 0.6299212598425197
          },
          {
            "duration": 0.0625,
            "durationTicks": 120,
            "midi": 60,
            "name": "C4",
            "ticks": 364560,
            "time": 189.875,
            "velocity": 0.47244094488188976
          },
          {
            "duration": 0.0625,
            "durationTicks": 120,
            "midi": 60,
            "name": "C4",
            "ticks": 364800,
            "time": 190,
            "velocity": 0.7874015748031497
          },
          {
            "duration": 0.0625,
            "durationTicks": 120,
            "midi": 60,
            "name": "C4",
            "ticks": 365280,
            "time": 190.25,
            "velocity": 0.7874015748031497
          },
          {
            "duration": 0.0625,
            "durationTicks": 120,
            "midi": 60,
            "name": "C4",
            "ticks": 366000,
            "time": 190.625,
            "velocity": 0.6299212598425197
          },
          {
            "duration": 0.0625,
            "durationTicks": 120,
            "midi": 60,
            "name": "C4",
            "ticks": 366240,
            "time": 190.75,
            "velocity": 0.7874015748031497
          },
          {
            "duration": 0.0625,
            "durationTicks": 120,
            "midi": 60,
            "name": "C4",
            "ticks": 366480,
            "time": 190.875,
            "velocity": 0.5905511811023622
          },
          {
            "duration": 0.0625,
            "durationTicks": 120,
            "midi": 60,
            "name": "C4",
            "ticks": 366720,
            "time": 191,
            "velocity": 0.7874015748031497
          },
          {
            "duration": 0.0625,
            "durationTicks": 120,
            "midi": 60,
            "name": "C4",
            "ticks": 366960,
            "time": 191.125,
            "velocity": 0.7874015748031497
          },
          {
            "duration": 0.0625,
            "durationTicks": 120,
            "midi": 60,
            "name": "C4",
            "ticks": 367200,
            "time": 191.25,
            "velocity": 0.7874015748031497
          },
          {
            "duration": 0.0625,
            "durationTicks": 120,
            "midi": 60,
            "name": "C4",
            "ticks": 367440,
            "time": 191.375,
            "velocity": 0.7874015748031497
          },
          {
            "duration": 0.0625,
            "durationTicks": 120,
            "midi": 60,
            "name": "C4",
            "ticks": 367680,
            "time": 191.5,
            "velocity": 0.7874015748031497
          },
          {
            "duration": 0.0625,
            "durationTicks": 120,
            "midi": 60,
            "name": "C4",
            "ticks": 368160,
            "time": 191.75,
            "velocity": 0.5905511811023622
          },
          {
            "duration": 0.0625,
            "durationTicks": 120,
            "midi": 60,
            "name": "C4",
            "ticks": 368400,
            "time": 191.875,
            "velocity": 0.6299212598425197
          },
          {
            "duration": 0.0625,
            "durationTicks": 120,
            "midi": 60,
            "name": "C4",
            "ticks": 368640,
            "time": 192,
            "velocity": 0.7874015748031497
          },
          {
            "duration": 0.0625,
            "durationTicks": 120,
            "midi": 60,
            "name": "C4",
            "ticks": 369120,
            "time": 192.25,
            "velocity": 0.7874015748031497
          },
          {
            "duration": 0.0625,
            "durationTicks": 120,
            "midi": 60,
            "name": "C4",
            "ticks": 369840,
            "time": 192.625,
            "velocity": 0.6299212598425197
          },
          {
            "duration": 0.0625,
            "durationTicks": 120,
            "midi": 60,
            "name": "C4",
            "ticks": 370080,
            "time": 192.75,
            "velocity": 0.7874015748031497
          },
          {
            "duration": 0.0625,
            "durationTicks": 120,
            "midi": 60,
            "name": "C4",
            "ticks": 370320,
            "time": 192.875,
            "velocity": 0.5905511811023622
          },
          {
            "duration": 0.0625,
            "durationTicks": 120,
            "midi": 60,
            "name": "C4",
            "ticks": 370560,
            "time": 193,
            "velocity": 0.7874015748031497
          },
          {
            "duration": 0.0625,
            "durationTicks": 120,
            "midi": 60,
            "name": "C4",
            "ticks": 370800,
            "time": 193.125,
            "velocity": 0.7874015748031497
          },
          {
            "duration": 0.0625,
            "durationTicks": 120,
            "midi": 60,
            "name": "C4",
            "ticks": 371280,
            "time": 193.375,
            "velocity": 0.7874015748031497
          },
          {
            "duration": 0.0625,
            "durationTicks": 120,
            "midi": 60,
            "name": "C4",
            "ticks": 371520,
            "time": 193.5,
            "velocity": 0.7874015748031497
          },
          {
            "duration": 0.0625,
            "durationTicks": 120,
            "midi": 60,
            "name": "C4",
            "ticks": 372000,
            "time": 193.75,
            "velocity": 0.6299212598425197
          },
          {
            "duration": 0.0625,
            "durationTicks": 120,
            "midi": 60,
            "name": "C4",
            "ticks": 372240,
            "time": 193.875,
            "velocity": 0.47244094488188976
          },
          {
            "duration": 0.0625,
            "durationTicks": 120,
            "midi": 60,
            "name": "C4",
            "ticks": 372480,
            "time": 194,
            "velocity": 0.7874015748031497
          },
          {
            "duration": 0.0625,
            "durationTicks": 120,
            "midi": 60,
            "name": "C4",
            "ticks": 372960,
            "time": 194.25,
            "velocity": 0.7874015748031497
          },
          {
            "duration": 0.0625,
            "durationTicks": 120,
            "midi": 60,
            "name": "C4",
            "ticks": 373680,
            "time": 194.625,
            "velocity": 0.6299212598425197
          },
          {
            "duration": 0.0625,
            "durationTicks": 120,
            "midi": 60,
            "name": "C4",
            "ticks": 373920,
            "time": 194.75,
            "velocity": 0.7874015748031497
          },
          {
            "duration": 0.0625,
            "durationTicks": 120,
            "midi": 60,
            "name": "C4",
            "ticks": 374160,
            "time": 194.875,
            "velocity": 0.5905511811023622
          },
          {
            "duration": 0.0625,
            "durationTicks": 120,
            "midi": 60,
            "name": "C4",
            "ticks": 374400,
            "time": 195,
            "velocity": 0.7874015748031497
          },
          {
            "duration": 0.0625,
            "durationTicks": 120,
            "midi": 60,
            "name": "C4",
            "ticks": 374640,
            "time": 195.125,
            "velocity": 0.7874015748031497
          },
          {
            "duration": 0.0625,
            "durationTicks": 120,
            "midi": 60,
            "name": "C4",
            "ticks": 375120,
            "time": 195.375,
            "velocity": 0.7874015748031497
          },
          {
            "duration": 0.0625,
            "durationTicks": 120,
            "midi": 60,
            "name": "C4",
            "ticks": 375360,
            "time": 195.5,
            "velocity": 0.7874015748031497
          },
          {
            "duration": 0.0625,
            "durationTicks": 120,
            "midi": 60,
            "name": "C4",
            "ticks": 375840,
            "time": 195.75,
            "velocity": 0.6299212598425197
          },
          {
            "duration": 0.0625,
            "durationTicks": 120,
            "midi": 60,
            "name": "C4",
            "ticks": 376080,
            "time": 195.875,
            "velocity": 0.47244094488188976
          },
          {
            "duration": 0.0625,
            "durationTicks": 120,
            "midi": 60,
            "name": "C4",
            "ticks": 376320,
            "time": 196,
            "velocity": 0.7874015748031497
          },
          {
            "duration": 0.0625,
            "durationTicks": 120,
            "midi": 60,
            "name": "C4",
            "ticks": 376800,
            "time": 196.25,
            "velocity": 0.7874015748031497
          },
          {
            "duration": 0.0625,
            "durationTicks": 120,
            "midi": 60,
            "name": "C4",
            "ticks": 377520,
            "time": 196.625,
            "velocity": 0.6299212598425197
          },
          {
            "duration": 0.0625,
            "durationTicks": 120,
            "midi": 60,
            "name": "C4",
            "ticks": 377760,
            "time": 196.75,
            "velocity": 0.7874015748031497
          },
          {
            "duration": 0.0625,
            "durationTicks": 120,
            "midi": 60,
            "name": "C4",
            "ticks": 378000,
            "time": 196.875,
            "velocity": 0.5905511811023622
          },
          {
            "duration": 0.0625,
            "durationTicks": 120,
            "midi": 60,
            "name": "C4",
            "ticks": 378240,
            "time": 197,
            "velocity": 0.7874015748031497
          },
          {
            "duration": 0.0625,
            "durationTicks": 120,
            "midi": 60,
            "name": "C4",
            "ticks": 378480,
            "time": 197.125,
            "velocity": 0.7874015748031497
          },
          {
            "duration": 0.0625,
            "durationTicks": 120,
            "midi": 60,
            "name": "C4",
            "ticks": 378960,
            "time": 197.375,
            "velocity": 0.7874015748031497
          },
          {
            "duration": 0.0625,
            "durationTicks": 120,
            "midi": 60,
            "name": "C4",
            "ticks": 379200,
            "time": 197.5,
            "velocity": 0.7874015748031497
          },
          {
            "duration": 0.0625,
            "durationTicks": 120,
            "midi": 60,
            "name": "C4",
            "ticks": 379680,
            "time": 197.75,
            "velocity": 0.6299212598425197
          },
          {
            "duration": 0.0625,
            "durationTicks": 120,
            "midi": 60,
            "name": "C4",
            "ticks": 379920,
            "time": 197.875,
            "velocity": 0.47244094488188976
          },
          {
            "duration": 0.0625,
            "durationTicks": 120,
            "midi": 60,
            "name": "C4",
            "ticks": 380160,
            "time": 198,
            "velocity": 0.7874015748031497
          },
          {
            "duration": 0.0625,
            "durationTicks": 120,
            "midi": 60,
            "name": "C4",
            "ticks": 380640,
            "time": 198.25,
            "velocity": 0.7874015748031497
          },
          {
            "duration": 0.0625,
            "durationTicks": 120,
            "midi": 60,
            "name": "C4",
            "ticks": 381360,
            "time": 198.625,
            "velocity": 0.6299212598425197
          },
          {
            "duration": 0.0625,
            "durationTicks": 120,
            "midi": 60,
            "name": "C4",
            "ticks": 381600,
            "time": 198.75,
            "velocity": 0.7874015748031497
          },
          {
            "duration": 0.0625,
            "durationTicks": 120,
            "midi": 60,
            "name": "C4",
            "ticks": 381840,
            "time": 198.875,
            "velocity": 0.5905511811023622
          },
          {
            "duration": 0.0625,
            "durationTicks": 120,
            "midi": 60,
            "name": "C4",
            "ticks": 382080,
            "time": 199,
            "velocity": 0.7874015748031497
          },
          {
            "duration": 0.0625,
            "durationTicks": 120,
            "midi": 60,
            "name": "C4",
            "ticks": 382320,
            "time": 199.125,
            "velocity": 0.7874015748031497
          },
          {
            "duration": 0.0625,
            "durationTicks": 120,
            "midi": 60,
            "name": "C4",
            "ticks": 382560,
            "time": 199.25,
            "velocity": 0.7874015748031497
          },
          {
            "duration": 0.0625,
            "durationTicks": 120,
            "midi": 60,
            "name": "C4",
            "ticks": 382800,
            "time": 199.375,
            "velocity": 0.7874015748031497
          },
          {
            "duration": 0.0625,
            "durationTicks": 120,
            "midi": 72,
            "name": "C5",
            "ticks": 383040,
            "time": 199.5,
            "velocity": 0.7874015748031497
          },
          {
            "duration": 0.0625,
            "durationTicks": 120,
            "midi": 60,
            "name": "C4",
            "ticks": 383520,
            "time": 199.75,
            "velocity": 0.5905511811023622
          },
          {
            "duration": 0.0625,
            "durationTicks": 120,
            "midi": 60,
            "name": "C4",
            "ticks": 383760,
            "time": 199.875,
            "velocity": 0.6299212598425197
          },
          {
            "duration": 0.0625,
            "durationTicks": 120,
            "midi": 60,
            "name": "C4",
            "ticks": 384000,
            "time": 200,
            "velocity": 0.7874015748031497
          },
          {
            "duration": 0.0625,
            "durationTicks": 120,
            "midi": 60,
            "name": "C4",
            "ticks": 384480,
            "time": 200.25,
            "velocity": 0.7874015748031497
          },
          {
            "duration": 0.0625,
            "durationTicks": 120,
            "midi": 60,
            "name": "C4",
            "ticks": 385200,
            "time": 200.625,
            "velocity": 0.6299212598425197
          },
          {
            "duration": 0.0625,
            "durationTicks": 120,
            "midi": 60,
            "name": "C4",
            "ticks": 385440,
            "time": 200.75,
            "velocity": 0.7874015748031497
          },
          {
            "duration": 0.0625,
            "durationTicks": 120,
            "midi": 60,
            "name": "C4",
            "ticks": 385680,
            "time": 200.875,
            "velocity": 0.5905511811023622
          },
          {
            "duration": 0.0625,
            "durationTicks": 120,
            "midi": 60,
            "name": "C4",
            "ticks": 385920,
            "time": 201,
            "velocity": 0.7874015748031497
          },
          {
            "duration": 0.0625,
            "durationTicks": 120,
            "midi": 60,
            "name": "C4",
            "ticks": 386160,
            "time": 201.125,
            "velocity": 0.7874015748031497
          },
          {
            "duration": 0.0625,
            "durationTicks": 120,
            "midi": 60,
            "name": "C4",
            "ticks": 386640,
            "time": 201.375,
            "velocity": 0.7874015748031497
          },
          {
            "duration": 0.0625,
            "durationTicks": 120,
            "midi": 60,
            "name": "C4",
            "ticks": 386880,
            "time": 201.5,
            "velocity": 0.7874015748031497
          },
          {
            "duration": 0.0625,
            "durationTicks": 120,
            "midi": 60,
            "name": "C4",
            "ticks": 387360,
            "time": 201.75,
            "velocity": 0.6299212598425197
          },
          {
            "duration": 0.0625,
            "durationTicks": 120,
            "midi": 60,
            "name": "C4",
            "ticks": 387600,
            "time": 201.875,
            "velocity": 0.47244094488188976
          },
          {
            "duration": 0.0625,
            "durationTicks": 120,
            "midi": 60,
            "name": "C4",
            "ticks": 387840,
            "time": 202,
            "velocity": 0.7874015748031497
          },
          {
            "duration": 0.0625,
            "durationTicks": 120,
            "midi": 60,
            "name": "C4",
            "ticks": 388320,
            "time": 202.25,
            "velocity": 0.7874015748031497
          },
          {
            "duration": 0.0625,
            "durationTicks": 120,
            "midi": 60,
            "name": "C4",
            "ticks": 389040,
            "time": 202.625,
            "velocity": 0.6299212598425197
          },
          {
            "duration": 0.0625,
            "durationTicks": 120,
            "midi": 60,
            "name": "C4",
            "ticks": 389280,
            "time": 202.75,
            "velocity": 0.7874015748031497
          },
          {
            "duration": 0.0625,
            "durationTicks": 120,
            "midi": 60,
            "name": "C4",
            "ticks": 389520,
            "time": 202.875,
            "velocity": 0.5905511811023622
          },
          {
            "duration": 0.0625,
            "durationTicks": 120,
            "midi": 60,
            "name": "C4",
            "ticks": 389760,
            "time": 203,
            "velocity": 0.7874015748031497
          },
          {
            "duration": 0.0625,
            "durationTicks": 120,
            "midi": 60,
            "name": "C4",
            "ticks": 390000,
            "time": 203.125,
            "velocity": 0.7874015748031497
          },
          {
            "duration": 0.0625,
            "durationTicks": 120,
            "midi": 60,
            "name": "C4",
            "ticks": 390480,
            "time": 203.375,
            "velocity": 0.7874015748031497
          },
          {
            "duration": 0.0625,
            "durationTicks": 120,
            "midi": 60,
            "name": "C4",
            "ticks": 390720,
            "time": 203.5,
            "velocity": 0.7874015748031497
          },
          {
            "duration": 0.0625,
            "durationTicks": 120,
            "midi": 60,
            "name": "C4",
            "ticks": 391200,
            "time": 203.75,
            "velocity": 0.6299212598425197
          },
          {
            "duration": 0.0625,
            "durationTicks": 120,
            "midi": 60,
            "name": "C4",
            "ticks": 391440,
            "time": 203.875,
            "velocity": 0.47244094488188976
          },
          {
            "duration": 0.0625,
            "durationTicks": 120,
            "midi": 60,
            "name": "C4",
            "ticks": 391680,
            "time": 204,
            "velocity": 0.7874015748031497
          },
          {
            "duration": 0.0625,
            "durationTicks": 120,
            "midi": 60,
            "name": "C4",
            "ticks": 392160,
            "time": 204.25,
            "velocity": 0.7874015748031497
          },
          {
            "duration": 0.0625,
            "durationTicks": 120,
            "midi": 60,
            "name": "C4",
            "ticks": 392880,
            "time": 204.625,
            "velocity": 0.6299212598425197
          },
          {
            "duration": 0.0625,
            "durationTicks": 120,
            "midi": 60,
            "name": "C4",
            "ticks": 393120,
            "time": 204.75,
            "velocity": 0.7874015748031497
          },
          {
            "duration": 0.0625,
            "durationTicks": 120,
            "midi": 60,
            "name": "C4",
            "ticks": 393360,
            "time": 204.875,
            "velocity": 0.5905511811023622
          },
          {
            "duration": 0.0625,
            "durationTicks": 120,
            "midi": 60,
            "name": "C4",
            "ticks": 393600,
            "time": 205,
            "velocity": 0.7874015748031497
          },
          {
            "duration": 0.0625,
            "durationTicks": 120,
            "midi": 60,
            "name": "C4",
            "ticks": 393840,
            "time": 205.125,
            "velocity": 0.7874015748031497
          },
          {
            "duration": 0.0625,
            "durationTicks": 120,
            "midi": 60,
            "name": "C4",
            "ticks": 394320,
            "time": 205.375,
            "velocity": 0.7874015748031497
          },
          {
            "duration": 0.0625,
            "durationTicks": 120,
            "midi": 60,
            "name": "C4",
            "ticks": 394560,
            "time": 205.5,
            "velocity": 0.7874015748031497
          },
          {
            "duration": 0.0625,
            "durationTicks": 120,
            "midi": 60,
            "name": "C4",
            "ticks": 395040,
            "time": 205.75,
            "velocity": 0.6299212598425197
          },
          {
            "duration": 0.0625,
            "durationTicks": 120,
            "midi": 60,
            "name": "C4",
            "ticks": 395280,
            "time": 205.875,
            "velocity": 0.47244094488188976
          },
          {
            "duration": 0.0625,
            "durationTicks": 120,
            "midi": 60,
            "name": "C4",
            "ticks": 395520,
            "time": 206,
            "velocity": 0.7874015748031497
          },
          {
            "duration": 0.0625,
            "durationTicks": 120,
            "midi": 60,
            "name": "C4",
            "ticks": 396000,
            "time": 206.25,
            "velocity": 0.7874015748031497
          },
          {
            "duration": 0.0625,
            "durationTicks": 120,
            "midi": 60,
            "name": "C4",
            "ticks": 396720,
            "time": 206.625,
            "velocity": 0.6299212598425197
          },
          {
            "duration": 0.0625,
            "durationTicks": 120,
            "midi": 60,
            "name": "C4",
            "ticks": 396960,
            "time": 206.75,
            "velocity": 0.7874015748031497
          },
          {
            "duration": 0.0625,
            "durationTicks": 120,
            "midi": 60,
            "name": "C4",
            "ticks": 397200,
            "time": 206.875,
            "velocity": 0.5905511811023622
          },
          {
            "duration": 0.0625,
            "durationTicks": 120,
            "midi": 60,
            "name": "C4",
            "ticks": 397440,
            "time": 207,
            "velocity": 0.7874015748031497
          },
          {
            "duration": 0.0625,
            "durationTicks": 120,
            "midi": 60,
            "name": "C4",
            "ticks": 397680,
            "time": 207.125,
            "velocity": 0.7874015748031497
          },
          {
            "duration": 0.0625,
            "durationTicks": 120,
            "midi": 60,
            "name": "C4",
            "ticks": 397920,
            "time": 207.25,
            "velocity": 0.7874015748031497
          },
          {
            "duration": 0.0625,
            "durationTicks": 120,
            "midi": 60,
            "name": "C4",
            "ticks": 398160,
            "time": 207.375,
            "velocity": 0.7874015748031497
          },
          {
            "duration": 0.0625,
            "durationTicks": 120,
            "midi": 60,
            "name": "C4",
            "ticks": 398400,
            "time": 207.5,
            "velocity": 0.7874015748031497
          },
          {
            "duration": 0.0625,
            "durationTicks": 120,
            "midi": 60,
            "name": "C4",
            "ticks": 398880,
            "time": 207.75,
            "velocity": 0.5905511811023622
          },
          {
            "duration": 0.0625,
            "durationTicks": 120,
            "midi": 60,
            "name": "C4",
            "ticks": 399120,
            "time": 207.875,
            "velocity": 0.6299212598425197
          },
          {
            "duration": 0.0625,
            "durationTicks": 120,
            "midi": 60,
            "name": "C4",
            "ticks": 399360,
            "time": 208,
            "velocity": 0.7874015748031497
          },
          {
            "duration": 0.0625,
            "durationTicks": 120,
            "midi": 60,
            "name": "C4",
            "ticks": 399840,
            "time": 208.25,
            "velocity": 0.7874015748031497
          },
          {
            "duration": 0.0625,
            "durationTicks": 120,
            "midi": 60,
            "name": "C4",
            "ticks": 400560,
            "time": 208.625,
            "velocity": 0.6299212598425197
          },
          {
            "duration": 0.0625,
            "durationTicks": 120,
            "midi": 60,
            "name": "C4",
            "ticks": 400800,
            "time": 208.75,
            "velocity": 0.7874015748031497
          },
          {
            "duration": 0.0625,
            "durationTicks": 120,
            "midi": 60,
            "name": "C4",
            "ticks": 401040,
            "time": 208.875,
            "velocity": 0.5905511811023622
          },
          {
            "duration": 0.0625,
            "durationTicks": 120,
            "midi": 60,
            "name": "C4",
            "ticks": 401280,
            "time": 209,
            "velocity": 0.7874015748031497
          },
          {
            "duration": 0.0625,
            "durationTicks": 120,
            "midi": 60,
            "name": "C4",
            "ticks": 401520,
            "time": 209.125,
            "velocity": 0.7874015748031497
          },
          {
            "duration": 0.0625,
            "durationTicks": 120,
            "midi": 60,
            "name": "C4",
            "ticks": 402000,
            "time": 209.375,
            "velocity": 0.7874015748031497
          },
          {
            "duration": 0.0625,
            "durationTicks": 120,
            "midi": 60,
            "name": "C4",
            "ticks": 402240,
            "time": 209.5,
            "velocity": 0.7874015748031497
          },
          {
            "duration": 0.0625,
            "durationTicks": 120,
            "midi": 60,
            "name": "C4",
            "ticks": 402720,
            "time": 209.75,
            "velocity": 0.6299212598425197
          },
          {
            "duration": 0.0625,
            "durationTicks": 120,
            "midi": 60,
            "name": "C4",
            "ticks": 402960,
            "time": 209.875,
            "velocity": 0.47244094488188976
          },
          {
            "duration": 0.0625,
            "durationTicks": 120,
            "midi": 60,
            "name": "C4",
            "ticks": 403200,
            "time": 210,
            "velocity": 0.7874015748031497
          },
          {
            "duration": 0.0625,
            "durationTicks": 120,
            "midi": 60,
            "name": "C4",
            "ticks": 403680,
            "time": 210.25,
            "velocity": 0.7874015748031497
          },
          {
            "duration": 0.0625,
            "durationTicks": 120,
            "midi": 60,
            "name": "C4",
            "ticks": 404400,
            "time": 210.625,
            "velocity": 0.6299212598425197
          },
          {
            "duration": 0.0625,
            "durationTicks": 120,
            "midi": 60,
            "name": "C4",
            "ticks": 404640,
            "time": 210.75,
            "velocity": 0.7874015748031497
          },
          {
            "duration": 0.0625,
            "durationTicks": 120,
            "midi": 60,
            "name": "C4",
            "ticks": 404880,
            "time": 210.875,
            "velocity": 0.5905511811023622
          },
          {
            "duration": 0.0625,
            "durationTicks": 120,
            "midi": 60,
            "name": "C4",
            "ticks": 405120,
            "time": 211,
            "velocity": 0.7874015748031497
          },
          {
            "duration": 0.0625,
            "durationTicks": 120,
            "midi": 60,
            "name": "C4",
            "ticks": 405360,
            "time": 211.125,
            "velocity": 0.7874015748031497
          },
          {
            "duration": 0.0625,
            "durationTicks": 120,
            "midi": 60,
            "name": "C4",
            "ticks": 405840,
            "time": 211.375,
            "velocity": 0.7874015748031497
          },
          {
            "duration": 0.0625,
            "durationTicks": 120,
            "midi": 60,
            "name": "C4",
            "ticks": 406080,
            "time": 211.5,
            "velocity": 0.7874015748031497
          },
          {
            "duration": 0.0625,
            "durationTicks": 120,
            "midi": 60,
            "name": "C4",
            "ticks": 406560,
            "time": 211.75,
            "velocity": 0.6299212598425197
          },
          {
            "duration": 0.0625,
            "durationTicks": 120,
            "midi": 60,
            "name": "C4",
            "ticks": 406800,
            "time": 211.875,
            "velocity": 0.47244094488188976
          },
          {
            "duration": 0.0625,
            "durationTicks": 120,
            "midi": 60,
            "name": "C4",
            "ticks": 407040,
            "time": 212,
            "velocity": 0.7874015748031497
          },
          {
            "duration": 0.0625,
            "durationTicks": 120,
            "midi": 60,
            "name": "C4",
            "ticks": 407520,
            "time": 212.25,
            "velocity": 0.7874015748031497
          },
          {
            "duration": 0.0625,
            "durationTicks": 120,
            "midi": 60,
            "name": "C4",
            "ticks": 408240,
            "time": 212.625,
            "velocity": 0.6299212598425197
          },
          {
            "duration": 0.0625,
            "durationTicks": 120,
            "midi": 60,
            "name": "C4",
            "ticks": 408480,
            "time": 212.75,
            "velocity": 0.7874015748031497
          },
          {
            "duration": 0.0625,
            "durationTicks": 120,
            "midi": 60,
            "name": "C4",
            "ticks": 408720,
            "time": 212.875,
            "velocity": 0.5905511811023622
          },
          {
            "duration": 0.0625,
            "durationTicks": 120,
            "midi": 60,
            "name": "C4",
            "ticks": 408960,
            "time": 213,
            "velocity": 0.7874015748031497
          },
          {
            "duration": 0.0625,
            "durationTicks": 120,
            "midi": 60,
            "name": "C4",
            "ticks": 409200,
            "time": 213.125,
            "velocity": 0.7874015748031497
          },
          {
            "duration": 0.0625,
            "durationTicks": 120,
            "midi": 60,
            "name": "C4",
            "ticks": 409680,
            "time": 213.375,
            "velocity": 0.7874015748031497
          },
          {
            "duration": 0.0625,
            "durationTicks": 120,
            "midi": 60,
            "name": "C4",
            "ticks": 409920,
            "time": 213.5,
            "velocity": 0.7874015748031497
          },
          {
            "duration": 0.0625,
            "durationTicks": 120,
            "midi": 60,
            "name": "C4",
            "ticks": 410400,
            "time": 213.75,
            "velocity": 0.6299212598425197
          },
          {
            "duration": 0.0625,
            "durationTicks": 120,
            "midi": 60,
            "name": "C4",
            "ticks": 410640,
            "time": 213.875,
            "velocity": 0.47244094488188976
          },
          {
            "duration": 0.0625,
            "durationTicks": 120,
            "midi": 60,
            "name": "C4",
            "ticks": 410880,
            "time": 214,
            "velocity": 0.7874015748031497
          },
          {
            "duration": 0.0625,
            "durationTicks": 120,
            "midi": 60,
            "name": "C4",
            "ticks": 411360,
            "time": 214.25,
            "velocity": 0.7874015748031497
          },
          {
            "duration": 0.0625,
            "durationTicks": 120,
            "midi": 60,
            "name": "C4",
            "ticks": 412080,
            "time": 214.625,
            "velocity": 0.6299212598425197
          },
          {
            "duration": 0.0625,
            "durationTicks": 120,
            "midi": 60,
            "name": "C4",
            "ticks": 412320,
            "time": 214.75,
            "velocity": 0.7874015748031497
          },
          {
            "duration": 0.0625,
            "durationTicks": 120,
            "midi": 60,
            "name": "C4",
            "ticks": 412560,
            "time": 214.875,
            "velocity": 0.5905511811023622
          },
          {
            "duration": 0.0625,
            "durationTicks": 120,
            "midi": 60,
            "name": "C4",
            "ticks": 412800,
            "time": 215,
            "velocity": 0.7874015748031497
          },
          {
            "duration": 0.0625,
            "durationTicks": 120,
            "midi": 60,
            "name": "C4",
            "ticks": 413040,
            "time": 215.125,
            "velocity": 0.7874015748031497
          },
          {
            "duration": 0.0625,
            "durationTicks": 120,
            "midi": 60,
            "name": "C4",
            "ticks": 413280,
            "time": 215.25,
            "velocity": 0.7874015748031497
          },
          {
            "duration": 0.0625,
            "durationTicks": 120,
            "midi": 60,
            "name": "C4",
            "ticks": 413520,
            "time": 215.375,
            "velocity": 0.7874015748031497
          },
          {
            "duration": 0.0625,
            "durationTicks": 120,
            "midi": 72,
            "name": "C5",
            "ticks": 413760,
            "time": 215.5,
            "velocity": 0.7874015748031497
          },
          {
            "duration": 0.0625,
            "durationTicks": 120,
            "midi": 60,
            "name": "C4",
            "ticks": 414240,
            "time": 215.75,
            "velocity": 0.5905511811023622
          },
          {
            "duration": 0.0625,
            "durationTicks": 120,
            "midi": 60,
            "name": "C4",
            "ticks": 414480,
            "time": 215.875,
            "velocity": 0.6299212598425197
          },
          {
            "duration": 0.0625,
            "durationTicks": 120,
            "midi": 60,
            "name": "C4",
            "ticks": 414720,
            "time": 216,
            "velocity": 0.7874015748031497
          },
          {
            "duration": 0.0625,
            "durationTicks": 120,
            "midi": 60,
            "name": "C4",
            "ticks": 415200,
            "time": 216.25,
            "velocity": 0.7874015748031497
          },
          {
            "duration": 0.0625,
            "durationTicks": 120,
            "midi": 60,
            "name": "C4",
            "ticks": 415920,
            "time": 216.625,
            "velocity": 0.6299212598425197
          },
          {
            "duration": 0.0625,
            "durationTicks": 120,
            "midi": 60,
            "name": "C4",
            "ticks": 416160,
            "time": 216.75,
            "velocity": 0.7874015748031497
          },
          {
            "duration": 0.0625,
            "durationTicks": 120,
            "midi": 60,
            "name": "C4",
            "ticks": 416400,
            "time": 216.875,
            "velocity": 0.5905511811023622
          },
          {
            "duration": 0.0625,
            "durationTicks": 120,
            "midi": 60,
            "name": "C4",
            "ticks": 416640,
            "time": 217,
            "velocity": 0.7874015748031497
          },
          {
            "duration": 0.0625,
            "durationTicks": 120,
            "midi": 60,
            "name": "C4",
            "ticks": 416880,
            "time": 217.125,
            "velocity": 0.7874015748031497
          },
          {
            "duration": 0.0625,
            "durationTicks": 120,
            "midi": 60,
            "name": "C4",
            "ticks": 417360,
            "time": 217.375,
            "velocity": 0.7874015748031497
          },
          {
            "duration": 0.0625,
            "durationTicks": 120,
            "midi": 60,
            "name": "C4",
            "ticks": 417600,
            "time": 217.5,
            "velocity": 0.7874015748031497
          },
          {
            "duration": 0.0625,
            "durationTicks": 120,
            "midi": 60,
            "name": "C4",
            "ticks": 418080,
            "time": 217.75,
            "velocity": 0.6299212598425197
          },
          {
            "duration": 0.0625,
            "durationTicks": 120,
            "midi": 60,
            "name": "C4",
            "ticks": 418320,
            "time": 217.875,
            "velocity": 0.47244094488188976
          },
          {
            "duration": 0.0625,
            "durationTicks": 120,
            "midi": 60,
            "name": "C4",
            "ticks": 418560,
            "time": 218,
            "velocity": 0.7874015748031497
          },
          {
            "duration": 0.0625,
            "durationTicks": 120,
            "midi": 60,
            "name": "C4",
            "ticks": 419040,
            "time": 218.25,
            "velocity": 0.7874015748031497
          },
          {
            "duration": 0.0625,
            "durationTicks": 120,
            "midi": 60,
            "name": "C4",
            "ticks": 419760,
            "time": 218.625,
            "velocity": 0.6299212598425197
          },
          {
            "duration": 0.0625,
            "durationTicks": 120,
            "midi": 60,
            "name": "C4",
            "ticks": 420000,
            "time": 218.75,
            "velocity": 0.7874015748031497
          },
          {
            "duration": 0.0625,
            "durationTicks": 120,
            "midi": 60,
            "name": "C4",
            "ticks": 420240,
            "time": 218.875,
            "velocity": 0.5905511811023622
          },
          {
            "duration": 0.0625,
            "durationTicks": 120,
            "midi": 60,
            "name": "C4",
            "ticks": 420480,
            "time": 219,
            "velocity": 0.7874015748031497
          },
          {
            "duration": 0.0625,
            "durationTicks": 120,
            "midi": 60,
            "name": "C4",
            "ticks": 420720,
            "time": 219.125,
            "velocity": 0.7874015748031497
          },
          {
            "duration": 0.0625,
            "durationTicks": 120,
            "midi": 60,
            "name": "C4",
            "ticks": 421200,
            "time": 219.375,
            "velocity": 0.7874015748031497
          },
          {
            "duration": 0.0625,
            "durationTicks": 120,
            "midi": 60,
            "name": "C4",
            "ticks": 421440,
            "time": 219.5,
            "velocity": 0.7874015748031497
          },
          {
            "duration": 0.0625,
            "durationTicks": 120,
            "midi": 60,
            "name": "C4",
            "ticks": 421920,
            "time": 219.75,
            "velocity": 0.6299212598425197
          },
          {
            "duration": 0.0625,
            "durationTicks": 120,
            "midi": 60,
            "name": "C4",
            "ticks": 422160,
            "time": 219.875,
            "velocity": 0.47244094488188976
          },
          {
            "duration": 0.0625,
            "durationTicks": 120,
            "midi": 60,
            "name": "C4",
            "ticks": 422400,
            "time": 220,
            "velocity": 0.7874015748031497
          },
          {
            "duration": 0.0625,
            "durationTicks": 120,
            "midi": 60,
            "name": "C4",
            "ticks": 422880,
            "time": 220.25,
            "velocity": 0.7874015748031497
          },
          {
            "duration": 0.0625,
            "durationTicks": 120,
            "midi": 60,
            "name": "C4",
            "ticks": 423600,
            "time": 220.625,
            "velocity": 0.6299212598425197
          },
          {
            "duration": 0.0625,
            "durationTicks": 120,
            "midi": 60,
            "name": "C4",
            "ticks": 423840,
            "time": 220.75,
            "velocity": 0.7874015748031497
          },
          {
            "duration": 0.0625,
            "durationTicks": 120,
            "midi": 60,
            "name": "C4",
            "ticks": 424080,
            "time": 220.875,
            "velocity": 0.5905511811023622
          },
          {
            "duration": 0.0625,
            "durationTicks": 120,
            "midi": 60,
            "name": "C4",
            "ticks": 424320,
            "time": 221,
            "velocity": 0.7874015748031497
          },
          {
            "duration": 0.0625,
            "durationTicks": 120,
            "midi": 60,
            "name": "C4",
            "ticks": 424560,
            "time": 221.125,
            "velocity": 0.7874015748031497
          },
          {
            "duration": 0.0625,
            "durationTicks": 120,
            "midi": 60,
            "name": "C4",
            "ticks": 425040,
            "time": 221.375,
            "velocity": 0.7874015748031497
          },
          {
            "duration": 0.0625,
            "durationTicks": 120,
            "midi": 60,
            "name": "C4",
            "ticks": 425280,
            "time": 221.5,
            "velocity": 0.7874015748031497
          },
          {
            "duration": 0.0625,
            "durationTicks": 120,
            "midi": 60,
            "name": "C4",
            "ticks": 425760,
            "time": 221.75,
            "velocity": 0.6299212598425197
          },
          {
            "duration": 0.0625,
            "durationTicks": 120,
            "midi": 60,
            "name": "C4",
            "ticks": 426000,
            "time": 221.875,
            "velocity": 0.47244094488188976
          },
          {
            "duration": 0.0625,
            "durationTicks": 120,
            "midi": 60,
            "name": "C4",
            "ticks": 426240,
            "time": 222,
            "velocity": 0.7874015748031497
          },
          {
            "duration": 0.0625,
            "durationTicks": 120,
            "midi": 60,
            "name": "C4",
            "ticks": 426720,
            "time": 222.25,
            "velocity": 0.7874015748031497
          },
          {
            "duration": 0.0625,
            "durationTicks": 120,
            "midi": 60,
            "name": "C4",
            "ticks": 427440,
            "time": 222.625,
            "velocity": 0.6299212598425197
          },
          {
            "duration": 0.0625,
            "durationTicks": 120,
            "midi": 60,
            "name": "C4",
            "ticks": 427680,
            "time": 222.75,
            "velocity": 0.7874015748031497
          },
          {
            "duration": 0.0625,
            "durationTicks": 120,
            "midi": 60,
            "name": "C4",
            "ticks": 427920,
            "time": 222.875,
            "velocity": 0.5905511811023622
          },
          {
            "duration": 0.0625,
            "durationTicks": 120,
            "midi": 60,
            "name": "C4",
            "ticks": 428160,
            "time": 223,
            "velocity": 0.7874015748031497
          },
          {
            "duration": 0.0625,
            "durationTicks": 120,
            "midi": 60,
            "name": "C4",
            "ticks": 428400,
            "time": 223.125,
            "velocity": 0.7874015748031497
          },
          {
            "duration": 0.0625,
            "durationTicks": 120,
            "midi": 60,
            "name": "C4",
            "ticks": 428640,
            "time": 223.25,
            "velocity": 0.7874015748031497
          },
          {
            "duration": 0.0625,
            "durationTicks": 120,
            "midi": 60,
            "name": "C4",
            "ticks": 428880,
            "time": 223.375,
            "velocity": 0.7874015748031497
          },
          {
            "duration": 0.0625,
            "durationTicks": 120,
            "midi": 60,
            "name": "C4",
            "ticks": 429120,
            "time": 223.5,
            "velocity": 0.7874015748031497
          },
          {
            "duration": 0.0625,
            "durationTicks": 120,
            "midi": 60,
            "name": "C4",
            "ticks": 429600,
            "time": 223.75,
            "velocity": 0.5905511811023622
          },
          {
            "duration": 0.0625,
            "durationTicks": 120,
            "midi": 60,
            "name": "C4",
            "ticks": 429840,
            "time": 223.875,
            "velocity": 0.6299212598425197
          },
          {
            "duration": 0.0625,
            "durationTicks": 120,
            "midi": 60,
            "name": "C4",
            "ticks": 430080,
            "time": 224,
            "velocity": 0.7874015748031497
          },
          {
            "duration": 0.0625,
            "durationTicks": 120,
            "midi": 60,
            "name": "C4",
            "ticks": 430560,
            "time": 224.25,
            "velocity": 0.7874015748031497
          },
          {
            "duration": 0.0625,
            "durationTicks": 120,
            "midi": 60,
            "name": "C4",
            "ticks": 431280,
            "time": 224.625,
            "velocity": 0.6299212598425197
          },
          {
            "duration": 0.0625,
            "durationTicks": 120,
            "midi": 60,
            "name": "C4",
            "ticks": 431520,
            "time": 224.75,
            "velocity": 0.7874015748031497
          },
          {
            "duration": 0.0625,
            "durationTicks": 120,
            "midi": 60,
            "name": "C4",
            "ticks": 431760,
            "time": 224.875,
            "velocity": 0.5905511811023622
          },
          {
            "duration": 0.0625,
            "durationTicks": 120,
            "midi": 60,
            "name": "C4",
            "ticks": 432000,
            "time": 225,
            "velocity": 0.7874015748031497
          },
          {
            "duration": 0.0625,
            "durationTicks": 120,
            "midi": 60,
            "name": "C4",
            "ticks": 432240,
            "time": 225.125,
            "velocity": 0.7874015748031497
          },
          {
            "duration": 0.0625,
            "durationTicks": 120,
            "midi": 60,
            "name": "C4",
            "ticks": 432720,
            "time": 225.375,
            "velocity": 0.7874015748031497
          },
          {
            "duration": 0.0625,
            "durationTicks": 120,
            "midi": 60,
            "name": "C4",
            "ticks": 432960,
            "time": 225.5,
            "velocity": 0.7874015748031497
          },
          {
            "duration": 0.0625,
            "durationTicks": 120,
            "midi": 60,
            "name": "C4",
            "ticks": 433440,
            "time": 225.75,
            "velocity": 0.6299212598425197
          },
          {
            "duration": 0.0625,
            "durationTicks": 120,
            "midi": 60,
            "name": "C4",
            "ticks": 433680,
            "time": 225.875,
            "velocity": 0.47244094488188976
          },
          {
            "duration": 0.0625,
            "durationTicks": 120,
            "midi": 60,
            "name": "C4",
            "ticks": 433920,
            "time": 226,
            "velocity": 0.7874015748031497
          },
          {
            "duration": 0.0625,
            "durationTicks": 120,
            "midi": 60,
            "name": "C4",
            "ticks": 434400,
            "time": 226.25,
            "velocity": 0.7874015748031497
          },
          {
            "duration": 0.0625,
            "durationTicks": 120,
            "midi": 60,
            "name": "C4",
            "ticks": 435120,
            "time": 226.625,
            "velocity": 0.6299212598425197
          },
          {
            "duration": 0.0625,
            "durationTicks": 120,
            "midi": 60,
            "name": "C4",
            "ticks": 435360,
            "time": 226.75,
            "velocity": 0.7874015748031497
          },
          {
            "duration": 0.0625,
            "durationTicks": 120,
            "midi": 60,
            "name": "C4",
            "ticks": 435600,
            "time": 226.875,
            "velocity": 0.5905511811023622
          },
          {
            "duration": 0.0625,
            "durationTicks": 120,
            "midi": 60,
            "name": "C4",
            "ticks": 435840,
            "time": 227,
            "velocity": 0.7874015748031497
          },
          {
            "duration": 0.0625,
            "durationTicks": 120,
            "midi": 60,
            "name": "C4",
            "ticks": 436080,
            "time": 227.125,
            "velocity": 0.7874015748031497
          },
          {
            "duration": 0.0625,
            "durationTicks": 120,
            "midi": 60,
            "name": "C4",
            "ticks": 436560,
            "time": 227.375,
            "velocity": 0.7874015748031497
          },
          {
            "duration": 0.0625,
            "durationTicks": 120,
            "midi": 60,
            "name": "C4",
            "ticks": 436800,
            "time": 227.5,
            "velocity": 0.7874015748031497
          },
          {
            "duration": 0.0625,
            "durationTicks": 120,
            "midi": 60,
            "name": "C4",
            "ticks": 437280,
            "time": 227.75,
            "velocity": 0.6299212598425197
          },
          {
            "duration": 0.0625,
            "durationTicks": 120,
            "midi": 60,
            "name": "C4",
            "ticks": 437520,
            "time": 227.875,
            "velocity": 0.47244094488188976
          },
          {
            "duration": 0.0625,
            "durationTicks": 120,
            "midi": 60,
            "name": "C4",
            "ticks": 437760,
            "time": 228,
            "velocity": 0.7874015748031497
          },
          {
            "duration": 0.0625,
            "durationTicks": 120,
            "midi": 60,
            "name": "C4",
            "ticks": 438240,
            "time": 228.25,
            "velocity": 0.7874015748031497
          },
          {
            "duration": 0.0625,
            "durationTicks": 120,
            "midi": 60,
            "name": "C4",
            "ticks": 438960,
            "time": 228.625,
            "velocity": 0.6299212598425197
          },
          {
            "duration": 0.0625,
            "durationTicks": 120,
            "midi": 60,
            "name": "C4",
            "ticks": 439200,
            "time": 228.75,
            "velocity": 0.7874015748031497
          },
          {
            "duration": 0.0625,
            "durationTicks": 120,
            "midi": 60,
            "name": "C4",
            "ticks": 439440,
            "time": 228.875,
            "velocity": 0.5905511811023622
          },
          {
            "duration": 0.0625,
            "durationTicks": 120,
            "midi": 60,
            "name": "C4",
            "ticks": 439680,
            "time": 229,
            "velocity": 0.7874015748031497
          },
          {
            "duration": 0.0625,
            "durationTicks": 120,
            "midi": 60,
            "name": "C4",
            "ticks": 439920,
            "time": 229.125,
            "velocity": 0.7874015748031497
          },
          {
            "duration": 0.0625,
            "durationTicks": 120,
            "midi": 60,
            "name": "C4",
            "ticks": 440400,
            "time": 229.375,
            "velocity": 0.7874015748031497
          },
          {
            "duration": 0.0625,
            "durationTicks": 120,
            "midi": 60,
            "name": "C4",
            "ticks": 440640,
            "time": 229.5,
            "velocity": 0.7874015748031497
          },
          {
            "duration": 0.0625,
            "durationTicks": 120,
            "midi": 60,
            "name": "C4",
            "ticks": 441120,
            "time": 229.75,
            "velocity": 0.6299212598425197
          },
          {
            "duration": 0.0625,
            "durationTicks": 120,
            "midi": 60,
            "name": "C4",
            "ticks": 441360,
            "time": 229.875,
            "velocity": 0.47244094488188976
          },
          {
            "duration": 0.0625,
            "durationTicks": 120,
            "midi": 60,
            "name": "C4",
            "ticks": 441600,
            "time": 230,
            "velocity": 0.7874015748031497
          },
          {
            "duration": 0.0625,
            "durationTicks": 120,
            "midi": 60,
            "name": "C4",
            "ticks": 442080,
            "time": 230.25,
            "velocity": 0.7874015748031497
          },
          {
            "duration": 0.0625,
            "durationTicks": 120,
            "midi": 60,
            "name": "C4",
            "ticks": 442800,
            "time": 230.625,
            "velocity": 0.6299212598425197
          },
          {
            "duration": 0.0625,
            "durationTicks": 120,
            "midi": 60,
            "name": "C4",
            "ticks": 443040,
            "time": 230.75,
            "velocity": 0.7874015748031497
          },
          {
            "duration": 0.0625,
            "durationTicks": 120,
            "midi": 60,
            "name": "C4",
            "ticks": 443280,
            "time": 230.875,
            "velocity": 0.5905511811023622
          },
          {
            "duration": 0.0625,
            "durationTicks": 120,
            "midi": 60,
            "name": "C4",
            "ticks": 443520,
            "time": 231,
            "velocity": 0.7874015748031497
          },
          {
            "duration": 0.0625,
            "durationTicks": 120,
            "midi": 60,
            "name": "C4",
            "ticks": 443760,
            "time": 231.125,
            "velocity": 0.7874015748031497
          },
          {
            "duration": 0.0625,
            "durationTicks": 120,
            "midi": 60,
            "name": "C4",
            "ticks": 444000,
            "time": 231.25,
            "velocity": 0.7874015748031497
          },
          {
            "duration": 0.0625,
            "durationTicks": 120,
            "midi": 60,
            "name": "C4",
            "ticks": 444240,
            "time": 231.375,
            "velocity": 0.7874015748031497
          },
          {
            "duration": 0.0625,
            "durationTicks": 120,
            "midi": 72,
            "name": "C5",
            "ticks": 444480,
            "time": 231.5,
            "velocity": 0.7874015748031497
          },
          {
            "duration": 0.0625,
            "durationTicks": 120,
            "midi": 60,
            "name": "C4",
            "ticks": 444960,
            "time": 231.75,
            "velocity": 0.5905511811023622
          },
          {
            "duration": 0.0625,
            "durationTicks": 120,
            "midi": 60,
            "name": "C4",
            "ticks": 445200,
            "time": 231.875,
            "velocity": 0.6299212598425197
          },
          {
            "duration": 0.0625,
            "durationTicks": 120,
            "midi": 60,
            "name": "C4",
            "ticks": 445440,
            "time": 232,
            "velocity": 0.7874015748031497
          },
          {
            "duration": 0.0625,
            "durationTicks": 120,
            "midi": 60,
            "name": "C4",
            "ticks": 445920,
            "time": 232.25,
            "velocity": 0.7874015748031497
          },
          {
            "duration": 0.0625,
            "durationTicks": 120,
            "midi": 60,
            "name": "C4",
            "ticks": 446640,
            "time": 232.625,
            "velocity": 0.6299212598425197
          },
          {
            "duration": 0.0625,
            "durationTicks": 120,
            "midi": 60,
            "name": "C4",
            "ticks": 446880,
            "time": 232.75,
            "velocity": 0.7874015748031497
          },
          {
            "duration": 0.0625,
            "durationTicks": 120,
            "midi": 60,
            "name": "C4",
            "ticks": 447120,
            "time": 232.875,
            "velocity": 0.5905511811023622
          },
          {
            "duration": 0.0625,
            "durationTicks": 120,
            "midi": 60,
            "name": "C4",
            "ticks": 447360,
            "time": 233,
            "velocity": 0.7874015748031497
          },
          {
            "duration": 0.0625,
            "durationTicks": 120,
            "midi": 60,
            "name": "C4",
            "ticks": 447600,
            "time": 233.125,
            "velocity": 0.7874015748031497
          },
          {
            "duration": 0.0625,
            "durationTicks": 120,
            "midi": 60,
            "name": "C4",
            "ticks": 448080,
            "time": 233.375,
            "velocity": 0.7874015748031497
          },
          {
            "duration": 0.0625,
            "durationTicks": 120,
            "midi": 60,
            "name": "C4",
            "ticks": 448320,
            "time": 233.5,
            "velocity": 0.7874015748031497
          },
          {
            "duration": 0.0625,
            "durationTicks": 120,
            "midi": 60,
            "name": "C4",
            "ticks": 448800,
            "time": 233.75,
            "velocity": 0.6299212598425197
          },
          {
            "duration": 0.0625,
            "durationTicks": 120,
            "midi": 60,
            "name": "C4",
            "ticks": 449040,
            "time": 233.875,
            "velocity": 0.47244094488188976
          },
          {
            "duration": 0.0625,
            "durationTicks": 120,
            "midi": 60,
            "name": "C4",
            "ticks": 449280,
            "time": 234,
            "velocity": 0.7874015748031497
          },
          {
            "duration": 0.0625,
            "durationTicks": 120,
            "midi": 60,
            "name": "C4",
            "ticks": 449760,
            "time": 234.25,
            "velocity": 0.7874015748031497
          },
          {
            "duration": 0.0625,
            "durationTicks": 120,
            "midi": 60,
            "name": "C4",
            "ticks": 450480,
            "time": 234.625,
            "velocity": 0.6299212598425197
          },
          {
            "duration": 0.0625,
            "durationTicks": 120,
            "midi": 60,
            "name": "C4",
            "ticks": 450720,
            "time": 234.75,
            "velocity": 0.7874015748031497
          },
          {
            "duration": 0.0625,
            "durationTicks": 120,
            "midi": 60,
            "name": "C4",
            "ticks": 450960,
            "time": 234.875,
            "velocity": 0.5905511811023622
          },
          {
            "duration": 0.0625,
            "durationTicks": 120,
            "midi": 60,
            "name": "C4",
            "ticks": 451200,
            "time": 235,
            "velocity": 0.7874015748031497
          },
          {
            "duration": 0.0625,
            "durationTicks": 120,
            "midi": 60,
            "name": "C4",
            "ticks": 451440,
            "time": 235.125,
            "velocity": 0.7874015748031497
          },
          {
            "duration": 0.0625,
            "durationTicks": 120,
            "midi": 60,
            "name": "C4",
            "ticks": 451920,
            "time": 235.375,
            "velocity": 0.7874015748031497
          },
          {
            "duration": 0.0625,
            "durationTicks": 120,
            "midi": 60,
            "name": "C4",
            "ticks": 452160,
            "time": 235.5,
            "velocity": 0.7874015748031497
          },
          {
            "duration": 0.0625,
            "durationTicks": 120,
            "midi": 60,
            "name": "C4",
            "ticks": 452640,
            "time": 235.75,
            "velocity": 0.6299212598425197
          },
          {
            "duration": 0.0625,
            "durationTicks": 120,
            "midi": 60,
            "name": "C4",
            "ticks": 452880,
            "time": 235.875,
            "velocity": 0.47244094488188976
          },
          {
            "duration": 0.0625,
            "durationTicks": 120,
            "midi": 60,
            "name": "C4",
            "ticks": 453120,
            "time": 236,
            "velocity": 0.7874015748031497
          },
          {
            "duration": 0.0625,
            "durationTicks": 120,
            "midi": 60,
            "name": "C4",
            "ticks": 453600,
            "time": 236.25,
            "velocity": 0.7874015748031497
          },
          {
            "duration": 0.0625,
            "durationTicks": 120,
            "midi": 60,
            "name": "C4",
            "ticks": 454320,
            "time": 236.625,
            "velocity": 0.6299212598425197
          },
          {
            "duration": 0.0625,
            "durationTicks": 120,
            "midi": 60,
            "name": "C4",
            "ticks": 454560,
            "time": 236.75,
            "velocity": 0.7874015748031497
          },
          {
            "duration": 0.0625,
            "durationTicks": 120,
            "midi": 60,
            "name": "C4",
            "ticks": 454800,
            "time": 236.875,
            "velocity": 0.5905511811023622
          },
          {
            "duration": 0.0625,
            "durationTicks": 120,
            "midi": 60,
            "name": "C4",
            "ticks": 455040,
            "time": 237,
            "velocity": 0.7874015748031497
          },
          {
            "duration": 0.0625,
            "durationTicks": 120,
            "midi": 60,
            "name": "C4",
            "ticks": 455280,
            "time": 237.125,
            "velocity": 0.7874015748031497
          },
          {
            "duration": 0.0625,
            "durationTicks": 120,
            "midi": 60,
            "name": "C4",
            "ticks": 455760,
            "time": 237.375,
            "velocity": 0.7874015748031497
          },
          {
            "duration": 0.0625,
            "durationTicks": 120,
            "midi": 60,
            "name": "C4",
            "ticks": 456000,
            "time": 237.5,
            "velocity": 0.7874015748031497
          },
          {
            "duration": 0.0625,
            "durationTicks": 120,
            "midi": 60,
            "name": "C4",
            "ticks": 456480,
            "time": 237.75,
            "velocity": 0.6299212598425197
          },
          {
            "duration": 0.0625,
            "durationTicks": 120,
            "midi": 60,
            "name": "C4",
            "ticks": 456720,
            "time": 237.875,
            "velocity": 0.47244094488188976
          },
          {
            "duration": 0.0625,
            "durationTicks": 120,
            "midi": 60,
            "name": "C4",
            "ticks": 456960,
            "time": 238,
            "velocity": 0.7874015748031497
          },
          {
            "duration": 0.0625,
            "durationTicks": 120,
            "midi": 60,
            "name": "C4",
            "ticks": 457440,
            "time": 238.25,
            "velocity": 0.7874015748031497
          },
          {
            "duration": 0.0625,
            "durationTicks": 120,
            "midi": 60,
            "name": "C4",
            "ticks": 458160,
            "time": 238.625,
            "velocity": 0.6299212598425197
          },
          {
            "duration": 0.0625,
            "durationTicks": 120,
            "midi": 60,
            "name": "C4",
            "ticks": 458400,
            "time": 238.75,
            "velocity": 0.7874015748031497
          },
          {
            "duration": 0.0625,
            "durationTicks": 120,
            "midi": 60,
            "name": "C4",
            "ticks": 458640,
            "time": 238.875,
            "velocity": 0.5905511811023622
          },
          {
            "duration": 0.0625,
            "durationTicks": 120,
            "midi": 60,
            "name": "C4",
            "ticks": 458880,
            "time": 239,
            "velocity": 0.7874015748031497
          },
          {
            "duration": 0.0625,
            "durationTicks": 120,
            "midi": 60,
            "name": "C4",
            "ticks": 459120,
            "time": 239.125,
            "velocity": 0.7874015748031497
          },
          {
            "duration": 0.0625,
            "durationTicks": 120,
            "midi": 60,
            "name": "C4",
            "ticks": 459360,
            "time": 239.25,
            "velocity": 0.7874015748031497
          },
          {
            "duration": 0.0625,
            "durationTicks": 120,
            "midi": 60,
            "name": "C4",
            "ticks": 459600,
            "time": 239.375,
            "velocity": 0.7874015748031497
          },
          {
            "duration": 0.0625,
            "durationTicks": 120,
            "midi": 60,
            "name": "C4",
            "ticks": 459840,
            "time": 239.5,
            "velocity": 0.7874015748031497
          },
          {
            "duration": 0.0625,
            "durationTicks": 120,
            "midi": 60,
            "name": "C4",
            "ticks": 460320,
            "time": 239.75,
            "velocity": 0.5905511811023622
          },
          {
            "duration": 0.0625,
            "durationTicks": 120,
            "midi": 60,
            "name": "C4",
            "ticks": 460560,
            "time": 239.875,
            "velocity": 0.6299212598425197
          },
          {
            "duration": 0.0625,
            "durationTicks": 120,
            "midi": 60,
            "name": "C4",
            "ticks": 460800,
            "time": 240,
            "velocity": 0.7874015748031497
          },
          {
            "duration": 0.0625,
            "durationTicks": 120,
            "midi": 60,
            "name": "C4",
            "ticks": 461280,
            "time": 240.25,
            "velocity": 0.7874015748031497
          },
          {
            "duration": 0.0625,
            "durationTicks": 120,
            "midi": 60,
            "name": "C4",
            "ticks": 462000,
            "time": 240.625,
            "velocity": 0.6299212598425197
          },
          {
            "duration": 0.0625,
            "durationTicks": 120,
            "midi": 60,
            "name": "C4",
            "ticks": 462240,
            "time": 240.75,
            "velocity": 0.7874015748031497
          },
          {
            "duration": 0.0625,
            "durationTicks": 120,
            "midi": 60,
            "name": "C4",
            "ticks": 462480,
            "time": 240.875,
            "velocity": 0.5905511811023622
          },
          {
            "duration": 0.0625,
            "durationTicks": 120,
            "midi": 60,
            "name": "C4",
            "ticks": 462720,
            "time": 241,
            "velocity": 0.7874015748031497
          },
          {
            "duration": 0.0625,
            "durationTicks": 120,
            "midi": 60,
            "name": "C4",
            "ticks": 462960,
            "time": 241.125,
            "velocity": 0.7874015748031497
          },
          {
            "duration": 0.0625,
            "durationTicks": 120,
            "midi": 60,
            "name": "C4",
            "ticks": 463440,
            "time": 241.375,
            "velocity": 0.7874015748031497
          },
          {
            "duration": 0.0625,
            "durationTicks": 120,
            "midi": 60,
            "name": "C4",
            "ticks": 463680,
            "time": 241.5,
            "velocity": 0.7874015748031497
          },
          {
            "duration": 0.0625,
            "durationTicks": 120,
            "midi": 60,
            "name": "C4",
            "ticks": 464160,
            "time": 241.75,
            "velocity": 0.6299212598425197
          },
          {
            "duration": 0.0625,
            "durationTicks": 120,
            "midi": 60,
            "name": "C4",
            "ticks": 464400,
            "time": 241.875,
            "velocity": 0.47244094488188976
          },
          {
            "duration": 0.0625,
            "durationTicks": 120,
            "midi": 60,
            "name": "C4",
            "ticks": 464640,
            "time": 242,
            "velocity": 0.7874015748031497
          },
          {
            "duration": 0.0625,
            "durationTicks": 120,
            "midi": 60,
            "name": "C4",
            "ticks": 465120,
            "time": 242.25,
            "velocity": 0.7874015748031497
          },
          {
            "duration": 0.0625,
            "durationTicks": 120,
            "midi": 60,
            "name": "C4",
            "ticks": 465840,
            "time": 242.625,
            "velocity": 0.6299212598425197
          },
          {
            "duration": 0.0625,
            "durationTicks": 120,
            "midi": 60,
            "name": "C4",
            "ticks": 466080,
            "time": 242.75,
            "velocity": 0.7874015748031497
          },
          {
            "duration": 0.0625,
            "durationTicks": 120,
            "midi": 60,
            "name": "C4",
            "ticks": 466320,
            "time": 242.875,
            "velocity": 0.5905511811023622
          },
          {
            "duration": 0.0625,
            "durationTicks": 120,
            "midi": 60,
            "name": "C4",
            "ticks": 466560,
            "time": 243,
            "velocity": 0.7874015748031497
          },
          {
            "duration": 0.0625,
            "durationTicks": 120,
            "midi": 60,
            "name": "C4",
            "ticks": 466800,
            "time": 243.125,
            "velocity": 0.7874015748031497
          },
          {
            "duration": 0.0625,
            "durationTicks": 120,
            "midi": 60,
            "name": "C4",
            "ticks": 467280,
            "time": 243.375,
            "velocity": 0.7874015748031497
          },
          {
            "duration": 0.0625,
            "durationTicks": 120,
            "midi": 60,
            "name": "C4",
            "ticks": 467520,
            "time": 243.5,
            "velocity": 0.7874015748031497
          },
          {
            "duration": 0.0625,
            "durationTicks": 120,
            "midi": 60,
            "name": "C4",
            "ticks": 468000,
            "time": 243.75,
            "velocity": 0.6299212598425197
          },
          {
            "duration": 0.0625,
            "durationTicks": 120,
            "midi": 60,
            "name": "C4",
            "ticks": 468240,
            "time": 243.875,
            "velocity": 0.47244094488188976
          },
          {
            "duration": 0.0625,
            "durationTicks": 120,
            "midi": 60,
            "name": "C4",
            "ticks": 468480,
            "time": 244,
            "velocity": 0.7874015748031497
          },
          {
            "duration": 0.0625,
            "durationTicks": 120,
            "midi": 60,
            "name": "C4",
            "ticks": 468960,
            "time": 244.25,
            "velocity": 0.7874015748031497
          },
          {
            "duration": 0.0625,
            "durationTicks": 120,
            "midi": 60,
            "name": "C4",
            "ticks": 469680,
            "time": 244.625,
            "velocity": 0.6299212598425197
          },
          {
            "duration": 0.0625,
            "durationTicks": 120,
            "midi": 60,
            "name": "C4",
            "ticks": 469920,
            "time": 244.75,
            "velocity": 0.7874015748031497
          },
          {
            "duration": 0.0625,
            "durationTicks": 120,
            "midi": 60,
            "name": "C4",
            "ticks": 470160,
            "time": 244.875,
            "velocity": 0.5905511811023622
          },
          {
            "duration": 0.0625,
            "durationTicks": 120,
            "midi": 60,
            "name": "C4",
            "ticks": 470400,
            "time": 245,
            "velocity": 0.7874015748031497
          },
          {
            "duration": 0.0625,
            "durationTicks": 120,
            "midi": 60,
            "name": "C4",
            "ticks": 470640,
            "time": 245.125,
            "velocity": 0.7874015748031497
          },
          {
            "duration": 0.0625,
            "durationTicks": 120,
            "midi": 60,
            "name": "C4",
            "ticks": 471120,
            "time": 245.375,
            "velocity": 0.7874015748031497
          },
          {
            "duration": 0.0625,
            "durationTicks": 120,
            "midi": 60,
            "name": "C4",
            "ticks": 471360,
            "time": 245.5,
            "velocity": 0.7874015748031497
          },
          {
            "duration": 0.0625,
            "durationTicks": 120,
            "midi": 60,
            "name": "C4",
            "ticks": 471840,
            "time": 245.75,
            "velocity": 0.6299212598425197
          },
          {
            "duration": 0.0625,
            "durationTicks": 120,
            "midi": 60,
            "name": "C4",
            "ticks": 472080,
            "time": 245.875,
            "velocity": 0.47244094488188976
          },
          {
            "duration": 0.0625,
            "durationTicks": 120,
            "midi": 60,
            "name": "C4",
            "ticks": 472320,
            "time": 246,
            "velocity": 0.7874015748031497
          },
          {
            "duration": 0.0625,
            "durationTicks": 120,
            "midi": 60,
            "name": "C4",
            "ticks": 472800,
            "time": 246.25,
            "velocity": 0.7874015748031497
          },
          {
            "duration": 0.0625,
            "durationTicks": 120,
            "midi": 60,
            "name": "C4",
            "ticks": 473520,
            "time": 246.625,
            "velocity": 0.6299212598425197
          },
          {
            "duration": 0.0625,
            "durationTicks": 120,
            "midi": 60,
            "name": "C4",
            "ticks": 473760,
            "time": 246.75,
            "velocity": 0.7874015748031497
          },
          {
            "duration": 0.0625,
            "durationTicks": 120,
            "midi": 60,
            "name": "C4",
            "ticks": 474000,
            "time": 246.875,
            "velocity": 0.5905511811023622
          },
          {
            "duration": 0.0625,
            "durationTicks": 120,
            "midi": 60,
            "name": "C4",
            "ticks": 474240,
            "time": 247,
            "velocity": 0.7874015748031497
          },
          {
            "duration": 0.0625,
            "durationTicks": 120,
            "midi": 60,
            "name": "C4",
            "ticks": 474480,
            "time": 247.125,
            "velocity": 0.7874015748031497
          },
          {
            "duration": 0.0625,
            "durationTicks": 120,
            "midi": 60,
            "name": "C4",
            "ticks": 474720,
            "time": 247.25,
            "velocity": 0.7874015748031497
          },
          {
            "duration": 0.0625,
            "durationTicks": 120,
            "midi": 60,
            "name": "C4",
            "ticks": 474960,
            "time": 247.375,
            "velocity": 0.7874015748031497
          },
          {
            "duration": 0.0625,
            "durationTicks": 120,
            "midi": 72,
            "name": "C5",
            "ticks": 475200,
            "time": 247.5,
            "velocity": 0.7874015748031497
          },
          {
            "duration": 0.0625,
            "durationTicks": 120,
            "midi": 60,
            "name": "C4",
            "ticks": 475680,
            "time": 247.75,
            "velocity": 0.5905511811023622
          },
          {
            "duration": 0.0625,
            "durationTicks": 120,
            "midi": 60,
            "name": "C4",
            "ticks": 475920,
            "time": 247.875,
            "velocity": 0.6299212598425197
          },
          {
            "duration": 0.0625,
            "durationTicks": 120,
            "midi": 60,
            "name": "C4",
            "ticks": 476160,
            "time": 248,
            "velocity": 0.7874015748031497
          },
          {
            "duration": 0.0625,
            "durationTicks": 120,
            "midi": 60,
            "name": "C4",
            "ticks": 476640,
            "time": 248.25,
            "velocity": 0.7874015748031497
          },
          {
            "duration": 0.0625,
            "durationTicks": 120,
            "midi": 60,
            "name": "C4",
            "ticks": 477360,
            "time": 248.625,
            "velocity": 0.6299212598425197
          },
          {
            "duration": 0.0625,
            "durationTicks": 120,
            "midi": 60,
            "name": "C4",
            "ticks": 477600,
            "time": 248.75,
            "velocity": 0.7874015748031497
          },
          {
            "duration": 0.0625,
            "durationTicks": 120,
            "midi": 60,
            "name": "C4",
            "ticks": 477840,
            "time": 248.875,
            "velocity": 0.5905511811023622
          },
          {
            "duration": 0.0625,
            "durationTicks": 120,
            "midi": 60,
            "name": "C4",
            "ticks": 478080,
            "time": 249,
            "velocity": 0.7874015748031497
          },
          {
            "duration": 0.0625,
            "durationTicks": 120,
            "midi": 60,
            "name": "C4",
            "ticks": 478320,
            "time": 249.125,
            "velocity": 0.7874015748031497
          },
          {
            "duration": 0.0625,
            "durationTicks": 120,
            "midi": 60,
            "name": "C4",
            "ticks": 478800,
            "time": 249.375,
            "velocity": 0.7874015748031497
          },
          {
            "duration": 0.0625,
            "durationTicks": 120,
            "midi": 60,
            "name": "C4",
            "ticks": 479040,
            "time": 249.5,
            "velocity": 0.7874015748031497
          },
          {
            "duration": 0.0625,
            "durationTicks": 120,
            "midi": 60,
            "name": "C4",
            "ticks": 479520,
            "time": 249.75,
            "velocity": 0.6299212598425197
          },
          {
            "duration": 0.0625,
            "durationTicks": 120,
            "midi": 60,
            "name": "C4",
            "ticks": 479760,
            "time": 249.875,
            "velocity": 0.47244094488188976
          },
          {
            "duration": 0.0625,
            "durationTicks": 120,
            "midi": 60,
            "name": "C4",
            "ticks": 480000,
            "time": 250,
            "velocity": 0.7874015748031497
          },
          {
            "duration": 0.0625,
            "durationTicks": 120,
            "midi": 60,
            "name": "C4",
            "ticks": 480480,
            "time": 250.25,
            "velocity": 0.7874015748031497
          },
          {
            "duration": 0.0625,
            "durationTicks": 120,
            "midi": 60,
            "name": "C4",
            "ticks": 481200,
            "time": 250.625,
            "velocity": 0.6299212598425197
          },
          {
            "duration": 0.0625,
            "durationTicks": 120,
            "midi": 60,
            "name": "C4",
            "ticks": 481440,
            "time": 250.75,
            "velocity": 0.7874015748031497
          },
          {
            "duration": 0.0625,
            "durationTicks": 120,
            "midi": 60,
            "name": "C4",
            "ticks": 481680,
            "time": 250.875,
            "velocity": 0.5905511811023622
          },
          {
            "duration": 0.0625,
            "durationTicks": 120,
            "midi": 60,
            "name": "C4",
            "ticks": 481920,
            "time": 251,
            "velocity": 0.7874015748031497
          },
          {
            "duration": 0.0625,
            "durationTicks": 120,
            "midi": 60,
            "name": "C4",
            "ticks": 482160,
            "time": 251.125,
            "velocity": 0.7874015748031497
          },
          {
            "duration": 0.0625,
            "durationTicks": 120,
            "midi": 60,
            "name": "C4",
            "ticks": 482640,
            "time": 251.375,
            "velocity": 0.7874015748031497
          },
          {
            "duration": 0.0625,
            "durationTicks": 120,
            "midi": 60,
            "name": "C4",
            "ticks": 482880,
            "time": 251.5,
            "velocity": 0.7874015748031497
          },
          {
            "duration": 0.0625,
            "durationTicks": 120,
            "midi": 60,
            "name": "C4",
            "ticks": 483360,
            "time": 251.75,
            "velocity": 0.6299212598425197
          },
          {
            "duration": 0.0625,
            "durationTicks": 120,
            "midi": 60,
            "name": "C4",
            "ticks": 483600,
            "time": 251.875,
            "velocity": 0.47244094488188976
          },
          {
            "duration": 0.0625,
            "durationTicks": 120,
            "midi": 60,
            "name": "C4",
            "ticks": 483840,
            "time": 252,
            "velocity": 0.7874015748031497
          },
          {
            "duration": 0.0625,
            "durationTicks": 120,
            "midi": 60,
            "name": "C4",
            "ticks": 484320,
            "time": 252.25,
            "velocity": 0.7874015748031497
          },
          {
            "duration": 0.0625,
            "durationTicks": 120,
            "midi": 60,
            "name": "C4",
            "ticks": 485040,
            "time": 252.625,
            "velocity": 0.6299212598425197
          },
          {
            "duration": 0.0625,
            "durationTicks": 120,
            "midi": 60,
            "name": "C4",
            "ticks": 485280,
            "time": 252.75,
            "velocity": 0.7874015748031497
          },
          {
            "duration": 0.0625,
            "durationTicks": 120,
            "midi": 60,
            "name": "C4",
            "ticks": 485520,
            "time": 252.875,
            "velocity": 0.5905511811023622
          },
          {
            "duration": 0.0625,
            "durationTicks": 120,
            "midi": 60,
            "name": "C4",
            "ticks": 485760,
            "time": 253,
            "velocity": 0.7874015748031497
          },
          {
            "duration": 0.0625,
            "durationTicks": 120,
            "midi": 60,
            "name": "C4",
            "ticks": 486000,
            "time": 253.125,
            "velocity": 0.7874015748031497
          },
          {
            "duration": 0.0625,
            "durationTicks": 120,
            "midi": 60,
            "name": "C4",
            "ticks": 486480,
            "time": 253.375,
            "velocity": 0.7874015748031497
          },
          {
            "duration": 0.0625,
            "durationTicks": 120,
            "midi": 60,
            "name": "C4",
            "ticks": 486720,
            "time": 253.5,
            "velocity": 0.7874015748031497
          },
          {
            "duration": 0.0625,
            "durationTicks": 120,
            "midi": 60,
            "name": "C4",
            "ticks": 487200,
            "time": 253.75,
            "velocity": 0.6299212598425197
          },
          {
            "duration": 0.0625,
            "durationTicks": 120,
            "midi": 60,
            "name": "C4",
            "ticks": 487440,
            "time": 253.875,
            "velocity": 0.47244094488188976
          },
          {
            "duration": 0.0625,
            "durationTicks": 120,
            "midi": 60,
            "name": "C4",
            "ticks": 487680,
            "time": 254,
            "velocity": 0.7874015748031497
          },
          {
            "duration": 0.0625,
            "durationTicks": 120,
            "midi": 60,
            "name": "C4",
            "ticks": 488160,
            "time": 254.25,
            "velocity": 0.7874015748031497
          },
          {
            "duration": 0.0625,
            "durationTicks": 120,
            "midi": 60,
            "name": "C4",
            "ticks": 488880,
            "time": 254.625,
            "velocity": 0.6299212598425197
          },
          {
            "duration": 0.0625,
            "durationTicks": 120,
            "midi": 60,
            "name": "C4",
            "ticks": 489120,
            "time": 254.75,
            "velocity": 0.7874015748031497
          },
          {
            "duration": 0.0625,
            "durationTicks": 120,
            "midi": 60,
            "name": "C4",
            "ticks": 489360,
            "time": 254.875,
            "velocity": 0.5905511811023622
          },
          {
            "duration": 0.0625,
            "durationTicks": 120,
            "midi": 60,
            "name": "C4",
            "ticks": 489600,
            "time": 255,
            "velocity": 0.7874015748031497
          },
          {
            "duration": 0.0625,
            "durationTicks": 120,
            "midi": 60,
            "name": "C4",
            "ticks": 489840,
            "time": 255.125,
            "velocity": 0.7874015748031497
          },
          {
            "duration": 0.0625,
            "durationTicks": 120,
            "midi": 60,
            "name": "C4",
            "ticks": 490080,
            "time": 255.25,
            "velocity": 0.7874015748031497
          },
          {
            "duration": 0.0625,
            "durationTicks": 120,
            "midi": 60,
            "name": "C4",
            "ticks": 490320,
            "time": 255.375,
            "velocity": 0.7874015748031497
          },
          {
            "duration": 0.0625,
            "durationTicks": 120,
            "midi": 72,
            "name": "C5",
            "ticks": 490560,
            "time": 255.5,
            "velocity": 0.7874015748031497
          },
          {
            "duration": 0.0625,
            "durationTicks": 120,
            "midi": 60,
            "name": "C4",
            "ticks": 491040,
            "time": 255.75,
            "velocity": 0.5905511811023622
          },
          {
            "duration": 0.0625,
            "durationTicks": 120,
            "midi": 60,
            "name": "C4",
            "ticks": 491280,
            "time": 255.875,
            "velocity": 0.6299212598425197
          },
          {
            "duration": 0.0625,
            "durationTicks": 120,
            "midi": 60,
            "name": "C4",
            "ticks": 491520,
            "time": 256,
            "velocity": 0.7874015748031497
          },
          {
            "duration": 0.0625,
            "durationTicks": 120,
            "midi": 60,
            "name": "C4",
            "ticks": 492000,
            "time": 256.25,
            "velocity": 0.7874015748031497
          },
          {
            "duration": 0.0625,
            "durationTicks": 120,
            "midi": 60,
            "name": "C4",
            "ticks": 492720,
            "time": 256.625,
            "velocity": 0.6299212598425197
          },
          {
            "duration": 0.0625,
            "durationTicks": 120,
            "midi": 60,
            "name": "C4",
            "ticks": 492960,
            "time": 256.75,
            "velocity": 0.7874015748031497
          },
          {
            "duration": 0.0625,
            "durationTicks": 120,
            "midi": 60,
            "name": "C4",
            "ticks": 493200,
            "time": 256.875,
            "velocity": 0.5905511811023622
          },
          {
            "duration": 0.0625,
            "durationTicks": 120,
            "midi": 60,
            "name": "C4",
            "ticks": 493440,
            "time": 257,
            "velocity": 0.7874015748031497
          },
          {
            "duration": 0.0625,
            "durationTicks": 120,
            "midi": 60,
            "name": "C4",
            "ticks": 493680,
            "time": 257.125,
            "velocity": 0.7874015748031497
          },
          {
            "duration": 0.0625,
            "durationTicks": 120,
            "midi": 60,
            "name": "C4",
            "ticks": 494160,
            "time": 257.375,
            "velocity": 0.7874015748031497
          },
          {
            "duration": 0.0625,
            "durationTicks": 120,
            "midi": 60,
            "name": "C4",
            "ticks": 494400,
            "time": 257.5,
            "velocity": 0.7874015748031497
          },
          {
            "duration": 0.0625,
            "durationTicks": 120,
            "midi": 60,
            "name": "C4",
            "ticks": 494880,
            "time": 257.75,
            "velocity": 0.6299212598425197
          },
          {
            "duration": 0.0625,
            "durationTicks": 120,
            "midi": 60,
            "name": "C4",
            "ticks": 495120,
            "time": 257.875,
            "velocity": 0.47244094488188976
          },
          {
            "duration": 0.0625,
            "durationTicks": 120,
            "midi": 60,
            "name": "C4",
            "ticks": 495360,
            "time": 258,
            "velocity": 0.7874015748031497
          },
          {
            "duration": 0.0625,
            "durationTicks": 120,
            "midi": 60,
            "name": "C4",
            "ticks": 495840,
            "time": 258.25,
            "velocity": 0.7874015748031497
          },
          {
            "duration": 0.0625,
            "durationTicks": 120,
            "midi": 60,
            "name": "C4",
            "ticks": 496560,
            "time": 258.625,
            "velocity": 0.6299212598425197
          },
          {
            "duration": 0.0625,
            "durationTicks": 120,
            "midi": 60,
            "name": "C4",
            "ticks": 496800,
            "time": 258.75,
            "velocity": 0.7874015748031497
          },
          {
            "duration": 0.0625,
            "durationTicks": 120,
            "midi": 60,
            "name": "C4",
            "ticks": 497040,
            "time": 258.875,
            "velocity": 0.5905511811023622
          },
          {
            "duration": 0.0625,
            "durationTicks": 120,
            "midi": 60,
            "name": "C4",
            "ticks": 497280,
            "time": 259,
            "velocity": 0.7874015748031497
          },
          {
            "duration": 0.0625,
            "durationTicks": 120,
            "midi": 60,
            "name": "C4",
            "ticks": 497520,
            "time": 259.125,
            "velocity": 0.7874015748031497
          },
          {
            "duration": 0.0625,
            "durationTicks": 120,
            "midi": 60,
            "name": "C4",
            "ticks": 498000,
            "time": 259.375,
            "velocity": 0.7874015748031497
          },
          {
            "duration": 0.0625,
            "durationTicks": 120,
            "midi": 60,
            "name": "C4",
            "ticks": 498240,
            "time": 259.5,
            "velocity": 0.7874015748031497
          },
          {
            "duration": 0.0625,
            "durationTicks": 120,
            "midi": 60,
            "name": "C4",
            "ticks": 498720,
            "time": 259.75,
            "velocity": 0.6299212598425197
          },
          {
            "duration": 0.0625,
            "durationTicks": 120,
            "midi": 60,
            "name": "C4",
            "ticks": 498960,
            "time": 259.875,
            "velocity": 0.47244094488188976
          },
          {
            "duration": 0.0625,
            "durationTicks": 120,
            "midi": 60,
            "name": "C4",
            "ticks": 499200,
            "time": 260,
            "velocity": 0.7874015748031497
          },
          {
            "duration": 0.0625,
            "durationTicks": 120,
            "midi": 60,
            "name": "C4",
            "ticks": 499680,
            "time": 260.25,
            "velocity": 0.7874015748031497
          },
          {
            "duration": 0.0625,
            "durationTicks": 120,
            "midi": 60,
            "name": "C4",
            "ticks": 500400,
            "time": 260.625,
            "velocity": 0.6299212598425197
          },
          {
            "duration": 0.0625,
            "durationTicks": 120,
            "midi": 60,
            "name": "C4",
            "ticks": 500640,
            "time": 260.75,
            "velocity": 0.7874015748031497
          },
          {
            "duration": 0.0625,
            "durationTicks": 120,
            "midi": 60,
            "name": "C4",
            "ticks": 500880,
            "time": 260.875,
            "velocity": 0.5905511811023622
          },
          {
            "duration": 0.0625,
            "durationTicks": 120,
            "midi": 60,
            "name": "C4",
            "ticks": 501120,
            "time": 261,
            "velocity": 0.7874015748031497
          },
          {
            "duration": 0.0625,
            "durationTicks": 120,
            "midi": 60,
            "name": "C4",
            "ticks": 501360,
            "time": 261.125,
            "velocity": 0.7874015748031497
          },
          {
            "duration": 0.0625,
            "durationTicks": 120,
            "midi": 60,
            "name": "C4",
            "ticks": 501840,
            "time": 261.375,
            "velocity": 0.7874015748031497
          },
          {
            "duration": 0.0625,
            "durationTicks": 120,
            "midi": 60,
            "name": "C4",
            "ticks": 502080,
            "time": 261.5,
            "velocity": 0.7874015748031497
          },
          {
            "duration": 0.0625,
            "durationTicks": 120,
            "midi": 60,
            "name": "C4",
            "ticks": 502560,
            "time": 261.75,
            "velocity": 0.6299212598425197
          },
          {
            "duration": 0.0625,
            "durationTicks": 120,
            "midi": 60,
            "name": "C4",
            "ticks": 502800,
            "time": 261.875,
            "velocity": 0.47244094488188976
          },
          {
            "duration": 0.0625,
            "durationTicks": 120,
            "midi": 60,
            "name": "C4",
            "ticks": 503040,
            "time": 262,
            "velocity": 0.7874015748031497
          },
          {
            "duration": 0.0625,
            "durationTicks": 120,
            "midi": 60,
            "name": "C4",
            "ticks": 503520,
            "time": 262.25,
            "velocity": 0.7874015748031497
          },
          {
            "duration": 0.0625,
            "durationTicks": 120,
            "midi": 60,
            "name": "C4",
            "ticks": 504240,
            "time": 262.625,
            "velocity": 0.6299212598425197
          },
          {
            "duration": 0.0625,
            "durationTicks": 120,
            "midi": 60,
            "name": "C4",
            "ticks": 504480,
            "time": 262.75,
            "velocity": 0.7874015748031497
          },
          {
            "duration": 0.0625,
            "durationTicks": 120,
            "midi": 60,
            "name": "C4",
            "ticks": 504720,
            "time": 262.875,
            "velocity": 0.5905511811023622
          },
          {
            "duration": 0.0625,
            "durationTicks": 120,
            "midi": 60,
            "name": "C4",
            "ticks": 504960,
            "time": 263,
            "velocity": 0.7874015748031497
          },
          {
            "duration": 0.0625,
            "durationTicks": 120,
            "midi": 60,
            "name": "C4",
            "ticks": 505200,
            "time": 263.125,
            "velocity": 0.7874015748031497
          },
          {
            "duration": 0.0625,
            "durationTicks": 120,
            "midi": 60,
            "name": "C4",
            "ticks": 505440,
            "time": 263.25,
            "velocity": 0.7874015748031497
          },
          {
            "duration": 0.0625,
            "durationTicks": 120,
            "midi": 60,
            "name": "C4",
            "ticks": 505680,
            "time": 263.375,
            "velocity": 0.7874015748031497
          },
          {
            "duration": 0.0625,
            "durationTicks": 120,
            "midi": 72,
            "name": "C5",
            "ticks": 505920,
            "time": 263.5,
            "velocity": 0.7874015748031497
          },
          {
            "duration": 0.0625,
            "durationTicks": 120,
            "midi": 60,
            "name": "C4",
            "ticks": 506400,
            "time": 263.75,
            "velocity": 0.5905511811023622
          },
          {
            "duration": 0.0625,
            "durationTicks": 120,
            "midi": 60,
            "name": "C4",
            "ticks": 506640,
            "time": 263.875,
            "velocity": 0.6299212598425197
          },
          {
            "duration": 0.0625,
            "durationTicks": 120,
            "midi": 60,
            "name": "C4",
            "ticks": 506880,
            "time": 264,
            "velocity": 0.7874015748031497
          },
          {
            "duration": 0.0625,
            "durationTicks": 120,
            "midi": 60,
            "name": "C4",
            "ticks": 507360,
            "time": 264.25,
            "velocity": 0.7874015748031497
          },
          {
            "duration": 0.0625,
            "durationTicks": 120,
            "midi": 60,
            "name": "C4",
            "ticks": 508080,
            "time": 264.625,
            "velocity": 0.6299212598425197
          },
          {
            "duration": 0.0625,
            "durationTicks": 120,
            "midi": 60,
            "name": "C4",
            "ticks": 508320,
            "time": 264.75,
            "velocity": 0.7874015748031497
          },
          {
            "duration": 0.0625,
            "durationTicks": 120,
            "midi": 60,
            "name": "C4",
            "ticks": 508560,
            "time": 264.875,
            "velocity": 0.5905511811023622
          },
          {
            "duration": 0.0625,
            "durationTicks": 120,
            "midi": 60,
            "name": "C4",
            "ticks": 508800,
            "time": 265,
            "velocity": 0.7874015748031497
          },
          {
            "duration": 0.0625,
            "durationTicks": 120,
            "midi": 60,
            "name": "C4",
            "ticks": 509040,
            "time": 265.125,
            "velocity": 0.7874015748031497
          },
          {
            "duration": 0.0625,
            "durationTicks": 120,
            "midi": 60,
            "name": "C4",
            "ticks": 509520,
            "time": 265.375,
            "velocity": 0.7874015748031497
          },
          {
            "duration": 0.0625,
            "durationTicks": 120,
            "midi": 60,
            "name": "C4",
            "ticks": 509760,
            "time": 265.5,
            "velocity": 0.7874015748031497
          },
          {
            "duration": 0.0625,
            "durationTicks": 120,
            "midi": 60,
            "name": "C4",
            "ticks": 510240,
            "time": 265.75,
            "velocity": 0.6299212598425197
          },
          {
            "duration": 0.0625,
            "durationTicks": 120,
            "midi": 60,
            "name": "C4",
            "ticks": 510480,
            "time": 265.875,
            "velocity": 0.47244094488188976
          },
          {
            "duration": 0.0625,
            "durationTicks": 120,
            "midi": 60,
            "name": "C4",
            "ticks": 510720,
            "time": 266,
            "velocity": 0.7874015748031497
          },
          {
            "duration": 0.0625,
            "durationTicks": 120,
            "midi": 60,
            "name": "C4",
            "ticks": 511200,
            "time": 266.25,
            "velocity": 0.7874015748031497
          },
          {
            "duration": 0.0625,
            "durationTicks": 120,
            "midi": 60,
            "name": "C4",
            "ticks": 511920,
            "time": 266.625,
            "velocity": 0.6299212598425197
          },
          {
            "duration": 0.0625,
            "durationTicks": 120,
            "midi": 60,
            "name": "C4",
            "ticks": 512160,
            "time": 266.75,
            "velocity": 0.7874015748031497
          },
          {
            "duration": 0.0625,
            "durationTicks": 120,
            "midi": 60,
            "name": "C4",
            "ticks": 512400,
            "time": 266.875,
            "velocity": 0.5905511811023622
          },
          {
            "duration": 0.0625,
            "durationTicks": 120,
            "midi": 60,
            "name": "C4",
            "ticks": 512640,
            "time": 267,
            "velocity": 0.7874015748031497
          },
          {
            "duration": 0.0625,
            "durationTicks": 120,
            "midi": 60,
            "name": "C4",
            "ticks": 512880,
            "time": 267.125,
            "velocity": 0.7874015748031497
          },
          {
            "duration": 0.0625,
            "durationTicks": 120,
            "midi": 60,
            "name": "C4",
            "ticks": 513360,
            "time": 267.375,
            "velocity": 0.7874015748031497
          },
          {
            "duration": 0.0625,
            "durationTicks": 120,
            "midi": 60,
            "name": "C4",
            "ticks": 513600,
            "time": 267.5,
            "velocity": 0.7874015748031497
          },
          {
            "duration": 0.0625,
            "durationTicks": 120,
            "midi": 60,
            "name": "C4",
            "ticks": 514080,
            "time": 267.75,
            "velocity": 0.6299212598425197
          },
          {
            "duration": 0.0625,
            "durationTicks": 120,
            "midi": 60,
            "name": "C4",
            "ticks": 514320,
            "time": 267.875,
            "velocity": 0.47244094488188976
          },
          {
            "duration": 0.0625,
            "durationTicks": 120,
            "midi": 60,
            "name": "C4",
            "ticks": 514560,
            "time": 268,
            "velocity": 0.7874015748031497
          },
          {
            "duration": 0.0625,
            "durationTicks": 120,
            "midi": 60,
            "name": "C4",
            "ticks": 515040,
            "time": 268.25,
            "velocity": 0.7874015748031497
          },
          {
            "duration": 0.0625,
            "durationTicks": 120,
            "midi": 60,
            "name": "C4",
            "ticks": 515760,
            "time": 268.625,
            "velocity": 0.6299212598425197
          },
          {
            "duration": 0.0625,
            "durationTicks": 120,
            "midi": 60,
            "name": "C4",
            "ticks": 516000,
            "time": 268.75,
            "velocity": 0.7874015748031497
          },
          {
            "duration": 0.0625,
            "durationTicks": 120,
            "midi": 60,
            "name": "C4",
            "ticks": 516240,
            "time": 268.875,
            "velocity": 0.5905511811023622
          },
          {
            "duration": 0.0625,
            "durationTicks": 120,
            "midi": 60,
            "name": "C4",
            "ticks": 516480,
            "time": 269,
            "velocity": 0.7874015748031497
          },
          {
            "duration": 0.0625,
            "durationTicks": 120,
            "midi": 60,
            "name": "C4",
            "ticks": 516720,
            "time": 269.125,
            "velocity": 0.7874015748031497
          },
          {
            "duration": 0.0625,
            "durationTicks": 120,
            "midi": 60,
            "name": "C4",
            "ticks": 517200,
            "time": 269.375,
            "velocity": 0.7874015748031497
          },
          {
            "duration": 0.0625,
            "durationTicks": 120,
            "midi": 60,
            "name": "C4",
            "ticks": 517440,
            "time": 269.5,
            "velocity": 0.7874015748031497
          },
          {
            "duration": 0.0625,
            "durationTicks": 120,
            "midi": 60,
            "name": "C4",
            "ticks": 517920,
            "time": 269.75,
            "velocity": 0.6299212598425197
          },
          {
            "duration": 0.0625,
            "durationTicks": 120,
            "midi": 60,
            "name": "C4",
            "ticks": 518160,
            "time": 269.875,
            "velocity": 0.47244094488188976
          },
          {
            "duration": 0.0625,
            "durationTicks": 120,
            "midi": 60,
            "name": "C4",
            "ticks": 518400,
            "time": 270,
            "velocity": 0.7874015748031497
          },
          {
            "duration": 0.0625,
            "durationTicks": 120,
            "midi": 60,
            "name": "C4",
            "ticks": 518880,
            "time": 270.25,
            "velocity": 0.7874015748031497
          },
          {
            "duration": 0.0625,
            "durationTicks": 120,
            "midi": 60,
            "name": "C4",
            "ticks": 519600,
            "time": 270.625,
            "velocity": 0.6299212598425197
          },
          {
            "duration": 0.0625,
            "durationTicks": 120,
            "midi": 60,
            "name": "C4",
            "ticks": 519840,
            "time": 270.75,
            "velocity": 0.7874015748031497
          },
          {
            "duration": 0.0625,
            "durationTicks": 120,
            "midi": 60,
            "name": "C4",
            "ticks": 520080,
            "time": 270.875,
            "velocity": 0.5905511811023622
          },
          {
            "duration": 0.0625,
            "durationTicks": 120,
            "midi": 60,
            "name": "C4",
            "ticks": 520320,
            "time": 271,
            "velocity": 0.7874015748031497
          },
          {
            "duration": 0.0625,
            "durationTicks": 120,
            "midi": 60,
            "name": "C4",
            "ticks": 520560,
            "time": 271.125,
            "velocity": 0.7874015748031497
          },
          {
            "duration": 0.0625,
            "durationTicks": 120,
            "midi": 60,
            "name": "C4",
            "ticks": 520800,
            "time": 271.25,
            "velocity": 0.7874015748031497
          },
          {
            "duration": 0.0625,
            "durationTicks": 120,
            "midi": 60,
            "name": "C4",
            "ticks": 521040,
            "time": 271.375,
            "velocity": 0.7874015748031497
          },
          {
            "duration": 0.0625,
            "durationTicks": 120,
            "midi": 72,
            "name": "C5",
            "ticks": 521280,
            "time": 271.5,
            "velocity": 0.7874015748031497
          },
          {
            "duration": 0.0625,
            "durationTicks": 120,
            "midi": 60,
            "name": "C4",
            "ticks": 521760,
            "time": 271.75,
            "velocity": 0.5905511811023622
          },
          {
            "duration": 0.0625,
            "durationTicks": 120,
            "midi": 60,
            "name": "C4",
            "ticks": 522000,
            "time": 271.875,
            "velocity": 0.6299212598425197
          }
        ],
        "endOfTrackTicks": 522120
      },
      {
        "channel": 0,
        "controlChanges": {
          "98": [
            {
              "number": 98,
              "ticks": 0,
              "time": 0,
              "value": 1
            }
          ],
          "99": [
            {
              "number": 99,
              "ticks": 0,
              "time": 0,
              "value": 1
            }
          ]
        },
        "pitchBends": [],
        "instrument": {
          "family": "piano",
          "number": 0,
          "name": "acoustic grand piano"
        },
        "name": "",
        "notes": [],
        "endOfTrackTicks": 0
      },
      {
        "channel": 0,
        "controlChanges": {
          "98": [
            {
              "number": 98,
              "ticks": 0,
              "time": 0,
              "value": 1
            }
          ],
          "99": [
            {
              "number": 99,
              "ticks": 0,
              "time": 0,
              "value": 1
            }
          ]
        },
        "pitchBends": [],
        "instrument": {
          "family": "piano",
          "number": 0,
          "name": "acoustic grand piano"
        },
        "name": "",
        "notes": [],
        "endOfTrackTicks": 0
      },
      {
        "channel": 0,
        "controlChanges": {
          "98": [
            {
              "number": 98,
              "ticks": 0,
              "time": 0,
              "value": 1
            }
          ],
          "99": [
            {
              "number": 99,
              "ticks": 0,
              "time": 0,
              "value": 1
            }
          ]
        },
        "pitchBends": [],
        "instrument": {
          "family": "piano",
          "number": 0,
          "name": "acoustic grand piano"
        },
        "name": "",
        "notes": [],
        "endOfTrackTicks": 0
      },
      {
        "channel": 0,
        "controlChanges": {
          "98": [
            {
              "number": 98,
              "ticks": 0,
              "time": 0,
              "value": 1
            }
          ],
          "99": [
            {
              "number": 99,
              "ticks": 0,
              "time": 0,
              "value": 1
            }
          ]
        },
        "pitchBends": [],
        "instrument": {
          "family": "piano",
          "number": 0,
          "name": "acoustic grand piano"
        },
        "name": "",
        "notes": [],
        "endOfTrackTicks": 0
      },
      {
        "channel": 0,
        "controlChanges": {
          "98": [
            {
              "number": 98,
              "ticks": 0,
              "time": 0,
              "value": 1
            }
          ],
          "99": [
            {
              "number": 99,
              "ticks": 0,
              "time": 0,
              "value": 1
            }
          ]
        },
        "pitchBends": [],
        "instrument": {
          "family": "piano",
          "number": 0,
          "name": "acoustic grand piano"
        },
        "name": "Sound 15 - MIDI\u0000",
        "notes": [],
        "endOfTrackTicks": 0
      },
      {
        "channel": 0,
        "controlChanges": {
          "98": [
            {
              "number": 98,
              "ticks": 0,
              "time": 0,
              "value": 1
            }
          ],
          "99": [
            {
              "number": 99,
              "ticks": 0,
              "time": 0,
              "value": 1
            }
          ]
        },
        "pitchBends": [],
        "instrument": {
          "family": "piano",
          "number": 0,
          "name": "acoustic grand piano"
        },
        "name": "Sound 16 - MIDI\u0000",
        "notes": [],
        "endOfTrackTicks": 0
      }
    ]
  }