<!-- Generated by IcoMoon.io -->
<svg version="1.1" xmlns="http://www.w3.org/2000/svg" width="878" height="1024" viewBox="0 0 878 1024">
<title></title>
<g id="icomoon-ignore">
</g>
<path d="M556.010 408.218c-19.209-9.952-45.261-14.818-78.411-14.818h-81.631v242.001h76.691c21.625 0 36.114-0.512 43.797-1.756 7.574-1.208 16.026-3.696 25.173-7.282 15.587-5.818 29.271-14.489 41.126-26.162 11.489-11.196 20.453-24.259 26.674-39.114 6.22-14.745 9.477-30.223 9.477-46.432 0-22.685-5.781-43.614-17.16-62.714-11.307-19.319-26.527-33.809-45.736-43.724zM557.218 578.541c-5.306 5.379-11.196 9.806-17.636 13.429-6.403 3.696-14.416 6.659-24.003 9.037s-23.051 3.549-40.395 3.549h-44.42v-180.275h43.358c16.758 0 28.686 0.658 36.187 1.903 7.538 1.244 15.514 3.915 24.003 7.83 8.306 3.952 15.734 8.927 22.21 15.038 17.6 16.502 26.308 37.723 26.308 63.738 0 26.527-8.525 48.298-25.613 65.751zM307.204 635.766h34.65v-242.367h-34.65v242.367zM829.845 115.759c-32.199-32.235-70.984-48.298-116.354-48.298h-548.839c-45.371 0-84.119 16.063-116.354 48.298-32.235 32.162-48.298 70.984-48.298 116.354v548.839c0 45.371 16.063 84.192 48.298 116.427 32.235 32.089 71.057 48.225 116.354 48.225h548.839c45.371 0 84.155-16.136 116.354-48.298 32.235-32.235 48.335-70.947 48.335-116.354v-548.839c0-45.371-16.099-84.192-48.335-116.354zM439.071 799.247c-161.652 0-292.714-131.099-292.714-292.714s131.063-292.714 292.714-292.714 292.714 131.099 292.714 292.714-131.063 292.714-292.714 292.714zM324.4 320.476c-13.062 0-23.71 10.684-23.71 23.747 0 13.245 10.647 23.783 23.71 23.783 13.245 0 24.003-10.538 24.003-23.783 0-13.062-10.72-23.747-24.003-23.747z"></path>
</svg>
