<!-- Generated by IcoMoon.io -->
<svg version="1.1" xmlns="http://www.w3.org/2000/svg" width="878" height="1024" viewBox="0 0 878 1024">
<title></title>
<g id="icomoon-ignore">
</g>
<path d="M829.834 115.77c-32.232-32.228-70.965-48.309-116.343-48.309h-548.839c-45.378 0-84.111 16.081-116.343 48.309-32.228 32.159-48.309 70.965-48.309 116.343v548.839c0 45.378 16.081 84.185 48.309 116.413 32.232 32.089 71.035 48.24 116.343 48.24h548.839c45.378 0 84.111-16.151 116.343-48.309 32.228-32.232 48.309-70.965 48.309-116.343v-548.839c0-45.378-16.081-84.185-48.309-116.343zM578.96 792.958c-8.646 3.93-22.795 6.29-36.158 6.29-45.594 0-81.755-18.079-105.336-46.418-25.942-29.835-71.572-94.294-119.522-180.016-25.155 0-41.664 0-60.53-1.57v131.312c0 48.744 11.002 58.964 32.228 62.103l40.878 5.503v22.795c-19.653-0.786-65.246-2.323-100.657-2.323-36.944 0-73.892 1.537-95.117 2.323v-22.795l29.872-5.503c20.475-3.93 32.232-13.363 32.232-62.103v-309.794c0-48.737-11.756-58.133-32.232-62.099l-29.872-5.503v-22.799c19.653 0.786 51.097 0.786 82.578 0.786 34.551 0 71.532-2.356 117.913-2.356 89.651 0 158.040 40.874 158.040 128.919 0 59.743-47.164 119.522-110.84 134.459 38.521 68.389 84.901 128.955 119.489 166.689 20.442 21.972 48.737 41.66 77.035 41.66v20.439zM743.399 292.105c0 11.899-0.037 22.941-1.215 33.124-1.146 10.183-2.751 19.081-4.826 25.55-6.465 20.15-16.615 34.515-32.265 45.235-15.613 10.753-35.802 16.579-57.741 16.579-22.477 0-41.485-5.182-56.959-15.47-15.507-10.362-26.582-25.73-33.336-46.132-1.285-3.857-2.323-7.896-3.074-12.042-0.786-4.109-1.5-8.931-2.148-14.508-0.64-5.536-1.105-12.184-1.354-19.938-0.249-7.717-0.355-17.080-0.355-27.907s0.106-20.117 0.355-27.87c0.252-7.753 0.717-14.402 1.354-19.974 0.644-5.54 1.358-10.399 2.148-14.508 0.746-4.146 1.789-8.145 3.074-12.005 6.754-20.402 17.83-35.766 33.336-46.096 15.474-10.325 34.482-15.507 56.959-15.507 11.614 0 22.082 1.358 31.371 4.039 9.29 2.748 17.545 6.465 24.796 11.254 7.22 4.786 13.436 10.325 18.584 16.685 5.182 6.326 9.433 13.077 12.791 20.296 1.285 2.36 0.892 4.182-1.182 5.467l-28.62 11.83c-2.323 1.285-4.109 0.607-5.43-1.932-6.432-11.899-11.899-19.759-20.94-25.404-9.041-5.719-17.439-8.324-31.371-8.324-15.009 0-21.797 2.927-31.229 9.682-9.433 6.718-16.224 15.042-20.333 27.691-0.786 2.323-1.574 5.149-2.356 8.54-0.753 3.326-1.325 7.505-1.716 12.363-0.395 4.895-0.717 10.9-1.002 18.009-0.212 7.112-0.351 15.723-0.351 25.763 0 10.080 0.139 18.69 0.351 25.8 0.285 7.076 0.607 13.077 1.002 17.973 0.391 4.932 0.962 9.074 1.716 12.437 0.783 3.323 1.57 6.14 2.356 8.503 4.109 12.685 9.898 19.546 18.368 25.118 8.43 5.609 18.185 9.718 33.194 9.718 13.399 0 25.69-3.824 33.658-9.642 7.969-5.825 14.508-13.473 17.508-24.050 1.288-4.394 2.967-9.934 4.039-16.652 0.998-6.714 0.998-13.897 0.998-23.688 0-1.537-0.786-2.36-2.323-2.36h-45.769c-2.572 0-3.86-1.248-3.86-3.857v-26.231c0-2.609 1.288-3.86 3.86-3.86h84.075c2.609 0 3.86 1.252 3.86 3.86v22.437zM426.422 433.676c0-62.923-39.304-97.511-105.336-97.511-21.225 0-45.594 0-63.673 1.566v197.311c18.079 1.643 29.872 2.36 56.597 2.36 69.962 0.004 112.413-41.624 112.413-103.727z"></path>
</svg>
